<svg width="81" height="89" viewBox="0 0 81 89" fill="none" xmlns="http://www.w3.org/2000/svg">
<path d="M75.8189 72.4678C74.137 72.4678 74.1359 69.9223 75.8189 69.9223C77.5002 69.9223 77.502 72.4678 75.8189 72.4678ZM33.2636 16.9588C31.5816 16.9588 31.5794 14.4134 33.2636 14.4134C34.9449 14.4134 34.9466 16.9588 33.2636 16.9588ZM30.7526 18.2174C27.3713 20.4096 24.3715 23.1052 21.8249 26.2375L23.3657 28.8066C23.6868 29.3411 23.5135 30.0342 22.9792 30.3548C22.4451 30.6754 21.7521 30.5044 21.4303 29.9676C19.4568 26.6783 18.947 26.242 19.5644 25.4525C22.3656 21.8629 25.7164 18.7919 29.525 16.3234C30.7729 15.5122 32.0088 17.4036 30.7526 18.2174ZM2.14209 26.5919L14.0521 4.23174C14.7552 2.91601 16.7464 3.97498 16.0455 5.29327L4.13504 27.6536C3.43302 28.9698 1.44119 27.9103 2.14209 26.5919ZM74.6902 67.7669V35.032C74.6902 33.5403 76.9478 33.5385 76.9478 35.032V67.7669C76.9478 69.2586 74.6902 69.2602 74.6902 67.7669ZM78.0765 24.8729H72.4325V23.1796C72.4325 21.6235 73.6985 20.3576 75.2545 20.3576C76.8179 20.3576 78.0765 21.6416 78.0765 23.1796V24.8729ZM70.1749 80.1836C63.7177 80.1836 63.8707 80.1249 63.519 80.2767V74.4628C63.519 72.9711 61.2615 72.9695 61.2615 74.4628V84.4933L57.374 80.6063C56.9332 80.1649 56.2185 80.1649 55.7778 80.6063L52.2312 84.1524V74.4686C52.2312 72.9769 49.9736 72.9751 49.9736 74.4686V80.4178C49.4713 80.0345 50.8665 80.1836 23.9216 80.1836C23.9216 75.998 23.8991 43.4736 23.8991 39.2881C39.5779 25.0189 54.8567 20.983 55.6424 20.3576H71.0323C69.6547 22.4052 70.1749 19.9157 70.1749 80.1836ZM5.7397 78.8629V75.0888C7.89679 76.598 9.75247 77.6443 13.7016 77.6443C15.5742 77.6443 17.1088 77.2696 18.4076 76.8485C18.824 78.2996 18.9142 79.2434 19.9478 79.2434C20.691 79.2434 21.2334 78.5345 21.0365 77.816C20.8795 77.243 20.7062 76.6725 20.5415 76.1008C20.9309 75.967 21.3028 75.8507 21.6641 75.7665V80.1418H7.01911C6.31357 80.1418 5.7397 79.5685 5.7397 78.8629ZM9.70111 70.9906H16.5992C17.0094 72.216 17.4035 73.4464 17.7788 74.6807C16.5957 75.0708 15.309 75.3867 13.7016 75.3867C10.0747 75.3867 8.7468 74.4623 6.38988 72.7838C7.09814 71.7058 8.31723 70.9906 9.70111 70.9906ZM14.9687 66.4118C15.2565 67.1827 15.5376 67.956 15.8129 68.7331H11.2594V66.4118H14.9687ZM21.6641 68.7331H18.2031C17.9334 67.9571 17.6652 67.1815 17.3832 66.4118H21.6641V68.7331ZM7.13766 31.6208L22.7562 2.29687H56.8439L51.721 11.9154C47.9836 5.6862 48.0586 5.39212 47.1064 5.48747C34.0723 6.82448 21.9575 13.7068 14.1147 25.2815C13.5757 26.075 13.9347 26.2516 17.1557 31.6208H7.13766ZM23.031 37.0243L16.3892 25.9547C23.4351 15.8431 34.394 9.27003 46.6267 7.81224L53.2686 18.8823C42.5586 22.8149 32.2155 28.8236 23.031 37.0243ZM18.9725 70.9906H21.6641V73.4661C21.0704 73.5661 20.4919 73.7331 19.9087 73.9307C19.6091 72.9481 19.2942 71.9682 18.9725 70.9906ZM75.2545 18.1H55.4319L53.0721 14.1678C53.1612 14.0205 59.6394 1.8505 59.7206 1.69867C60.1196 0.949139 59.5762 0.0393169 58.7239 0.0393169C19.3844 0.0393169 21.5444 -0.229294 21.0822 0.637672C3.00233 34.581 3.81282 32.5362 4.28974 33.3302C4.74458 34.09 4.36413 33.8783 18.1924 33.8783C18.2946 33.8783 18.3911 33.8607 18.4848 33.8354L21.6415 39.0961C21.6415 51.1031 21.6641 63.1547 21.6641 64.4025H17.8601C20.5386 51.8684 13.7534 39.8304 2.4171 35.3497C1.79108 35.1036 1.09466 35.454 0.915793 36.0941C0.333283 38.1632 -0.507604 42.3973 0.399837 47.5038C0.553904 48.3708 0.94107 48.3054 5.37397 49.7998C6.78377 50.2774 7.51298 48.1388 6.09471 47.6608L2.51517 46.4536C1.99314 42.9447 2.35375 39.9416 2.77819 37.965C12.1139 42.351 17.4977 52.0908 15.9038 62.5597C14.0843 58.0141 12.0168 53.5169 9.73951 49.1864C9.44881 48.6356 8.76712 48.4222 8.215 48.7129C6.49419 49.6176 8.56106 50.462 13.5757 62.8334C8.65353 59.8908 5.19494 55.5003 3.49109 50.489C3.29015 49.8987 2.64844 49.581 2.05857 49.7835C1.46886 49.9838 1.15273 50.625 1.35319 51.2154C3.15016 56.5077 6.72905 61.1697 11.8245 64.4025C8.81271 64.4025 9.25011 64.126 9.25011 68.7556C6.03135 68.9887 3.48197 71.6754 3.48197 74.9522V78.8629C3.48197 80.8128 5.06855 82.3994 7.01911 82.3994C52.1363 82.3994 49.4724 82.589 49.9736 82.2069C49.9736 86.6334 49.6332 88.0066 51.1023 88.0066C51.7425 88.0066 51.5357 88.0405 56.576 83.0005C61.9681 88.3922 61.3128 88.0066 62.3903 88.0066C63.0133 88.0066 63.519 87.5009 63.519 86.8779V82.3481C63.8707 82.5004 63.6139 82.4412 71.3038 82.4412C71.9269 82.4412 72.4325 81.9355 72.4325 81.3123V27.1304C81.3332 27.1304 80.3341 28.0492 80.3341 23.1796C80.3341 20.4728 78.1392 18.1 75.2545 18.1ZM40.8264 71.1532H30.6673C29.1756 71.1532 29.1734 68.8956 30.6673 68.8956H40.8264C42.3181 68.8956 42.3197 71.1532 40.8264 71.1532ZM44.2129 64.3805H30.6673C29.1756 64.3805 29.1734 62.1229 30.6673 62.1229H44.2129C45.7044 62.1229 45.7062 64.3805 44.2129 64.3805ZM30.6673 55.3502H39.6976C41.1893 55.3502 41.191 57.6078 39.6976 57.6078H30.6673C29.1756 57.6078 29.1734 55.3502 30.6673 55.3502ZM30.6673 48.5774H46.4704C47.9621 48.5774 47.9637 50.8349 46.4704 50.8349H30.6673C29.1756 50.8349 29.1734 48.5774 30.6673 48.5774ZM30.6673 41.8047H63.4022C64.0254 41.8047 64.5311 42.3104 64.5311 42.9334C64.5311 43.5565 64.0254 44.0622 63.4022 44.0622H30.6673C29.1756 44.0622 29.1734 41.8047 30.6673 41.8047ZM38.5689 35.032H63.4022C64.894 35.032 64.8957 37.2895 63.4022 37.2895H38.5689C37.0772 37.2895 37.0749 35.032 38.5689 35.032ZM47.5991 28.2591H63.4022C64.894 28.2591 64.8957 30.5167 63.4022 30.5167H47.5991C46.1074 30.5167 46.1052 28.2591 47.5991 28.2591ZM16.9203 0.107155C18.6016 0.107155 18.6034 2.65253 16.9203 2.65253C15.2379 2.65253 15.2362 0.107155 16.9203 0.107155ZM64.8781 65.3095C63.6032 65.805 62.7362 67.0049 62.6701 68.3617C62.6364 68.9927 62.1012 69.5058 61.4776 69.5058C60.9133 69.5058 59.0716 68.7715 57.5631 70.6307C57.1069 71.1956 56.152 71.1949 55.696 70.6307C54.8697 69.6079 53.5106 69.0983 52.1008 69.4601C51.3575 69.6632 50.6283 69.1158 50.5893 68.3669C50.5227 67.0049 49.6553 65.805 48.3746 65.3078C47.6574 65.0329 47.379 64.1699 47.795 63.5289C48.5422 62.3792 48.5411 60.8982 47.7967 59.7604C47.3785 59.1147 47.6585 58.2477 48.3741 57.974C49.6524 57.4864 50.5222 56.2876 50.5888 54.9251C50.6227 54.2841 51.1492 53.7817 51.7869 53.7817C52.3514 53.7817 54.1958 54.5036 55.6976 52.6551C56.1538 52.0875 57.1002 52.0812 57.5664 52.6608C58.4779 53.7772 59.9216 54.1644 61.1548 53.8224C61.8931 53.6237 62.6302 54.1582 62.6697 54.9206C62.7369 56.2876 63.6065 57.4864 64.8844 57.974C65.6006 58.2477 65.88 59.1147 65.4633 59.7593C64.7178 60.9016 64.7178 62.3808 65.4622 63.5266C65.8777 64.1666 65.608 65.0307 64.8781 65.3095ZM67.7436 58.0226C67.4179 57.0259 66.6695 56.2396 65.6897 55.8649C64.3137 55.34 65.5649 53.683 63.5005 52.1839C61.4325 50.6831 60.2648 52.3972 59.3205 51.2397C58.6618 50.4207 57.6803 49.9505 56.6296 49.9505C54.0728 49.9505 54.1242 52.0321 52.6985 51.6443C50.6158 51.0664 48.4531 52.5671 48.3339 54.8101C48.3109 55.2824 48.0106 55.6968 47.5687 55.8654C45.5121 56.6511 44.701 59.1333 45.9042 60.9925C46.7109 62.225 44.7219 62.8323 45.5148 65.2604C46.3106 67.6941 48.2618 66.9846 48.3346 68.4825C48.4514 70.6859 50.5774 72.2132 52.6776 71.6431C54.176 71.2583 54.0451 73.3323 56.6296 73.3323C59.1828 73.3323 59.1383 71.2588 60.5606 71.6375C62.6889 72.2278 64.806 70.687 64.925 68.4774C64.9475 68.0045 65.2506 67.5874 65.6904 67.4164C67.747 66.6307 68.5575 64.153 67.3569 62.2984C66.5465 61.0523 68.5394 60.4586 67.7436 58.0226ZM56.6296 65.9653C54.2461 65.9653 52.3078 64.0266 52.3078 61.6438C52.3078 59.2609 54.2461 57.3222 56.6296 57.3222C59.0129 57.3222 60.9511 59.2609 60.9511 61.6438C60.9511 64.0266 59.0129 65.9653 56.6296 65.9653ZM56.6296 55.0646C53.0015 55.0646 50.0503 58.0157 50.0503 61.6438C50.0503 65.2716 53.0015 68.2229 56.6296 68.2229C60.2574 68.2229 63.2087 65.2716 63.2087 61.6438C63.2087 58.0157 60.2574 55.0646 56.6296 55.0646Z" fill="#454645"/>
</svg>
