<svg width="36" height="35" viewBox="0 0 36 35" fill="none" xmlns="http://www.w3.org/2000/svg">
<path d="M27.047 33.5201C26.2818 34.0553 25.4685 32.9005 26.2349 32.365C27.0003 31.8296 27.8131 32.9846 27.047 33.5201ZM22.0808 21.3105C23.1394 21.3768 23.4268 22.4076 23.815 23.3814C23.941 23.6968 24.143 24.0625 24.3995 24.4393C24.8888 25.158 26.0253 24.8109 26.0253 23.9373V12.3135C26.0253 11.7852 26.4559 11.3557 26.9851 11.3557C27.5147 11.3557 27.9452 11.7852 27.9452 12.3132C27.9452 13.6991 27.9452 17.7576 27.9452 19.2887C27.9452 19.9131 28.8925 19.914 28.8925 19.2887C28.8925 18.7358 28.8925 18.2735 28.8925 17.7195C28.8925 16.7833 30.3135 16.7828 30.3135 17.7195C30.3135 17.9399 30.3135 19.5554 30.3135 19.7758C30.3135 20.4 31.2608 20.4009 31.2608 19.7758C31.2608 19.1923 31.2608 18.8294 31.2608 18.2069C31.2608 17.2704 32.6817 17.2699 32.6817 18.2069C32.6817 19.3638 32.6817 19.3697 32.6817 20.0844C32.6817 20.7088 33.629 20.7097 33.629 20.0844C33.629 19.0794 33.629 19.2757 33.629 19.1278C33.629 18.1967 35.0417 18.1967 35.0417 19.1278L35.0422 25.8969C35.1835 28.5039 34.4406 30.5059 34.4004 30.7421H26.2041C22.9954 25.9546 23.4008 26.8162 22.0808 21.3105ZM35.5236 30.7421H35.3898C36.1318 28.3736 35.989 26.935 35.989 19.1278C35.989 17.8754 34.6374 17.0807 33.5416 17.6812C33.1885 16.6345 31.9236 16.2156 31.0154 16.8581C30.5775 16.1468 29.6727 15.8565 28.8925 16.2278V12.3132C28.8925 11.2641 28.0369 10.4108 26.9851 10.4108C25.9337 10.4108 25.078 11.2643 25.078 12.3135V23.749C24.7571 23.2488 24.7327 23.126 24.2271 21.8574C24.1992 21.7877 23.9957 21.4881 23.9509 21.4198C23.0134 19.9919 20.826 20.1356 21.0354 21.0121C22.5296 27.2455 22.2582 26.5535 25.0645 30.7421C23.9858 30.7421 24.156 30.7913 24.156 32.6869C24.156 33.3113 25.1034 33.3121 25.1034 32.6869V31.6871H35.0499V34.5275C35.0499 34.7884 35.2621 35 35.5236 35C35.7853 35 35.9972 34.7884 35.9972 34.5275V31.2147C35.9972 30.9536 35.7853 30.7421 35.5236 30.7421ZM34.9896 1.31286C35.6953 1.31286 35.6963 2.37832 34.9896 2.37832C34.284 2.37832 34.2834 1.31286 34.9896 1.31286ZM8.46531 28.0135C7.75976 28.0135 7.75882 26.948 8.46531 26.948C9.17099 26.948 9.17173 28.0135 8.46531 28.0135ZM26.998 0.0159017C32.5463 0.0159017 32.9645 -0.146696 34.0406 0.567982C34.5595 0.912933 34.0389 1.70174 33.5158 1.35465C32.7385 0.838465 32.6286 0.960882 26.998 0.960882C26.3722 0.960882 26.3713 0.0159017 26.998 0.0159017ZM6.63109 27.893H3.31555C1.4873 27.893 0 26.4094 0 24.5855V19.8606C0 19.2362 0.947291 19.2355 0.947291 19.8606V24.5855C0.947291 25.8882 2.00971 26.948 3.31555 26.948H6.63109C7.25702 26.948 7.25769 27.893 6.63109 27.893ZM23.2047 17.4981H21.6251C20.9992 17.4981 20.9982 16.5532 21.6251 16.5532H23.2047C23.8304 16.5532 23.8314 17.4981 23.2047 17.4981ZM30.3116 6.15831H28.7279C28.102 6.15831 28.1011 5.21333 28.7279 5.21333H30.3116C30.9375 5.21333 30.9384 6.15831 30.3116 6.15831ZM21.6251 5.21333H27.307C27.9327 5.21333 27.9336 6.15831 27.307 6.15831H21.6251C20.9992 6.15831 20.9982 5.21333 21.6251 5.21333ZM23.3006 14.6632H21.6251C20.9992 14.6632 20.9982 13.7182 21.6251 13.7182H23.3006C23.9264 13.7182 23.9273 14.6632 23.3006 14.6632ZM30.3116 8.99325H21.6251C20.9992 8.99325 20.9982 8.04827 21.6251 8.04827H30.3116C30.9375 8.04827 30.9384 8.99325 30.3116 8.99325ZM23.4319 11.8282H21.6251C20.9992 11.8282 20.9982 10.8832 21.6251 10.8832H23.4319C24.0575 10.8832 24.0585 11.8282 23.4319 11.8282ZM7.10664 8.52079C7.10664 8.25995 7.31858 8.04827 7.58025 8.04827H11.8412C12.4671 8.04827 12.4679 8.99325 11.8412 8.99325H7.58025C7.31858 8.99325 7.10664 8.78156 7.10664 8.52079ZM16.267 8.99325H13.2622C12.6364 8.99325 12.6355 8.04827 13.2622 8.04827H16.267C16.8927 8.04827 16.8936 8.99325 16.267 8.99325ZM16.267 20.3331H14.6831C14.0574 20.3331 14.0565 19.3881 14.6831 19.3881H16.267C16.8927 19.3881 16.8936 20.3331 16.267 20.3331ZM7.58025 19.3881H13.2622C13.5239 19.3881 13.7358 19.5998 13.7358 19.8606C13.7358 20.1215 13.5239 20.3331 13.2622 20.3331H7.58025C6.95432 20.3331 6.95365 19.3881 7.58025 19.3881ZM7.10664 11.3557C7.10664 11.0949 7.31858 10.8832 7.58025 10.8832H15.1087C15.7346 10.8832 15.7353 11.8282 15.1087 11.8282H7.58025C7.31858 11.8282 7.10664 11.6166 7.10664 11.3557ZM7.58025 5.21333H16.267C16.8927 5.21333 16.8936 6.15831 16.267 6.15831H7.58025C6.95432 6.15831 6.95365 5.21333 7.58025 5.21333ZM7.10664 17.0257C7.10664 16.7648 7.31858 16.5532 7.58025 16.5532H16.267C16.8927 16.5532 16.8936 17.4981 16.267 17.4981H7.58025C7.31858 17.4981 7.10664 17.2865 7.10664 17.0257ZM7.10664 14.1907C7.10664 13.9299 7.31858 13.7182 7.58025 13.7182H16.267C16.8927 13.7182 16.8936 14.6632 16.267 14.6632H7.58025C7.31858 14.6632 7.10664 14.4515 7.10664 14.1907ZM5.21012 3.3233C5.21012 3.06273 5.42259 2.85084 5.6838 2.85084H15.2761C16.4716 2.85084 17.5991 3.29142 18.4723 4.09611V23.7084C17.3254 23.0488 16.0081 22.6923 14.6812 22.6923H13.3713C13.3711 22.6923 5.68353 22.6951 5.6838 22.6951C5.55732 22.6951 5.43843 22.6459 5.34895 22.5569C5.13272 22.3414 5.21012 23.4546 5.21012 3.3233ZM20.675 25.9591L20.1916 26.2201C17.9977 27.391 17.3054 25.0581 13.2385 25.0581H3.31555C3.05434 25.0581 2.84187 24.8462 2.84187 24.5855V5.68578C2.84187 5.42521 3.05434 5.21333 3.31555 5.21333H4.26283C4.26283 23.6524 4.09326 22.641 4.67918 23.225C4.94771 23.4927 5.30437 23.6401 5.6838 23.6401C5.68641 23.6401 14.6452 23.6373 14.6812 23.6373C17.106 23.6373 18.4093 24.8825 18.7769 25.0236C19.1854 25.1807 19.2055 24.8421 20.2693 24.3219C20.8313 24.0469 20.4147 23.1978 19.852 23.4733C19.7011 23.5473 19.5586 23.6226 19.4196 23.703V4.09611C20.293 3.29142 21.4205 2.85084 22.616 2.85084H32.2081C32.4693 2.85084 32.6817 3.06273 32.6817 3.3233V15.3707C32.6817 15.9951 33.629 15.9961 33.629 15.3707V5.21333H34.5763C34.8375 5.21333 35.0499 5.42521 35.0499 5.68578V16.3942C35.0499 17.0186 35.9972 17.0195 35.9972 16.3942V5.68578C35.9972 4.90407 35.36 4.26835 34.5763 4.26835H33.629V3.3233C33.629 2.54159 32.9917 1.90586 32.2081 1.90586H22.616C21.2554 1.90586 19.9693 2.38234 18.9459 3.25412C17.9226 2.38234 16.6364 1.90586 15.2761 1.90586H5.6838C4.90038 1.90586 4.26283 2.54159 4.26283 3.3233V4.26835H3.31555C2.53213 4.26835 1.89458 4.90407 1.89458 5.68578V24.5855C1.89458 25.3673 2.53213 26.003 3.31555 26.003H13.2385C17.4203 26.003 17.5506 28.7206 21.1259 26.7902C21.3561 26.6662 21.4416 26.3794 21.317 26.1498C21.1922 25.9201 20.9052 25.8343 20.675 25.9591Z" fill="#3F4143"/>
</svg>
