<svg width="80" height="78" viewBox="0 0 80 78" fill="none" xmlns="http://www.w3.org/2000/svg">
<path d="M32.2867 48.4206V59.9515H40.586C42.1099 59.9515 42.1123 62.2578 40.586 62.2578H31.1337C30.4964 62.2578 29.9805 61.7412 29.9805 61.1046V47.2674C29.9805 46.631 30.4964 46.1144 31.1337 46.1144H44.042C45.5651 46.1144 45.5674 48.4206 44.042 48.4206H32.2867ZM62.2673 38.4204V29.971H50.7363V41.502C50.7363 43.0257 48.4301 43.0275 48.4301 41.502V28.8178C48.4301 28.1814 48.946 27.6648 49.5831 27.6648H63.4203C64.0569 27.6648 64.5735 28.1814 64.5735 28.8178V38.4204C64.5735 39.0574 64.0569 39.5734 63.4203 39.5734C62.7833 39.5734 62.2673 39.0574 62.2673 38.4204ZM70.8936 62.2503C68.1394 70.0885 57.6439 71.6723 52.7197 64.881C52.1477 66.7826 52.082 67.7326 51.0054 67.7326C50.2352 67.7326 49.6777 66.9883 49.9008 66.2468C51.9949 59.2884 50.6539 60.1321 57.4657 62.1821C58.9245 62.6216 58.262 64.8309 56.801 64.3904L54.7745 63.781C58.7243 68.8032 66.6283 67.4329 68.7176 61.4858C69.2244 60.0461 71.3987 60.8134 70.8936 62.2503ZM72.328 51.3442C70.9143 56.0414 70.9812 56.3089 70.4572 56.6693C70.0911 56.9211 69.7128 56.8768 69.8063 56.8768C69.5312 56.8768 65.0261 55.4885 64.7626 55.4089C63.3022 54.9689 63.9693 52.7613 65.4268 53.2008L67.4538 53.8113C63.5029 48.7884 55.5995 50.16 53.51 56.1054C53.0039 57.5449 50.8298 56.7776 51.3348 55.3409C54.0935 47.4889 64.5959 45.9351 69.5086 52.7101L70.1199 50.68C70.5598 49.2237 72.768 49.8826 72.328 51.3442ZM11.0784 9.24167C11.4387 9.19852 11.3135 9.21519 17.2964 9.21519C17.2964 12.3943 19.8829 14.9807 23.062 14.9807C26.241 14.9807 28.8273 12.3943 28.8273 9.21519H46.1239C46.1239 12.3943 48.7102 14.9807 51.8894 14.9807C55.0685 14.9807 57.6548 12.3943 57.6548 9.21519C58.0065 9.21519 64.6686 9.19902 65.018 9.24053C67.6148 9.56625 69.1859 11.8195 69.1859 14.185V19.5931H6.91854V14.185C6.91854 11.8218 8.4816 9.56461 11.0784 9.24167ZM42.0517 66.7548H11.5309C8.98774 66.7548 6.91854 64.5253 6.91854 61.785V21.8993H69.1859V40.2335C69.1859 41.7568 71.492 41.7591 71.492 40.2335V14.185C71.492 10.2133 68.4277 6.90901 64.5735 6.90901C54.7871 6.90901 55.3486 6.33586 55.3486 9.21519C55.3486 11.1229 53.7972 12.6745 51.8894 12.6745C49.9815 12.6745 48.4301 11.1229 48.4301 9.21519V8.06203C48.4301 7.42563 47.9135 6.90901 47.2769 6.90901H27.6743C27.0373 6.90901 26.5211 7.42563 26.5211 8.06203V9.21519C26.5211 11.1229 24.9697 12.6745 23.062 12.6745C21.1541 12.6745 19.6026 11.1229 19.6026 9.21519V8.06203C19.6026 7.42563 19.086 6.90901 18.4494 6.90901C11.0934 6.90901 11.1897 6.8559 10.164 7.04859C6.9473 7.72307 4.61236 10.7246 4.61236 14.185V61.785C4.61236 65.7972 7.71592 69.061 11.5309 69.061H42.0517C43.5755 69.061 43.5778 66.7548 42.0517 66.7548ZM50.7363 9.21519V1.14349C50.7363 -0.380345 53.0424 -0.38198 53.0424 1.14349V9.21519C53.0424 10.739 50.7363 10.7407 50.7363 9.21519ZM64.5735 2.29666C70.9316 2.29666 76.1044 7.63138 76.1044 14.1886V21.8993C76.1044 23.4231 73.7982 23.4249 73.7982 21.8993V14.1886C73.7982 8.90271 69.6598 4.60284 64.5735 4.60284C63.0497 4.60284 63.0474 2.29666 64.5735 2.29666ZM11.5309 73.6735C5.17277 73.6735 0 68.3386 0 61.7816V54.1861C0 52.6623 2.30618 52.6605 2.30618 54.1861V61.7816C2.30618 67.0673 6.44459 71.3671 11.5309 71.3671C13.0547 71.3671 13.0565 73.6735 11.5309 73.6735ZM21.9088 9.21519V1.14349C21.9088 -0.380345 24.215 -0.38198 24.215 1.14349V9.21519C24.215 9.85176 23.6984 10.3684 23.062 10.3684C22.4247 10.3684 21.9088 9.85176 21.9088 9.21519ZM0 50.7268C0 49.2029 2.30618 49.2011 2.30618 50.7268C2.30618 52.2506 0 52.2522 0 50.7268ZM76.1044 25.3586C76.1044 26.8824 73.7982 26.8841 73.7982 25.3586C73.7982 23.8348 76.1044 23.833 76.1044 25.3586ZM25.3681 59.9515H13.8371V48.4206H25.3681V59.9515ZM26.5211 46.1144H12.6841C12.0469 46.1144 11.5309 46.631 11.5309 47.2674V61.1046C11.5309 61.7412 12.0469 62.2578 12.6841 62.2578H26.5211C27.1577 62.2578 27.6743 61.7412 27.6743 61.1046V47.2674C27.6743 46.631 27.1577 46.1144 26.5211 46.1144ZM43.8177 41.502H32.2867V29.971H43.8177V41.502ZM46.1239 42.655V28.8178C46.1239 28.1814 45.6073 27.6648 44.9707 27.6648H31.1337C30.4964 27.6648 29.9805 28.1814 29.9805 28.8178V42.655C29.9805 43.2916 30.4964 43.8082 31.1337 43.8082H44.9707C45.6073 43.8082 46.1239 43.2916 46.1239 42.655ZM25.3681 41.502H13.8371V29.971H25.3681V41.502ZM27.6743 28.8178C27.6743 28.1814 27.1577 27.6648 26.5211 27.6648H12.6841C12.0469 27.6648 11.5309 28.1814 11.5309 28.8178V42.655C11.5309 43.2916 12.0469 43.8082 12.6841 43.8082H26.5211C27.1577 43.8082 27.6743 43.2916 27.6743 42.655V28.8178ZM61.1142 74.9419C52.2122 74.9419 44.9707 67.6997 44.9707 58.7985C44.9707 49.897 52.2122 42.655 61.1142 42.655C70.0154 42.655 77.2576 49.897 77.2576 58.7985C77.2576 67.6997 70.0154 74.9419 61.1142 74.9419ZM61.1142 40.3489C50.9409 40.3489 42.6646 48.6252 42.6646 58.7985C42.6646 68.9716 50.9409 77.248 61.1142 77.248C71.2868 77.248 79.5638 68.9716 79.5638 58.7985C79.5638 48.6252 71.2868 40.3489 61.1142 40.3489Z" fill="#454645"/>
</svg>
