<svg width="36" height="29" viewBox="0 0 36 29" fill="none" xmlns="http://www.w3.org/2000/svg">
<path d="M8.45755 28.4156C7.75112 28.4156 7.75047 27.3849 8.45755 27.3849C9.16378 27.3849 9.16469 28.4156 8.45755 28.4156ZM6.62171 28.2837H3.3028C1.48165 28.2837 0 26.8555 0 25.0999V20.5297C0 19.9462 0.916554 19.9453 0.916554 20.5297V25.0999C0.916554 26.3682 1.98711 27.4002 3.3028 27.4002H6.62171C7.22707 27.4002 7.22798 28.2837 6.62171 28.2837ZM21.6297 20.088H22.6544C23.26 20.088 23.2609 20.9715 22.6544 20.9715H21.6297C21.0241 20.9715 21.0232 20.088 21.6297 20.088ZM21.6297 17.346H23.211C23.8166 17.346 23.8175 18.2295 23.211 18.2295H21.6297C21.0241 18.2295 21.0232 17.346 21.6297 17.346ZM31.4181 7.26139H30.8097C30.2044 7.26139 30.2034 6.37788 30.8097 6.37788H31.4181C32.0235 6.37788 32.0244 7.26139 31.4181 7.26139ZM31.4181 10.0034H30.8097C30.2044 10.0034 30.2034 9.1199 30.8097 9.1199H31.4181C32.0235 9.1199 32.0244 10.0034 31.4181 10.0034ZM31.4181 12.7454H30.8097C30.2044 12.7454 30.2034 11.8619 30.8097 11.8619H31.4181C32.0235 11.8619 32.0244 12.7454 31.4181 12.7454ZM21.6297 6.37788H27.3169C27.9226 6.37788 27.9235 7.26139 27.3169 7.26139H21.6297C21.0241 7.26139 21.0232 6.37788 21.6297 6.37788ZM21.6297 14.6039H24.4733C25.0789 14.6039 25.0796 15.4874 24.4733 15.4874H21.6297C21.0241 15.4874 21.0232 14.6039 21.6297 14.6039ZM21.6297 9.1199H27.3169C27.9226 9.1199 27.9235 10.0034 27.3169 10.0034H21.6297C21.0241 10.0034 21.0232 9.1199 21.6297 9.1199ZM21.6297 11.8619H26.3662C26.9716 11.8619 26.9726 12.7454 26.3662 12.7454H21.6297C21.0241 12.7454 21.0232 11.8619 21.6297 11.8619ZM7.57171 9.1199H11.8367C12.4423 9.1199 12.4432 10.0034 11.8367 10.0034H7.57171C6.96635 10.0034 6.96538 9.1199 7.57171 9.1199ZM16.2667 10.0034H13.2592C12.6536 10.0034 12.6527 9.1199 13.2592 9.1199H16.2667C16.872 9.1199 16.8729 10.0034 16.2667 10.0034ZM16.2667 20.9715H14.6815C14.0759 20.9715 14.0749 20.088 14.6815 20.088H16.2667C16.872 20.088 16.8729 20.9715 16.2667 20.9715ZM7.57171 20.088H13.2592C13.8646 20.088 13.8655 20.9715 13.2592 20.9715H7.57171C6.96635 20.9715 6.96538 20.088 7.57171 20.088ZM7.57171 11.8619H15.1072C15.7128 11.8619 15.7135 12.7454 15.1072 12.7454H7.57171C6.96635 12.7454 6.96538 11.8619 7.57171 11.8619ZM7.57171 6.37788H16.2667C16.872 6.37788 16.8729 7.26139 16.2667 7.26139H7.57171C6.96635 7.26139 6.96538 6.37788 7.57171 6.37788ZM7.57171 17.346H16.2667C16.872 17.346 16.8729 18.2295 16.2667 18.2295H7.57171C6.96635 18.2295 6.96538 17.346 7.57171 17.346ZM7.57171 14.6039H16.2667C16.872 14.6039 16.8729 15.4874 16.2667 15.4874H7.57171C6.96635 15.4874 6.96538 14.6039 7.57171 14.6039ZM29.4629 15.3359V4.06244H32.2228C32.493 4.06244 32.7127 4.27425 32.7127 4.53447V16.443C31.543 15.2337 30.1899 15.3359 29.4629 15.3359ZM30.0856 28.1165H27.9235C26.446 28.1165 25.2442 26.958 25.2442 25.5339V22.6097H32.7649V25.5339C32.7649 26.958 31.5629 28.1165 30.0856 28.1165ZM20.8025 26.4014C20.7633 26.4102 20.7241 26.4223 20.6868 26.442L20.2024 26.6944C19.8319 26.8853 19.4274 26.9827 19.0214 26.9938C18.9971 26.9944 18.9725 26.9982 18.9485 26.9982C18.9313 26.9982 18.9146 26.9955 18.8978 26.9951C18.4318 26.9865 18.0372 26.8708 17.6609 26.6772C17.5604 26.6249 17.1981 26.4248 17.0941 26.4016C14.7138 25.3292 13.8689 25.5722 3.3028 25.5722C3.03292 25.5722 2.81318 25.3604 2.81318 25.0999V6.81967C2.81318 6.55902 3.03292 6.3472 3.3028 6.3472H4.26683C4.26683 24.2299 4.1053 23.2207 4.67903 23.7734C4.93709 24.0221 5.28718 24.1703 5.67398 24.1703L14.6794 24.1676C17.1349 24.1676 18.5578 25.4271 18.787 25.5103C18.8376 25.5289 18.8924 25.541 18.9455 25.5413L18.9485 25.5417L18.9508 25.5413C18.9968 25.541 19.0502 25.5322 19.1096 25.5103C19.1506 25.4956 19.2079 25.4642 19.2237 25.4529C21.2014 24.0196 23.099 24.1676 24.3276 24.1676C24.3276 26.1279 24.3269 25.3562 24.3301 25.5819C23.1117 25.6252 21.9072 25.9039 20.8025 26.4014ZM28.5463 18.3039C27.8513 18.4965 27.341 19.1134 27.341 19.8443C27.341 19.9706 27.3247 21.6062 27.3664 21.7262H25.2442V18.802C25.2442 17.3779 26.446 16.2194 27.9235 16.2194H28.5463V18.3039ZM29.535 19.342C29.8152 19.6051 29.7516 19.7261 29.7516 21.5871C29.7516 21.6361 29.7618 21.6823 29.777 21.7262H28.2319C28.2736 21.6062 28.2576 19.9706 28.2576 19.8443C28.2576 19.2046 29.0669 18.8791 29.535 19.342ZM32.749 18.5261C32.7737 18.747 32.7649 18.6341 32.7649 21.7262H30.6427C30.6842 21.6062 30.6681 19.9706 30.6681 19.8443C30.6681 19.0739 30.1182 18.4832 29.4629 18.303V16.2194H30.0856C31.73 16.2194 32.7127 17.6304 32.7127 18.3536C32.7127 18.4148 32.7258 18.4731 32.749 18.5261ZM5.18339 4.53447C5.18339 4.27425 5.40312 4.06244 5.67352 4.06244H15.2745C16.4775 4.06244 17.6122 4.49158 18.49 5.27529C18.49 7.32501 18.49 20.1061 18.49 22.168C18.49 22.7518 19.4066 22.7527 19.4066 22.168C19.4066 20.1054 19.4066 7.32482 19.4066 5.27529C20.2844 4.49158 21.4187 4.06244 22.6216 4.06244H28.5463V15.3359H27.9235C25.9407 15.3359 24.3276 16.8909 24.3276 18.802V23.284C23.0999 23.284 21.121 23.1325 18.9483 24.5638C17.6972 23.7397 16.1963 23.284 14.6794 23.284C14.6794 23.284 5.6756 23.2867 5.67326 23.2867C5.40312 23.2867 5.18339 23.0762 5.18339 22.8145V4.53447ZM11.5789 0.883514H25.9914C27.3417 0.883514 28.4475 1.89914 28.5376 3.17892H22.6216C21.2594 3.17892 19.9714 3.64162 18.9483 4.48782C17.9249 3.64162 16.6372 3.17892 15.2745 3.17892H8.93118C9.07259 1.89075 10.2059 0.883514 11.5789 0.883514ZM34.5933 5.46369H33.6293V4.53447C33.6293 3.78701 32.9985 3.17892 32.2228 3.17892H29.4542C29.3627 1.41183 27.847 0 25.9914 0H11.5789C9.70016 0 8.15831 1.40325 8.01372 3.17892H5.67352C4.89785 3.17892 4.26683 3.78701 4.26683 4.53447V5.46369H3.3028C2.52739 5.46369 1.89657 6.07196 1.89657 6.81967V25.0999C1.89657 25.8476 2.52739 26.4557 3.3028 26.4557C14.2449 26.4557 14.7376 26.1761 17.2616 27.4735C18.1933 27.9539 19.1252 27.8819 18.9481 27.8819C19.5369 27.8819 20.1148 27.7414 20.6345 27.4737C21.8123 26.867 23.0068 26.4961 24.4623 26.4617C24.8846 27.923 26.2744 29 27.9235 29H30.0856C32.0682 29 33.6816 27.445 33.6816 25.5339C33.6816 24.5378 33.6293 7.34317 33.6293 6.3472H34.5933C34.8636 6.3472 35.0834 6.55902 35.0834 6.81967C35.0834 10.6203 35.0834 21.4537 35.0834 25.0999C35.0834 25.3604 34.8636 25.5722 34.5933 25.5722C33.9877 25.5722 33.987 26.4557 34.5933 26.4557C35.3689 26.4557 36 25.8476 36 25.0999C36 21.4538 36 10.6208 36 6.81967C36 6.07196 35.3689 5.46369 34.5933 5.46369Z" fill="#454645"/>
</svg>
