<?xml version="1.0" encoding="utf-8"?>
<!-- Generator: Adobe Illustrator 16.0.0, SVG Export Plug-In . SVG Version: 6.00 Build 0)  -->
<!DOCTYPE svg PUBLIC "-//W3C//DTD SVG 1.1//EN" "http://www.w3.org/Graphics/SVG/1.1/DTD/svg11.dtd">
<svg version="1.1" id="Capa_1" xmlns="http://www.w3.org/2000/svg" xmlns:xlink="http://www.w3.org/1999/xlink" x="0px" y="0px"
	 width="22px" height="16px" viewBox="0 0 22 16" enable-background="new 0 0 22 16" xml:space="preserve">
<path fill="none" stroke="#FFFFFF" stroke-width="2" stroke-linecap="round" stroke-linejoin="round" d="M20.256,7.962
	c0.475,0.62,0.475,1.457,0,2.076C18.764,11.986,15.182,16,11,16c-4.182,0-7.764-4.014-9.257-5.962C1.512,9.741,1.387,9.376,1.387,9
	s0.125-0.741,0.356-1.038C3.236,6.013,6.818,2,11,2C15.182,2,18.764,6.013,20.256,7.962L20.256,7.962z"/>
<path fill="none" stroke="#FFFFFF" stroke-width="2" stroke-linecap="round" stroke-linejoin="round" d="M11,12c1.657,0,3-1.344,3-3
	c0-1.657-1.344-3-3-3S8,7.343,8,9C8,10.656,9.343,12,11,12z"/>
</svg>
