<svg width="10" height="8" viewBox="0 0 10 8" fill="none" xmlns="http://www.w3.org/2000/svg">
<path d="M8.83874 3.85212C9.03023 4.10258 9.03023 4.4407 8.83874 4.69076C8.23562 5.47809 6.78861 7.09922 5.09921 7.09922C3.40982 7.09922 1.9628 5.47809 1.35968 4.69076C1.26651 4.57084 1.21594 4.4233 1.21594 4.27144C1.21594 4.11958 1.26651 3.97205 1.35968 3.85212C1.9628 3.06479 3.40982 1.44366 5.09921 1.44366C6.78861 1.44366 8.23562 3.06479 8.83874 3.85212V3.85212Z" stroke="#55BCB6" stroke-linecap="round" stroke-linejoin="round"/>
<path d="M5.09923 5.48332C5.76855 5.48332 6.31114 4.94073 6.31114 4.27141C6.31114 3.6021 5.76855 3.05951 5.09923 3.05951C4.42992 3.05951 3.88733 3.6021 3.88733 4.27141C3.88733 4.94073 4.42992 5.48332 5.09923 5.48332Z" stroke="#55BCB6" stroke-linecap="round" stroke-linejoin="round"/>
</svg>
