<svg width="119" height="32" viewBox="0 0 119 32" fill="none" xmlns="http://www.w3.org/2000/svg">
<path d="M15.6691 16.7122L15.7961 16.4577C16.2483 15.5392 16.6969 14.6277 17.1418 13.7234C17.5872 12.8191 18.0287 11.901 18.4665 10.9681C18.9191 9.99316 19.3462 9.01147 19.7491 8.02223C20.1516 7.03299 20.551 6.03699 20.9464 5.03386C20.9607 5.00568 20.9714 4.98066 20.9781 4.95962C20.9853 4.93819 20.9678 4.91359 20.9253 4.88541L20.8618 5.01242C20.551 5.35183 20.2437 5.69798 19.9397 6.05128C19.636 6.40418 19.3426 6.76462 19.06 7.13221C18.4665 7.89518 17.9191 8.6792 17.4177 9.48464C16.916 10.2901 16.4674 11.138 16.0716 12.028C15.8597 12.4944 15.6691 12.9676 15.4996 13.4479C15.3297 13.9287 15.1955 14.4229 15.0967 14.9318C15.0542 15.2144 15.0332 15.4899 15.0332 15.7583C15.0332 16.0266 15.0896 16.2529 15.2027 16.4367C15.2595 16.5074 15.3194 16.5709 15.3829 16.6272C15.4464 16.6836 15.5349 16.7122 15.6477 16.7122H15.6691ZM8.2296 30.319C8.31455 30.3051 8.38163 30.2769 8.43085 30.2344C8.48047 30.1919 8.52653 30.1356 8.56861 30.0649C8.78059 29.7116 8.99614 29.3619 9.21526 29.0157C9.43439 28.6696 9.64279 28.3127 9.84048 27.9451C10.3915 26.9702 10.9286 25.9952 11.4514 25.0203C11.9742 24.0453 12.4898 23.0565 12.9983 22.053C13.3941 21.29 13.7827 20.527 14.1642 19.764C14.5457 19.0011 14.9272 18.2381 15.3087 17.4752C15.3369 17.4327 15.3547 17.3902 15.3619 17.3477C15.3686 17.3057 15.3865 17.2632 15.4147 17.2207L15.2876 17.1572C15.0756 17.0583 14.9129 16.9277 14.8002 16.765C14.687 16.6026 14.6021 16.4153 14.5457 16.2033C14.5175 16.062 14.4997 15.9242 14.4925 15.79C14.4858 15.6559 14.4893 15.5181 14.5032 15.3768C14.5314 15.0378 14.5882 14.702 14.6727 14.3701C14.7577 14.0378 14.8565 13.7095 14.9697 13.3844C15.2662 12.5508 15.6123 11.7454 16.0081 10.9681C16.4039 10.1912 16.8489 9.43502 17.3435 8.70064C18.276 7.31562 19.2791 6.04415 20.3529 4.88541C20.5085 4.7159 20.6637 4.5464 20.8193 4.37689C20.975 4.20699 21.1159 4.02359 21.2433 3.8255C21.2997 3.72666 21.3918 3.6278 21.5188 3.52896C21.6176 3.4583 21.7165 3.45115 21.8153 3.50752C21.9003 3.55 21.9427 3.62067 21.9427 3.71951C21.9427 3.83265 21.9356 3.91759 21.9213 3.97396C21.8931 4.0728 21.8614 4.16849 21.826 4.26019C21.7907 4.35188 21.759 4.4404 21.7308 4.52496C21.4624 5.20337 21.2008 5.87107 20.9464 6.52804C20.6923 7.18502 20.4236 7.85271 20.1409 8.53072C19.7737 9.4493 19.378 10.3536 18.9544 11.244C18.5304 12.134 18.0993 13.024 17.6615 13.9144L16.3896 16.3942C16.3614 16.4224 16.3436 16.4542 16.3368 16.4895C16.3297 16.5248 16.3118 16.5637 16.2836 16.6062C16.3118 16.6062 16.34 16.6098 16.3686 16.6165C16.3967 16.6237 16.4249 16.6201 16.4531 16.6062C16.5944 16.5494 16.7322 16.4931 16.8664 16.4367C17.0009 16.3799 17.1315 16.3164 17.2586 16.2457C17.5694 16.0762 17.8699 15.875 18.1593 15.6416C18.4491 15.4086 18.7281 15.1755 18.9965 14.9421C19.2652 14.7091 19.5125 14.4832 19.7384 14.2641C19.9647 14.045 20.1624 13.858 20.3319 13.7024C20.3744 13.6599 20.4236 13.646 20.4803 13.6599C20.5367 13.6742 20.5792 13.7024 20.6074 13.7449C20.678 13.8294 20.678 13.9287 20.6074 14.0414C20.3108 14.3383 19.9786 14.6631 19.6114 15.0164C19.2438 15.3697 18.8623 15.6983 18.4665 16.002C18.0711 16.3057 17.6754 16.5709 17.28 16.7967C16.8842 17.023 16.4956 17.1643 16.1141 17.2207C16.0716 17.2207 16.0081 17.235 15.9232 17.2632L15.7326 17.5811C15.1816 18.6831 14.6307 19.7748 14.0793 20.8557C13.5283 21.9366 12.9702 23.0283 12.4049 24.1303C11.9813 24.9639 11.5502 25.7868 11.112 26.5994C10.6741 27.412 10.2291 28.2349 9.77697 29.0685C9.70631 29.196 9.6285 29.3194 9.54355 29.4397C9.459 29.5596 9.38119 29.6834 9.31053 29.8105L8.99255 30.319C8.87981 30.5171 8.73135 30.6794 8.54756 30.8065C8.22244 31.0045 7.92591 30.9831 7.65756 30.7429C7.50195 30.6159 7.38167 30.4393 7.29712 30.213C7.19827 29.9446 7.12762 29.6409 7.08514 29.3019C7.04267 28.9768 7.02162 28.6482 7.02162 28.3163C7.02162 27.984 7.02878 27.6557 7.04267 27.3306C7.07086 26.6526 7.1169 25.9849 7.18041 25.3279C7.24392 24.6705 7.32531 24.0033 7.42415 23.3248C7.57976 22.2229 7.76673 21.1276 7.98585 20.0396C8.20498 18.9515 8.44158 17.8638 8.69603 16.7757C8.80917 16.2529 8.9219 15.7337 9.03504 15.218C9.14818 14.7019 9.2752 14.1827 9.41652 13.6599C9.61421 12.883 9.80157 12.1094 9.97822 11.3393C10.1549 10.5691 10.3208 9.78831 10.4764 8.99716C10.5185 8.79947 10.5507 8.60853 10.5717 8.42474C10.5927 8.24134 10.6177 8.05041 10.6459 7.85272C10.6598 7.57008 10.6245 7.28029 10.5399 6.98376C10.455 6.7293 10.2855 6.56694 10.031 6.49628C9.87581 6.46809 9.68486 6.47485 9.45899 6.51733C9.16206 6.57409 8.87626 6.6515 8.60076 6.75035C8.32487 6.84959 8.05295 6.96946 7.7846 7.11078C7.10619 7.44979 6.47063 7.83842 5.87717 8.27667C5.28371 8.71452 4.71844 9.19486 4.18135 9.71767C3.79986 10.0853 3.43623 10.4703 3.09008 10.8728C2.74393 11.2757 2.42239 11.7029 2.12546 12.155C1.85712 12.5651 1.61338 12.9819 1.39426 13.4059C1.17553 13.8294 0.988156 14.2677 0.832546 14.7198C0.592382 15.4121 0.472495 16.1116 0.472495 16.8182C0.472495 17.1854 0.539585 17.5141 0.673759 17.8035C0.807934 18.0932 0.981004 18.3405 1.19298 18.5454C1.40496 18.7502 1.63799 18.9161 1.89244 19.0436C2.14689 19.1706 2.3942 19.2484 2.63437 19.2766C3.1004 19.333 3.55254 19.3119 3.99079 19.2131C4.18848 19.1706 4.38618 19.1214 4.58426 19.0646C4.78195 19.0082 4.97965 18.9376 5.17773 18.8526C5.27658 18.8101 5.36827 18.7645 5.45322 18.7149C5.53778 18.6657 5.62272 18.6125 5.70767 18.5561C5.76404 18.5279 5.81326 18.4962 5.85573 18.4608C5.89821 18.4255 5.93355 18.3723 5.96174 18.3016C5.96174 18.2873 5.97602 18.2663 6.00421 18.2381C6.11734 18.125 6.22332 18.1111 6.32217 18.1956C6.4353 18.2806 6.45635 18.3723 6.38569 18.4711C6.34321 18.57 6.2797 18.6478 6.19515 18.7046C6.12449 18.7466 6.057 18.7891 5.99349 18.8316C5.92997 18.8741 5.86289 18.9094 5.79223 18.9376C5.38257 19.1496 4.9586 19.3191 4.52074 19.4461C4.0825 19.5735 3.63036 19.6509 3.16393 19.6795C2.17509 19.7216 1.34145 19.3683 0.663041 18.6196C0.338323 18.2524 0.133093 17.8352 0.0485395 17.3692C-0.00822654 17.0302 -0.0149765 16.6626 0.0271018 16.2668C0.0838678 15.7158 0.197005 15.1859 0.366509 14.6773C0.536013 14.1688 0.740846 13.6671 0.98101 13.1724C1.29183 12.5226 1.67332 11.9081 2.12546 11.3285C2.87454 10.3679 3.6903 9.5025 4.57354 8.73238C5.45679 7.96227 6.44206 7.29458 7.53014 6.7293C7.81278 6.57408 8.10257 6.44309 8.3991 6.3371C8.69603 6.23111 9.00685 6.14299 9.33197 6.07233C9.48718 6.04414 9.64636 6.02627 9.80871 6.01912C9.97107 6.01237 10.1303 6.02985 10.2855 6.07233C10.6106 6.15688 10.8365 6.35496 10.9639 6.66578C11.0627 6.92023 11.1263 7.18859 11.1544 7.47122C11.1826 7.76776 11.1862 8.06468 11.1651 8.36122C11.1441 8.65815 11.1052 8.95469 11.0484 9.25162C10.8932 10.0571 10.7273 10.8621 10.5506 11.6675C10.374 12.473 10.1866 13.2784 9.98894 14.0839C9.7063 15.2851 9.43795 16.4823 9.18349 17.6764C8.92904 18.8705 8.70317 20.082 8.50509 21.3114C8.43443 21.7775 8.36019 22.2439 8.28278 22.7103C8.20498 23.1764 8.13075 23.6428 8.06009 24.1088C7.96125 24.8436 7.88344 25.5748 7.82707 26.3029C7.7703 27.0305 7.74926 27.7689 7.76355 28.5175C7.76355 28.7152 7.77031 28.9169 7.7846 29.1217C7.79889 29.3265 7.82707 29.5278 7.86915 29.7255C7.89773 29.8248 7.92949 29.9129 7.96482 29.9907C8.00015 30.0685 8.06723 30.1356 8.16608 30.192L8.2296 30.319Z" fill="white"/>
<path d="M22.3883 10.7769C22.2327 10.9182 22.0703 11.1266 21.9008 11.4021C21.7313 11.6776 21.5193 12.0837 21.2648 12.6208C21.2367 12.6914 21.2049 12.7657 21.1696 12.8435C21.1343 12.9209 21.1092 13.0165 21.0953 13.1293C21.378 12.8185 21.6289 12.5005 21.8476 12.1758C22.0667 11.8507 22.247 11.5045 22.3883 11.1373C22.4446 11.0242 22.4589 10.9182 22.4307 10.8194L22.3883 10.7769ZM19.548 15.9696C19.5623 15.7012 19.6083 15.3936 19.6857 15.0474C19.7635 14.7013 19.8659 14.3412 19.993 13.9665C20.1204 13.5921 20.272 13.225 20.4487 12.8645C20.6253 12.5041 20.8127 12.1615 21.0104 11.8368C21.1235 11.6669 21.2367 11.5009 21.3498 11.3386C21.4625 11.1758 21.5757 11.017 21.6888 10.8614C21.7313 10.7911 21.7769 10.7308 21.8265 10.6816C21.8758 10.632 21.929 10.5792 21.9853 10.5224C22.056 10.4518 22.1338 10.3954 22.2188 10.3529C22.4728 10.2398 22.6495 10.3247 22.7483 10.6074C22.7908 10.7626 22.7908 10.911 22.7483 11.0524C22.7201 11.123 22.6955 11.1973 22.6745 11.2751C22.653 11.3525 22.6284 11.4267 22.6002 11.4974C22.2751 12.2603 21.8301 12.9387 21.2648 13.5322C21.1942 13.6029 21.1164 13.6699 21.0318 13.7335C20.9469 13.797 20.8623 13.8641 20.7774 13.9347C20.6785 14.0054 20.6218 14.0832 20.6079 14.1681C20.5229 14.4508 20.4455 14.7366 20.3749 15.0264C20.3042 15.3162 20.2546 15.6091 20.2264 15.906C20.2264 15.9906 20.23 16.0755 20.2367 16.1601C20.2439 16.245 20.2474 16.33 20.2474 16.4146V16.542C20.3324 16.796 20.4947 16.881 20.7349 16.796C20.8905 16.7536 21.0318 16.6901 21.1589 16.6055C21.2859 16.5206 21.4133 16.436 21.5403 16.351C21.6674 16.2661 21.7877 16.1744 21.9008 16.0756C22.141 15.8918 22.3668 15.6977 22.5788 15.4928C22.7908 15.288 23.0028 15.0796 23.2147 14.8676C23.3704 14.6977 23.5291 14.5282 23.6915 14.3587C23.8542 14.1892 24.013 14.0268 24.1686 13.8712C24.2107 13.8287 24.2885 13.7652 24.4017 13.6807C24.5005 13.6382 24.5855 13.6521 24.6561 13.7227C24.755 13.7934 24.7689 13.8855 24.6982 13.9986C24.6418 14.0832 24.5926 14.1467 24.5501 14.1892C24.3663 14.3869 24.1861 14.5742 24.0095 14.7509C23.8328 14.9275 23.6526 15.1145 23.4692 15.3126C23.1584 15.6373 22.8404 15.9485 22.5153 16.2451C22.1902 16.542 21.844 16.8103 21.4768 17.0505C21.3919 17.1069 21.3073 17.1601 21.2224 17.2093C21.1378 17.2589 21.0457 17.305 20.9469 17.347C20.6218 17.5026 20.3427 17.5062 20.1097 17.3578C19.8767 17.2093 19.7175 17.0009 19.6329 16.7325L19.5694 16.4146C19.5551 16.3439 19.548 16.2697 19.548 16.1923C19.548 16.1144 19.548 16.0402 19.548 15.9696Z" fill="white"/>
<path d="M24.5924 13.3834C24.8611 12.79 25.0624 12.3025 25.1965 11.921C25.3307 11.5395 25.4224 11.243 25.472 11.031C25.5216 10.8191 25.5427 10.667 25.5355 10.5753C25.5284 10.4832 25.5248 10.4233 25.5248 10.3951C25.4966 10.4515 25.4827 10.4796 25.4827 10.4796C25.3978 10.6777 25.3097 10.9036 25.2176 11.1581C25.1259 11.4125 25.0373 11.6737 24.9528 11.9421C24.8678 12.2108 24.7936 12.472 24.7301 12.7265C24.6666 12.9809 24.6205 13.1996 24.5924 13.3834ZM26.8817 13.129C26.6272 13.2846 26.341 13.4648 26.023 13.6697C25.705 13.8745 25.4192 14.0333 25.1648 14.1464C24.9953 14.2314 24.8186 14.2738 24.6348 14.2738C24.2252 14.2596 24.0342 14.0333 24.0624 13.5954C24.1331 13.0302 24.2426 12.5002 24.3911 12.006C24.5396 11.5114 24.7265 11.0168 24.9528 10.5221C24.981 10.4515 25.0127 10.3772 25.0481 10.2998C25.0834 10.222 25.1223 10.1478 25.1648 10.0771C25.2073 9.99217 25.2636 9.91478 25.3343 9.84412C25.4049 9.77346 25.4931 9.73813 25.5991 9.73813C25.7051 9.73813 25.7864 9.78735 25.8428 9.8862C25.9135 9.99933 25.9488 10.1621 25.9488 10.3737C25.9488 10.5856 25.9277 10.7766 25.8853 10.9461C25.7015 11.7797 25.4049 12.5923 24.9953 13.3834L24.9318 13.5105C24.9599 13.553 24.9989 13.5708 25.0481 13.5637C25.0977 13.5565 25.1366 13.5391 25.1648 13.5105C25.4331 13.3977 25.7122 13.2385 26.002 13.0337C26.2914 12.8289 26.5704 12.6487 26.8392 12.4935C26.9523 12.4367 27.044 12.4014 27.1147 12.3875C27.1992 12.3593 27.2735 12.3732 27.337 12.4299C27.4009 12.4863 27.4255 12.557 27.4112 12.6415C27.4112 12.7122 27.3973 12.8182 27.3691 12.9595C27.2699 13.2989 27.1746 13.6379 27.0829 13.9769C26.9908 14.3159 26.9027 14.6553 26.8177 14.9943C26.705 15.4465 26.5919 15.895 26.4787 16.34C26.3656 16.7854 26.2739 17.234 26.2032 17.6862C26.175 17.8696 26.1469 18.0498 26.1183 18.2264C26.0901 18.4031 26.083 18.5833 26.0972 18.7671C26.0972 18.8235 26.0972 18.8798 26.0972 18.9366C26.0972 18.993 26.1254 19.0497 26.1822 19.1061C26.2104 19.0918 26.235 19.0851 26.2564 19.0851C26.2775 19.0851 26.3021 19.0708 26.3303 19.0426C26.4152 18.9719 26.5034 18.8977 26.5954 18.8199C26.6871 18.7421 26.7685 18.654 26.8392 18.5551C27.4326 17.8342 27.9693 17.0713 28.4501 16.2658C28.9304 15.4608 29.3964 14.6621 29.8486 13.8709C29.9053 13.7864 29.9478 13.7296 29.976 13.7014C30.0466 13.6308 30.1173 13.6165 30.188 13.6589C30.2725 13.7014 30.3079 13.7649 30.294 13.8499C30.2654 13.9344 30.2233 14.0265 30.1665 14.1254C29.8839 14.62 29.6191 15.086 29.3718 15.5243C29.1245 15.9621 28.8704 16.3861 28.6088 16.7958C28.3476 17.2058 28.0753 17.6012 27.7927 17.9827C27.5104 18.3642 27.2064 18.7456 26.8817 19.1271C26.7967 19.2121 26.7118 19.2899 26.6272 19.3606C26.5422 19.4312 26.4577 19.4804 26.3727 19.5086C26.2882 19.5372 26.1997 19.5372 26.108 19.5086C26.0159 19.4804 25.9278 19.4098 25.8428 19.297C25.7301 19.1414 25.6733 18.9648 25.6733 18.7671C25.6733 18.654 25.6733 18.5372 25.6733 18.4174C25.6733 18.2971 25.6876 18.1808 25.7158 18.0676C25.8289 17.2622 25.9738 16.4675 26.1505 15.6831C26.3267 14.8991 26.5565 14.1254 26.8392 13.3624C26.8674 13.2775 26.8848 13.2211 26.892 13.1929C26.8991 13.1643 26.8956 13.1433 26.8817 13.129Z" fill="white"/>
<path d="M30.4629 13.7861C30.6463 13.5599 30.8229 13.4892 30.9924 13.5741C31.1623 13.6448 31.2469 13.8 31.2469 14.0402C31.2612 14.1676 31.2576 14.2946 31.2361 14.4217C31.2151 14.5491 31.1905 14.6761 31.1623 14.8031L31.1198 15.0366C31.3882 14.9941 31.6355 14.9091 31.8614 14.7821C32.0876 14.6551 32.2853 14.5241 32.4548 14.3899C32.6247 14.2557 32.7692 14.1251 32.8895 13.9981C33.0098 13.8707 33.0979 13.7861 33.1543 13.7437C33.2249 13.6869 33.3063 13.6766 33.398 13.7119C33.4901 13.7472 33.5076 13.8215 33.4512 13.9342C33.4087 14.0192 33.317 14.139 33.1757 14.2946C33.0344 14.4502 32.8506 14.6126 32.6247 14.7821C32.3985 14.9516 32.144 15.1108 31.8614 15.2589C31.5791 15.4073 31.275 15.5097 30.9503 15.5665C30.8797 15.6793 30.809 15.7924 30.7384 15.9055C30.6677 16.0187 30.597 16.1314 30.5264 16.2445C30.4275 16.4001 30.3001 16.5554 30.1449 16.711C30.046 16.8098 29.9329 16.8805 29.8055 16.923C29.509 17.0357 29.2827 16.9583 29.1275 16.6895C29.0143 16.5061 28.958 16.3152 28.958 16.1175C28.9298 15.3827 29.085 14.7043 29.424 14.0827C29.4808 13.9838 29.5586 13.885 29.6574 13.7861C29.8833 13.6162 30.0742 13.6659 30.2294 13.9342C30.2294 13.9485 30.2437 13.9838 30.2719 14.0402L30.4629 13.7861ZM30.3989 15.524C30.3708 15.4959 30.3569 15.4816 30.3569 15.4816C30.1306 15.3684 30.0175 15.1565 30.0175 14.8456V14.7186C30.0175 14.6904 30.021 14.669 30.0282 14.6551C30.0353 14.6408 30.0175 14.6265 29.9754 14.6126C29.8622 14.8528 29.7773 15.0929 29.7209 15.3331C29.6642 15.5733 29.6149 15.8134 29.5725 16.054C29.5586 16.1104 29.5514 16.1667 29.5514 16.2235C29.5514 16.2799 29.5725 16.3434 29.6149 16.414C29.8126 16.3009 29.9647 16.1667 30.0706 16.0115C30.1766 15.8559 30.2862 15.7007 30.3989 15.5451V15.524ZM30.8229 13.9342C30.7804 13.9342 30.7594 13.9414 30.7594 13.9556C30.6042 14.1533 30.491 14.3863 30.4204 14.6551C30.4061 14.6972 30.4025 14.7432 30.4097 14.7928C30.4168 14.8421 30.4204 14.8953 30.4204 14.9516C30.4204 15.0223 30.4629 15.0648 30.5474 15.079C30.6042 15.0929 30.6463 15.0719 30.6748 15.0151C30.8158 14.6904 30.8864 14.3796 30.8864 14.0827C30.8864 14.0545 30.8725 14.012 30.8443 13.9556L30.8229 13.9342Z" fill="white"/>
<path d="M35.3587 13.0019C35.2174 13.1151 35.1007 13.2282 35.009 13.3409C34.9169 13.4541 34.8359 13.5744 34.7653 13.7014C34.6378 13.9134 34.5108 14.1253 34.3838 14.3373C34.2564 14.5493 34.1365 14.7613 34.0233 14.9733L32.7519 17.2621L32.6244 17.4527C32.5538 17.5234 32.4692 17.5519 32.37 17.5377C32.3136 17.5234 32.2608 17.5023 32.2112 17.4741C32.1616 17.446 32.137 17.4035 32.137 17.3467C32.137 17.2761 32.137 17.2125 32.137 17.1562C32.137 17.0998 32.1441 17.0359 32.1584 16.9652C32.2005 16.7675 32.2429 16.577 32.2854 16.3932C32.3279 16.2094 32.3771 16.0189 32.4339 15.8208L33.5148 12.133C33.5569 11.9916 33.6137 11.8293 33.6843 11.6455C33.755 11.4899 33.861 11.4264 34.0023 11.4546C34.073 11.4688 34.1365 11.4935 34.1928 11.5288C34.2496 11.5641 34.2778 11.6245 34.2778 11.709C34.2778 11.7658 34.2635 11.8503 34.2353 11.9635C34.1928 12.133 34.1504 12.3025 34.1083 12.472C34.0658 12.6415 34.0162 12.8114 33.9598 12.9809L33.3874 14.9518C33.3592 15.0368 33.3521 15.1074 33.3664 15.1638L33.5569 14.8458C33.6843 14.6057 33.8006 14.3798 33.9066 14.1678C34.0126 13.9558 34.1365 13.7296 34.2778 13.4894C34.4473 13.1929 34.6593 12.9174 34.9137 12.6629C34.9558 12.6204 34.9983 12.578 35.0408 12.5355C35.0832 12.4934 35.1325 12.4581 35.1892 12.4299C35.4719 12.26 35.6834 12.3239 35.8248 12.6204C35.8815 12.7618 35.924 12.9241 35.9522 13.1079C35.9804 13.3056 35.9947 13.4965 35.9947 13.6803C35.9947 13.8637 36.0014 14.0547 36.0157 14.2524C36.03 14.408 36.0403 14.5668 36.0475 14.7295C36.0546 14.8919 36.0721 15.0507 36.1003 15.2063C36.1145 15.3333 36.1499 15.4746 36.2062 15.6302C36.2348 15.7291 36.2983 15.7644 36.3972 15.7362C36.4678 15.7076 36.5314 15.683 36.5881 15.662C36.6445 15.6406 36.7009 15.6088 36.7576 15.5667C36.9978 15.3968 37.2026 15.2273 37.3721 15.0578C37.5698 14.8601 37.7782 14.6588 37.9974 14.4536C38.2165 14.2488 38.4249 14.0475 38.6226 13.8498C38.6651 13.8074 38.7286 13.7578 38.8135 13.7014C38.8981 13.645 38.9759 13.6518 39.0465 13.7224C39.089 13.7649 39.0993 13.832 39.0783 13.9241C39.0573 14.0158 39.0255 14.0829 38.983 14.1253C38.8274 14.2805 38.6897 14.4151 38.5698 14.5279C38.4495 14.641 38.3399 14.747 38.2411 14.8458C38.1423 14.9447 38.047 15.0368 37.9549 15.1213C37.8632 15.2063 37.7679 15.298 37.6687 15.3968C37.5559 15.51 37.4428 15.6088 37.3297 15.6937C37.2165 15.7783 37.1038 15.8704 36.9907 15.9692C36.92 16.0399 36.8422 16.0895 36.7576 16.1177C36.6727 16.1459 36.581 16.1741 36.4821 16.2023C36.157 16.3154 35.9026 16.2237 35.7188 15.9268C35.606 15.7291 35.5354 15.5028 35.5072 15.2488C35.4786 15.0931 35.4612 14.9447 35.454 14.8033C35.4469 14.662 35.4365 14.514 35.4222 14.3584C35.4079 14.1607 35.4012 13.9697 35.4012 13.7863C35.4012 13.6025 35.3941 13.4116 35.3798 13.2139C35.3798 13.1714 35.3762 13.129 35.3691 13.0869C35.3623 13.0444 35.3516 12.9876 35.3373 12.9174L35.3587 13.0019Z" fill="white"/>
<path d="M39.6821 11.582C39.4983 11.582 39.4205 11.4899 39.4486 11.3065C39.4486 11.2358 39.4701 11.1791 39.5126 11.137C39.5828 11.0663 39.6503 10.9993 39.7138 10.9353C39.7773 10.8718 39.8444 10.8119 39.9151 10.7555C40.0139 10.6849 40.1092 10.6813 40.2013 10.7448C40.293 10.8083 40.339 10.9036 40.339 11.031C40.3248 11.0592 40.3144 11.091 40.3073 11.1263C40.3002 11.1616 40.2823 11.1934 40.2541 11.2216C40.1271 11.3629 39.9647 11.4689 39.7666 11.5395C39.7527 11.5538 39.7174 11.5606 39.6606 11.5606L39.6821 11.582ZM43.2639 13.7864C43.4052 13.645 43.5183 13.62 43.6029 13.7121C43.6879 13.8038 43.6879 13.9134 43.6029 14.0404C43.5465 14.1254 43.4969 14.1817 43.4544 14.2099C42.9602 14.6906 42.462 15.1674 41.9602 15.6406C41.4589 16.1142 40.9535 16.5838 40.445 17.0502C40.2469 17.234 40.0493 17.4071 39.8516 17.5694C39.6535 17.7318 39.4558 17.891 39.2581 18.0462C39.145 18.1454 38.9898 18.23 38.7917 18.3006C38.4809 18.4138 38.276 18.3149 38.1772 18.0041C38.1347 17.8767 38.1137 17.7497 38.1137 17.6226C38.1137 17.4813 38.1101 17.3436 38.1029 17.209C38.0958 17.0748 38.0994 16.9371 38.1137 16.7957C38.1843 16.1741 38.276 15.5632 38.3891 14.9626C38.5019 14.362 38.6575 13.7649 38.8552 13.1715L39.0461 12.6629C39.0886 12.578 39.145 12.5002 39.2156 12.4299C39.3006 12.345 39.4066 12.3239 39.5336 12.366C39.5761 12.3803 39.6007 12.4156 39.6078 12.472C39.615 12.5288 39.615 12.5958 39.6078 12.6737C39.6007 12.7511 39.5864 12.8217 39.5654 12.8852C39.5443 12.9492 39.5265 13.0019 39.5126 13.0444C39.2863 13.7649 39.1096 14.4961 38.9826 15.2381C38.8552 15.98 38.7425 16.7322 38.6432 17.4952C38.6432 17.6083 38.7139 17.6401 38.8552 17.5905C38.9965 17.5412 39.0954 17.4952 39.1521 17.4527C39.3073 17.34 39.4558 17.2304 39.5971 17.1244C39.7384 17.0184 39.8798 16.9089 40.0211 16.7957C40.3037 16.5417 40.5828 16.2872 40.8583 16.0328C41.1338 15.7783 41.4128 15.5243 41.6955 15.2698C41.9638 15.0296 42.2254 14.7823 42.4795 14.5279C42.7339 14.2738 42.9955 14.0265 43.2639 13.7864Z" fill="white"/>
<path d="M43.0529 17.4114C43.2224 17.369 43.3776 17.2769 43.519 17.136C43.6885 16.9803 43.8584 16.8283 44.0279 16.6802C44.1974 16.5318 44.3669 16.3797 44.5364 16.2245C45.0028 15.8145 45.4442 15.3976 45.8611 14.9741C46.2779 14.5501 46.7125 14.1544 47.1647 13.7872C47.2072 13.7586 47.2846 13.7304 47.3977 13.7022C47.4684 13.6879 47.5319 13.7304 47.5887 13.8292C47.6307 13.8999 47.6307 13.9638 47.5887 14.0202C47.5462 14.0908 47.4894 14.1472 47.4187 14.1897C46.9666 14.5573 46.5534 14.9245 46.179 15.2917C45.8047 15.6592 45.4196 16.0264 45.0239 16.394C44.8687 16.5492 44.713 16.6977 44.5578 16.839C44.4022 16.9803 44.2466 17.1288 44.0914 17.284C44.0207 17.3547 43.9465 17.4182 43.8687 17.475C43.7913 17.5313 43.717 17.5881 43.6464 17.6445C43.5333 17.7433 43.3919 17.8282 43.2224 17.8989C42.8834 18.0402 42.6218 17.9481 42.438 17.6234C42.3535 17.4821 42.311 17.3122 42.311 17.1145C42.2967 16.8886 42.3039 16.6695 42.332 16.4575C42.3606 16.2456 42.4027 16.0336 42.4595 15.8216C42.5301 15.5108 42.6147 15.2107 42.7135 14.9209C42.8128 14.6311 42.9398 14.3453 43.0954 14.0627C43.2506 13.78 43.4483 13.5466 43.6885 13.3632C43.929 13.1937 44.1621 13.1016 44.3879 13.0877C44.713 13.0591 44.9675 13.1441 45.1513 13.3418C45.3347 13.5398 45.4125 13.7586 45.3843 13.9991C45.3843 14.0837 45.3772 14.1401 45.3629 14.1686C45.3065 14.2675 45.2358 14.3167 45.1513 14.3167C45.0663 14.3167 45.0028 14.2814 44.9603 14.2107C44.9322 14.1825 44.9143 14.1508 44.9075 14.1155C44.9004 14.0801 44.8825 14.0483 44.8544 14.0202C44.7694 13.8507 44.6352 13.7871 44.4518 13.8292C44.3669 13.8435 44.2891 13.8789 44.2184 13.9352C44.0489 14.0341 43.9219 14.1754 43.8369 14.3592C43.611 14.7831 43.4237 15.2178 43.2752 15.6628C43.1272 16.1078 43.0247 16.5707 42.968 17.051C42.9398 17.2066 42.968 17.3336 43.0529 17.4325V17.4114Z" fill="white"/>
<path d="M46.3375 16.2663C46.4081 16.1956 46.4998 16.111 46.613 16.0122C46.7261 15.9133 46.8393 15.8141 46.952 15.7153C47.0651 15.6164 47.1747 15.5211 47.2807 15.429C47.3867 15.3373 47.4748 15.2631 47.5455 15.2068C47.6304 15.1218 47.7011 15.0654 47.7574 15.0373C47.8281 14.9805 47.9023 14.9666 47.9801 14.9948C48.0579 15.023 48.1107 15.0797 48.1389 15.1643C48.1671 15.2349 48.1778 15.2774 48.1707 15.2913C48.1639 15.3056 48.1742 15.3481 48.2024 15.4187C48.2449 15.5458 48.2838 15.6728 48.3191 15.8002C48.3545 15.9272 48.4005 16.0547 48.4569 16.1817C48.4851 16.2523 48.524 16.3194 48.5736 16.383C48.6228 16.4465 48.676 16.5136 48.7324 16.5842C48.7892 16.6549 48.8666 16.7009 48.9658 16.722C49.0646 16.7434 49.1492 16.7255 49.2199 16.6692C49.3187 16.6128 49.4179 16.535 49.5168 16.4361C49.672 16.2805 49.8205 16.1146 49.9618 15.938C50.1031 15.7613 50.2373 15.5739 50.3643 15.3762C50.5199 15.15 50.6469 14.9523 50.7458 14.7828C50.845 14.6133 50.9649 14.4156 51.1062 14.1893C51.163 14.0762 51.2122 13.9988 51.2547 13.9563C51.3393 13.8575 51.4385 13.8432 51.5512 13.9138C51.6219 13.9702 51.6362 14.0552 51.5937 14.1683L51.5302 14.2953C51.29 14.6768 51.0637 15.0301 50.8518 15.3552C50.6402 15.6799 50.3929 16.0193 50.1103 16.3722C50.0253 16.4715 49.9407 16.5668 49.8558 16.6585C49.7708 16.7506 49.6791 16.8387 49.5803 16.9236C49.4108 17.0931 49.2199 17.1848 49.0079 17.1991C48.7538 17.213 48.5275 17.1213 48.3299 16.9236C48.1179 16.7117 47.9694 16.4572 47.8849 16.1603C47.8563 16.0614 47.8281 15.9661 47.7999 15.8744C47.7717 15.7824 47.7435 15.6799 47.715 15.5672C47.6586 15.6093 47.5879 15.6589 47.503 15.7153L46.6765 16.4782C46.6058 16.535 46.5423 16.5914 46.4859 16.6481C46.4292 16.7045 46.3657 16.7609 46.295 16.8176C46.1398 16.9304 46.0088 16.9447 45.9028 16.8597C45.7968 16.7752 45.744 16.6692 45.744 16.5421C45.744 16.4572 45.7512 16.3937 45.7651 16.3512C45.7937 16.2805 45.8147 16.2063 45.829 16.1285C45.8429 16.0511 45.8643 15.9769 45.8925 15.9062C46.1045 15.2984 46.38 14.7332 46.719 14.2104C46.7896 14.1115 46.8603 14.0198 46.931 13.9349C47.0016 13.8503 47.0933 13.7725 47.2065 13.7019C47.4609 13.5324 47.715 13.497 47.9694 13.5959C48.0825 13.6383 48.1814 13.7019 48.2663 13.7868C48.3791 13.8714 48.4077 13.9774 48.3509 14.1044C48.3084 14.2036 48.231 14.2528 48.1179 14.2528C48.0047 14.2528 47.8741 14.2457 47.7257 14.2318C47.5772 14.2175 47.4681 14.2528 47.3974 14.3378C47.3549 14.3803 47.3124 14.4223 47.27 14.4648C47.2275 14.5073 47.1921 14.5569 47.164 14.6133C47.0508 14.7828 46.9448 14.9769 46.846 15.196C46.7472 15.4152 46.6483 15.6164 46.5495 15.8002C46.5352 15.8284 46.4998 15.9026 46.4435 16.0225C46.3871 16.1428 46.3518 16.2242 46.3375 16.2663Z" fill="white"/>
<path d="M58.6093 25.1679C58.6518 25.1254 58.6728 25.0972 58.6728 25.0833C59.0404 23.557 59.3901 22.0382 59.722 20.5262C60.0543 19.0145 60.4107 17.5025 60.7922 15.9905C60.7922 15.9905 60.7783 15.9623 60.7501 15.9059C60.7215 15.9341 60.6898 15.9515 60.6545 15.9587C60.6191 15.9658 60.5874 15.9837 60.5592 16.0119C60.3615 16.1671 60.1602 16.3156 59.955 16.4569C59.7502 16.5982 59.5561 16.7467 59.3723 16.9019C58.8495 17.354 58.4116 17.8629 58.0583 18.4278C57.705 18.9931 57.4434 19.6147 57.2739 20.2932C57.1894 20.6603 57.1433 21.0208 57.1362 21.3741C57.129 21.7274 57.1751 22.0807 57.2739 22.434C57.4152 22.9282 57.5955 23.3982 57.8146 23.8432C58.0337 24.2882 58.2842 24.73 58.5668 25.1679H58.6093ZM61.7886 14.719C61.8593 14.6908 61.9371 14.6622 62.0216 14.634C62.6151 14.3657 63.2157 14.1537 63.823 13.9985C64.4308 13.8429 65.0524 13.7226 65.6884 13.638C66.2961 13.5531 66.9035 13.4896 67.5113 13.4471C68.1186 13.405 68.7335 13.3764 69.3551 13.3625H69.5457C69.5457 13.3625 69.5739 13.3483 69.6306 13.3201C69.6445 13.2776 69.6588 13.2319 69.6731 13.1823C69.687 13.1327 69.7013 13.0799 69.7152 13.0231C70.1673 11.2146 70.6338 9.42744 71.1141 7.66094C71.5948 5.89484 72.0752 4.11445 72.5555 2.32017C72.6261 2.03753 72.7039 1.76521 72.7885 1.50401C72.8735 1.24241 72.958 0.977633 73.0429 0.709285C73.0711 0.638625 73.0993 0.571545 73.1279 0.50803C73.1561 0.444119 73.1843 0.377029 73.2125 0.306369C73.2831 0.193631 73.3681 0.151148 73.4669 0.179332C73.6082 0.207517 73.6646 0.292474 73.6364 0.433793C73.6221 0.532637 73.6118 0.627897 73.6047 0.719596C73.5975 0.811692 73.58 0.906962 73.5515 1.00581C73.4808 1.35911 73.407 1.70884 73.3292 2.05499C73.2514 2.40115 73.17 2.74372 73.0854 3.08313C72.8453 4.12873 72.5872 5.16006 72.3117 6.17748C72.0362 7.1949 71.7572 8.21907 71.4745 9.25078C71.305 9.90061 71.1391 10.5473 70.9764 11.19C70.814 11.833 70.6481 12.4793 70.4786 13.1291C70.45 13.2141 70.4289 13.2704 70.4146 13.299C70.4432 13.3411 70.475 13.3625 70.5103 13.3625C70.5456 13.3625 70.5774 13.3625 70.6056 13.3625L72.1315 13.4261C72.6404 13.4542 73.1489 13.5178 73.6574 13.6166C73.8131 13.6452 73.9544 13.6873 74.0814 13.744C74.2088 13.7865 74.2581 13.8711 74.2299 13.9985C74.2017 14.1112 74.131 14.168 74.0179 14.168C73.8766 14.168 73.7706 14.1608 73.6999 14.1466C73.5161 14.1184 73.3363 14.0938 73.1597 14.0723C72.983 14.0513 72.8028 14.0334 72.619 14.0195L70.3936 13.8925C70.3654 13.8925 70.3408 13.8957 70.3194 13.9028C70.2983 13.91 70.2733 13.9135 70.2451 13.9135C70.217 13.9842 70.1959 14.0441 70.1816 14.0938C70.1673 14.143 70.1534 14.2033 70.1391 14.274C69.8001 15.5879 69.475 16.8947 69.1642 18.1948C68.8534 19.4949 68.5497 20.8088 68.2528 22.1371C68.0694 22.9425 67.8856 23.7479 67.7018 24.5534C67.518 25.3588 67.3346 26.1643 67.1508 26.9693C67.0377 27.4215 66.9388 27.8736 66.8543 28.3261C66.7693 28.7783 66.6776 29.2304 66.5784 29.6826V29.7886C66.607 29.76 66.628 29.7354 66.6423 29.7143C66.6562 29.6929 66.6705 29.6683 66.6844 29.6401C66.7411 29.527 66.7836 29.4492 66.8118 29.4067C66.8825 29.3078 66.967 29.2868 67.0658 29.3432C67.179 29.3999 67.2215 29.4706 67.1933 29.5552C67.1651 29.6683 67.1365 29.7532 67.1083 29.8096C67.0519 29.9366 66.9988 30.0641 66.9495 30.1911C66.8999 30.3181 66.84 30.4455 66.7693 30.5726C66.6987 30.7282 66.6209 30.887 66.5363 31.0493C66.4514 31.2121 66.3668 31.3709 66.2818 31.5265C66.2255 31.6392 66.1759 31.717 66.1334 31.7595C66.0488 31.8726 65.9285 31.908 65.7733 31.8655C65.6459 31.823 65.5681 31.7313 65.5399 31.59C65.526 31.5332 65.5328 31.4487 65.5614 31.3355C65.6741 30.4031 65.8261 29.4773 66.0171 28.5592C66.2076 27.6406 66.4089 26.7153 66.6209 25.7824C66.9035 24.5391 67.1897 23.2994 67.4795 22.0628C67.7689 20.8267 68.0622 19.5865 68.3588 18.3433C68.5283 17.6367 68.7017 16.9408 68.878 16.2556C69.0546 15.5701 69.2277 14.8813 69.3976 14.189C69.4115 14.1465 69.4187 14.1041 69.4187 14.062C69.4187 14.0195 69.4258 13.9699 69.4397 13.9135H69.1007C68.7617 13.9417 68.4227 13.9632 68.0833 13.977C67.7443 13.9913 67.4053 14.0124 67.0658 14.0406C66.4585 14.0973 65.8579 14.1644 65.2644 14.2422C64.671 14.3196 64.0775 14.4506 63.484 14.634C62.9188 14.8035 62.3749 15.0155 61.8521 15.27C61.6965 15.3549 61.5977 15.4819 61.5556 15.6515C61.2305 16.9654 60.9125 18.269 60.6017 19.5619C60.2909 20.8549 59.9872 22.1652 59.6902 23.4935C59.6053 23.8611 59.5172 24.2176 59.4255 24.5637C59.3334 24.9099 59.2381 25.2596 59.1392 25.6129C59.1111 25.7542 59.0686 25.8745 59.0118 25.9733C58.9416 26.0865 58.853 26.1464 58.747 26.1535C58.6411 26.1607 58.5529 26.1147 58.4823 26.0158C58.4255 25.9451 58.3763 25.8816 58.3338 25.8249C58.2913 25.7685 58.2489 25.705 58.2068 25.6343C57.9662 25.2528 57.7404 24.8606 57.5284 24.4577C57.3164 24.0552 57.1326 23.6348 56.9774 23.1969C56.8642 22.8718 56.7725 22.5503 56.7019 22.2323C56.6312 21.9144 56.6098 21.5861 56.6384 21.2471C56.6804 20.371 56.9067 19.5302 57.3164 18.7248C57.7828 17.8205 58.4116 17.0361 59.2028 16.3719C59.6692 15.9766 60.1424 15.6372 60.6227 15.3549C60.6795 15.3263 60.7287 15.2946 60.7712 15.2592C60.8137 15.2239 60.8629 15.1922 60.9196 15.164C60.9621 14.9663 61.0078 14.7682 61.0574 14.5705C61.1066 14.3728 61.1527 14.1747 61.1951 13.977C61.3928 12.9596 61.612 11.9493 61.8521 10.9462C62.0923 9.94308 62.3396 8.9328 62.594 7.91538C62.7068 7.46324 62.8096 7.01467 62.9013 6.56967C62.993 6.12428 63.0744 5.6757 63.145 5.22356C63.1732 5.09653 63.1875 4.96951 63.1875 4.84208C63.1875 4.71505 63.1946 4.58763 63.2085 4.4606C63.2085 4.40424 63.1947 4.31928 63.1661 4.20614C63.1379 4.13548 63.0887 4.10016 63.018 4.10016C62.8767 4.12874 62.7774 4.15693 62.7211 4.18511C62.6504 4.2133 62.5762 4.24505 62.4984 4.28038C62.421 4.31571 62.3467 4.35461 62.2761 4.39709C62.0923 4.51022 61.9085 4.61979 61.7251 4.72578C61.5413 4.83138 61.3646 4.94808 61.1951 5.07511C60.1777 5.83847 59.2663 6.67885 58.4608 7.59742C57.6554 8.516 56.9492 9.52628 56.3414 10.6283C56.1576 10.9534 55.9953 11.2924 55.854 11.6457C55.7126 11.999 55.5995 12.3594 55.515 12.7266C55.4582 12.9386 55.4229 13.1541 55.409 13.3729C55.3947 13.592 55.4161 13.8147 55.4725 14.0406L55.536 14.295C55.6348 14.5776 55.8258 14.7472 56.1084 14.8035C56.1791 14.8321 56.2533 14.8496 56.3307 14.8567C56.4085 14.8639 56.4828 14.8742 56.5534 14.8885H56.7444C56.8432 14.9167 56.8924 14.9734 56.8924 15.058C56.8924 15.1568 56.8432 15.2065 56.7444 15.2065C56.5463 15.2346 56.3486 15.2418 56.1509 15.2275C55.9528 15.2136 55.7623 15.1497 55.5785 15.037C55.324 14.8813 55.1406 14.6412 55.0275 14.3161C54.9286 14.0477 54.8933 13.7369 54.9215 13.3836C54.9354 12.9878 55.0132 12.5781 55.1545 12.1542C55.3101 11.66 55.5007 11.1864 55.7269 10.7342C55.9528 10.2821 56.2073 9.8371 56.4899 9.39885C57.0691 8.50885 57.7086 7.68237 58.408 6.9194C59.1075 6.15604 59.874 5.44984 60.7077 4.79961C61.188 4.43242 61.6826 4.11445 62.1911 3.8461C62.3043 3.78934 62.4174 3.7401 62.5305 3.69763C62.6433 3.65515 62.7635 3.61983 62.8906 3.59164C63.3288 3.50669 63.6115 3.66946 63.7385 4.07913C63.781 4.20616 63.8056 4.33358 63.8127 4.4606C63.8199 4.58763 63.823 4.71505 63.823 4.84208C63.8091 5.09654 63.7845 5.351 63.7492 5.60506C63.7139 5.85951 63.675 6.11396 63.6325 6.36801C63.5194 6.93329 63.3995 7.49143 63.2721 8.04242C63.145 8.5938 63.018 9.15194 62.8906 9.71682C62.7353 10.3952 62.5833 11.0732 62.4348 11.7517C62.2868 12.4301 62.1347 13.1081 61.9791 13.7865C61.9509 13.8992 61.9264 14.0159 61.9049 14.1362C61.8839 14.2561 61.8592 14.3728 61.8311 14.4859V14.634L61.7886 14.719Z" fill="white"/>
<path d="M74.59 16.8385C74.59 16.9373 74.5547 17.0223 74.484 17.0929C74.4134 17.1636 74.3284 17.1989 74.2296 17.1989C74.0458 17.1989 73.9541 17.1001 73.9541 16.902C73.9541 16.8031 73.9859 16.7182 74.0494 16.6479C74.1129 16.5773 74.1942 16.5419 74.2931 16.5419C74.4769 16.5419 74.5686 16.6336 74.5686 16.8174L74.59 16.8385Z" fill="white"/>
<path d="M78.5324 20.6323C78.5324 21.1126 78.5463 21.5616 78.5749 21.9784C78.603 22.3952 78.6594 22.8085 78.7444 23.2181C78.8289 23.6703 78.9563 24.1224 79.1258 24.5746C79.2811 24.9703 79.4791 25.3022 79.7193 25.571C80.2985 26.2633 81.0543 26.5741 81.9872 26.5034C82.3401 26.4752 82.6795 26.4113 83.0042 26.3125C83.3293 26.2136 83.6473 26.0866 83.9581 25.931C84.4809 25.6484 84.9791 25.3375 85.4523 24.9985C85.9259 24.6595 86.3673 24.2848 86.7769 23.8751C87.116 23.5361 87.4375 23.1757 87.7416 22.7942C88.0453 22.4127 88.3454 22.0312 88.6423 21.6497C89.3203 20.7454 89.9773 19.813 90.6132 18.8519C91.1078 18.1171 91.5846 17.3792 92.0439 16.6372C92.5032 15.8953 92.9799 15.1498 93.4746 14.4012C93.5452 14.288 93.6087 14.1856 93.6655 14.0939C93.7219 14.0018 93.7925 13.9137 93.8775 13.8287C93.962 13.7442 94.0537 13.7299 94.153 13.7866C94.2518 13.8573 94.2943 13.9419 94.28 14.0407C94.2657 14.0975 94.2304 14.182 94.174 14.2951C94.1034 14.4365 94.0291 14.5742 93.9513 14.7084C93.8739 14.8426 93.7925 14.9736 93.7076 15.1006C93.2979 15.7504 92.8847 16.3971 92.4679 17.0398C92.051 17.6829 91.6307 18.322 91.2067 18.9579C90.7264 19.6927 90.2353 20.4168 89.7336 21.1305C89.2322 21.8439 88.6987 22.5397 88.1334 23.2181C87.6106 23.8259 87.0524 24.384 86.459 24.8926C85.8655 25.4011 85.2157 25.8532 84.5091 26.249C84.1701 26.4467 83.8204 26.6094 83.4599 26.7364C83.0999 26.8635 82.7287 26.9627 82.3472 27.0334C81.8951 27.1179 81.4501 27.1179 81.0122 27.0334C80.6446 26.9627 80.3092 26.8353 80.0051 26.6519C79.7014 26.4681 79.4224 26.2347 79.1679 25.9524C78.8432 25.5848 78.5959 25.1823 78.4264 24.7441C78.1437 24.0236 77.9599 23.3031 77.8754 22.5822C77.8047 21.9887 77.7694 21.3953 77.7694 20.8018C77.7694 20.2083 77.7976 19.6149 77.854 19.0214C77.9389 18.1032 78.0624 17.199 78.2251 16.3086C78.3875 15.4186 78.5887 14.5282 78.8289 13.6382C78.9845 13.1011 79.1504 12.5747 79.3271 12.0591C79.5037 11.5434 79.705 11.038 79.9313 10.5438C80.4541 9.31442 81.1321 8.16997 81.9657 7.11007C82.192 6.82743 82.425 6.55552 82.6652 6.29432C82.9054 6.03272 83.1669 5.78184 83.4496 5.54167C83.8311 5.21656 84.2336 4.93432 84.6576 4.69376C85.0815 4.45359 85.5408 4.27018 86.035 4.14276C86.459 4.02962 86.8829 3.9697 87.3069 3.96255C87.7309 3.9558 88.1548 4.02963 88.5788 4.18524C89.1155 4.36904 89.5819 4.67985 89.9773 5.11771C90.3731 5.55595 90.6628 6.02915 90.8462 6.53806C91.0019 6.96162 91.115 7.39273 91.1856 7.83058C91.2563 8.26883 91.2702 8.71381 91.2281 9.16596C91.2138 9.34975 91.1995 9.52998 91.1856 9.70663C91.1714 9.88328 91.1503 10.0631 91.1221 10.2469C91.0936 10.4025 91.0654 10.5474 91.0372 10.6816C91.009 10.8158 90.9594 10.9464 90.8887 11.0734C90.8323 11.1865 90.7827 11.2643 90.7406 11.3068C90.6414 11.4195 90.5287 11.4549 90.4012 11.4128C90.2742 11.3703 90.1964 11.2715 90.1682 11.1159C90.1682 10.9745 90.2246 10.8828 90.3377 10.8404C90.4509 10.8122 90.5354 10.7205 90.5922 10.5649C90.6204 10.4799 90.6414 10.3954 90.6557 10.3104C90.67 10.2259 90.6839 10.1409 90.6982 10.0564C90.7407 9.74553 90.7724 9.43431 90.7934 9.12349C90.8145 8.81267 90.8109 8.49469 90.7827 8.16998C90.6982 7.29387 90.4084 6.51662 89.9138 5.8386C89.5748 5.38646 89.1754 5.05777 88.7165 4.85293C88.2572 4.6481 87.7448 4.55959 87.1799 4.58777C86.7134 4.60206 86.272 4.687 85.8552 4.84221C85.4384 4.99782 85.039 5.20267 84.6576 5.45712C84.2761 5.71118 83.9192 5.99382 83.5873 6.30465C83.2551 6.61547 82.9478 6.95487 82.6652 7.32206C82.1567 7.958 81.7081 8.61855 81.3195 9.30371C80.9308 9.98927 80.5883 10.7133 80.2913 11.4763C79.9523 12.3242 79.6661 13.1825 79.4331 14.0514C79.2001 14.9204 79.0056 15.8072 78.8503 16.7115C78.7654 17.2482 78.6912 17.7924 78.6277 18.3434C78.5641 18.8944 78.5181 19.4454 78.4899 19.9964C78.4756 20.1377 78.4689 20.2723 78.4689 20.3993C78.4689 20.5263 78.4689 20.6252 78.4689 20.6958L78.5324 20.6323Z" fill="white"/>
<path d="M94.4287 13.7861C94.6121 13.5599 94.7887 13.4892 94.9582 13.5741C95.1281 13.6448 95.2127 13.8 95.2127 14.0402C95.227 14.1676 95.2234 14.2946 95.202 14.4217C95.1809 14.5491 95.1563 14.6761 95.1281 14.8031L95.0857 15.0366C95.354 14.9941 95.6013 14.9091 95.8272 14.7821C96.0535 14.6551 96.2511 14.5241 96.4206 14.3899C96.5905 14.2557 96.735 14.1251 96.8553 13.9981C96.9756 13.8707 97.0637 13.7861 97.1201 13.7437C97.1908 13.6869 97.2721 13.6766 97.3638 13.7119C97.4559 13.7472 97.4734 13.8215 97.417 13.9342C97.3746 14.0192 97.2829 14.139 97.1415 14.2946C97.0002 14.4502 96.8164 14.6126 96.5906 14.7821C96.3643 14.9516 96.1098 15.1108 95.8272 15.2589C95.5449 15.4073 95.2409 15.5097 94.9161 15.5665C94.8455 15.6793 94.7748 15.7924 94.7042 15.9055C94.6335 16.0187 94.5628 16.1314 94.4922 16.2445C94.3933 16.4001 94.2659 16.5554 94.1107 16.711C94.0119 16.8098 93.8987 16.8805 93.7713 16.923C93.4748 17.0357 93.2485 16.9583 93.0933 16.6895C92.9802 16.5061 92.9238 16.3152 92.9238 16.1175C92.8956 15.3827 93.0508 14.7043 93.3898 14.0827C93.4466 13.9838 93.5244 13.885 93.6232 13.7861C93.8491 13.6162 94.04 13.6659 94.1953 13.9342C94.1953 13.9485 94.2096 13.9838 94.2377 14.0402L94.4287 13.7861ZM94.3648 15.524C94.3366 15.4959 94.3227 15.4816 94.3227 15.4816C94.0964 15.3684 93.9833 15.1565 93.9833 14.8456V14.7186C93.9833 14.6904 93.9869 14.669 93.994 14.6551C94.0011 14.6408 93.9833 14.6265 93.9412 14.6126C93.8281 14.8528 93.7431 15.0929 93.6867 15.3331C93.63 15.5733 93.5808 15.8134 93.5383 16.054C93.5244 16.1104 93.5172 16.1667 93.5172 16.2235C93.5172 16.2799 93.5383 16.3434 93.5808 16.414C93.7784 16.3009 93.9305 16.1667 94.0365 16.0115C94.1425 15.8559 94.252 15.7007 94.3648 15.5451V15.524ZM94.7887 13.9342C94.7462 13.9342 94.7252 13.9414 94.7252 13.9556C94.57 14.1533 94.4569 14.3863 94.3862 14.6551C94.3719 14.6972 94.3683 14.7432 94.3755 14.7928C94.3826 14.8421 94.3862 14.8953 94.3862 14.9516C94.3862 15.0223 94.4287 15.0648 94.5132 15.079C94.57 15.0929 94.6121 15.0719 94.6407 15.0151C94.7816 14.6904 94.8522 14.3796 94.8522 14.0827C94.8522 14.0545 94.8383 14.012 94.8102 13.9556L94.7887 13.9342Z" fill="white"/>
<path d="M99.3243 13.0019C99.183 13.1151 99.0663 13.2282 98.9746 13.3409C98.8825 13.4541 98.8015 13.5744 98.7308 13.7014C98.6034 13.9134 98.4764 14.1253 98.3493 14.3373C98.2219 14.5493 98.1021 14.7613 97.9889 14.9733L96.7174 17.2621L96.59 17.4527C96.5193 17.5234 96.4348 17.5519 96.3355 17.5377C96.2792 17.5234 96.2264 17.5023 96.1768 17.4741C96.1271 17.446 96.1025 17.4035 96.1025 17.3467C96.1025 17.2761 96.1025 17.2125 96.1025 17.1562C96.1025 17.0998 96.1097 17.0359 96.124 16.9652C96.1661 16.7675 96.2085 16.577 96.251 16.3932C96.2935 16.2094 96.3427 16.0189 96.3995 15.8208L97.4804 12.133C97.5225 11.9916 97.5792 11.8293 97.6499 11.6455C97.7206 11.4899 97.8265 11.4264 97.9679 11.4546C98.0385 11.4688 98.1021 11.4935 98.1584 11.5288C98.2152 11.5641 98.2434 11.6245 98.2434 11.709C98.2434 11.7658 98.2291 11.8503 98.2009 11.9635C98.1584 12.133 98.1159 12.3025 98.0739 12.472C98.0314 12.6415 97.9818 12.8114 97.9254 12.9809L97.353 14.9518C97.3248 15.0368 97.3176 15.1074 97.3319 15.1638L97.5225 14.8458C97.6499 14.6057 97.7662 14.3798 97.8722 14.1678C97.9782 13.9558 98.102 13.7296 98.2434 13.4894C98.4129 13.1929 98.6248 12.9174 98.8793 12.6629C98.9214 12.6204 98.9639 12.578 99.0063 12.5355C99.0488 12.4934 99.098 12.4581 99.1548 12.4299C99.4374 12.26 99.649 12.3239 99.7903 12.6204C99.8471 12.7618 99.8896 12.9241 99.9178 13.1079C99.946 13.3056 99.9602 13.4965 99.9602 13.6803C99.9602 13.8637 99.967 14.0547 99.9813 14.2524C99.9956 14.408 100.006 14.5668 100.013 14.7295C100.02 14.8919 100.038 15.0507 100.066 15.2063C100.08 15.3333 100.115 15.4746 100.172 15.6302C100.2 15.7291 100.264 15.7644 100.363 15.7362C100.433 15.7076 100.497 15.683 100.554 15.662C100.61 15.6406 100.666 15.6088 100.723 15.5667C100.963 15.3968 101.168 15.2273 101.338 15.0578C101.535 14.8601 101.744 14.6588 101.963 14.4536C102.182 14.2488 102.39 14.0475 102.588 13.8498C102.631 13.8074 102.694 13.7578 102.779 13.7014C102.864 13.645 102.941 13.6518 103.012 13.7224C103.055 13.7649 103.065 13.832 103.044 13.9241C103.023 14.0158 102.991 14.0829 102.949 14.1253C102.793 14.2805 102.655 14.4151 102.535 14.5279C102.415 14.641 102.306 14.747 102.207 14.8458C102.108 14.9447 102.013 15.0368 101.92 15.1213C101.829 15.2063 101.733 15.298 101.634 15.3968C101.521 15.51 101.408 15.6088 101.295 15.6937C101.182 15.7783 101.069 15.8704 100.956 15.9692C100.886 16.0399 100.808 16.0895 100.723 16.1177C100.638 16.1459 100.547 16.1741 100.448 16.2023C100.123 16.3154 99.8682 16.2237 99.6844 15.9268C99.5716 15.7291 99.501 15.5028 99.4728 15.2488C99.4442 15.0931 99.4267 14.9447 99.4196 14.8033C99.4124 14.662 99.4021 14.514 99.3878 14.3584C99.3735 14.1607 99.3668 13.9697 99.3668 13.7863C99.3668 13.6025 99.3596 13.4116 99.3453 13.2139C99.3453 13.1714 99.3418 13.129 99.3346 13.0869C99.3279 13.0444 99.3171 12.9876 99.3029 12.9174L99.3243 13.0019Z" fill="white"/>
<path d="M102.991 13.3834C103.26 12.79 103.461 12.3025 103.595 11.921C103.729 11.5395 103.821 11.243 103.87 11.031C103.92 10.8191 103.941 10.667 103.934 10.5753C103.927 10.4832 103.923 10.4233 103.923 10.3951C103.895 10.4515 103.881 10.4796 103.881 10.4796C103.796 10.6777 103.708 10.9036 103.616 11.1581C103.524 11.4125 103.436 11.6737 103.351 11.9421C103.266 12.2108 103.192 12.472 103.129 12.7265C103.065 12.9809 103.019 13.1996 102.991 13.3834ZM105.28 13.129C105.026 13.2846 104.739 13.4648 104.421 13.6697C104.103 13.8745 103.818 14.0333 103.563 14.1464C103.394 14.2314 103.217 14.2738 103.033 14.2738C102.624 14.2596 102.433 14.0333 102.461 13.5954C102.532 13.0302 102.641 12.5002 102.79 12.006C102.938 11.5114 103.125 11.0168 103.351 10.5221C103.379 10.4515 103.411 10.3772 103.447 10.2998C103.482 10.222 103.521 10.1478 103.563 10.0771C103.606 9.99217 103.662 9.91478 103.733 9.84412C103.803 9.77346 103.892 9.73813 103.997 9.73813C104.103 9.73813 104.185 9.78735 104.241 9.8862C104.312 9.99933 104.347 10.1621 104.347 10.3737C104.347 10.5856 104.326 10.7766 104.284 10.9461C104.1 11.7797 103.803 12.5923 103.394 13.3834L103.33 13.5105C103.358 13.553 103.397 13.5708 103.447 13.5637C103.496 13.5565 103.535 13.5391 103.563 13.5105C103.832 13.3977 104.111 13.2385 104.4 13.0337C104.69 12.8289 104.969 12.6487 105.238 12.4935C105.351 12.4367 105.442 12.4014 105.513 12.3875C105.598 12.3593 105.672 12.3732 105.735 12.4299C105.799 12.4863 105.824 12.557 105.81 12.6415C105.81 12.7122 105.796 12.8182 105.768 12.9595C105.668 13.2989 105.573 13.6379 105.481 13.9769C105.389 14.3159 105.301 14.6553 105.216 14.9943C105.103 15.4465 104.99 15.895 104.877 16.34C104.764 16.7854 104.672 17.234 104.602 17.6862C104.573 17.8696 104.545 18.0498 104.517 18.2264C104.489 18.4031 104.481 18.5833 104.496 18.7671C104.496 18.8235 104.496 18.8798 104.496 18.9366C104.496 18.993 104.524 19.0497 104.581 19.1061C104.609 19.0918 104.633 19.0851 104.655 19.0851C104.676 19.0851 104.701 19.0708 104.729 19.0426C104.814 18.9719 104.902 18.8977 104.994 18.8199C105.086 18.7421 105.167 18.654 105.238 18.5551C105.831 17.8342 106.368 17.0713 106.848 16.2658C107.329 15.4608 107.795 14.6621 108.247 13.8709C108.304 13.7864 108.346 13.7296 108.374 13.7014C108.445 13.6308 108.516 13.6165 108.586 13.6589C108.671 13.7014 108.706 13.7649 108.692 13.8499C108.664 13.9344 108.622 14.0265 108.565 14.1254C108.282 14.62 108.018 15.086 107.77 15.5243C107.523 15.9621 107.269 16.3861 107.007 16.7958C106.746 17.2058 106.474 17.6012 106.191 17.9827C105.909 18.3642 105.605 18.7456 105.28 19.1271C105.195 19.2121 105.11 19.2899 105.026 19.3606C104.941 19.4312 104.856 19.4804 104.771 19.5086C104.687 19.5372 104.598 19.5372 104.506 19.5086C104.414 19.4804 104.326 19.4098 104.241 19.297C104.129 19.1414 104.072 18.9648 104.072 18.7671C104.072 18.654 104.072 18.5372 104.072 18.4174C104.072 18.2971 104.086 18.1808 104.114 18.0676C104.227 17.2622 104.372 16.4675 104.549 15.6831C104.725 14.8991 104.955 14.1254 105.238 13.3624C105.266 13.2775 105.283 13.2211 105.29 13.1929C105.298 13.1643 105.294 13.1433 105.28 13.129Z" fill="white"/>
<path d="M107.42 16.2663C107.491 16.1956 107.583 16.111 107.696 16.0122C107.809 15.9133 107.922 15.8141 108.035 15.7153C108.148 15.6164 108.258 15.5211 108.364 15.429C108.47 15.3373 108.558 15.2631 108.628 15.2068C108.713 15.1218 108.784 15.0654 108.84 15.0373C108.911 14.9805 108.985 14.9666 109.063 14.9948C109.141 15.023 109.194 15.0797 109.222 15.1643C109.25 15.2349 109.261 15.2774 109.254 15.2913C109.247 15.3056 109.257 15.3481 109.285 15.4187C109.328 15.5458 109.367 15.6728 109.402 15.8002C109.437 15.9272 109.484 16.0547 109.54 16.1817C109.568 16.2523 109.607 16.3194 109.657 16.383C109.706 16.4465 109.759 16.5136 109.815 16.5842C109.872 16.6549 109.95 16.7009 110.049 16.722C110.148 16.7434 110.232 16.7255 110.303 16.6692C110.402 16.6128 110.501 16.535 110.6 16.4361C110.755 16.2805 110.903 16.1146 111.045 15.938C111.186 15.7613 111.32 15.5739 111.447 15.3762C111.603 15.15 111.73 14.9523 111.829 14.7828C111.928 14.6133 112.048 14.4156 112.189 14.1893C112.246 14.0762 112.295 13.9988 112.338 13.9563C112.422 13.8575 112.521 13.8432 112.634 13.9138C112.705 13.9702 112.719 14.0552 112.677 14.1683L112.613 14.2953C112.373 14.6768 112.147 15.0301 111.935 15.3552C111.723 15.6799 111.476 16.0193 111.193 16.3722C111.108 16.4715 111.024 16.5668 110.939 16.6585C110.854 16.7506 110.762 16.8387 110.663 16.9236C110.494 17.0931 110.303 17.1848 110.091 17.1991C109.837 17.213 109.611 17.1213 109.413 16.9236C109.201 16.7117 109.052 16.4572 108.968 16.1603C108.939 16.0614 108.911 15.9661 108.883 15.8744C108.855 15.7824 108.827 15.6799 108.798 15.5672C108.742 15.6093 108.671 15.6589 108.586 15.7153L107.76 16.4782C107.689 16.535 107.625 16.5914 107.569 16.6481C107.512 16.7045 107.449 16.7609 107.378 16.8176C107.223 16.9304 107.092 16.9447 106.986 16.8597C106.88 16.7752 106.827 16.6692 106.827 16.5421C106.827 16.4572 106.834 16.3937 106.848 16.3512C106.877 16.2805 106.898 16.2063 106.912 16.1285C106.926 16.0511 106.947 15.9769 106.976 15.9062C107.187 15.2984 107.463 14.7332 107.802 14.2104C107.873 14.1115 107.943 14.0198 108.014 13.9349C108.085 13.8503 108.176 13.7725 108.289 13.7019C108.544 13.5324 108.798 13.497 109.052 13.5959C109.166 13.6383 109.264 13.7019 109.349 13.7868C109.462 13.8714 109.491 13.9774 109.434 14.1044C109.391 14.2036 109.314 14.2528 109.201 14.2528C109.088 14.2528 108.957 14.2457 108.809 14.2318C108.66 14.2175 108.551 14.2528 108.48 14.3378C108.438 14.3803 108.395 14.4223 108.353 14.4648C108.31 14.5073 108.275 14.5569 108.247 14.6133C108.134 14.7828 108.028 14.9769 107.929 15.196C107.83 15.4152 107.731 15.6164 107.632 15.8002C107.618 15.8284 107.583 15.9026 107.526 16.0225C107.47 16.1428 107.435 16.2242 107.42 16.2663Z" fill="white"/>
<path d="M115.284 12.366C115.284 12.366 115.302 12.3307 115.337 12.2601C115.372 12.1894 115.411 12.112 115.453 12.027C115.496 11.9421 115.535 11.8647 115.57 11.794C115.605 11.7234 115.623 11.688 115.623 11.688L115.75 11.4336C115.99 10.9108 116.223 10.388 116.45 9.86517C116.675 9.34236 116.887 8.81242 117.085 8.27572C117.241 7.85176 117.378 7.42066 117.499 6.98281C117.619 6.54456 117.707 6.09956 117.764 5.64741V5.32945C117.735 5.38622 117.714 5.42472 117.7 5.44616C117.686 5.4672 117.672 5.49221 117.658 5.5204C117.629 5.59106 117.601 5.66527 117.573 5.74268C117.544 5.82049 117.516 5.89473 117.488 5.96539C117.205 6.64341 116.944 7.32897 116.704 8.02128C116.463 8.71358 116.238 9.42017 116.026 10.1407C115.997 10.2681 115.944 10.4412 115.867 10.6599C115.789 10.879 115.708 11.1017 115.623 11.3276C115.538 11.5539 115.464 11.7658 115.4 11.9635C115.337 12.1612 115.298 12.2954 115.284 12.366ZM113.779 15.2274C113.666 15.3405 113.564 15.4536 113.472 15.5668C113.38 15.6795 113.285 15.7926 113.185 15.9058C113.03 16.061 112.882 16.213 112.74 16.3615C112.599 16.5096 112.451 16.6616 112.295 16.8172C112.253 16.8593 112.189 16.9089 112.104 16.9653C111.949 17.0645 111.79 17.0856 111.628 17.0292C111.465 16.9724 111.349 16.8593 111.278 16.6898C111.222 16.5485 111.2 16.3933 111.214 16.2238C111.313 15.4465 111.596 14.7189 112.062 14.0405C112.218 13.8146 112.408 13.6518 112.634 13.553C112.945 13.4259 113.221 13.4613 113.461 13.659C113.546 13.7157 113.609 13.7931 113.652 13.8924C113.708 14.0051 113.708 14.104 113.652 14.1889C113.595 14.2739 113.51 14.3302 113.397 14.3584H113.27C113.086 14.3445 112.931 14.4219 112.804 14.5914L112.677 14.7824C112.394 15.2345 112.161 15.7009 111.977 16.1813C111.949 16.2376 111.921 16.3226 111.893 16.4357C111.935 16.4639 111.967 16.4675 111.988 16.4461C112.009 16.425 112.034 16.4072 112.062 16.3933C112.175 16.2801 112.292 16.1706 112.412 16.0646C112.532 15.9586 112.649 15.8423 112.762 15.7148C112.959 15.4747 113.157 15.2345 113.355 14.9944C113.553 14.7542 113.751 14.514 113.949 14.2739C114.033 14.1607 114.104 14.0476 114.16 13.9345C114.217 13.8217 114.266 13.7014 114.309 13.5744C114.507 12.8535 114.708 12.1438 114.913 11.4443C115.118 10.7449 115.34 10.0418 115.581 9.33522C115.793 8.69967 116.022 8.08121 116.269 7.48061C116.517 6.88039 116.781 6.28335 117.064 5.68988C117.121 5.57675 117.17 5.46006 117.213 5.34017C117.255 5.21989 117.304 5.10358 117.361 4.99044C117.389 4.91978 117.421 4.85627 117.456 4.7995C117.492 4.74313 117.53 4.68676 117.573 4.63C117.644 4.54544 117.728 4.50653 117.827 4.51368C117.926 4.52043 118.004 4.57362 118.06 4.67247C118.103 4.72883 118.138 4.82808 118.166 4.96939C118.195 5.12461 118.202 5.27307 118.187 5.41439C118.173 5.55571 118.152 5.70378 118.124 5.85939C118.053 6.32582 117.951 6.78472 117.817 7.23686C117.682 7.68901 117.531 8.14155 117.361 8.5937C117.121 9.22924 116.866 9.8616 116.598 10.4904C116.329 11.1192 116.04 11.7444 115.729 12.366C115.63 12.5498 115.531 12.7301 115.432 12.9067C115.333 13.0834 115.234 13.2636 115.136 13.447C115.093 13.5176 115.051 13.5847 115.008 13.6486C114.966 13.7122 114.93 13.7792 114.902 13.8499C114.676 14.6268 114.457 15.4004 114.245 16.1706C114.033 16.9407 113.843 17.7287 113.673 18.5337C113.574 18.9577 113.486 19.3852 113.408 19.8163C113.33 20.247 113.242 20.6745 113.143 21.0985C113.101 21.2962 113.08 21.4871 113.08 21.6705C113.08 21.713 113.086 21.7555 113.101 21.7979C113.115 21.8404 113.129 21.8825 113.143 21.925C113.185 22.0238 113.157 22.1088 113.058 22.1794C112.959 22.2501 112.868 22.2711 112.783 22.2429C112.684 22.2005 112.613 22.1298 112.571 22.031C112.514 21.8896 112.5 21.7201 112.528 21.5224C112.543 21.4236 112.557 21.3279 112.571 21.2362C112.585 21.1445 112.606 21.0489 112.634 20.95C112.691 20.6535 112.744 20.3566 112.794 20.06C112.843 19.7631 112.903 19.4666 112.974 19.1696C113.101 18.5198 113.231 17.8731 113.366 17.2305C113.5 16.5874 113.652 15.9483 113.821 15.3123V15.1849L113.779 15.2274Z" fill="white"/>
</svg>
