<svg width="160" height="49" viewBox="0 0 160 49" fill="none" xmlns="http://www.w3.org/2000/svg">
<g filter="url(#filter0_d_300_38)">
<path d="M24.0799 21.1973L24.2426 20.8712C24.8221 19.6941 25.3969 18.5261 25.9672 17.3672C26.5379 16.2084 27.1036 15.0318 27.6647 13.8363C28.2446 12.5869 28.792 11.3289 29.3084 10.0612C29.8242 8.79348 30.336 7.51712 30.8426 6.23161C30.8609 6.19549 30.8747 6.16344 30.8833 6.13648C30.8925 6.10901 30.8701 6.07749 30.8157 6.04137L30.7343 6.20414C30.3359 6.63909 29.9422 7.08268 29.5525 7.53543C29.1634 7.98767 28.7875 8.44957 28.4253 8.92064C27.6647 9.89837 26.9632 10.9031 26.3207 11.9353C25.6777 12.9674 25.1029 14.054 24.5957 15.1945C24.324 15.7923 24.0799 16.3987 23.8627 17.0142C23.6449 17.6302 23.473 18.2636 23.3463 18.9157C23.2919 19.2779 23.2649 19.631 23.2649 19.9749C23.2649 20.3188 23.3372 20.6087 23.4821 20.8442C23.5549 20.9348 23.6317 21.0162 23.7131 21.0884C23.7945 21.1607 23.9079 21.1973 24.0524 21.1973H24.0799ZM14.5462 38.6343C14.655 38.6165 14.741 38.5804 14.8041 38.5259C14.8677 38.4715 14.9267 38.3993 14.9806 38.3087C15.2523 37.856 15.5285 37.4078 15.8093 36.9642C16.0901 36.5206 16.3572 36.0633 16.6105 35.5922C17.3166 34.3428 18.0049 33.0934 18.6749 31.844C19.3448 30.5947 20.0056 29.3275 20.6573 28.0415C21.1645 27.0637 21.6625 26.086 22.1514 25.1082C22.6402 24.1305 23.1291 23.1528 23.618 22.175C23.6541 22.1206 23.677 22.0662 23.6861 22.0117C23.6948 21.9578 23.7177 21.9034 23.7538 21.8489L23.591 21.7675C23.3193 21.6409 23.1108 21.4735 22.9663 21.265C22.8213 21.0569 22.7125 20.8168 22.6402 20.5451C22.6041 20.364 22.5812 20.1875 22.5721 20.0156C22.5634 19.8436 22.568 19.6671 22.5858 19.486C22.6219 19.0516 22.6947 18.6212 22.803 18.1959C22.9119 17.7701 23.0385 17.3494 23.1835 16.9328C23.5635 15.8645 24.0071 14.8324 24.5143 13.8363C25.0215 12.8408 25.5917 11.8717 26.2256 10.9306C27.4205 9.15567 28.706 7.52629 30.0821 6.04137C30.2815 5.82415 30.4804 5.60693 30.6798 5.38971C30.8792 5.17198 31.0598 4.93695 31.2231 4.68311C31.2954 4.55644 31.4134 4.42976 31.5762 4.30309C31.7029 4.21254 31.8295 4.20338 31.9562 4.27562C32.065 4.33005 32.1195 4.42062 32.1195 4.54729C32.1195 4.69227 32.1103 4.80112 32.092 4.87335C32.0559 5.00002 32.0152 5.12264 31.9699 5.24015C31.9246 5.35767 31.8839 5.4711 31.8478 5.57946C31.5039 6.44884 31.1687 7.30449 30.8426 8.1464C30.5171 8.98831 30.1727 9.84394 29.8105 10.7128C29.3399 11.89 28.8327 13.0488 28.2899 14.1898C27.7466 15.3304 27.1942 16.4709 26.6331 17.6119L25.0032 20.7898C24.9671 20.8259 24.9442 20.8666 24.9355 20.9119C24.9264 20.9572 24.9035 21.007 24.8674 21.0615C24.9035 21.0615 24.9396 21.0661 24.9762 21.0747C25.0123 21.0839 25.0485 21.0793 25.0846 21.0615C25.2657 20.9887 25.4422 20.9165 25.6141 20.8442C25.7866 20.7715 25.9539 20.6901 26.1167 20.5996C26.515 20.3823 26.9001 20.1244 27.271 19.8253C27.6424 19.5267 28 19.2281 28.3439 18.929C28.6882 18.6304 29.0052 18.3409 29.2946 18.0601C29.5846 17.7793 29.8379 17.5397 30.0552 17.3403C30.1096 17.2858 30.1727 17.268 30.2454 17.2858C30.3176 17.3041 30.3721 17.3403 30.4082 17.3947C30.4987 17.5031 30.4987 17.6302 30.4082 17.7747C30.0282 18.1552 29.6024 18.5714 29.1318 19.0241C28.6608 19.4769 28.1719 19.898 27.6647 20.2872C27.1581 20.6764 26.6509 21.0162 26.1442 21.3056C25.637 21.5956 25.139 21.7767 24.6501 21.8489C24.5957 21.8489 24.5143 21.8673 24.4054 21.9034L24.1612 22.3109C23.4552 23.723 22.7491 25.122 22.0425 26.5072C21.3364 27.8924 20.6212 29.2914 19.8968 30.7035C19.354 31.7718 18.8015 32.8264 18.2399 33.8677C17.6788 34.909 17.1085 35.9636 16.5291 37.0318C16.4386 37.1951 16.3389 37.3534 16.23 37.5075C16.1216 37.6611 16.0219 37.8198 15.9314 37.9826L15.5239 38.6343C15.3794 38.8881 15.1892 39.0962 14.9536 39.259C14.537 39.5128 14.157 39.4854 13.8131 39.1776C13.6137 39.0148 13.4596 38.7884 13.3512 38.4985C13.2245 38.1546 13.134 37.7654 13.0796 37.331C13.0251 36.9143 12.9982 36.4931 12.9982 36.0679C12.9982 35.6421 13.0073 35.2214 13.0251 34.8047C13.0613 33.9359 13.1203 33.0802 13.2016 32.2383C13.283 31.3959 13.3873 30.5407 13.514 29.6714C13.7134 28.2592 13.953 26.8557 14.2338 25.4613C14.5146 24.0669 14.8178 22.6731 15.1439 21.2787C15.2889 20.6087 15.4334 19.9433 15.5783 19.2825C15.7233 18.6212 15.8861 17.9558 16.0672 17.2858C16.3205 16.2903 16.5606 15.2988 16.787 14.3119C17.0134 13.325 17.226 12.3244 17.4255 11.3105C17.4794 11.0572 17.5206 10.8125 17.5475 10.577C17.5745 10.342 17.6066 10.0973 17.6427 9.84396C17.6605 9.48176 17.6152 9.1104 17.5068 8.73039C17.398 8.40431 17.1808 8.19624 16.8547 8.10569C16.6558 8.06957 16.4111 8.07823 16.1216 8.13266C15.7411 8.20541 15.3749 8.30461 15.0218 8.43128C14.6683 8.55845 14.3198 8.71206 13.9759 8.89316C13.1065 9.3276 12.2921 9.82563 11.5316 10.3872C10.771 10.9484 10.0466 11.5639 9.35837 12.2339C8.8695 12.7049 8.40351 13.1984 7.95992 13.7142C7.51632 14.2305 7.10428 14.7779 6.72377 15.3573C6.37988 15.8828 6.06754 16.417 5.78673 16.9603C5.50643 17.5031 5.26631 18.0647 5.0669 18.6441C4.75913 19.5313 4.6055 20.4276 4.6055 21.3331C4.6055 21.8037 4.69147 22.2249 4.86342 22.5957C5.03536 22.9671 5.25715 23.284 5.5288 23.5465C5.80045 23.809 6.09907 24.0216 6.42515 24.1849C6.75123 24.3477 7.06815 24.4474 7.37592 24.4835C7.97314 24.5558 8.55256 24.5288 9.11417 24.4022C9.36751 24.3477 9.62085 24.2847 9.8747 24.2119C10.128 24.1397 10.3814 24.0491 10.6352 23.9402C10.7619 23.8858 10.8794 23.8273 10.9883 23.7637C11.0966 23.7007 11.2055 23.6325 11.3143 23.5602C11.3866 23.5241 11.4496 23.4834 11.5041 23.4382C11.5585 23.3929 11.6038 23.3247 11.6399 23.2342C11.6399 23.2158 11.6582 23.1889 11.6943 23.1528C11.8393 23.0078 11.9751 22.99 12.1018 23.0983C12.2468 23.2072 12.2738 23.3247 12.1832 23.4514C12.1288 23.578 12.0474 23.6777 11.939 23.7505C11.8485 23.8044 11.762 23.8589 11.6806 23.9133C11.5992 23.9677 11.5133 24.013 11.4227 24.0491C10.8977 24.3208 10.3544 24.538 9.7933 24.7008C9.23169 24.8641 8.65229 24.9633 8.05455 24.9999C6.78736 25.0538 5.71906 24.6011 4.84968 23.6416C4.43356 23.1711 4.17056 22.6364 4.0622 22.0392C3.98946 21.6048 3.98081 21.1337 4.03473 20.6265C4.10748 19.9204 4.25246 19.2413 4.46968 18.5897C4.6869 17.938 4.94939 17.295 5.25716 16.6611C5.65548 15.8284 6.14435 15.0409 6.72377 14.2982C7.6837 13.0671 8.72909 11.9581 9.86096 10.9712C10.9928 9.98435 12.2555 9.1287 13.6498 8.4043C14.012 8.2054 14.3834 8.03753 14.7634 7.90171C15.1439 7.76588 15.5422 7.65295 15.9589 7.5624C16.1578 7.52628 16.3617 7.50337 16.5698 7.49422C16.7779 7.48557 16.9819 7.50797 17.1808 7.5624C17.5974 7.67076 17.8868 7.92459 18.0501 8.3229C18.1768 8.64899 18.2582 8.99288 18.2943 9.35507C18.3305 9.73508 18.335 10.1156 18.308 10.4956C18.2811 10.8761 18.2312 11.2561 18.1585 11.6366C17.9596 12.6688 17.7469 13.7005 17.5206 14.7326C17.2942 15.7648 17.0541 16.797 16.8008 17.8291C16.4386 19.3685 16.0947 20.9028 15.7686 22.4329C15.4425 23.9631 15.1531 25.5157 14.8992 27.0912C14.8087 27.6884 14.7135 28.2861 14.6143 28.8839C14.5146 29.4811 14.4195 30.0788 14.3289 30.6761C14.2023 31.6177 14.1026 32.5547 14.0303 33.4877C13.9576 34.4201 13.9306 35.3663 13.9489 36.3258C13.9489 36.5791 13.9576 36.8375 13.9759 37.1C13.9942 37.3625 14.0303 37.6204 14.0843 37.8738C14.1209 38.0009 14.1616 38.1139 14.2069 38.2136C14.2521 38.3133 14.3381 38.3993 14.4648 38.4715L14.5462 38.6343Z" fill="black"/>
<path d="M32.6902 13.5917C32.4908 13.7728 32.2827 14.0399 32.0655 14.3929C31.8483 14.746 31.5767 15.2664 31.2506 15.9547C31.2145 16.0452 31.1738 16.1404 31.1285 16.2401C31.0832 16.3393 31.0512 16.4619 31.0334 16.6063C31.3956 16.208 31.7171 15.8006 31.9974 15.3844C32.2782 14.9678 32.5091 14.5242 32.6902 14.0536C32.7625 13.9087 32.7808 13.7728 32.7447 13.6462L32.6902 13.5917ZM29.0504 20.2461C29.0687 19.9023 29.1277 19.508 29.2269 19.0644C29.3267 18.6208 29.4579 18.1594 29.6207 17.6792C29.784 17.1995 29.9783 16.729 30.2047 16.267C30.431 15.8051 30.6712 15.3661 30.9245 14.95C31.0695 14.7323 31.2145 14.5196 31.3594 14.3115C31.5039 14.103 31.6489 13.8995 31.7939 13.7001C31.8483 13.61 31.9068 13.5327 31.9704 13.4696C32.0335 13.4061 32.1016 13.3384 32.1739 13.2657C32.2644 13.1751 32.3642 13.1029 32.473 13.0484C32.7986 12.9035 33.025 13.0123 33.1516 13.3745C33.2061 13.5734 33.2061 13.7637 33.1516 13.9448C33.1155 14.0353 33.084 14.1305 33.057 14.2302C33.0295 14.3294 32.998 14.4245 32.9619 14.515C32.5452 15.4928 31.975 16.3622 31.2506 17.1227C31.16 17.2132 31.0603 17.2992 30.952 17.3806C30.8431 17.462 30.7348 17.548 30.6259 17.6385C30.4992 17.7291 30.4265 17.8288 30.4087 17.9376C30.2998 18.2998 30.2006 18.6661 30.1101 19.0375C30.0195 19.4088 29.9559 19.7842 29.9198 20.1647C29.9198 20.2731 29.9244 20.382 29.933 20.4903C29.9422 20.5992 29.9468 20.708 29.9468 20.8164V20.9797C30.0556 21.3053 30.2637 21.4141 30.5714 21.3053C30.7709 21.2508 30.952 21.1694 31.1148 21.0611C31.2775 20.9522 31.4408 20.8439 31.6036 20.735C31.7664 20.6261 31.9205 20.5086 32.0655 20.382C32.3733 20.1464 32.6628 19.8977 32.9344 19.6352C33.2061 19.3727 33.4777 19.1056 33.7494 18.834C33.9488 18.6163 34.1522 18.399 34.3603 18.1818C34.5689 17.9646 34.7724 17.7565 34.9718 17.5571C35.0257 17.5027 35.1254 17.4213 35.2704 17.3129C35.3971 17.2585 35.5059 17.2763 35.5965 17.3669C35.7231 17.4574 35.741 17.5754 35.6504 17.7204C35.5782 17.8288 35.5151 17.9102 35.4607 17.9646C35.2251 18.2179 34.9942 18.458 34.7678 18.6844C34.5414 18.9108 34.3105 19.1504 34.0754 19.4042C33.6771 19.8204 33.2696 20.2192 32.853 20.5992C32.4364 20.9797 31.9928 21.3236 31.5222 21.6314C31.4134 21.7036 31.305 21.7718 31.1962 21.8348C31.0878 21.8984 30.9698 21.9574 30.8431 22.0114C30.4265 22.2108 30.0688 22.2154 29.7702 22.0251C29.4716 21.8348 29.2676 21.5678 29.1593 21.2239L29.0779 20.8164C29.0596 20.7259 29.0504 20.6307 29.0504 20.5315C29.0504 20.4318 29.0504 20.3367 29.0504 20.2461Z" fill="black"/>
<path d="M35.5146 16.9318C35.859 16.1713 36.1169 15.5466 36.2889 15.0577C36.4608 14.5689 36.5783 14.1889 36.6419 13.9172C36.7055 13.6456 36.7325 13.4507 36.7233 13.3332C36.7142 13.2152 36.7096 13.1384 36.7096 13.1023C36.6735 13.1745 36.6557 13.2106 36.6557 13.2106C36.5468 13.4645 36.4339 13.7539 36.3159 14.08C36.1983 14.4061 36.0849 14.7408 35.9765 15.0847C35.8677 15.4291 35.7725 15.7638 35.6912 16.0899C35.6098 16.416 35.5508 16.6963 35.5146 16.9318ZM38.4484 16.6058C38.1223 16.8052 37.7555 17.0361 37.348 17.2986C36.9405 17.5611 36.5743 17.7646 36.2482 17.9096C36.031 18.0184 35.8046 18.0729 35.5691 18.0729C35.0441 18.0545 34.7994 17.7646 34.8355 17.2035C34.9261 16.4791 35.0665 15.8 35.2567 15.1666C35.447 14.5328 35.6866 13.8989 35.9765 13.2651C36.0126 13.1745 36.0534 13.0794 36.0986 12.9802C36.1439 12.8805 36.1938 12.7853 36.2482 12.6948C36.3026 12.5859 36.3749 12.4867 36.4654 12.3962C36.556 12.3056 36.6689 12.2604 36.8047 12.2604C36.9405 12.2604 37.0448 12.3235 37.1171 12.4501C37.2076 12.5951 37.2529 12.8037 37.2529 13.0748C37.2529 13.3465 37.2259 13.5911 37.1715 13.8084C36.936 14.8766 36.556 15.918 36.031 16.9318L35.9496 17.0946C35.9857 17.149 36.0356 17.1719 36.0986 17.1628C36.1622 17.1536 36.2121 17.1312 36.2482 17.0946C36.5921 16.9501 36.9497 16.7461 37.3211 16.4836C37.6919 16.2212 38.0495 15.9902 38.3939 15.7913C38.5389 15.7186 38.6564 15.6733 38.747 15.6555C38.8553 15.6194 38.9504 15.6372 39.0318 15.7099C39.1137 15.7821 39.1453 15.8727 39.127 15.981C39.127 16.0716 39.1092 16.2074 39.073 16.3885C38.9459 16.8235 38.8238 17.2579 38.7063 17.6923C38.5882 18.1268 38.4753 18.5617 38.3664 18.9962C38.222 19.5756 38.077 20.1504 37.932 20.7207C37.787 21.2914 37.6695 21.8663 37.579 22.4457C37.5428 22.6807 37.5067 22.9117 37.4701 23.1381C37.434 23.3644 37.4248 23.5954 37.4431 23.8309C37.4431 23.9032 37.4431 23.9754 37.4431 24.0481C37.4431 24.1204 37.4793 24.1931 37.552 24.2654C37.5881 24.247 37.6197 24.2384 37.6471 24.2384C37.6741 24.2384 37.7056 24.2201 37.7418 24.184C37.8506 24.0934 37.9636 23.9983 38.0816 23.8986C38.1991 23.7989 38.3034 23.686 38.3939 23.5593C39.1544 22.6355 39.8422 21.6577 40.4583 20.6256C41.0738 19.5939 41.671 18.5704 42.2504 17.5565C42.3232 17.4482 42.3776 17.3754 42.4137 17.3393C42.5043 17.2488 42.5948 17.2304 42.6854 17.2849C42.7937 17.3393 42.839 17.4207 42.8212 17.5296C42.7846 17.6379 42.7307 17.7559 42.6579 17.8826C42.2957 18.5164 41.9564 19.1137 41.6395 19.6753C41.3226 20.2364 40.997 20.7797 40.6617 21.3047C40.327 21.8302 39.978 22.3369 39.6158 22.8257C39.2541 23.3146 38.8645 23.8034 38.4484 24.2923C38.3395 24.4012 38.2306 24.5009 38.1223 24.5915C38.0134 24.682 37.905 24.7451 37.7962 24.7812C37.6878 24.8178 37.5744 24.8178 37.4569 24.7812C37.3389 24.7451 37.2259 24.6545 37.1171 24.5101C36.9726 24.3106 36.8999 24.0843 36.8999 23.8309C36.8999 23.6859 36.8999 23.5364 36.8999 23.3827C36.8999 23.2286 36.9182 23.0796 36.9543 22.9346C37.0993 21.9024 37.2849 20.884 37.5113 19.8788C37.7372 18.8741 38.0317 17.8826 38.3939 16.9049C38.43 16.796 38.4524 16.7238 38.4616 16.6877C38.4707 16.651 38.4662 16.6241 38.4484 16.6058Z" fill="black"/>
<path d="M43.0375 17.448C43.2726 17.158 43.4989 17.0674 43.7161 17.1763C43.9339 17.2668 44.0422 17.4658 44.0422 17.7735C44.0606 17.9368 44.056 18.0996 44.0285 18.2624C44.0015 18.4257 43.97 18.5885 43.9339 18.7512L43.8794 19.0504C44.2233 18.9959 44.5403 18.8871 44.8297 18.7243C45.1197 18.5615 45.373 18.3936 45.5902 18.2217C45.8079 18.0498 45.9931 17.8824 46.1473 17.7196C46.3014 17.5563 46.4143 17.4479 46.4866 17.3935C46.5771 17.3208 46.6814 17.3075 46.7989 17.3528C46.9169 17.3981 46.9393 17.4932 46.8671 17.6377C46.8127 17.7466 46.6951 17.9002 46.514 18.0996C46.3329 18.299 46.0974 18.5071 45.808 18.7243C45.518 18.9415 45.1919 19.1455 44.8297 19.3352C44.468 19.5255 44.0783 19.6567 43.6622 19.7295C43.5717 19.874 43.4811 20.0189 43.3906 20.1639C43.3 20.3089 43.2095 20.4534 43.1189 20.5984C42.9923 20.7978 42.829 20.9967 42.6301 21.1961C42.5034 21.3228 42.3584 21.4133 42.1951 21.4678C41.8151 21.6122 41.5251 21.513 41.3262 21.1686C41.1813 20.9336 41.109 20.6889 41.109 20.4356C41.0729 19.494 41.2718 18.6246 41.7063 17.8279C41.779 17.7013 41.8787 17.5746 42.0054 17.448C42.2948 17.2302 42.5395 17.2938 42.7384 17.6377C42.7384 17.656 42.7567 17.7013 42.7928 17.7735L43.0375 17.448ZM42.9556 19.6751C42.9195 19.6389 42.9017 19.6206 42.9017 19.6206C42.6118 19.4757 42.4668 19.204 42.4668 18.8057V18.6429C42.4668 18.6068 42.4713 18.5793 42.4805 18.5615C42.4897 18.5432 42.4668 18.5249 42.4128 18.5071C42.2679 18.8148 42.159 19.1226 42.0868 19.4304C42.014 19.7381 41.9509 20.0459 41.8965 20.3542C41.8787 20.4264 41.8695 20.4987 41.8695 20.5714C41.8695 20.6436 41.8965 20.725 41.9509 20.8156C42.2043 20.6706 42.3991 20.4987 42.5349 20.2997C42.6707 20.1003 42.8111 19.9014 42.9556 19.702V19.6751ZM43.4989 17.6377C43.4445 17.6377 43.4175 17.6469 43.4175 17.6652C43.2186 17.9185 43.0736 18.2171 42.9831 18.5615C42.9648 18.6154 42.9602 18.6744 42.9694 18.738C42.9785 18.8011 42.9831 18.8693 42.9831 18.9415C42.9831 19.0321 43.0375 19.0865 43.1459 19.1048C43.2186 19.1226 43.2726 19.0957 43.3092 19.0229C43.4898 18.6068 43.5803 18.2085 43.5803 17.8279C43.5803 17.7918 43.5625 17.7374 43.5264 17.6652L43.4989 17.6377Z" fill="black"/>
<path d="M49.3123 16.4429C49.1312 16.5879 48.9816 16.7329 48.8641 16.8774C48.7461 17.0223 48.6423 17.1765 48.5517 17.3393C48.3885 17.6109 48.2257 17.8826 48.0629 18.1542C47.8996 18.4259 47.746 18.6975 47.601 18.9692L45.9716 21.9024L45.8083 22.1466C45.7177 22.2371 45.6094 22.2738 45.4822 22.2554C45.41 22.2371 45.3423 22.2102 45.2787 22.174C45.2151 22.1379 45.1836 22.0835 45.1836 22.0107C45.1836 21.9202 45.1836 21.8388 45.1836 21.7666C45.1836 21.6943 45.1928 21.6124 45.2111 21.5219C45.265 21.2685 45.3194 21.0244 45.3738 20.7888C45.4283 20.5533 45.4914 20.3091 45.5641 20.0553L46.9493 15.3294C47.0032 15.1483 47.076 14.9402 47.1665 14.7047C47.2571 14.5053 47.3929 14.4239 47.574 14.46C47.6645 14.4783 47.746 14.5098 47.8182 14.5551C47.8909 14.6004 47.9271 14.6777 47.9271 14.7861C47.9271 14.8588 47.9087 14.9672 47.8726 15.1121C47.8182 15.3294 47.7638 15.5466 47.7098 15.7638C47.6554 15.981 47.5918 16.1988 47.5196 16.416L46.786 18.9417C46.7499 19.0506 46.7407 19.1411 46.759 19.2133L47.0032 18.8059C47.1665 18.4981 47.3156 18.2087 47.4514 17.937C47.5872 17.6654 47.746 17.3754 47.9271 17.0676C48.1443 16.6876 48.4159 16.3346 48.742 16.0085C48.7959 15.9541 48.8504 15.8996 48.9048 15.8452C48.9592 15.7913 49.0223 15.746 49.0951 15.7099C49.4573 15.4921 49.7284 15.5741 49.9095 15.9541C49.9822 16.1352 50.0367 16.3432 50.0728 16.5787C50.1089 16.8321 50.1272 17.0768 50.1272 17.3123C50.1272 17.5473 50.1359 17.792 50.1542 18.0454C50.1725 18.2448 50.1857 18.4483 50.1949 18.6568C50.204 18.8649 50.2264 19.0684 50.2625 19.2678C50.2808 19.4306 50.3261 19.6117 50.3983 19.8111C50.435 19.9377 50.5164 19.983 50.643 19.9469C50.7336 19.9103 50.815 19.8788 50.8877 19.8518C50.96 19.8243 51.0322 19.7836 51.1049 19.7297C51.4127 19.512 51.6752 19.2947 51.8924 19.0775C52.1458 18.8242 52.4128 18.5663 52.6936 18.3033C52.9745 18.0408 53.2415 17.7829 53.4949 17.5295C53.5493 17.4751 53.6307 17.4115 53.7395 17.3393C53.8479 17.267 53.9476 17.2757 54.0382 17.3662C54.0926 17.4207 54.1058 17.5066 54.0789 17.6247C54.0519 17.7422 54.0112 17.8281 53.9568 17.8826C53.7574 18.0815 53.5808 18.2539 53.4272 18.3984C53.2731 18.5434 53.1327 18.6792 53.006 18.8059C52.8793 18.9326 52.7572 19.0506 52.6392 19.1589C52.5217 19.2678 52.3996 19.3853 52.2724 19.512C52.128 19.6569 51.983 19.7836 51.838 19.8925C51.693 20.0008 51.5485 20.1189 51.4036 20.2455C51.313 20.3361 51.2133 20.3997 51.1049 20.4358C50.9961 20.4719 50.8786 20.508 50.7519 20.5441C50.3353 20.6891 50.0092 20.5716 49.7737 20.1911C49.6292 19.9378 49.5386 19.6478 49.5025 19.3222C49.4659 19.1228 49.4435 18.9325 49.4344 18.7514C49.4252 18.5703 49.412 18.3806 49.3936 18.1812C49.3753 17.9278 49.3667 17.6832 49.3667 17.4481C49.3667 17.2126 49.3575 16.9679 49.3392 16.7146C49.3392 16.6601 49.3346 16.6057 49.3255 16.5518C49.3168 16.4974 49.3031 16.4246 49.2848 16.3346L49.3123 16.4429Z" fill="black"/>
<path d="M54.8523 14.6231C54.6168 14.6231 54.5171 14.5051 54.5532 14.27C54.5532 14.1795 54.5807 14.1067 54.6351 14.0528C54.7252 13.9623 54.8116 13.8763 54.893 13.7944C54.9744 13.713 55.0604 13.6362 55.1509 13.564C55.2776 13.4734 55.3997 13.4688 55.5177 13.5502C55.6352 13.6316 55.6942 13.7537 55.6942 13.917C55.6759 13.9531 55.6627 13.9938 55.6535 14.0391C55.6444 14.0844 55.6215 14.1251 55.5854 14.1612C55.4226 14.3423 55.2145 14.4781 54.9607 14.5687C54.9429 14.587 54.8976 14.5956 54.8249 14.5956L54.8523 14.6231ZM59.4424 17.448C59.6235 17.2669 59.7685 17.2348 59.8768 17.3528C59.9857 17.4703 59.9857 17.6107 59.8768 17.7735C59.8046 17.8824 59.741 17.9546 59.6866 17.9907C59.0532 18.6068 58.4148 19.2177 57.7718 19.8241C57.1293 20.431 56.4817 21.0328 55.8301 21.6305C55.5762 21.8661 55.3229 22.0879 55.0695 22.2959C54.8157 22.504 54.5624 22.708 54.309 22.9069C54.164 23.0341 53.9651 23.1424 53.7113 23.233C53.313 23.3779 53.0505 23.2513 52.9238 22.853C52.8694 22.6897 52.8424 22.5269 52.8424 22.3641C52.8424 22.183 52.8378 22.0065 52.8287 21.834C52.8195 21.6621 52.8241 21.4855 52.8424 21.3044C52.933 20.5078 53.0505 19.7249 53.1955 18.9552C53.3399 18.1856 53.5393 17.4205 53.7927 16.66L54.0374 16.0083C54.0918 15.8994 54.164 15.7997 54.2546 15.7097C54.3635 15.6008 54.4993 15.5739 54.6621 15.6278C54.7165 15.6461 54.748 15.6914 54.7572 15.7636C54.7664 15.8363 54.7664 15.9223 54.7572 16.022C54.748 16.1212 54.7297 16.2118 54.7028 16.2932C54.6758 16.3751 54.6529 16.4427 54.6351 16.4972C54.3451 17.4205 54.1188 18.3575 53.956 19.3083C53.7927 20.2591 53.6482 21.2231 53.521 22.2008C53.521 22.3458 53.6116 22.3865 53.7927 22.3229C53.9738 22.2598 54.1005 22.2008 54.1732 22.1464C54.3721 22.0019 54.5624 21.8615 54.7435 21.7257C54.9246 21.5898 55.1057 21.4494 55.2868 21.3044C55.649 20.9789 56.0066 20.6528 56.3596 20.3267C56.7127 20.0006 57.0703 19.6751 57.4325 19.349C57.7764 19.0412 58.1116 18.7243 58.4372 18.3982C58.7633 18.0726 59.0985 17.7557 59.4424 17.448Z" fill="black"/>
<path d="M59.1717 22.0933C59.389 22.0389 59.5879 21.9208 59.769 21.7403C59.9862 21.5408 60.2039 21.346 60.4211 21.1563C60.6383 20.966 60.8556 20.7712 61.0728 20.5723C61.6705 20.0468 62.2362 19.5126 62.7703 18.9698C63.3045 18.4265 63.8615 17.9194 64.4409 17.4488C64.4954 17.4122 64.5946 17.376 64.7396 17.3399C64.8301 17.3216 64.9115 17.376 64.9842 17.5027C65.0382 17.5933 65.0382 17.6752 64.9842 17.7474C64.9298 17.8379 64.8571 17.9102 64.7665 17.9646C64.1871 18.4357 63.6575 18.9062 63.1778 19.3768C62.6981 19.8479 62.2047 20.3184 61.6975 20.7895C61.4986 20.9884 61.2992 21.1786 61.1003 21.3597C60.9008 21.5408 60.7014 21.7311 60.5025 21.93C60.412 22.0205 60.3169 22.1019 60.2171 22.1747C60.1179 22.2469 60.0228 22.3197 59.9323 22.3919C59.7873 22.5186 59.6062 22.6274 59.389 22.718C58.9545 22.8991 58.6193 22.7811 58.3838 22.3649C58.2754 22.1838 58.221 21.9661 58.221 21.7128C58.2027 21.4233 58.2118 21.1425 58.2479 20.8709C58.2846 20.5992 58.3385 20.3276 58.4112 20.0559C58.5018 19.6576 58.6101 19.273 58.7368 18.9016C58.864 18.5303 59.0268 18.164 59.2262 17.8018C59.4251 17.4396 59.6784 17.1405 59.9862 16.9055C60.2945 16.6883 60.5931 16.5703 60.8825 16.5525C61.2992 16.5158 61.6253 16.6247 61.8608 16.878C62.0958 17.1319 62.1955 17.4122 62.1594 17.7204C62.1594 17.8288 62.1502 17.901 62.1319 17.9377C62.0597 18.0643 61.9691 18.1274 61.8608 18.1274C61.7519 18.1274 61.6705 18.0821 61.6161 17.9916C61.58 17.9555 61.5571 17.9148 61.5484 17.8695C61.5393 17.8242 61.5164 17.7835 61.4803 17.7474C61.3714 17.5302 61.1995 17.4488 60.9644 17.5027C60.8556 17.521 60.7559 17.5663 60.6653 17.6385C60.4481 17.7652 60.2853 17.9463 60.1764 18.1818C59.887 18.7251 59.6469 19.2822 59.4566 19.8524C59.2669 20.4227 59.1356 21.0158 59.0629 21.6314C59.0268 21.8308 59.0629 21.9936 59.1717 22.1202V22.0933Z" fill="black"/>
<path d="M63.381 20.6262C63.4716 20.5357 63.5891 20.4273 63.7341 20.3006C63.879 20.174 64.024 20.0468 64.1685 19.9201C64.3135 19.7934 64.4539 19.6714 64.5897 19.5533C64.7255 19.4358 64.8385 19.3407 64.929 19.2685C65.0379 19.1596 65.1284 19.0874 65.2007 19.0513C65.2912 18.9785 65.3863 18.9607 65.486 18.9968C65.5857 19.0329 65.6534 19.1057 65.6895 19.214C65.7256 19.3046 65.7394 19.359 65.7302 19.3768C65.7216 19.3951 65.7348 19.4496 65.7709 19.5401C65.8254 19.7029 65.8752 19.8657 65.9205 20.029C65.9658 20.1918 66.0248 20.3551 66.097 20.5178C66.1331 20.6084 66.183 20.6944 66.2466 20.7758C66.3096 20.8572 66.3778 20.9431 66.4501 21.0337C66.5228 21.1242 66.622 21.1833 66.7492 21.2102C66.8758 21.2377 66.9842 21.2148 67.0747 21.1426C67.2014 21.0703 67.3286 20.9706 67.4552 20.8439C67.6542 20.6445 67.8444 20.4319 68.0255 20.2055C68.2066 19.9791 68.3786 19.739 68.5413 19.4857C68.7408 19.1957 68.9035 18.9424 69.0302 18.7252C69.1574 18.508 69.311 18.2546 69.4921 17.9646C69.5649 17.8197 69.628 17.7205 69.6824 17.6661C69.7907 17.5394 69.9179 17.5211 70.0624 17.6116C70.1529 17.6838 70.1713 17.7927 70.1168 17.9377L70.0354 18.1005C69.7277 18.5893 69.4377 19.0421 69.166 19.4587C68.8949 19.8749 68.578 20.3098 68.2158 20.762C68.1069 20.8892 67.9985 21.0113 67.8897 21.1288C67.7808 21.2468 67.6633 21.3598 67.5366 21.4686C67.3194 21.6859 67.0747 21.8034 66.8031 21.8217C66.4775 21.8395 66.1876 21.722 65.9342 21.4686C65.6626 21.197 65.4723 20.8709 65.364 20.4904C65.3273 20.3637 65.2912 20.2416 65.2551 20.1241C65.219 20.0061 65.1829 19.8748 65.1462 19.7304C65.074 19.7843 64.9834 19.8479 64.8746 19.9201L63.8155 20.8979C63.7249 20.9706 63.6435 21.0428 63.5713 21.1156C63.4985 21.1878 63.4171 21.2601 63.3266 21.3328C63.1277 21.4773 62.9598 21.4956 62.824 21.3867C62.6881 21.2784 62.6205 21.1425 62.6205 20.9798C62.6205 20.8709 62.6297 20.7895 62.6475 20.7351C62.6841 20.6445 62.711 20.5494 62.7294 20.4497C62.7472 20.3505 62.7746 20.2554 62.8108 20.1648C63.0824 19.386 63.4354 18.6616 63.8699 17.9916C63.9604 17.865 64.051 17.7474 64.1415 17.6386C64.2321 17.5302 64.3496 17.4305 64.4946 17.34C64.8207 17.1227 65.1462 17.0775 65.4723 17.2041C65.6173 17.2586 65.744 17.34 65.8528 17.4488C65.9973 17.5572 66.0339 17.693 65.9612 17.8558C65.9067 17.983 65.8076 18.046 65.6626 18.046C65.5176 18.046 65.3502 18.0369 65.1599 18.0191C64.9697 18.0008 64.8298 18.0461 64.7393 18.1549C64.6848 18.2093 64.6304 18.2633 64.576 18.3177C64.5215 18.3721 64.4763 18.4357 64.4401 18.508C64.2952 18.7252 64.1593 18.9739 64.0327 19.2547C63.906 19.5356 63.7793 19.7935 63.6527 20.029C63.6343 20.0651 63.5891 20.1602 63.5168 20.3139C63.4446 20.468 63.3993 20.5723 63.381 20.6262Z" fill="black"/>
<path d="M79.1076 32.0335C79.162 31.979 79.1889 31.9429 79.1889 31.9251C79.66 29.9691 80.1082 28.0228 80.5335 26.0851C80.9592 24.148 81.4161 22.2103 81.9049 20.2727C81.9049 20.2727 81.8871 20.2365 81.851 20.1643C81.8144 20.2004 81.7737 20.2228 81.7284 20.232C81.6832 20.2411 81.6424 20.264 81.6063 20.3001C81.353 20.499 81.0951 20.6893 80.8321 20.8704C80.5696 21.0515 80.3208 21.2417 80.0853 21.4407C79.4153 22.0201 78.8542 22.6722 78.4015 23.3961C77.9487 24.1205 77.6135 24.9171 77.3963 25.7865C77.2879 26.2571 77.2289 26.719 77.2197 27.1717C77.2106 27.6245 77.2696 28.0773 77.3963 28.53C77.5774 29.1633 77.8083 29.7657 78.0891 30.3359C78.3699 30.9062 78.6909 31.4724 79.0531 32.0335H79.1076ZM83.1818 18.6433C83.2723 18.6071 83.3721 18.5705 83.4804 18.5344C84.2409 18.1905 85.0106 17.9189 85.7889 17.72C86.5678 17.5205 87.3644 17.3664 88.1793 17.258C88.9582 17.1492 89.7365 17.0678 90.5153 17.0134C91.2937 16.9594 92.0816 16.9228 92.8783 16.905H93.1225C93.1225 16.905 93.1586 16.8867 93.2313 16.8506C93.2491 16.7962 93.2674 16.7376 93.2858 16.674C93.3036 16.6105 93.3219 16.5428 93.3397 16.4701C93.9191 14.1524 94.5168 11.8622 95.1324 9.59844C95.7484 7.3352 96.3639 5.05364 96.9795 2.75428C97.07 2.39208 97.1697 2.0431 97.2781 1.70837C97.387 1.37313 97.4953 1.03382 97.6042 0.689938C97.6403 0.599388 97.6764 0.513425 97.713 0.432032C97.7492 0.35013 97.7853 0.264155 97.8214 0.173605C97.9119 0.0291315 98.0208 -0.0253102 98.1475 0.0108081C98.3286 0.0469263 98.4008 0.155798 98.3647 0.336898C98.3464 0.463566 98.3332 0.585641 98.324 0.703153C98.3148 0.821173 98.2924 0.943261 98.2558 1.06993C98.1653 1.52268 98.0707 1.97086 97.971 2.41445C97.8713 2.85805 97.767 3.29706 97.6586 3.732C97.3508 5.07194 97.0202 6.39357 96.6671 7.69739C96.3141 9.00121 95.9565 10.3137 95.5943 11.6358C95.3771 12.4686 95.1644 13.2972 94.9559 14.1208C94.7478 14.945 94.5351 15.7731 94.3179 16.6059C94.2813 16.7148 94.2543 16.787 94.236 16.8236C94.2726 16.8775 94.3133 16.905 94.3586 16.905C94.4039 16.905 94.4446 16.905 94.4807 16.905L96.4362 16.9864C97.0883 17.0225 97.74 17.1039 98.3916 17.2306C98.5911 17.2672 98.7722 17.3211 98.9349 17.3939C99.0982 17.4483 99.1613 17.5567 99.1252 17.72C99.0891 17.8644 98.9985 17.9372 98.8536 17.9372C98.6725 17.9372 98.5366 17.928 98.4461 17.9097C98.2106 17.8736 97.9801 17.842 97.7537 17.8146C97.5274 17.7876 97.2964 17.7647 97.0609 17.7469L94.2091 17.5841C94.1729 17.5841 94.1414 17.5882 94.1139 17.5973C94.087 17.6065 94.0549 17.6111 94.0188 17.6111C93.9827 17.7016 93.9557 17.7785 93.9374 17.842C93.9191 17.9051 93.9013 17.9824 93.883 18.073C93.4485 19.7568 93.0319 21.4315 92.6336 23.0975C92.2353 24.7635 91.8461 26.4474 91.4656 28.1495C91.2306 29.1817 90.995 30.2138 90.7595 31.246C90.524 32.2782 90.289 33.3103 90.0534 34.342C89.9084 34.9214 89.7818 35.5008 89.6734 36.0808C89.5645 36.6602 89.4471 37.2396 89.3199 37.819V37.9548C89.3565 37.9182 89.3835 37.8867 89.4018 37.8597C89.4196 37.8322 89.4379 37.8007 89.4557 37.7646C89.5284 37.6196 89.5829 37.5199 89.619 37.4655C89.7095 37.3388 89.8179 37.3118 89.9446 37.3841C90.0895 37.4568 90.144 37.5474 90.1079 37.6557C90.0717 37.8007 90.0351 37.9095 89.999 37.9818C89.9267 38.1446 89.8586 38.3079 89.7955 38.4707C89.7319 38.6335 89.6551 38.7967 89.5646 38.9595C89.474 39.1589 89.3743 39.3624 89.2659 39.5705C89.1571 39.779 89.0487 39.9825 88.9399 40.1819C88.8676 40.3264 88.804 40.4261 88.7496 40.4806C88.6413 40.6255 88.4871 40.6708 88.2882 40.6164C88.1249 40.562 88.0252 40.4444 87.9891 40.2633C87.9713 40.1906 87.9799 40.0822 88.0166 39.9373C88.161 38.7423 88.3559 37.556 88.6006 36.3794C88.8447 35.2022 89.1026 34.0164 89.3743 32.821C89.7365 31.2277 90.1033 29.639 90.4746 28.0544C90.8455 26.4702 91.2214 24.881 91.6014 23.2878C91.8186 22.3822 92.0409 21.4905 92.2668 20.6125C92.4932 19.7339 92.715 18.8513 92.9327 17.9641C92.9505 17.9097 92.9597 17.8553 92.9597 17.8014C92.9597 17.7469 92.9688 17.6833 92.9866 17.6111H92.5522C92.1178 17.6472 91.6833 17.6747 91.2484 17.6925C90.8139 17.7108 90.3795 17.7378 89.9446 17.7739C89.1662 17.8466 88.3966 17.9326 87.636 18.0323C86.8755 18.1315 86.115 18.2994 85.3545 18.5344C84.6301 18.7516 83.9332 19.0233 83.2632 19.3493C83.0638 19.4582 82.9371 19.621 82.8832 19.8382C82.4665 21.522 82.0591 23.1926 81.6608 24.8495C81.2624 26.5064 80.8733 28.1856 80.4928 29.8877C80.3839 30.3588 80.271 30.8156 80.1535 31.2592C80.0354 31.7028 79.9133 32.151 79.7867 32.6037C79.7506 32.7848 79.6961 32.939 79.6234 33.0657C79.5333 33.2106 79.4199 33.2874 79.2841 33.2966C79.1482 33.3057 79.0353 33.2467 78.9448 33.1201C78.872 33.0295 78.809 32.9481 78.7545 32.8754C78.7001 32.8031 78.6456 32.7218 78.5917 32.6312C78.2834 32.1423 77.994 31.6397 77.7224 31.1234C77.4507 30.6076 77.2152 30.0688 77.0162 29.5077C76.8713 29.0911 76.7538 28.679 76.6632 28.2716C76.5727 27.8641 76.5452 27.4434 76.5818 27.009C76.6357 25.8863 76.9257 24.8088 77.4507 23.7766C78.0484 22.6178 78.8542 21.6126 79.8681 20.7615C80.4658 20.2549 81.0722 19.8199 81.6877 19.4582C81.7605 19.4216 81.8236 19.3809 81.878 19.3356C81.9324 19.2903 81.9955 19.2496 82.0682 19.2135C82.1227 18.9602 82.1812 18.7063 82.2448 18.453C82.3078 18.1997 82.3668 17.9458 82.4213 17.6925C82.6746 16.3887 82.9554 15.094 83.2632 13.8085C83.571 12.523 83.8879 11.2283 84.214 9.9245C84.3584 9.34509 84.4902 8.77025 84.6077 8.19999C84.7252 7.62922 84.8295 7.05437 84.92 6.47495C84.9562 6.31217 84.9745 6.14939 84.9745 5.98609C84.9745 5.8233 84.9836 5.66002 85.0014 5.49723C85.0014 5.42499 84.9837 5.31612 84.947 5.17114C84.9109 5.08059 84.8478 5.03532 84.7573 5.03532C84.5762 5.07194 84.449 5.10807 84.3767 5.14419C84.2862 5.18031 84.1911 5.221 84.0914 5.26627C83.9922 5.31155 83.897 5.3614 83.8065 5.41583C83.5709 5.56081 83.3354 5.70123 83.1004 5.83705C82.8649 5.97237 82.6385 6.12192 82.4213 6.28471C81.1175 7.26295 79.9495 8.33989 78.9173 9.51704C77.8851 10.6942 76.9801 11.9889 76.2013 13.401C75.9658 13.8177 75.7577 14.2521 75.5766 14.7048C75.3955 15.1576 75.2505 15.6195 75.1422 16.0901C75.0694 16.3617 75.0242 16.6379 75.0064 16.9182C74.988 17.199 75.0155 17.4844 75.0878 17.7739L75.1691 18.0999C75.2958 18.4621 75.5405 18.6794 75.9027 18.7516C75.9933 18.7882 76.0884 18.8106 76.1876 18.8198C76.2873 18.8289 76.3824 18.8422 76.473 18.8605H76.7177C76.8443 18.8966 76.9074 18.9693 76.9074 19.0777C76.9074 19.2044 76.8443 19.268 76.7177 19.268C76.4638 19.3041 76.2105 19.3132 75.9571 19.2949C75.7033 19.2771 75.4591 19.1952 75.2236 19.0507C74.8975 18.8513 74.6625 18.5436 74.5175 18.1269C74.3908 17.783 74.3455 17.3847 74.3816 16.932C74.3995 16.4248 74.4992 15.8998 74.6803 15.3565C74.8797 14.7232 75.1239 14.1163 75.4138 13.5369C75.7033 12.9574 76.0294 12.3872 76.3916 11.8256C77.1338 10.685 77.9533 9.6259 78.8496 8.64816C79.746 7.66992 80.7283 6.76493 81.7966 5.93167C82.4121 5.46111 83.046 5.05364 83.6976 4.70975C83.8426 4.637 83.9876 4.57391 84.1326 4.51948C84.277 4.46505 84.4312 4.41978 84.594 4.38366C85.1556 4.2748 85.5178 4.48338 85.6806 5.00837C85.735 5.17115 85.7665 5.33444 85.7757 5.49723C85.7848 5.66002 85.7889 5.8233 85.7889 5.98609C85.7711 6.31217 85.7396 6.63826 85.6943 6.96384C85.649 7.28992 85.5992 7.61599 85.5448 7.94156C85.3998 8.66596 85.2461 9.38121 85.0828 10.0873C84.9201 10.7939 84.7573 11.5091 84.594 12.233C84.3951 13.1024 84.2002 13.9713 84.01 14.8407C83.8202 15.71 83.6254 16.5789 83.426 17.4483C83.3898 17.5928 83.3583 17.7423 83.3309 17.8965C83.3039 18.0501 83.2723 18.1997 83.2362 18.3446V18.5344L83.1818 18.6433Z" fill="black"/>
<path d="M99.5865 21.3595C99.5865 21.4862 99.5413 21.595 99.4507 21.6856C99.3602 21.7761 99.2513 21.8214 99.1246 21.8214C98.8891 21.8214 98.7716 21.6948 98.7716 21.4409C98.7716 21.3142 98.8123 21.2054 98.8937 21.1153C98.9751 21.0248 99.0794 20.9795 99.206 20.9795C99.4416 20.9795 99.5591 21.097 99.5591 21.3325L99.5865 21.3595Z" fill="black"/>
<path d="M104.639 26.2212C104.639 26.8368 104.657 27.4121 104.693 27.9463C104.73 28.4804 104.802 29.01 104.911 29.535C105.019 30.1144 105.182 30.6938 105.4 31.2732C105.598 31.7804 105.852 32.2057 106.16 32.5501C106.902 33.4373 107.871 33.8356 109.066 33.745C109.519 33.7089 109.953 33.627 110.37 33.5003C110.786 33.3736 111.194 33.2109 111.592 33.0115C112.262 32.6493 112.9 32.2509 113.507 31.8165C114.114 31.3821 114.679 30.9018 115.204 30.3769C115.639 29.9424 116.051 29.4805 116.441 28.9916C116.83 28.5028 117.214 28.0139 117.595 27.525C118.464 26.3662 119.306 25.1712 120.12 23.9397C120.754 22.998 121.365 22.0524 121.954 21.1016C122.542 20.1508 123.153 19.1955 123.787 18.236C123.878 18.0911 123.959 17.9598 124.032 17.8423C124.104 17.7243 124.195 17.6113 124.304 17.5025C124.412 17.3941 124.529 17.3758 124.657 17.4486C124.783 17.5391 124.838 17.6475 124.819 17.7741C124.801 17.8469 124.756 17.9552 124.684 18.1002C124.593 18.2813 124.498 18.4578 124.398 18.6298C124.299 18.8017 124.195 18.9696 124.086 19.1324C123.561 19.9651 123.031 20.7938 122.497 21.6174C121.963 22.4415 121.424 23.2606 120.881 24.0755C120.265 25.0171 119.636 25.945 118.993 26.8597C118.351 27.7738 117.667 28.6656 116.943 29.535C116.273 30.3138 115.557 31.029 114.797 31.6807C114.036 32.3323 113.204 32.9118 112.298 33.4189C111.864 33.6723 111.415 33.8808 110.954 34.0436C110.492 34.2064 110.017 34.3336 109.528 34.4241C108.948 34.5325 108.378 34.5325 107.817 34.4241C107.346 34.3336 106.916 34.1703 106.526 33.9353C106.137 33.6997 105.78 33.4006 105.453 33.0389C105.037 32.5679 104.72 32.052 104.503 31.4904C104.141 30.5671 103.905 29.6438 103.797 28.72C103.707 27.9595 103.661 27.199 103.661 26.4384C103.661 25.6779 103.697 24.9174 103.77 24.1569C103.878 22.9802 104.037 21.8214 104.245 20.6804C104.453 19.5399 104.711 18.3988 105.019 17.2583C105.218 16.57 105.431 15.8955 105.657 15.2347C105.884 14.5739 106.142 13.9263 106.432 13.2929C107.102 11.7174 107.971 10.2508 109.039 8.89259C109.329 8.53039 109.627 8.18193 109.935 7.8472C110.243 7.51196 110.578 7.19046 110.94 6.88269C111.429 6.46606 111.945 6.10438 112.488 5.7961C113.032 5.48833 113.62 5.25329 114.254 5.08999C114.797 4.94501 115.34 4.86822 115.883 4.85906C116.427 4.85042 116.97 4.94503 117.513 5.14444C118.201 5.37997 118.799 5.77828 119.306 6.33938C119.813 6.901 120.184 7.50739 120.419 8.15955C120.619 8.70235 120.763 9.25481 120.854 9.81591C120.945 10.3775 120.962 10.9478 120.908 11.5272C120.89 11.7627 120.872 11.9937 120.854 12.2201C120.836 12.4464 120.809 12.6769 120.773 12.9124C120.736 13.1118 120.7 13.2975 120.664 13.4694C120.628 13.6414 120.564 13.8088 120.474 13.9715C120.401 14.1165 120.338 14.2162 120.284 14.2707C120.157 14.4151 120.012 14.4604 119.849 14.4065C119.686 14.352 119.586 14.2254 119.55 14.026C119.55 13.8449 119.622 13.7274 119.767 13.6729C119.912 13.6368 120.021 13.5193 120.094 13.3199C120.13 13.211 120.157 13.1027 120.175 12.9938C120.193 12.8854 120.211 12.7766 120.229 12.6682C120.284 12.2699 120.324 11.8711 120.351 11.4728C120.378 11.0744 120.374 10.667 120.338 10.2508C120.229 9.12813 119.858 8.13208 119.224 7.26321C118.79 6.68379 118.278 6.26257 117.69 6.00008C117.101 5.73759 116.445 5.62416 115.721 5.66028C115.123 5.67859 114.557 5.78744 114.023 5.98634C113.489 6.18576 112.977 6.44826 112.488 6.77434C111.999 7.09992 111.542 7.46212 111.117 7.86044C110.691 8.25876 110.297 8.6937 109.935 9.16425C109.283 9.9792 108.709 10.8257 108.211 11.7037C107.713 12.5823 107.274 13.5101 106.893 14.4879C106.459 15.5745 106.092 16.6743 105.793 17.7879C105.495 18.9014 105.245 20.0379 105.046 21.1967C104.938 21.8845 104.842 22.5819 104.761 23.288C104.68 23.9941 104.621 24.7002 104.585 25.4063C104.566 25.5874 104.558 25.7598 104.558 25.9226C104.558 26.0854 104.558 26.2121 104.558 26.3026L104.639 26.2212Z" fill="black"/>
<path d="M125.01 17.448C125.245 17.158 125.471 17.0674 125.688 17.1763C125.906 17.2668 126.014 17.4658 126.014 17.7735C126.033 17.9368 126.028 18.0996 126.001 18.2624C125.974 18.4257 125.942 18.5885 125.906 18.7512L125.852 19.0504C126.195 18.9959 126.512 18.8871 126.802 18.7243C127.092 18.5615 127.345 18.3936 127.562 18.2217C127.78 18.0498 127.965 17.8824 128.119 17.7196C128.274 17.5563 128.387 17.4479 128.459 17.3935C128.549 17.3208 128.654 17.3075 128.771 17.3528C128.889 17.3981 128.911 17.4932 128.839 17.6377C128.785 17.7466 128.667 17.9002 128.486 18.0996C128.305 18.299 128.07 18.5071 127.78 18.7243C127.49 18.9415 127.164 19.1455 126.802 19.3352C126.44 19.5255 126.051 19.6567 125.634 19.7295C125.544 19.874 125.453 20.0189 125.363 20.1639C125.272 20.3089 125.182 20.4534 125.091 20.5984C124.964 20.7978 124.801 20.9967 124.602 21.1961C124.476 21.3228 124.331 21.4133 124.167 21.4678C123.787 21.6122 123.497 21.513 123.298 21.1686C123.153 20.9336 123.081 20.6889 123.081 20.4356C123.045 19.494 123.244 18.6246 123.678 17.8279C123.751 17.7013 123.851 17.5746 123.978 17.448C124.267 17.2302 124.512 17.2938 124.711 17.6377C124.711 17.656 124.729 17.7013 124.765 17.7735L125.01 17.448ZM124.928 19.6751C124.892 19.6389 124.874 19.6206 124.874 19.6206C124.584 19.4757 124.439 19.204 124.439 18.8057V18.6429C124.439 18.6068 124.444 18.5793 124.453 18.5615C124.462 18.5432 124.439 18.5249 124.385 18.5071C124.24 18.8148 124.131 19.1226 124.059 19.4304C123.986 19.7381 123.923 20.0459 123.869 20.3542C123.851 20.4264 123.842 20.4987 123.842 20.5714C123.842 20.6436 123.869 20.725 123.923 20.8156C124.176 20.6706 124.371 20.4987 124.507 20.2997C124.643 20.1003 124.783 19.9014 124.928 19.702V19.6751ZM125.471 17.6377C125.417 17.6377 125.39 17.6469 125.39 17.6652C125.191 17.9185 125.046 18.2171 124.955 18.5615C124.937 18.6154 124.932 18.6744 124.942 18.738C124.951 18.8011 124.955 18.8693 124.955 18.9415C124.955 19.0321 125.01 19.0865 125.118 19.1048C125.191 19.1226 125.245 19.0957 125.281 19.0229C125.462 18.6068 125.552 18.2085 125.552 17.8279C125.552 17.7918 125.535 17.7374 125.499 17.6652L125.471 17.6377Z" fill="black"/>
<path d="M131.283 16.4429C131.102 16.5879 130.953 16.7329 130.835 16.8774C130.717 17.0223 130.613 17.1765 130.523 17.3393C130.359 17.6109 130.197 17.8826 130.034 18.1542C129.871 18.4259 129.717 18.6975 129.572 18.9692L127.943 21.9024L127.779 22.1466C127.689 22.2371 127.58 22.2738 127.453 22.2554C127.381 22.2371 127.313 22.2102 127.25 22.174C127.186 22.1379 127.155 22.0835 127.155 22.0107C127.155 21.9202 127.155 21.8388 127.155 21.7666C127.155 21.6943 127.164 21.6124 127.182 21.5219C127.236 21.2685 127.29 21.0244 127.345 20.7888C127.399 20.5533 127.462 20.3091 127.535 20.0553L128.92 15.3294C128.974 15.1483 129.047 14.9402 129.137 14.7047C129.228 14.5053 129.364 14.4239 129.545 14.46C129.635 14.4783 129.717 14.5098 129.789 14.5551C129.862 14.6004 129.898 14.6777 129.898 14.7861C129.898 14.8588 129.88 14.9672 129.844 15.1121C129.789 15.3294 129.735 15.5466 129.681 15.7638C129.626 15.981 129.563 16.1988 129.491 16.416L128.757 18.9417C128.721 19.0506 128.712 19.1411 128.73 19.2133L128.974 18.8059C129.137 18.4981 129.287 18.2087 129.422 17.937C129.558 17.6654 129.717 17.3754 129.898 17.0676C130.115 16.6876 130.387 16.3346 130.713 16.0085C130.767 15.9541 130.821 15.8996 130.876 15.8452C130.93 15.7913 130.993 15.746 131.066 15.7099C131.428 15.4921 131.699 15.5741 131.88 15.9541C131.953 16.1352 132.008 16.3432 132.044 16.5787C132.08 16.8321 132.098 17.0768 132.098 17.3123C132.098 17.5473 132.107 17.792 132.125 18.0454C132.143 18.2448 132.157 18.4483 132.166 18.6568C132.175 18.8649 132.197 19.0684 132.233 19.2678C132.252 19.4306 132.297 19.6117 132.369 19.8111C132.406 19.9377 132.487 19.983 132.614 19.9469C132.705 19.9103 132.786 19.8788 132.859 19.8518C132.931 19.8243 133.003 19.7836 133.076 19.7297C133.384 19.512 133.646 19.2947 133.863 19.0775C134.117 18.8242 134.384 18.5663 134.665 18.3033C134.945 18.0408 135.212 17.7829 135.466 17.5295C135.52 17.4751 135.602 17.4115 135.71 17.3393C135.819 17.267 135.919 17.2757 136.009 17.3662C136.064 17.4207 136.077 17.5066 136.05 17.6247C136.023 17.7422 135.982 17.8281 135.928 17.8826C135.728 18.0815 135.552 18.2539 135.398 18.3984C135.244 18.5434 135.104 18.6792 134.977 18.8059C134.85 18.9326 134.728 19.0506 134.61 19.1589C134.493 19.2678 134.371 19.3853 134.243 19.512C134.099 19.6569 133.954 19.7836 133.809 19.8925C133.664 20.0008 133.519 20.1189 133.375 20.2455C133.284 20.3361 133.184 20.3997 133.076 20.4358C132.967 20.4719 132.85 20.508 132.723 20.5441C132.306 20.6891 131.98 20.5716 131.745 20.1911C131.6 19.9378 131.51 19.6478 131.473 19.3222C131.437 19.1228 131.414 18.9325 131.405 18.7514C131.396 18.5703 131.383 18.3806 131.365 18.1812C131.346 17.9278 131.338 17.6832 131.338 17.4481C131.338 17.2126 131.328 16.9679 131.31 16.7146C131.31 16.6601 131.306 16.6057 131.296 16.5518C131.288 16.4974 131.274 16.4246 131.256 16.3346L131.283 16.4429Z" fill="black"/>
<path d="M135.982 16.9318C136.326 16.1713 136.584 15.5466 136.756 15.0577C136.928 14.5689 137.046 14.1889 137.109 13.9172C137.173 13.6456 137.2 13.4507 137.191 13.3332C137.181 13.2152 137.177 13.1384 137.177 13.1023C137.141 13.1745 137.123 13.2106 137.123 13.2106C137.014 13.4645 136.901 13.7539 136.783 14.08C136.666 14.4061 136.552 14.7408 136.444 15.0847C136.335 15.4291 136.24 15.7638 136.158 16.0899C136.077 16.416 136.018 16.6963 135.982 16.9318ZM138.916 16.6058C138.59 16.8052 138.223 17.0361 137.815 17.2986C137.408 17.5611 137.042 17.7646 136.715 17.9096C136.498 18.0184 136.272 18.0729 136.036 18.0729C135.511 18.0545 135.267 17.7646 135.303 17.2035C135.393 16.4791 135.534 15.8 135.724 15.1666C135.914 14.5328 136.154 13.8989 136.444 13.2651C136.48 13.1745 136.521 13.0794 136.566 12.9802C136.611 12.8805 136.661 12.7853 136.715 12.6948C136.77 12.5859 136.842 12.4867 136.933 12.3962C137.023 12.3056 137.136 12.2604 137.272 12.2604C137.408 12.2604 137.512 12.3235 137.584 12.4501C137.675 12.5951 137.72 12.8037 137.72 13.0748C137.72 13.3465 137.693 13.5911 137.639 13.8084C137.403 14.8766 137.023 15.918 136.498 16.9318L136.417 17.0946C136.453 17.149 136.503 17.1719 136.566 17.1628C136.63 17.1536 136.679 17.1312 136.715 17.0946C137.059 16.9501 137.417 16.7461 137.788 16.4836C138.159 16.2212 138.517 15.9902 138.861 15.7913C139.006 15.7186 139.124 15.6733 139.214 15.6555C139.323 15.6194 139.418 15.6372 139.499 15.7099C139.581 15.7821 139.613 15.8727 139.594 15.981C139.594 16.0716 139.576 16.2074 139.54 16.3885C139.413 16.8235 139.291 17.2579 139.174 17.6923C139.056 18.1268 138.943 18.5617 138.834 18.9962C138.689 19.5756 138.544 20.1504 138.399 20.7207C138.254 21.2914 138.137 21.8663 138.046 22.4457C138.01 22.6807 137.974 22.9117 137.937 23.1381C137.901 23.3644 137.892 23.5954 137.91 23.8309C137.91 23.9032 137.91 23.9754 137.91 24.0481C137.91 24.1204 137.947 24.1931 138.019 24.2654C138.055 24.247 138.087 24.2384 138.114 24.2384C138.141 24.2384 138.173 24.2201 138.209 24.184C138.318 24.0934 138.431 23.9983 138.549 23.8986C138.666 23.7989 138.771 23.686 138.861 23.5593C139.622 22.6355 140.309 21.6577 140.926 20.6256C141.541 19.5939 142.138 18.5704 142.718 17.5565C142.79 17.4482 142.845 17.3754 142.881 17.3393C142.972 17.2488 143.062 17.2304 143.153 17.2849C143.261 17.3393 143.306 17.4207 143.288 17.5296C143.252 17.6379 143.198 17.7559 143.125 17.8826C142.763 18.5164 142.424 19.1137 142.107 19.6753C141.79 20.2364 141.464 20.7797 141.129 21.3047C140.794 21.8302 140.445 22.3369 140.083 22.8257C139.721 23.3146 139.332 23.8034 138.916 24.2923C138.807 24.4012 138.698 24.5009 138.59 24.5915C138.481 24.682 138.372 24.7451 138.263 24.7812C138.155 24.8178 138.042 24.8178 137.924 24.7812C137.806 24.7451 137.693 24.6545 137.584 24.5101C137.44 24.3106 137.367 24.0843 137.367 23.8309C137.367 23.6859 137.367 23.5364 137.367 23.3827C137.367 23.2286 137.385 23.0796 137.422 22.9346C137.567 21.9024 137.752 20.884 137.979 19.8788C138.204 18.8741 138.499 17.8826 138.861 16.9049C138.897 16.796 138.92 16.7238 138.929 16.6877C138.938 16.651 138.933 16.6241 138.916 16.6058Z" fill="black"/>
<path d="M141.658 20.6262C141.749 20.5357 141.867 20.4273 142.012 20.3006C142.156 20.174 142.301 20.0468 142.446 19.9201C142.591 19.7934 142.731 19.6714 142.867 19.5533C143.003 19.4358 143.116 19.3407 143.206 19.2685C143.315 19.1596 143.406 19.0874 143.478 19.0513C143.569 18.9785 143.664 18.9607 143.764 18.9968C143.863 19.0329 143.931 19.1057 143.967 19.214C144.003 19.3046 144.017 19.359 144.008 19.3768C143.999 19.3951 144.012 19.4496 144.048 19.5401C144.103 19.7029 144.153 19.8657 144.198 20.029C144.243 20.1918 144.302 20.3551 144.374 20.5178C144.411 20.6084 144.46 20.6944 144.524 20.7758C144.587 20.8572 144.655 20.9431 144.728 21.0337C144.8 21.1242 144.899 21.1833 145.027 21.2102C145.153 21.2377 145.262 21.2148 145.352 21.1426C145.479 21.0703 145.606 20.9706 145.733 20.8439C145.932 20.6445 146.122 20.4319 146.303 20.2055C146.484 19.9791 146.656 19.739 146.819 19.4857C147.018 19.1957 147.181 18.9424 147.308 18.7252C147.435 18.508 147.588 18.2546 147.77 17.9646C147.842 17.8197 147.905 17.7205 147.96 17.6661C148.068 17.5394 148.195 17.5211 148.34 17.6116C148.43 17.6838 148.449 17.7927 148.394 17.9377L148.313 18.1005C148.005 18.5893 147.715 19.0421 147.443 19.4587C147.172 19.8749 146.855 20.3098 146.493 20.762C146.384 20.8892 146.276 21.0113 146.167 21.1288C146.058 21.2468 145.941 21.3598 145.814 21.4686C145.597 21.6859 145.352 21.8034 145.081 21.8217C144.755 21.8395 144.465 21.722 144.212 21.4686C143.94 21.197 143.75 20.8709 143.641 20.4904C143.605 20.3637 143.569 20.2416 143.533 20.1241C143.496 20.0061 143.46 19.8748 143.424 19.7304C143.351 19.7843 143.261 19.8479 143.152 19.9201L142.093 20.8979C142.002 20.9706 141.921 21.0428 141.849 21.1156C141.776 21.1878 141.695 21.2601 141.604 21.3328C141.405 21.4773 141.237 21.4956 141.101 21.3867C140.966 21.2784 140.898 21.1425 140.898 20.9798C140.898 20.8709 140.907 20.7895 140.925 20.7351C140.962 20.6445 140.989 20.5494 141.007 20.4497C141.025 20.3505 141.052 20.2554 141.088 20.1648C141.36 19.386 141.713 18.6616 142.147 17.9916C142.238 17.865 142.328 17.7474 142.419 17.6386C142.51 17.5302 142.627 17.4305 142.772 17.34C143.098 17.1227 143.424 17.0775 143.75 17.2041C143.895 17.2586 144.021 17.34 144.13 17.4488C144.275 17.5572 144.311 17.693 144.239 17.8558C144.184 17.983 144.085 18.046 143.94 18.046C143.795 18.046 143.628 18.0369 143.437 18.0191C143.247 18.0008 143.107 18.0461 143.017 18.1549C142.962 18.2093 142.908 18.2633 142.853 18.3177C142.799 18.3721 142.754 18.4357 142.718 18.508C142.573 18.7252 142.437 18.9739 142.31 19.2547C142.183 19.5356 142.057 19.7935 141.93 20.029C141.912 20.0651 141.867 20.1602 141.794 20.3139C141.722 20.468 141.677 20.5723 141.658 20.6262Z" fill="black"/>
<path d="M151.736 15.6279C151.736 15.6279 151.758 15.5826 151.804 15.4921C151.849 15.4015 151.899 15.3023 151.953 15.1935C152.007 15.0846 152.057 14.9854 152.102 14.8949C152.148 14.8043 152.17 14.759 152.17 14.759L152.333 14.433C152.641 13.763 152.94 13.093 153.23 12.423C153.519 11.7531 153.791 11.074 154.045 10.3862C154.243 9.84288 154.42 9.29043 154.574 8.72933C154.728 8.16771 154.841 7.59744 154.913 7.01803V6.61056C154.877 6.68331 154.85 6.73265 154.832 6.76012C154.814 6.78708 154.796 6.81914 154.778 6.85525C154.741 6.9458 154.705 7.04091 154.669 7.14011C154.633 7.23982 154.597 7.33496 154.56 7.42551C154.198 8.29439 153.863 9.17293 153.556 10.0601C153.247 10.9473 152.958 11.8528 152.686 12.7761C152.65 12.9394 152.582 13.1612 152.483 13.4415C152.383 13.7223 152.279 14.0077 152.17 14.2971C152.062 14.5871 151.966 14.8587 151.885 15.1121C151.804 15.3654 151.754 15.5374 151.736 15.6279ZM149.807 19.2947C149.663 19.4397 149.531 19.5846 149.413 19.7296C149.296 19.8741 149.174 20.0191 149.046 20.1641C148.848 20.363 148.657 20.5578 148.476 20.748C148.295 20.9378 148.105 21.1326 147.906 21.332C147.852 21.386 147.77 21.4496 147.661 21.5218C147.462 21.649 147.258 21.6759 147.05 21.6037C146.842 21.531 146.693 21.386 146.602 21.1687C146.53 20.9876 146.502 20.7888 146.521 20.5715C146.647 19.5755 147.01 18.643 147.607 17.7736C147.806 17.4842 148.051 17.2756 148.34 17.1489C148.739 16.9862 149.092 17.0314 149.4 17.2848C149.508 17.3575 149.59 17.4567 149.644 17.5839C149.716 17.7284 149.716 17.855 149.644 17.9639C149.572 18.0728 149.463 18.145 149.318 18.1811H149.155C148.92 18.1633 148.721 18.2625 148.558 18.4797L148.395 18.7244C148.033 19.3038 147.734 19.9016 147.499 20.5171C147.462 20.5893 147.426 20.6982 147.39 20.8432C147.444 20.8793 147.485 20.8839 147.512 20.8564C147.539 20.8295 147.571 20.8066 147.607 20.7888C147.752 20.6438 147.901 20.5034 148.056 20.3675C148.209 20.2317 148.359 20.0827 148.504 19.9194C148.757 19.6116 149.01 19.3038 149.264 18.9961C149.518 18.6883 149.771 18.3805 150.025 18.0728C150.133 17.9278 150.224 17.7828 150.296 17.6378C150.369 17.4934 150.432 17.3392 150.486 17.1764C150.74 16.2526 150.998 15.343 151.26 14.4467C151.523 13.5504 151.808 12.6494 152.116 11.7439C152.388 10.9295 152.682 10.1369 152.999 9.36725C153.316 8.59808 153.655 7.83297 154.017 7.07245C154.09 6.92747 154.153 6.77793 154.207 6.6243C154.262 6.47016 154.325 6.32111 154.398 6.17612C154.434 6.08557 154.474 6.00418 154.52 5.93143C154.565 5.8592 154.615 5.78696 154.669 5.71421C154.76 5.60586 154.868 5.556 154.995 5.56515C155.121 5.5738 155.221 5.64197 155.294 5.76864C155.348 5.84087 155.393 5.96805 155.43 6.14915C155.466 6.34805 155.475 6.53831 155.457 6.71941C155.438 6.90051 155.411 7.09025 155.375 7.28967C155.285 7.8874 155.154 8.47548 154.982 9.05489C154.809 9.63431 154.615 10.2142 154.398 10.7937C154.09 11.6081 153.764 12.4185 153.42 13.2243C153.075 14.0301 152.705 14.8313 152.306 15.6279C152.179 15.8634 152.052 16.0944 151.926 16.3208C151.799 16.5471 151.672 16.7781 151.546 17.0131C151.491 17.1037 151.437 17.1896 151.382 17.2715C151.328 17.3529 151.283 17.4389 151.247 17.5295C150.957 18.525 150.676 19.5165 150.405 20.5034C150.133 21.4902 149.889 22.5 149.671 23.5317C149.545 24.075 149.432 24.6229 149.332 25.1753C149.232 25.7273 149.119 26.2752 148.993 26.8185C148.938 27.0718 148.911 27.3165 148.911 27.5515C148.911 27.6059 148.92 27.6604 148.938 27.7148C148.956 27.7692 148.974 27.8232 148.993 27.8776C149.047 28.0043 149.01 28.1131 148.884 28.2037C148.757 28.2942 148.64 28.3212 148.531 28.2851C148.404 28.2306 148.313 28.1401 148.259 28.0134C148.187 27.8323 148.168 27.6151 148.205 27.3618C148.223 27.2351 148.241 27.1125 148.259 26.995C148.277 26.8775 148.304 26.7549 148.34 26.6282C148.413 26.2482 148.481 25.8677 148.544 25.4877C148.607 25.1072 148.685 24.7272 148.775 24.3467C148.938 23.5139 149.106 22.6852 149.277 21.8616C149.449 21.0375 149.644 20.2185 149.861 19.4035V19.2403L149.807 19.2947Z" fill="black"/>
</g>
<defs>
<filter id="filter0_d_300_38" x="0" y="0" width="159.466" height="48.6387" filterUnits="userSpaceOnUse" color-interpolation-filters="sRGB">
<feFlood flood-opacity="0" result="BackgroundImageFix"/>
<feColorMatrix in="SourceAlpha" type="matrix" values="0 0 0 0 0 0 0 0 0 0 0 0 0 0 0 0 0 0 127 0" result="hardAlpha"/>
<feOffset dy="4"/>
<feGaussianBlur stdDeviation="2"/>
<feComposite in2="hardAlpha" operator="out"/>
<feColorMatrix type="matrix" values="0 0 0 0 0 0 0 0 0 0 0 0 0 0 0 0 0 0 0.25 0"/>
<feBlend mode="normal" in2="BackgroundImageFix" result="effect1_dropShadow_300_38"/>
<feBlend mode="normal" in="SourceGraphic" in2="effect1_dropShadow_300_38" result="shape"/>
</filter>
</defs>
</svg>
