<?xml version="1.0" encoding="utf-8"?>
<!-- Generator: Adobe Illustrator 16.0.0, SVG Export Plug-In . SVG Version: 6.00 Build 0)  -->
<!DOCTYPE svg PUBLIC "-//W3C//DTD SVG 1.1//EN" "http://www.w3.org/Graphics/SVG/1.1/DTD/svg11.dtd">
<svg version="1.1" id="Capa_1" xmlns="http://www.w3.org/2000/svg" xmlns:xlink="http://www.w3.org/1999/xlink" x="0px" y="0px"
	 width="375px" height="32px" viewBox="0 0 375 32" enable-background="new 0 0 375 32" xml:space="preserve">
<rect fill="#55BCB6" width="375" height="33.5"/>
<g>
	<path fill="#FFFFFF" d="M264.849,18.067c0.145,0,0.282-0.014,0.411-0.043c0.131-0.03,0.247-0.076,0.346-0.146
		c0.098-0.066,0.179-0.158,0.238-0.273c0.059-0.115,0.087-0.266,0.087-0.445c0-0.354-0.097-0.605-0.288-0.759
		c-0.192-0.15-0.449-0.226-0.765-0.226h-1.594v1.893H264.849z M264.768,15.142c0.26,0,0.475-0.063,0.645-0.191
		c0.169-0.127,0.251-0.338,0.251-0.625c0-0.16-0.027-0.293-0.082-0.395c-0.056-0.104-0.131-0.184-0.226-0.24
		c-0.094-0.058-0.199-0.098-0.322-0.119c-0.121-0.025-0.248-0.035-0.377-0.035h-1.372v1.605H264.768z M264.957,12.366
		c0.318,0,0.605,0.028,0.869,0.088c0.261,0.057,0.484,0.152,0.672,0.283c0.186,0.131,0.331,0.305,0.435,0.523
		c0.102,0.217,0.153,0.486,0.153,0.807c0,0.346-0.076,0.635-0.229,0.865c-0.154,0.23-0.379,0.42-0.68,0.566
		c0.41,0.122,0.713,0.336,0.914,0.641c0.203,0.307,0.301,0.674,0.301,1.104c0,0.348-0.064,0.647-0.193,0.9
		c-0.131,0.255-0.308,0.463-0.526,0.621c-0.22,0.162-0.474,0.28-0.757,0.357c-0.285,0.077-0.577,0.116-0.871,0.115h-3.227v-6.871
		H264.957L264.957,12.366z"/>
	<path fill="#FFFFFF" d="M271.004,15.431c-0.157-0.18-0.424-0.277-0.748-0.277c-0.213,0-0.387,0.037-0.527,0.111
		c-0.137,0.074-0.25,0.166-0.336,0.274c-0.085,0.11-0.143,0.226-0.178,0.351c-0.033,0.121-0.053,0.23-0.06,0.328h2.154
		C271.277,15.869,271.162,15.611,271.004,15.431z M269.482,18.044c0.199,0.2,0.485,0.301,0.857,0.301
		c0.267,0,0.497-0.07,0.691-0.209c0.191-0.139,0.309-0.287,0.354-0.441h1.166c-0.188,0.6-0.473,1.027-0.859,1.285
		c-0.384,0.258-0.852,0.387-1.396,0.387c-0.38,0-0.721-0.063-1.027-0.188c-0.308-0.126-0.564-0.304-0.779-0.535
		c-0.211-0.231-0.373-0.507-0.49-0.829c-0.114-0.32-0.172-0.676-0.172-1.061c0-0.371,0.06-0.719,0.178-1.041
		c0.12-0.322,0.286-0.6,0.504-0.833c0.22-0.235,0.479-0.419,0.781-0.555c0.303-0.136,0.637-0.202,1.006-0.202
		c0.408,0,0.766,0.08,1.071,0.246c0.306,0.162,0.556,0.383,0.752,0.658s0.337,0.592,0.424,0.945
		c0.087,0.352,0.116,0.721,0.092,1.107h-3.479C269.154,17.472,269.283,17.845,269.482,18.044z"/>
	<path fill="#FFFFFF" d="M274.514,12.366v2.591h0.031c0.168-0.288,0.381-0.497,0.643-0.628c0.26-0.131,0.516-0.195,0.763-0.195
		c0.354,0,0.644,0.048,0.87,0.146c0.227,0.102,0.406,0.237,0.537,0.414c0.129,0.177,0.219,0.393,0.273,0.646
		c0.051,0.253,0.078,0.532,0.078,0.841v3.057h-1.33v-2.809c0-0.41-0.063-0.719-0.186-0.92s-0.343-0.303-0.659-0.303
		c-0.358,0-0.617,0.112-0.777,0.333c-0.163,0.222-0.243,0.585-0.243,1.091v2.607h-1.329v-6.871H274.514"/>
	<path fill="#FFFFFF" d="M281.262,16.927c-0.083,0.027-0.174,0.051-0.269,0.072c-0.101,0.02-0.202,0.035-0.304,0.048
		c-0.105,0.013-0.211,0.028-0.314,0.047c-0.1,0.021-0.199,0.046-0.293,0.078c-0.096,0.032-0.18,0.075-0.25,0.13
		c-0.071,0.055-0.13,0.125-0.172,0.206c-0.043,0.083-0.065,0.19-0.065,0.318c0,0.122,0.022,0.224,0.065,0.308
		s0.101,0.149,0.176,0.197c0.074,0.049,0.162,0.082,0.26,0.102c0.1,0.02,0.201,0.027,0.307,0.027c0.26,0,0.461-0.045,0.604-0.134
		c0.143-0.09,0.25-0.197,0.317-0.323c0.067-0.125,0.109-0.251,0.122-0.379c0.018-0.127,0.025-0.23,0.025-0.309v-0.511
		C281.414,16.856,281.346,16.897,281.262,16.927z M278.654,14.99c0.133-0.21,0.311-0.385,0.521-0.511
		c0.212-0.13,0.447-0.221,0.713-0.275c0.263-0.055,0.529-0.083,0.798-0.082c0.24,0,0.485,0.017,0.736,0.053
		c0.248,0.035,0.475,0.104,0.68,0.207s0.372,0.245,0.502,0.43c0.131,0.181,0.197,0.425,0.197,0.728v2.593
		c0,0.226,0.013,0.439,0.036,0.645c0.026,0.207,0.095,0.363,0.159,0.465l-1.354-0.004c-0.039-0.06-0.072-0.152-0.088-0.234
		c-0.016-0.08-0.026-0.162-0.032-0.244c-0.211,0.225-0.458,0.383-0.745,0.473c-0.284,0.09-0.579,0.135-0.875,0.135
		c-0.229,0-0.443-0.029-0.643-0.088c-0.197-0.059-0.371-0.148-0.521-0.27c-0.149-0.123-0.265-0.277-0.349-0.463
		s-0.127-0.408-0.127-0.666c0-0.283,0.05-0.516,0.147-0.699c0.095-0.182,0.218-0.329,0.372-0.438
		c0.15-0.109,0.325-0.192,0.521-0.246c0.195-0.055,0.392-0.098,0.59-0.131c0.199-0.031,0.395-0.057,0.588-0.076
		c0.194-0.02,0.363-0.048,0.514-0.088c0.148-0.037,0.268-0.096,0.354-0.168c0.086-0.074,0.127-0.182,0.121-0.324
		c0-0.146-0.025-0.264-0.07-0.352c-0.043-0.082-0.107-0.152-0.185-0.201c-0.078-0.049-0.166-0.08-0.268-0.098
		c-0.108-0.016-0.219-0.023-0.329-0.023c-0.259,0-0.464,0.059-0.609,0.174c-0.149,0.117-0.234,0.311-0.262,0.581h-1.328
		C278.439,15.468,278.516,15.202,278.654,14.99z"/>
	<path fill="#FFFFFF" d="M284.786,14.264v0.693h0.03c0.167-0.288,0.383-0.497,0.652-0.628c0.266-0.131,0.541-0.195,0.82-0.195
		c0.355,0,0.647,0.048,0.873,0.146c0.229,0.102,0.407,0.237,0.536,0.414c0.133,0.177,0.224,0.393,0.276,0.646
		c0.055,0.253,0.08,0.532,0.08,0.841v3.057h-1.33v-2.809c0-0.41-0.063-0.719-0.188-0.92s-0.343-0.33-0.662-0.33
		c-0.359,0-0.622,0.14-0.783,0.36c-0.162,0.222-0.242,0.585-0.242,1.091v2.607h-1.317v-4.974H284.786z"/>
	<path fill="#FFFFFF" d="M291.002,15.153c-0.213,0-0.389,0.049-0.53,0.149c-0.144,0.099-0.265,0.231-0.353,0.386
		c-0.09,0.156-0.152,0.33-0.191,0.52c-0.035,0.189-0.057,0.378-0.057,0.564c0,0.181,0.021,0.363,0.057,0.551
		c0.039,0.186,0.098,0.354,0.182,0.506c0.085,0.149,0.202,0.276,0.342,0.371c0.143,0.096,0.316,0.145,0.521,0.145
		c0.318,0,0.563-0.092,0.734-0.273c0.17-0.184,0.275-0.429,0.32-0.736h1.278c-0.087,0.659-0.337,1.164-0.745,1.511
		c-0.411,0.345-0.938,0.521-1.578,0.521c-0.361,0-0.691-0.063-0.994-0.188c-0.303-0.126-0.561-0.301-0.771-0.526
		c-0.213-0.225-0.377-0.492-0.497-0.805c-0.118-0.312-0.177-0.654-0.177-1.025c0-0.386,0.055-0.744,0.164-1.076
		c0.108-0.33,0.269-0.616,0.482-0.856c0.211-0.241,0.471-0.429,0.776-0.564s0.653-0.202,1.044-0.202
		c0.287,0,0.562,0.039,0.827,0.114c0.263,0.076,0.5,0.194,0.708,0.352c0.207,0.155,0.381,0.355,0.51,0.585
		c0.129,0.233,0.203,0.512,0.223,0.832h-1.298C291.894,15.437,291.567,15.153,291.002,15.153z"/>
	<path fill="#FFFFFF" d="M268.885,12.827h2.698v0.678h-2.698V12.827z"/>
	<path fill="#FFFFFF" d="M296.834,15.431c-0.158-0.18-0.428-0.277-0.748-0.277c-0.212,0-0.388,0.037-0.529,0.111
		c-0.139,0.074-0.264,0.166-0.348,0.274c-0.084,0.11-0.145,0.226-0.18,0.351c-0.031,0.121-0.053,0.23-0.059,0.328h2.17
		C297.105,15.868,296.992,15.611,296.834,15.431L296.834,15.431z M295.297,18.044c0.199,0.2,0.499,0.301,0.873,0.301
		c0.267,0,0.497-0.07,0.689-0.209s0.313-0.287,0.354-0.441h1.166c-0.187,0.6-0.473,1.027-0.858,1.285
		c-0.385,0.258-0.851,0.387-1.397,0.387c-0.38,0-0.724-0.063-1.028-0.188c-0.306-0.126-0.563-0.304-0.777-0.535
		c-0.212-0.231-0.375-0.507-0.49-0.829c-0.115-0.32-0.172-0.676-0.172-1.061c0-0.371,0.059-0.719,0.176-1.041
		c0.119-0.322,0.289-0.6,0.507-0.833c0.22-0.235,0.478-0.419,0.778-0.555c0.304-0.136,0.64-0.202,1.007-0.202
		c0.407,0,0.767,0.08,1.069,0.246c0.307,0.162,0.557,0.383,0.752,0.658c0.197,0.275,0.338,0.592,0.425,0.945
		c0.085,0.352,0.118,0.721,0.094,1.107h-3.493C294.971,17.472,295.098,17.845,295.297,18.044z"/>
	<g>
		<path fill="#FFFFFF" d="M88.44,18.683c-0.24,0-0.459-0.047-0.657-0.144c-0.191-0.103-0.345-0.243-0.459-0.423
			c-0.113-0.186-0.171-0.411-0.171-0.675c0-0.492,0.216-0.864,0.648-1.116c0.432-0.252,1.116-0.429,2.052-0.53
			c-0.006-0.181-0.036-0.355-0.09-0.523c-0.048-0.168-0.138-0.302-0.271-0.404c-0.132-0.102-0.314-0.152-0.549-0.152
			c-0.252,0-0.488,0.048-0.711,0.144c-0.222,0.09-0.42,0.192-0.594,0.306l-0.288-0.504c0.132-0.09,0.288-0.177,0.468-0.261
			c0.181-0.09,0.375-0.162,0.585-0.216c0.21-0.061,0.433-0.09,0.666-0.09c0.354,0,0.643,0.075,0.864,0.225
			c0.228,0.145,0.393,0.352,0.495,0.621c0.107,0.27,0.162,0.588,0.162,0.953v2.683h-0.612l-0.063-0.521H89.89
			c-0.21,0.174-0.436,0.324-0.675,0.449C88.975,18.623,88.717,18.683,88.44,18.683z M88.647,18.071c0.216,0,0.417-0.049,0.604-0.145
			c0.191-0.096,0.393-0.236,0.603-0.422v-1.18c-0.492,0.061-0.882,0.139-1.17,0.234c-0.282,0.09-0.486,0.203-0.612,0.342
			c-0.126,0.138-0.188,0.303-0.188,0.494c0,0.24,0.075,0.414,0.225,0.523C88.258,18.021,88.438,18.071,88.647,18.071z
			 M92.751,18.656c-0.187,0-0.336-0.036-0.45-0.108c-0.114-0.078-0.198-0.188-0.252-0.332c-0.054-0.15-0.081-0.33-0.081-0.541
			v-5.508h0.738v5.563c0,0.119,0.021,0.203,0.063,0.252c0.042,0.041,0.093,0.063,0.153,0.063c0.023,0,0.045,0,0.063,0
			c0.024-0.006,0.055-0.012,0.091-0.018l0.107,0.558c-0.054,0.019-0.117,0.033-0.188,0.046
			C92.928,18.647,92.847,18.656,92.751,18.656z M95.045,18.656c-0.187,0-0.336-0.036-0.45-0.108
			c-0.114-0.078-0.198-0.188-0.252-0.332c-0.054-0.15-0.081-0.33-0.081-0.541v-5.508H95v5.563c0,0.119,0.021,0.203,0.063,0.252
			c0.042,0.041,0.093,0.063,0.153,0.063c0.023,0,0.045,0,0.063,0c0.024-0.006,0.055-0.012,0.091-0.018l0.107,0.558
			c-0.054,0.019-0.117,0.033-0.188,0.046C95.222,18.647,95.141,18.656,95.045,18.656z M98.357,18.575v-4.374h0.612l0.063,0.792
			h0.027c0.144-0.275,0.324-0.495,0.54-0.656c0.216-0.162,0.45-0.243,0.702-0.243c0.096,0,0.18,0.006,0.252,0.018
			c0.071,0.012,0.144,0.036,0.215,0.072l-0.162,0.63c-0.065-0.018-0.129-0.03-0.188-0.036c-0.054-0.012-0.126-0.018-0.216-0.018
			c-0.186,0-0.381,0.074-0.585,0.225c-0.198,0.15-0.372,0.41-0.521,0.783v2.808H98.357z M101.478,18.575v-4.374h0.738v4.374H101.478
			z M101.847,13.302c-0.145,0-0.265-0.045-0.36-0.136c-0.091-0.09-0.136-0.207-0.136-0.351s0.045-0.261,0.136-0.351
			c0.096-0.091,0.216-0.136,0.36-0.136c0.144,0,0.261,0.045,0.351,0.136c0.097,0.09,0.144,0.207,0.144,0.351
			s-0.047,0.261-0.144,0.351C102.107,13.257,101.99,13.302,101.847,13.302z M105.168,20.591c-0.354,0-0.669-0.047-0.944-0.144
			c-0.271-0.091-0.483-0.222-0.64-0.396c-0.149-0.174-0.225-0.388-0.225-0.64c0-0.187,0.057-0.366,0.171-0.54
			c0.113-0.168,0.27-0.318,0.468-0.449v-0.037c-0.108-0.072-0.2-0.164-0.278-0.279c-0.072-0.119-0.108-0.264-0.108-0.432
			c0-0.186,0.051-0.348,0.153-0.486c0.107-0.137,0.215-0.245,0.324-0.323v-0.036c-0.139-0.12-0.268-0.281-0.388-0.486
			c-0.12-0.203-0.181-0.435-0.181-0.692c0-0.318,0.076-0.594,0.226-0.828c0.156-0.233,0.356-0.414,0.603-0.54
			c0.252-0.126,0.525-0.188,0.819-0.188c0.12,0,0.234,0.012,0.343,0.036c0.107,0.018,0.2,0.042,0.278,0.071h1.521v0.567h-0.908
			v0.036c0.107,0.096,0.195,0.216,0.261,0.359c0.072,0.145,0.108,0.314,0.108,0.514c0,0.312-0.072,0.581-0.217,0.81
			c-0.144,0.222-0.336,0.396-0.576,0.521c-0.239,0.121-0.51,0.18-0.81,0.18c-0.108,0-0.219-0.012-0.333-0.035
			c-0.113-0.03-0.222-0.069-0.324-0.117c-0.072,0.066-0.138,0.139-0.197,0.217c-0.055,0.077-0.082,0.18-0.082,0.305
			c0,0.139,0.055,0.252,0.162,0.343c0.115,0.09,0.318,0.135,0.613,0.135h0.846c0.51,0,0.891,0.084,1.143,0.252
			c0.258,0.162,0.387,0.427,0.387,0.792c0,0.27-0.09,0.52-0.27,0.747s-0.438,0.411-0.773,0.549
			C106.009,20.519,105.618,20.591,105.168,20.591z M105.168,16.694c0.168,0,0.321-0.042,0.459-0.126
			c0.144-0.091,0.259-0.214,0.343-0.369c0.084-0.156,0.125-0.339,0.125-0.549c0-0.324-0.09-0.573-0.27-0.747
			c-0.18-0.18-0.398-0.27-0.657-0.27c-0.258,0-0.478,0.09-0.657,0.27c-0.18,0.174-0.27,0.423-0.27,0.747
			c0,0.21,0.042,0.393,0.126,0.549c0.084,0.155,0.194,0.278,0.333,0.369C104.845,16.652,105,16.694,105.168,16.694z M105.276,20.078
			c0.275,0,0.516-0.042,0.72-0.126c0.21-0.084,0.372-0.195,0.485-0.333c0.121-0.138,0.181-0.282,0.181-0.433
			c0-0.203-0.078-0.344-0.233-0.422c-0.15-0.078-0.367-0.117-0.648-0.117h-0.756c-0.084,0-0.178-0.006-0.279-0.018
			c-0.096-0.013-0.191-0.031-0.288-0.055c-0.162,0.113-0.278,0.234-0.351,0.359c-0.066,0.127-0.1,0.252-0.1,0.379
			c0,0.234,0.111,0.42,0.334,0.558C104.568,20.009,104.88,20.078,105.276,20.078z M108.228,18.575v-6.408h0.738v1.746l-0.027,0.9
			c0.21-0.198,0.429-0.366,0.656-0.504c0.234-0.145,0.502-0.216,0.801-0.216c0.463,0,0.799,0.146,1.009,0.44
			c0.216,0.288,0.323,0.711,0.323,1.269v2.772h-0.737v-2.673c0-0.414-0.065-0.711-0.198-0.891c-0.126-0.187-0.336-0.279-0.63-0.279
			c-0.222,0-0.423,0.057-0.603,0.171c-0.174,0.114-0.373,0.282-0.594,0.504v3.168H108.228z M114.499,18.656
			c-0.461,0-0.785-0.136-0.971-0.405c-0.187-0.27-0.279-0.621-0.279-1.053v-2.394h-0.648v-0.559l0.684-0.045l0.09-1.403h0.621v1.403
			h1.188v0.604h-1.188v2.402c0,0.265,0.049,0.472,0.145,0.621c0.102,0.149,0.279,0.226,0.531,0.226c0.078,0,0.158-0.006,0.242-0.019
			c0.084-0.019,0.168-0.048,0.252-0.09l0.162,0.522c-0.113,0.053-0.242,0.099-0.387,0.135
			C114.797,18.638,114.649,18.656,114.499,18.656z M117.219,18.683c-0.317,0-0.62-0.053-0.909-0.162
			c-0.281-0.113-0.521-0.27-0.72-0.467l0.343-0.433c0.191,0.156,0.389,0.276,0.594,0.36c0.209,0.084,0.449,0.125,0.72,0.125
			c0.288,0,0.504-0.065,0.647-0.197c0.145-0.139,0.217-0.3,0.217-0.486c0-0.15-0.051-0.272-0.153-0.369
			c-0.097-0.102-0.22-0.186-0.369-0.252c-0.144-0.072-0.3-0.138-0.468-0.197c-0.217-0.078-0.424-0.168-0.621-0.271
			c-0.198-0.108-0.359-0.239-0.486-0.396c-0.119-0.161-0.18-0.362-0.18-0.602c0-0.354,0.132-0.648,0.396-0.883
			c0.27-0.239,0.642-0.359,1.115-0.359c0.27,0,0.521,0.048,0.756,0.144c0.234,0.09,0.436,0.207,0.604,0.352l-0.342,0.423
			c-0.156-0.108-0.315-0.192-0.478-0.252c-0.161-0.061-0.342-0.09-0.54-0.09c-0.275,0-0.48,0.063-0.611,0.188
			c-0.127,0.126-0.189,0.272-0.189,0.44c0,0.133,0.039,0.243,0.117,0.334c0.078,0.084,0.186,0.158,0.324,0.225
			c0.144,0.066,0.306,0.129,0.485,0.189c0.228,0.083,0.444,0.179,0.648,0.287c0.21,0.103,0.378,0.237,0.504,0.405
			c0.132,0.162,0.198,0.375,0.198,0.639c0,0.24-0.063,0.459-0.189,0.657c-0.12,0.192-0.3,0.349-0.54,0.468
			C117.858,18.623,117.567,18.683,117.219,18.683z M121.647,18.575v-4.374h0.613l0.063,0.792h0.027
			c0.144-0.275,0.324-0.495,0.539-0.656c0.217-0.162,0.451-0.243,0.703-0.243c0.096,0,0.18,0.006,0.252,0.018
			c0.071,0.012,0.144,0.036,0.215,0.072l-0.162,0.63c-0.065-0.018-0.129-0.03-0.188-0.036c-0.054-0.012-0.126-0.018-0.216-0.018
			c-0.186,0-0.381,0.074-0.585,0.225c-0.198,0.15-0.372,0.41-0.522,0.783v2.808H121.647z M126.453,18.683
			c-0.39,0-0.747-0.09-1.071-0.27c-0.317-0.186-0.569-0.447-0.756-0.783c-0.186-0.342-0.279-0.756-0.279-1.242
			c0-0.474,0.097-0.882,0.289-1.224c0.191-0.342,0.438-0.605,0.738-0.792c0.299-0.186,0.617-0.278,0.953-0.278
			c0.372,0,0.688,0.087,0.945,0.261c0.264,0.168,0.462,0.405,0.594,0.71c0.133,0.307,0.198,0.666,0.198,1.081
			c0,0.078-0.003,0.152-0.009,0.225c0,0.072-0.01,0.145-0.027,0.217h-3.15v-0.585h2.521c0-0.421-0.093-0.742-0.279-0.964
			c-0.18-0.228-0.44-0.342-0.782-0.342c-0.199,0-0.394,0.058-0.586,0.171c-0.191,0.108-0.351,0.285-0.477,0.531
			c-0.12,0.246-0.18,0.572-0.18,0.981c0,0.371,0.063,0.684,0.188,0.936c0.132,0.252,0.31,0.443,0.531,0.576
			c0.222,0.125,0.465,0.188,0.729,0.188c0.209,0,0.404-0.03,0.584-0.09c0.187-0.06,0.354-0.142,0.504-0.243l0.271,0.486
			c-0.192,0.132-0.408,0.24-0.647,0.324C127.021,18.642,126.753,18.683,126.453,18.683z M130.288,18.683
			c-0.318,0-0.621-0.053-0.908-0.162c-0.283-0.113-0.522-0.27-0.721-0.467l0.342-0.433c0.192,0.156,0.391,0.276,0.594,0.36
			c0.211,0.084,0.451,0.125,0.721,0.125c0.287,0,0.504-0.065,0.648-0.197c0.144-0.139,0.215-0.3,0.215-0.486
			c0-0.15-0.051-0.272-0.152-0.369c-0.096-0.102-0.219-0.186-0.369-0.252c-0.145-0.072-0.3-0.138-0.468-0.197
			c-0.216-0.078-0.423-0.168-0.621-0.271c-0.198-0.108-0.36-0.239-0.486-0.396c-0.12-0.161-0.18-0.362-0.18-0.602
			c0-0.354,0.132-0.648,0.396-0.883c0.271-0.239,0.643-0.359,1.116-0.359c0.271,0,0.522,0.048,0.757,0.144
			c0.233,0.09,0.435,0.207,0.603,0.352l-0.343,0.423c-0.155-0.108-0.314-0.192-0.477-0.252c-0.162-0.061-0.342-0.09-0.54-0.09
			c-0.276,0-0.479,0.063-0.612,0.188c-0.125,0.126-0.188,0.272-0.188,0.44c0,0.133,0.039,0.243,0.117,0.334
			c0.077,0.084,0.186,0.158,0.323,0.225c0.145,0.066,0.307,0.129,0.486,0.189c0.229,0.083,0.444,0.179,0.648,0.287
			c0.21,0.103,0.378,0.237,0.504,0.405c0.132,0.162,0.197,0.375,0.197,0.639c0,0.24-0.063,0.459-0.188,0.657
			c-0.12,0.192-0.3,0.349-0.54,0.468C130.927,18.623,130.636,18.683,130.288,18.683z M134.688,18.683c-0.39,0-0.746-0.09-1.07-0.27
			c-0.318-0.186-0.57-0.447-0.756-0.783c-0.187-0.342-0.279-0.756-0.279-1.242c0-0.474,0.096-0.882,0.287-1.224
			c0.192-0.342,0.438-0.605,0.738-0.792c0.301-0.186,0.618-0.278,0.954-0.278c0.372,0,0.687,0.087,0.945,0.261
			c0.265,0.168,0.462,0.405,0.594,0.71c0.132,0.307,0.198,0.666,0.198,1.081c0,0.078-0.003,0.152-0.01,0.225
			c0,0.072-0.008,0.145-0.026,0.217h-3.149v-0.585h2.52c0-0.421-0.094-0.742-0.279-0.964c-0.18-0.228-0.441-0.342-0.783-0.342
			c-0.197,0-0.393,0.058-0.584,0.171c-0.192,0.108-0.352,0.285-0.478,0.531c-0.12,0.246-0.181,0.572-0.181,0.981
			c0,0.371,0.063,0.684,0.189,0.936c0.133,0.252,0.309,0.443,0.531,0.576c0.223,0.125,0.465,0.188,0.729,0.188
			c0.211,0,0.405-0.03,0.586-0.09c0.186-0.06,0.354-0.142,0.504-0.243l0.27,0.486c-0.191,0.132-0.408,0.24-0.648,0.324
			C135.256,18.642,134.989,18.683,134.688,18.683z M137.38,18.575v-4.374h0.613l0.063,0.792h0.027
			c0.144-0.275,0.324-0.495,0.539-0.656c0.217-0.162,0.451-0.243,0.703-0.243c0.096,0,0.18,0.006,0.252,0.018
			c0.071,0.012,0.144,0.036,0.215,0.072l-0.162,0.63c-0.065-0.018-0.129-0.03-0.188-0.036c-0.054-0.012-0.126-0.018-0.216-0.018
			c-0.186,0-0.381,0.074-0.585,0.225c-0.198,0.15-0.372,0.41-0.522,0.783v2.808H137.38z M141.675,18.575l-1.576-4.374h0.766
			l0.828,2.483c0.066,0.211,0.132,0.427,0.197,0.648c0.072,0.217,0.142,0.43,0.207,0.639h0.037c0.06-0.209,0.125-0.422,0.197-0.639
			c0.072-0.222,0.139-0.438,0.198-0.648l0.828-2.483h0.729l-1.549,4.374H141.675z M146.669,18.683c-0.391,0-0.748-0.09-1.072-0.27
			c-0.317-0.186-0.569-0.447-0.756-0.783c-0.186-0.342-0.279-0.756-0.279-1.242c0-0.474,0.097-0.882,0.289-1.224
			c0.191-0.342,0.438-0.605,0.738-0.792c0.299-0.186,0.617-0.278,0.953-0.278c0.372,0,0.688,0.087,0.945,0.261
			c0.264,0.168,0.462,0.405,0.594,0.71c0.133,0.307,0.198,0.666,0.198,1.081c0,0.078-0.003,0.152-0.009,0.225
			c0,0.072-0.01,0.145-0.027,0.217h-3.15v-0.585h2.521c0-0.421-0.093-0.742-0.278-0.964c-0.181-0.228-0.441-0.342-0.783-0.342
			c-0.199,0-0.394,0.058-0.586,0.171c-0.191,0.108-0.351,0.285-0.477,0.531c-0.12,0.246-0.18,0.572-0.18,0.981
			c0,0.371,0.063,0.684,0.188,0.936c0.132,0.252,0.31,0.443,0.531,0.576c0.222,0.125,0.465,0.188,0.729,0.188
			c0.209,0,0.404-0.03,0.584-0.09c0.187-0.06,0.354-0.142,0.504-0.243l0.271,0.486c-0.192,0.132-0.407,0.24-0.647,0.324
			C147.235,18.642,146.968,18.683,146.669,18.683z M150.854,18.683c-0.553,0-0.994-0.197-1.323-0.594
			c-0.324-0.402-0.486-0.966-0.486-1.691c0-0.474,0.087-0.882,0.261-1.224c0.18-0.349,0.414-0.615,0.702-0.802
			c0.288-0.186,0.601-0.278,0.937-0.278c0.258,0,0.477,0.045,0.656,0.135c0.187,0.084,0.375,0.207,0.567,0.369l-0.036-0.747v-1.684
			h0.747v6.408h-0.612l-0.063-0.514h-0.027c-0.168,0.168-0.365,0.316-0.594,0.441C151.354,18.623,151.112,18.683,150.854,18.683z
			 M151.017,18.062c0.203,0,0.396-0.051,0.575-0.152c0.181-0.102,0.36-0.252,0.54-0.45v-2.285c-0.18-0.168-0.357-0.285-0.531-0.352
			c-0.174-0.072-0.351-0.107-0.531-0.107c-0.233,0-0.446,0.071-0.639,0.216c-0.186,0.138-0.336,0.333-0.449,0.585
			c-0.114,0.246-0.172,0.537-0.172,0.872c0,0.522,0.105,0.934,0.315,1.233C150.335,17.915,150.632,18.062,151.017,18.062z
			 M157.577,18.575v-0.45c0.57-0.563,1.057-1.062,1.459-1.493c0.408-0.438,0.717-0.835,0.927-1.188s0.315-0.684,0.315-0.99
			c0-0.33-0.091-0.6-0.271-0.81c-0.181-0.21-0.453-0.315-0.819-0.315c-0.24,0-0.462,0.066-0.666,0.198
			c-0.203,0.132-0.39,0.297-0.558,0.495l-0.414-0.405c0.239-0.27,0.495-0.485,0.765-0.647c0.276-0.162,0.598-0.243,0.963-0.243
			c0.354,0,0.66,0.072,0.918,0.216c0.258,0.138,0.457,0.333,0.594,0.585c0.139,0.252,0.207,0.546,0.207,0.882
			c0,0.372-0.104,0.74-0.314,1.107c-0.204,0.365-0.486,0.749-0.846,1.151c-0.36,0.402-0.774,0.844-1.242,1.323
			c0.156-0.019,0.318-0.03,0.486-0.036c0.168-0.012,0.326-0.018,0.477-0.018h1.729v0.639H157.577z M163.933,18.683
			c-0.576,0-1.029-0.258-1.359-0.773c-0.324-0.521-0.486-1.264-0.486-2.224c0-0.965,0.162-1.7,0.486-2.204
			c0.33-0.504,0.783-0.756,1.359-0.756c0.57,0,1.017,0.255,1.341,0.765c0.33,0.504,0.495,1.236,0.495,2.195
			c0,0.96-0.165,1.702-0.495,2.224C164.949,18.425,164.503,18.683,163.933,18.683z M163.933,18.089c0.222,0,0.417-0.084,0.585-0.252
			s0.297-0.429,0.387-0.783c0.097-0.354,0.144-0.81,0.144-1.368c0-0.563-0.047-1.02-0.144-1.367c-0.09-0.348-0.219-0.6-0.387-0.756
			c-0.168-0.162-0.363-0.243-0.585-0.243c-0.229,0-0.426,0.081-0.594,0.243c-0.168,0.156-0.301,0.408-0.396,0.756
			c-0.09,0.348-0.135,0.804-0.135,1.367c0,0.559,0.045,1.015,0.135,1.368c0.096,0.354,0.229,0.615,0.396,0.783
			S163.704,18.089,163.933,18.089z M166.524,18.575v-0.45c0.57-0.563,1.057-1.062,1.459-1.493c0.408-0.438,0.717-0.835,0.927-1.188
			s0.315-0.684,0.315-0.99c0-0.33-0.09-0.6-0.271-0.81s-0.453-0.315-0.819-0.315c-0.24,0-0.462,0.066-0.666,0.198
			c-0.203,0.132-0.39,0.297-0.558,0.495l-0.414-0.405c0.239-0.27,0.495-0.485,0.765-0.647c0.276-0.162,0.598-0.243,0.963-0.243
			c0.354,0,0.66,0.072,0.918,0.216c0.258,0.138,0.457,0.333,0.594,0.585c0.139,0.252,0.207,0.546,0.207,0.882
			c0,0.372-0.104,0.74-0.314,1.107c-0.203,0.365-0.486,0.749-0.846,1.151c-0.36,0.402-0.773,0.844-1.242,1.323
			c0.156-0.019,0.318-0.03,0.486-0.036c0.168-0.012,0.326-0.018,0.477-0.018h1.729v0.639H166.524z M170.999,18.575v-0.45
			c0.57-0.563,1.056-1.062,1.457-1.493c0.408-0.438,0.718-0.835,0.928-1.188s0.314-0.684,0.314-0.99c0-0.33-0.09-0.6-0.27-0.81
			s-0.453-0.315-0.818-0.315c-0.24,0-0.463,0.066-0.666,0.198c-0.205,0.132-0.391,0.297-0.559,0.495l-0.414-0.405
			c0.24-0.27,0.495-0.485,0.766-0.647c0.275-0.162,0.596-0.243,0.963-0.243c0.354,0,0.66,0.072,0.918,0.216
			c0.258,0.138,0.455,0.333,0.594,0.585c0.138,0.252,0.207,0.546,0.207,0.882c0,0.372-0.105,0.74-0.315,1.107
			c-0.204,0.365-0.485,0.749-0.846,1.151s-0.774,0.844-1.242,1.323c0.156-0.019,0.317-0.03,0.485-0.036
			c0.168-0.012,0.328-0.018,0.478-0.018h1.728v0.639H170.999z M177.283,16.604v-0.567h2.07v0.567H177.283z M182.32,18.575v-5.903
			h1.476c0.606,0,1.116,0.113,1.53,0.342c0.414,0.228,0.726,0.561,0.937,0.999c0.216,0.432,0.324,0.96,0.324,1.583
			c0,0.624-0.108,1.161-0.324,1.611c-0.211,0.444-0.52,0.783-0.928,1.017c-0.408,0.234-0.908,0.352-1.502,0.352H182.32z
			 M183.067,17.964h0.675c0.462,0,0.847-0.094,1.152-0.279c0.306-0.192,0.534-0.463,0.684-0.811c0.15-0.348,0.226-0.773,0.226-1.278
			c0-0.492-0.075-0.911-0.226-1.259c-0.149-0.349-0.378-0.609-0.684-0.783c-0.306-0.181-0.69-0.271-1.152-0.271h-0.675V17.964z
			 M189.56,18.683c-0.391,0-0.747-0.09-1.071-0.27c-0.317-0.186-0.569-0.447-0.756-0.783c-0.187-0.342-0.279-0.756-0.279-1.242
			c0-0.474,0.097-0.882,0.288-1.224s0.438-0.605,0.738-0.792c0.3-0.186,0.617-0.278,0.953-0.278c0.373,0,0.688,0.087,0.945,0.261
			c0.264,0.168,0.463,0.405,0.594,0.71c0.133,0.307,0.199,0.666,0.199,1.081c0,0.078-0.004,0.152-0.01,0.225
			c0,0.072-0.009,0.145-0.027,0.217h-3.149v-0.585h2.521c0-0.421-0.094-0.742-0.279-0.964c-0.18-0.228-0.441-0.342-0.783-0.342
			c-0.198,0-0.393,0.058-0.585,0.171c-0.192,0.108-0.351,0.285-0.478,0.531c-0.119,0.246-0.18,0.572-0.18,0.981
			c0,0.371,0.063,0.684,0.189,0.936c0.132,0.252,0.309,0.443,0.531,0.576c0.221,0.125,0.465,0.188,0.729,0.188
			c0.21,0,0.404-0.03,0.585-0.09c0.187-0.06,0.354-0.142,0.504-0.243l0.271,0.486c-0.192,0.132-0.408,0.24-0.648,0.324
			C190.126,18.642,189.859,18.683,189.56,18.683z M193.394,18.683c-0.318,0-0.621-0.053-0.909-0.162
			c-0.282-0.113-0.522-0.27-0.72-0.467l0.342-0.433c0.191,0.156,0.391,0.276,0.594,0.36c0.21,0.084,0.45,0.125,0.721,0.125
			c0.287,0,0.504-0.065,0.647-0.197c0.144-0.139,0.216-0.3,0.216-0.486c0-0.15-0.051-0.272-0.152-0.369
			c-0.097-0.102-0.22-0.186-0.369-0.252c-0.145-0.072-0.301-0.138-0.469-0.197c-0.216-0.078-0.422-0.168-0.621-0.271
			c-0.197-0.108-0.359-0.239-0.485-0.396c-0.12-0.161-0.181-0.362-0.181-0.602c0-0.354,0.133-0.648,0.396-0.883
			c0.27-0.239,0.643-0.359,1.116-0.359c0.271,0,0.522,0.048,0.756,0.144c0.233,0.09,0.435,0.207,0.603,0.352l-0.342,0.423
			c-0.156-0.108-0.314-0.192-0.477-0.252c-0.162-0.061-0.342-0.09-0.54-0.09c-0.276,0-0.479,0.063-0.612,0.188
			c-0.126,0.126-0.189,0.272-0.189,0.44c0,0.133,0.039,0.243,0.117,0.334c0.078,0.084,0.187,0.158,0.324,0.225
			c0.145,0.066,0.307,0.129,0.486,0.189c0.229,0.083,0.443,0.179,0.648,0.287c0.209,0.103,0.377,0.237,0.504,0.405
			c0.131,0.162,0.197,0.375,0.197,0.639c0,0.24-0.063,0.459-0.189,0.657c-0.119,0.192-0.299,0.349-0.539,0.468
			C194.032,18.623,193.741,18.683,193.394,18.683z M196.022,18.575v-4.374h0.736v4.374H196.022z M196.39,13.302
			c-0.143,0-0.264-0.045-0.359-0.136c-0.09-0.09-0.135-0.207-0.135-0.351s0.045-0.261,0.135-0.351
			c0.096-0.091,0.217-0.136,0.359-0.136c0.145,0,0.262,0.045,0.352,0.136c0.096,0.09,0.145,0.207,0.145,0.351
			s-0.049,0.261-0.145,0.351C196.651,13.257,196.534,13.302,196.39,13.302z M199.712,20.591c-0.354,0-0.668-0.047-0.945-0.144
			c-0.27-0.091-0.482-0.222-0.639-0.396c-0.148-0.174-0.225-0.388-0.225-0.64c0-0.187,0.057-0.366,0.172-0.54
			c0.113-0.168,0.27-0.318,0.467-0.449v-0.037c-0.107-0.072-0.201-0.164-0.279-0.279c-0.07-0.119-0.107-0.264-0.107-0.432
			c0-0.186,0.051-0.348,0.152-0.486c0.109-0.137,0.217-0.245,0.324-0.323v-0.036c-0.137-0.12-0.266-0.281-0.387-0.486
			c-0.119-0.203-0.18-0.435-0.18-0.692c0-0.318,0.074-0.594,0.225-0.828c0.156-0.233,0.357-0.414,0.604-0.54
			c0.252-0.126,0.525-0.188,0.818-0.188c0.121,0,0.234,0.012,0.342,0.036c0.109,0.018,0.201,0.042,0.279,0.071h1.521v0.567h-0.908
			v0.036c0.107,0.096,0.193,0.216,0.26,0.359c0.072,0.145,0.109,0.314,0.109,0.514c0,0.312-0.072,0.581-0.217,0.81
			c-0.145,0.222-0.336,0.396-0.576,0.521c-0.24,0.121-0.51,0.18-0.811,0.18c-0.107,0-0.219-0.012-0.332-0.035
			c-0.115-0.03-0.223-0.069-0.324-0.117c-0.072,0.066-0.139,0.139-0.197,0.217c-0.055,0.077-0.082,0.18-0.082,0.305
			c0,0.139,0.055,0.252,0.162,0.343c0.113,0.09,0.318,0.135,0.611,0.135h0.848c0.51,0,0.891,0.084,1.143,0.252
			c0.258,0.162,0.387,0.427,0.387,0.792c0,0.27-0.09,0.52-0.27,0.747s-0.439,0.411-0.775,0.549
			C200.552,20.519,200.163,20.591,199.712,20.591z M199.712,16.694c0.168,0,0.322-0.042,0.459-0.126
			c0.145-0.091,0.258-0.214,0.342-0.369c0.084-0.156,0.127-0.339,0.127-0.549c0-0.324-0.09-0.573-0.27-0.747
			c-0.18-0.18-0.4-0.27-0.658-0.27s-0.477,0.09-0.656,0.27c-0.18,0.174-0.27,0.423-0.27,0.747c0,0.21,0.041,0.393,0.125,0.549
			c0.084,0.155,0.195,0.278,0.334,0.369C199.388,16.652,199.544,16.694,199.712,16.694z M199.821,20.078
			c0.275,0,0.516-0.042,0.719-0.126c0.211-0.084,0.373-0.195,0.486-0.333c0.121-0.138,0.18-0.282,0.18-0.433
			c0-0.203-0.078-0.344-0.234-0.422c-0.148-0.078-0.365-0.117-0.646-0.117h-0.756c-0.084,0-0.178-0.006-0.279-0.018
			c-0.096-0.013-0.193-0.031-0.289-0.055c-0.162,0.113-0.279,0.234-0.35,0.359c-0.066,0.127-0.1,0.252-0.1,0.379
			c0,0.234,0.111,0.42,0.332,0.558C199.112,20.009,199.425,20.078,199.821,20.078z M202.772,18.575v-4.374h0.611l0.063,0.63h0.027
			c0.209-0.21,0.432-0.384,0.666-0.521c0.234-0.145,0.5-0.216,0.801-0.216c0.463,0,0.799,0.146,1.008,0.44
			c0.217,0.288,0.324,0.711,0.324,1.269v2.772h-0.738v-2.673c0-0.414-0.066-0.711-0.197-0.891c-0.127-0.187-0.336-0.279-0.631-0.279
			c-0.221,0-0.422,0.057-0.602,0.171c-0.176,0.114-0.373,0.282-0.596,0.504v3.168H202.772z M210.503,18.683
			c-0.24,0-0.459-0.047-0.656-0.144c-0.191-0.103-0.346-0.243-0.459-0.423c-0.113-0.186-0.172-0.411-0.172-0.675
			c0-0.492,0.217-0.864,0.648-1.116s1.117-0.429,2.053-0.53c-0.006-0.181-0.037-0.355-0.09-0.523
			c-0.049-0.168-0.139-0.302-0.271-0.404c-0.131-0.102-0.314-0.152-0.549-0.152c-0.252,0-0.488,0.048-0.711,0.144
			c-0.221,0.09-0.42,0.192-0.594,0.306l-0.287-0.504c0.131-0.09,0.287-0.177,0.467-0.261c0.182-0.09,0.375-0.162,0.586-0.216
			c0.209-0.061,0.432-0.09,0.664-0.09c0.355,0,0.645,0.075,0.865,0.225c0.229,0.145,0.393,0.352,0.496,0.621
			c0.107,0.27,0.162,0.588,0.162,0.953v2.683h-0.613l-0.063-0.521h-0.027c-0.209,0.174-0.436,0.324-0.674,0.449
			C211.038,18.623,210.78,18.683,210.503,18.683z M210.71,18.071c0.217,0,0.418-0.049,0.604-0.145
			c0.191-0.096,0.393-0.236,0.604-0.422v-1.18c-0.492,0.061-0.883,0.139-1.17,0.234c-0.283,0.09-0.486,0.203-0.613,0.342
			c-0.125,0.138-0.189,0.303-0.189,0.494c0,0.24,0.076,0.414,0.227,0.523C210.321,18.021,210.501,18.071,210.71,18.071z
			 M214.813,18.656c-0.186,0-0.336-0.036-0.449-0.108c-0.115-0.078-0.199-0.188-0.252-0.332c-0.055-0.15-0.082-0.33-0.082-0.541
			v-5.508h0.738v5.563c0,0.119,0.021,0.203,0.063,0.252c0.043,0.041,0.094,0.063,0.154,0.063c0.023,0,0.045,0,0.063,0
			c0.023-0.006,0.055-0.012,0.09-0.018l0.107,0.558c-0.053,0.019-0.117,0.033-0.189,0.046
			C214.991,18.647,214.909,18.656,214.813,18.656z M217.108,18.656c-0.188,0-0.336-0.036-0.451-0.108
			c-0.113-0.078-0.197-0.188-0.252-0.332c-0.053-0.15-0.08-0.33-0.08-0.541v-5.508h0.738v5.563c0,0.119,0.02,0.203,0.063,0.252
			c0.041,0.041,0.092,0.063,0.152,0.063c0.023,0,0.045,0,0.063,0c0.025-0.006,0.055-0.012,0.09-0.018l0.109,0.558
			c-0.055,0.019-0.117,0.033-0.189,0.046C217.284,18.647,217.204,18.656,217.108,18.656z M220.419,18.575v-4.374h0.613l0.063,0.63
			h0.027c0.191-0.203,0.398-0.378,0.621-0.521c0.227-0.145,0.473-0.216,0.738-0.216c0.336,0,0.596,0.075,0.781,0.225
			c0.193,0.15,0.334,0.354,0.424,0.612c0.229-0.252,0.459-0.453,0.693-0.604c0.234-0.155,0.482-0.233,0.746-0.233
			c0.457,0,0.793,0.146,1.008,0.44c0.217,0.288,0.324,0.711,0.324,1.269v2.772h-0.738v-2.673c0-0.414-0.064-0.711-0.197-0.891
			c-0.133-0.187-0.336-0.279-0.611-0.279c-0.174,0-0.352,0.057-0.531,0.171c-0.174,0.108-0.363,0.276-0.566,0.504v3.168h-0.738
			v-2.673c0-0.414-0.066-0.711-0.199-0.891c-0.131-0.187-0.338-0.279-0.621-0.279c-0.33,0-0.695,0.225-1.098,0.675v3.168H220.419z
			 M227.954,20.456c-0.096,0-0.189-0.009-0.279-0.027c-0.084-0.018-0.162-0.039-0.234-0.063l0.162-0.576
			c0.055,0.018,0.107,0.03,0.162,0.036c0.055,0.013,0.105,0.019,0.152,0.019c0.252,0,0.457-0.09,0.613-0.271
			c0.162-0.174,0.287-0.396,0.377-0.666l0.1-0.324l-1.756-4.383h0.766l0.891,2.421c0.072,0.186,0.145,0.387,0.217,0.604
			c0.072,0.216,0.141,0.426,0.207,0.629h0.035c0.066-0.203,0.129-0.41,0.189-0.62c0.066-0.216,0.125-0.421,0.18-0.612l0.783-2.421
			h0.721l-1.648,4.733c-0.102,0.289-0.225,0.547-0.369,0.774c-0.143,0.234-0.316,0.417-0.521,0.55
			C228.497,20.39,228.247,20.456,227.954,20.456z M233.884,20.421v-6.22h0.613l0.063,0.504h0.027
			c0.197-0.168,0.416-0.312,0.656-0.432s0.486-0.18,0.738-0.18c0.373,0,0.688,0.093,0.945,0.278
			c0.258,0.181,0.453,0.438,0.584,0.774c0.133,0.33,0.199,0.723,0.199,1.179c0,0.492-0.09,0.915-0.27,1.27
			c-0.176,0.354-0.406,0.623-0.693,0.81c-0.289,0.187-0.598,0.278-0.928,0.278c-0.197,0-0.398-0.045-0.604-0.135
			c-0.203-0.09-0.408-0.213-0.611-0.369l0.018,0.766v1.477H233.884z M235.694,18.062c0.238,0,0.453-0.068,0.639-0.207
			c0.191-0.137,0.342-0.336,0.449-0.594c0.107-0.264,0.162-0.576,0.162-0.936c0-0.317-0.039-0.597-0.117-0.837
			c-0.078-0.246-0.201-0.435-0.369-0.566c-0.168-0.139-0.389-0.207-0.666-0.207c-0.18,0-0.365,0.051-0.557,0.152
			c-0.193,0.097-0.396,0.243-0.613,0.441v2.294c0.205,0.168,0.396,0.289,0.576,0.361C235.384,18.029,235.55,18.062,235.694,18.062z
			 M238.876,18.575v-4.374h0.613l0.063,0.792h0.027c0.143-0.275,0.324-0.495,0.539-0.656c0.217-0.162,0.451-0.243,0.703-0.243
			c0.096,0,0.18,0.006,0.252,0.018s0.143,0.036,0.215,0.072l-0.162,0.63c-0.064-0.018-0.129-0.03-0.188-0.036
			c-0.055-0.012-0.127-0.018-0.217-0.018c-0.186,0-0.381,0.074-0.586,0.225c-0.197,0.15-0.371,0.41-0.521,0.783v2.808H238.876z
			 M243.61,18.683c-0.354,0-0.688-0.09-0.998-0.27c-0.307-0.18-0.557-0.441-0.748-0.783c-0.186-0.342-0.279-0.752-0.279-1.232
			c0-0.492,0.094-0.909,0.279-1.251c0.191-0.342,0.441-0.603,0.748-0.783c0.311-0.18,0.645-0.27,0.998-0.27
			c0.359,0,0.693,0.09,1,0.27c0.305,0.181,0.551,0.441,0.736,0.783c0.193,0.342,0.289,0.759,0.289,1.251
			c0,0.48-0.096,0.891-0.289,1.232c-0.186,0.342-0.432,0.604-0.736,0.783C244.304,18.593,243.97,18.683,243.61,18.683z
			 M243.61,18.071c0.252,0,0.475-0.068,0.666-0.207c0.191-0.145,0.34-0.342,0.441-0.594s0.152-0.543,0.152-0.873
			c0-0.337-0.051-0.63-0.152-0.882c-0.102-0.258-0.25-0.456-0.441-0.594c-0.191-0.145-0.414-0.217-0.666-0.217
			s-0.475,0.072-0.666,0.217c-0.186,0.138-0.332,0.336-0.441,0.594c-0.102,0.252-0.152,0.545-0.152,0.882
			c0,0.33,0.051,0.621,0.152,0.873c0.109,0.252,0.256,0.449,0.441,0.594C243.136,18.003,243.358,18.071,243.61,18.071z
			 M246.896,18.575v-5.066c0-0.294,0.045-0.55,0.135-0.766c0.09-0.222,0.229-0.39,0.414-0.504c0.191-0.12,0.436-0.18,0.729-0.18
			c0.133,0,0.262,0.015,0.389,0.045c0.131,0.024,0.244,0.057,0.342,0.099l-0.162,0.54c-0.174-0.054-0.34-0.081-0.496-0.081
			c-0.203,0-0.357,0.072-0.459,0.217c-0.102,0.138-0.152,0.348-0.152,0.63v5.066H246.896z M246.247,14.805v-0.559l0.684-0.045h1.631
			v0.604H246.247z M249.397,18.575v-4.374h0.738v4.374H249.397z M249.767,13.302c-0.145,0-0.264-0.045-0.359-0.136
			c-0.09-0.09-0.135-0.207-0.135-0.351s0.045-0.261,0.135-0.351c0.096-0.091,0.215-0.136,0.359-0.136s0.262,0.045,0.352,0.136
			c0.096,0.09,0.143,0.207,0.143,0.351s-0.047,0.261-0.143,0.351C250.028,13.257,249.911,13.302,249.767,13.302z M252.396,18.656
			c-0.186,0-0.336-0.036-0.449-0.108c-0.115-0.078-0.199-0.188-0.252-0.332c-0.055-0.15-0.082-0.33-0.082-0.541v-5.508h0.738v5.563
			c0,0.119,0.021,0.203,0.063,0.252c0.043,0.041,0.094,0.063,0.154,0.063c0.023,0,0.045,0,0.063,0
			c0.023-0.006,0.053-0.012,0.09-0.018l0.107,0.558c-0.053,0.019-0.117,0.033-0.189,0.046
			C252.573,18.647,252.491,18.656,252.396,18.656z M255.679,18.683c-0.389,0-0.746-0.09-1.07-0.27
			c-0.318-0.186-0.57-0.447-0.756-0.783c-0.186-0.342-0.279-0.756-0.279-1.242c0-0.474,0.096-0.882,0.289-1.224
			c0.191-0.342,0.438-0.605,0.736-0.792c0.301-0.186,0.619-0.278,0.955-0.278c0.371,0,0.688,0.087,0.945,0.261
			c0.264,0.168,0.461,0.405,0.594,0.71c0.131,0.307,0.197,0.666,0.197,1.081c0,0.078-0.002,0.152-0.008,0.225
			c0,0.072-0.01,0.145-0.027,0.217h-3.15v-0.585h2.52c0-0.421-0.092-0.742-0.279-0.964c-0.18-0.228-0.439-0.342-0.781-0.342
			c-0.199,0-0.395,0.058-0.586,0.171c-0.191,0.108-0.352,0.285-0.477,0.531c-0.121,0.246-0.18,0.572-0.18,0.981
			c0,0.371,0.063,0.684,0.188,0.936c0.133,0.252,0.311,0.443,0.531,0.576c0.223,0.125,0.465,0.188,0.73,0.188
			c0.209,0,0.404-0.03,0.584-0.09c0.186-0.06,0.354-0.142,0.504-0.243l0.27,0.486c-0.191,0.132-0.408,0.24-0.646,0.324
			C256.247,18.642,255.979,18.683,255.679,18.683z M258.757,15.434c-0.143,0-0.27-0.051-0.377-0.152
			c-0.107-0.107-0.162-0.243-0.162-0.404c0-0.175,0.055-0.313,0.162-0.414c0.107-0.108,0.234-0.162,0.377-0.162
			c0.15,0,0.277,0.054,0.379,0.162c0.102,0.102,0.152,0.239,0.152,0.414c0,0.161-0.051,0.297-0.152,0.404
			C259.034,15.383,258.907,15.434,258.757,15.434z M258.757,18.683c-0.143,0-0.27-0.051-0.377-0.152
			c-0.107-0.107-0.162-0.243-0.162-0.405c0-0.174,0.055-0.312,0.162-0.413c0.107-0.109,0.234-0.162,0.377-0.162
			c0.15,0,0.277,0.053,0.379,0.162c0.102,0.102,0.152,0.239,0.152,0.413c0,0.162-0.051,0.298-0.152,0.405
			C259.034,18.632,258.907,18.683,258.757,18.683z"/>
		<path fill="#FFFFFF" d="M80.694,19.741c2.259,0,4.167-1.907,4.167-4.166s-1.908-4.166-4.167-4.166s-4.166,1.907-4.166,4.166
			S78.436,19.741,80.694,19.741z M80.694,12.242c1.808,0,3.334,1.526,3.334,3.333s-1.526,3.334-3.334,3.334
			c-1.807,0-3.333-1.527-3.333-3.334S78.888,12.242,80.694,12.242z"/>
		<path fill="#FFFFFF" d="M80.694,17.659c0.376,0,1.075-0.07,1.545-0.539l-0.589-0.59c-0.185,0.185-0.543,0.295-0.956,0.295
			c-0.678,0-1.25-0.572-1.25-1.25c0-0.677,0.572-1.25,1.25-1.25c0.414,0,0.771,0.11,0.956,0.295l0.589-0.589
			c-0.469-0.469-1.169-0.539-1.545-0.539c-1.148,0-2.083,0.935-2.083,2.083S79.546,17.659,80.694,17.659z"/>
	</g>
</g>
</svg>
