<svg width="87" height="65" viewBox="0 0 87 65" fill="none" xmlns="http://www.w3.org/2000/svg">
<path d="M5.12703 19.9554C3.46613 17.5852 -0.123033 20.0972 1.53963 22.4697C3.20437 24.8438 6.78792 22.3244 5.12703 19.9554ZM80.5477 28.5668L65.4061 11.1954C58.5363 12.4894 52.2956 6.17582 44.8584 11.5665C43.7124 12.3814 44.3487 11.8458 31.7667 23.878C29.8498 25.7271 32.0272 28.6075 33.9503 28.6511C35.2982 28.6889 35.2135 28.4566 42.9518 21.0496C44.5103 19.553 47.0196 19.5892 48.5426 21.1281C71.8389 44.425 70.0056 42.5883 70.2622 42.8448C76.7075 37.119 76.183 31.9327 80.5477 28.5668ZM68.8218 44.6363L68.2085 44.0232C68.1046 43.9237 47.0246 22.8421 46.9224 22.7404C46.2566 22.0679 45.2101 22.0525 44.5329 22.6991C42.724 24.4301 37.2779 29.6236 37.2779 29.6236C35.3914 31.435 32.3827 31.3648 30.5834 29.4745C30.2956 29.1743 29.8791 28.7703 29.6509 28.4256C28.2516 26.5324 28.4771 23.8751 30.1832 22.2295C44.3408 8.69184 41.2156 11.679 41.6904 11.2269C38.7461 9.32813 34.9298 8.83024 31.3513 9.90739C31.105 9.9814 30.8597 10.0538 30.6156 10.1153C26.7754 11.2303 23.7565 11.5875 21.6532 11.1811L6.95581 28.043C9.86334 32.7093 9.6107 36.1215 17.0072 42.4437C20.4025 39.0477 25.0975 41.0234 25.8876 44.7438C29.4875 41.1444 34.568 43.6027 34.8573 47.7575C38.0436 46.6443 41.3965 48.8324 41.6576 52.1842C43.4394 51.5405 45.3011 52.0079 46.2939 52.7567C47.2698 53.532 47.0161 53.3042 51.5422 57.8299C53.3106 59.5987 56.3838 58.3617 56.3838 55.8225C56.3838 54.2548 56.134 54.3921 48.1656 46.4232C47.0981 45.3552 48.7132 43.7361 49.7819 44.8075C49.7825 44.8082 53.3428 48.3685 53.3433 48.369C57.4947 52.5204 57.778 53.1484 59.3038 53.1484C60.8771 53.1484 62.138 51.8908 62.138 50.3148C62.138 48.8749 62.0785 49.1456 53.9532 40.9489C52.8896 39.8767 54.5103 38.273 55.5774 39.3399C55.5774 39.3406 64.8099 48.6538 64.8103 48.6544C65.9033 49.7485 67.7135 49.7593 68.8218 48.6511C69.9282 47.5439 69.9282 45.7434 68.8218 44.6363ZM44.9552 54.6092C42.4917 53.4428 41.6067 54.7804 40.1854 56.2012C38.8098 57.5766 39.0314 57.3179 38.7284 57.7451C37.0727 60.1492 39.7492 63.4705 42.7115 61.6417C43.0117 61.4586 45.653 58.7601 45.4169 58.994C46.477 57.9428 46.7031 55.9367 44.9552 54.6092ZM38.5657 54.5895C39.6683 53.4817 39.6678 51.684 38.5618 50.578C37.4552 49.4716 35.6541 49.4711 34.547 50.578C34.4918 50.6335 34.0328 51.0929 29.5469 55.5784C28.4436 56.6861 28.4443 58.4849 29.5503 59.5907C30.6562 60.6978 32.4578 60.6978 33.5649 59.5907C38.9558 54.2 35.6577 57.4981 38.5657 54.5895ZM32.5901 48.1232C32.5901 45.5875 29.5243 44.3391 27.7481 46.1153C25.9633 47.8999 23.7746 50.1724 23.5649 50.3498C21.3898 53.1738 25.3626 56.5318 27.8114 54.0831C31.9809 49.9113 32.5901 49.6417 32.5901 48.1232ZM23.2501 47.3806C25.1274 44.5414 21.2762 41.4061 18.8744 43.8079C18.1979 44.4842 17.4192 45.0986 17.4192 46.4442C17.4192 48.0175 18.6771 49.2784 20.2532 49.2784C21.6226 49.2784 22.0871 48.5436 23.2501 47.3806ZM86.6086 27.6169L83.5552 30.278C83.1433 30.6364 82.5149 30.6686 82.0621 30.2798C78.2255 33.1116 78.5832 38.6227 71.5699 44.738C73.3636 49.233 68.5216 53.4173 64.3533 51.1347C63.931 53.7842 61.501 55.7469 58.651 55.3879C58.9036 58.3797 56.5651 60.942 53.5503 60.942C51.0512 60.942 49.93 59.4501 48.4413 57.9609C48.2538 58.9386 47.7802 59.8677 47.0291 60.6137C44.6572 62.9974 44.498 63.2212 43.9328 63.5738C40.9715 65.6038 36.7601 63.991 36.0413 60.3464C35.1156 61.2715 33.9492 62.7052 31.5577 62.7052C28.5612 62.7052 26.2041 60.1565 26.4561 57.1511C23.1326 57.5744 20.3719 54.8052 20.7104 51.5416C16.7376 51.8897 13.9441 47.8243 15.6254 44.2566C9.40053 39.8497 7.12481 32.9969 5.37517 29.8559C5.02579 30.2561 4.81849 30.572 4.27415 30.6092C3.95776 30.6295 3.66781 30.5244 3.44466 30.3306L0.391842 27.6694C-0.084096 27.2552 -0.133274 26.533 0.28163 26.0571C0.695892 25.5824 1.41868 25.5321 1.89382 25.9469L4.08543 27.8565L20.1227 9.45756C20.2007 9.27334 20.2979 9.12517 20.5025 8.97667L12.5641 2.05706C12.0883 1.64296 12.0391 0.920169 12.454 0.444872C12.8681 -0.0304244 13.5904 -0.0796028 14.0662 0.334019C23.353 8.42848 23.397 8.19556 23.2654 9.05805C25.5598 9.11443 28.4946 8.37705 30.6941 7.71801C35.1502 6.3759 39.9458 7.12066 43.5248 9.71068C45.8023 7.75871 51.0705 6.12728 56.3566 7.71865C59.3926 8.63801 61.9294 9.09473 63.749 9.0659C63.5456 8.09336 63.6683 8.35719 72.9336 0.280986C73.4112 -0.133917 74.1322 -0.0829731 74.5465 0.391683C74.9607 0.867621 74.9115 1.58978 74.4362 2.00405L66.4882 8.93133C66.6952 9.05916 66.8613 9.25076 66.9539 9.49249L82.9149 27.804L85.106 25.8938C85.5829 25.4785 86.3052 25.5292 86.7188 26.004C87.1331 26.4798 87.0839 27.202 86.6086 27.6169ZM84.924 19.3659C87.2947 21.0268 84.7821 24.616 82.4098 22.9535C80.0402 21.2919 82.5504 17.7028 84.924 19.3659Z" fill="#454645"/>
</svg>
