<svg width="139" height="17" viewBox="0 0 139 17" fill="none" xmlns="http://www.w3.org/2000/svg">
<rect width="104" height="17" rx="8.5" fill="#35D2C1"/>
<path d="M9.78912 13.1883C9.78912 13.1883 13.6013 11.2822 13.6013 8.42308V5.08741L9.78912 3.65784L5.97693 5.08741V8.42308C5.97693 11.2822 9.78912 13.1883 9.78912 13.1883Z" fill="white" stroke="white" stroke-width="2" stroke-linecap="round" stroke-linejoin="round"/>
<path d="M9.90126 5.69348L10.5635 7.03512L12.0445 7.25159L10.9729 8.29533L11.2258 9.76985L9.90126 9.07331L8.57676 9.76985L8.82966 8.29533L7.75806 7.25159L9.23901 7.03512L9.90126 5.69348Z" fill="#35D2C1" stroke="#35D2C1" stroke-width="2" stroke-linecap="round" stroke-linejoin="round"/>
<path d="M22.2899 6.21165V11.3636H21.2749V9.27065H18.9719V11.3636H17.9569V6.21165H18.9719V8.29065H21.2749V6.21165H22.2899ZM23.617 6.21165H24.632V11.3636H23.617V6.21165ZM30.1408 10.8456C30.0801 10.911 29.9844 10.9786 29.8538 11.0486C29.7231 11.114 29.5714 11.1746 29.3988 11.2306C29.2308 11.2866 29.0581 11.331 28.8808 11.3636C28.7034 11.401 28.5354 11.4196 28.3768 11.4196C27.9568 11.4196 27.5788 11.359 27.2428 11.2376C26.9068 11.1116 26.6198 10.939 26.3818 10.7196C26.1438 10.4956 25.9618 10.232 25.8358 9.92865C25.7098 9.62531 25.6468 9.29398 25.6468 8.93465C25.6468 8.46331 25.7168 8.05498 25.8568 7.70965C26.0014 7.35965 26.1951 7.07031 26.4378 6.84165C26.6851 6.60831 26.9674 6.43565 27.2848 6.32365C27.6068 6.21165 27.9428 6.15565 28.2928 6.15565C28.6241 6.15565 28.9274 6.19298 29.2028 6.26765C29.4781 6.33765 29.7114 6.42631 29.9028 6.53365L29.5738 7.47865C29.4898 7.43198 29.3778 7.38531 29.2378 7.33865C29.0978 7.29198 28.9554 7.25465 28.8108 7.22665C28.6661 7.19398 28.5378 7.17765 28.4258 7.17765C28.1458 7.17765 27.8984 7.21265 27.6838 7.28265C27.4691 7.35265 27.2871 7.45765 27.1378 7.59765C26.9931 7.73765 26.8834 7.91265 26.8088 8.12265C26.7341 8.32798 26.6968 8.56831 26.6968 8.84365C26.6968 9.08631 26.7388 9.30565 26.8228 9.50165C26.9068 9.69298 27.0234 9.85631 27.1728 9.99165C27.3268 10.127 27.5064 10.2296 27.7118 10.2996C27.9218 10.3696 28.1528 10.4046 28.4048 10.4046C28.5494 10.4046 28.6824 10.3953 28.8038 10.3766C28.9251 10.3533 29.0278 10.3183 29.1118 10.2716V9.64865H28.2228V8.66865H30.1408V10.8456ZM35.6268 6.21165V11.3636H34.6118V9.27065H32.3088V11.3636H31.2938V6.21165H32.3088V8.29065H34.6118V6.21165H35.6268ZM36.9539 6.21165H37.9689V10.3836H40.3909V11.3636H36.9539V6.21165ZM41.9345 9.76065L40.0375 6.21165H41.2905L42.6205 8.88565L42.3195 8.90665L43.6285 6.21165H44.8815L42.9495 9.76065V11.3636H41.9345V9.76065ZM49.4866 6.21165C49.8086 6.21165 50.0956 6.25365 50.3476 6.33765C50.5996 6.41698 50.8096 6.53365 50.9776 6.68765C51.1503 6.83698 51.281 7.01898 51.3696 7.23365C51.4583 7.44365 51.5026 7.68165 51.5026 7.94765C51.5026 8.15765 51.47 8.36765 51.4046 8.57765C51.344 8.78765 51.2413 8.97898 51.0966 9.15165C50.9566 9.32431 50.77 9.46431 50.5366 9.57165C50.3033 9.67431 50.014 9.72565 49.6686 9.72565H48.9406V11.3636H47.9256V6.21165H49.4866ZM49.6616 8.74565C49.8156 8.74565 49.944 8.71998 50.0466 8.66865C50.1493 8.61731 50.2286 8.55198 50.2846 8.47265C50.3453 8.39331 50.3873 8.31165 50.4106 8.22765C50.4386 8.13898 50.4526 8.05731 50.4526 7.98265C50.4526 7.92665 50.4433 7.85665 50.4246 7.77265C50.4106 7.68398 50.378 7.59531 50.3266 7.50665C50.2753 7.41798 50.196 7.34331 50.0886 7.28265C49.986 7.22198 49.846 7.19165 49.6686 7.19165H48.9406V8.74565H49.6616ZM50.6136 9.37565L51.8876 11.3636H50.7046L49.4026 9.40365L50.6136 9.37565ZM52.1434 11.3636L54.4674 6.00865H54.5234L56.8474 11.3636H55.6714L54.1874 7.59765L54.9224 7.09365L53.1444 11.3636H52.1434ZM53.7324 9.50165H55.2794L55.6364 10.3556H53.4174L53.7324 9.50165ZM56.8315 6.21165H60.3035V7.19165H59.0505V11.3636H58.0355V7.19165H56.8315V6.21165ZM61.283 6.21165H64.797V7.19165H62.298V8.29065H64.51V9.27065H62.298V10.3836H64.895V11.3636H61.283V6.21165ZM65.9452 11.3636V6.21165H67.4852C68.0032 6.21165 68.4442 6.28865 68.8082 6.44265C69.1722 6.59665 69.4638 6.80198 69.6832 7.05865C69.9072 7.31531 70.0705 7.60231 70.1732 7.91965C70.2758 8.23698 70.3272 8.55665 70.3272 8.87865C70.3272 9.26131 70.2572 9.60665 70.1172 9.91465C69.9818 10.218 69.7952 10.4793 69.5572 10.6986C69.3192 10.9133 69.0438 11.079 68.7312 11.1956C68.4185 11.3076 68.0872 11.3636 67.7372 11.3636H65.9452ZM66.9602 10.3836H67.5622C67.8188 10.3836 68.0522 10.351 68.2622 10.2856C68.4722 10.2156 68.6518 10.1153 68.8012 9.98465C68.9552 9.85398 69.0718 9.69065 69.1512 9.49465C69.2352 9.29398 69.2772 9.06531 69.2772 8.80865C69.2772 8.47265 69.2212 8.19965 69.1092 7.98965C69.0018 7.77498 68.8665 7.60931 68.7032 7.49265C68.5445 7.37598 68.3812 7.29665 68.2132 7.25465C68.0452 7.20798 67.9028 7.18465 67.7862 7.18465H66.9602V10.3836ZM73.6219 6.21165H77.1359V7.19165H74.6369V8.29065H76.8489V9.27065H74.6369V10.3836H77.2339V11.3636H73.6219V6.21165ZM77.864 6.21165H79.159L82.519 11.3636H81.21L77.864 6.21165ZM77.794 11.3636L79.628 8.47965L80.104 9.50165L79.054 11.3636H77.794ZM80.174 8.10165L81.238 6.21165H82.47L80.699 8.97665L80.174 8.10165ZM84.9173 6.21165C85.342 6.21165 85.7013 6.28398 85.9953 6.42865C86.2893 6.56865 86.5133 6.76931 86.6673 7.03065C86.8213 7.28731 86.8983 7.59298 86.8983 7.94765C86.8983 8.15765 86.8656 8.36998 86.8003 8.58465C86.7396 8.79465 86.6393 8.98598 86.4993 9.15865C86.364 9.33131 86.1796 9.47131 85.9463 9.57865C85.7176 9.68131 85.4353 9.73265 85.0993 9.73265H84.3713V11.3636H83.3563V6.21165H84.9173ZM85.0923 8.74565C85.2463 8.74565 85.3746 8.71998 85.4773 8.66865C85.58 8.61265 85.6593 8.54498 85.7153 8.46565C85.776 8.38165 85.818 8.29531 85.8413 8.20665C85.8693 8.11798 85.8833 8.04098 85.8833 7.97565C85.8833 7.92431 85.874 7.85665 85.8553 7.77265C85.8413 7.68398 85.8086 7.59531 85.7573 7.50665C85.706 7.41798 85.6266 7.34331 85.5193 7.28265C85.4166 7.22198 85.2766 7.19165 85.0993 7.19165H84.3713V8.74565H85.0923ZM87.8065 6.21165H91.3205V7.19165H88.8215V8.29065H91.0335V9.27065H88.8215V10.3836H91.4185V11.3636H87.8065V6.21165ZM94.0296 6.21165C94.3516 6.21165 94.6386 6.25365 94.8906 6.33765C95.1426 6.41698 95.3526 6.53365 95.5206 6.68765C95.6933 6.83698 95.8239 7.01898 95.9126 7.23365C96.0013 7.44365 96.0456 7.68165 96.0456 7.94765C96.0456 8.15765 96.0129 8.36765 95.9476 8.57765C95.8869 8.78765 95.7843 8.97898 95.6396 9.15165C95.4996 9.32431 95.3129 9.46431 95.0796 9.57165C94.8463 9.67431 94.5569 9.72565 94.2116 9.72565H93.4836V11.3636H92.4686V6.21165H94.0296ZM94.2046 8.74565C94.3586 8.74565 94.4869 8.71998 94.5896 8.66865C94.6923 8.61731 94.7716 8.55198 94.8276 8.47265C94.8883 8.39331 94.9303 8.31165 94.9536 8.22765C94.9816 8.13898 94.9956 8.05731 94.9956 7.98265C94.9956 7.92665 94.9863 7.85665 94.9676 7.77265C94.9536 7.68398 94.9209 7.59531 94.8696 7.50665C94.8183 7.41798 94.7389 7.34331 94.6316 7.28265C94.5289 7.22198 94.3889 7.19165 94.2116 7.19165H93.4836V8.74565H94.2046ZM95.1566 9.37565L96.4306 11.3636H95.2476L93.9456 9.40365L95.1566 9.37565ZM96.8149 6.21165H100.287V7.19165H99.0339V11.3636H98.0189V7.19165H96.8149V6.21165Z" fill="white"/>
</svg>
