<svg width="18" height="18" viewBox="0 0 18 18" fill="none" xmlns="http://www.w3.org/2000/svg">
<path fill-rule="evenodd" clip-rule="evenodd" d="M5.46716 0H12.0278C15.0467 0 17.4949 2.44819 17.4949 5.46716V12.0278C17.4949 15.0467 15.0467 17.4949 12.0278 17.4949H5.46716C2.44819 17.4949 0 15.0467 0 12.0278V5.46716C0 2.44819 2.44819 0 5.46716 0ZM12.0278 15.8543C14.1381 15.8543 15.8548 14.1376 15.8548 12.0273V5.46673C15.8548 3.3564 14.1381 1.63971 12.0278 1.63971H5.46723C3.3569 1.63971 1.64021 3.3564 1.64021 5.46673V12.0273C1.64021 14.1376 3.3569 15.8543 5.46723 15.8543H12.0278Z" fill="white"/>
<path fill-rule="evenodd" clip-rule="evenodd" d="M4.3739 8.7476C4.3739 6.33221 6.33224 4.37387 8.74763 4.37387C11.163 4.37387 13.1214 6.33221 13.1214 8.7476C13.1214 11.163 11.163 13.1213 8.74763 13.1213C6.33224 13.1213 4.3739 11.163 4.3739 8.7476ZM6.0141 8.74771C6.0141 10.2545 7.24093 11.4813 8.74768 11.4813C10.2544 11.4813 11.4813 10.2545 11.4813 8.74771C11.4813 7.23987 10.2544 6.01413 8.74768 6.01413C7.24093 6.01413 6.0141 7.23987 6.0141 8.74771Z" fill="white"/>
<circle cx="13.4491" cy="4.04592" r="0.582799" fill="white"/>
</svg>
