<svg width="35" height="34" viewBox="0 0 35 34" fill="none" xmlns="http://www.w3.org/2000/svg">
<path d="M28.007 0.0925215C29.0696 0.882022 29.9543 1.92007 30.6365 3.17794C30.9154 3.69202 30.1494 4.12111 29.8701 3.60653C29.2498 2.46279 28.4493 1.52188 27.4904 0.809436C27.0239 0.462751 27.5405 -0.254793 28.007 0.0925215ZM6.56187 2.89276H8.96777C11.9424 2.89276 12.9418 6.66821 11.8111 6.66821C11.5697 6.66821 11.3737 6.46922 11.3737 6.22408C11.3737 4.87712 10.2943 3.7811 8.96777 3.7811H6.56187C5.98378 3.7811 5.9831 2.89276 6.56187 2.89276ZM31.6868 17.8803C31.9018 17.769 32.1656 17.8565 32.275 18.0752C32.7649 19.0551 33.121 20.1544 33.3331 21.3424C33.4363 21.9198 32.5759 22.0794 32.4724 21.5012C31.9703 18.6911 30.997 18.2358 31.6868 17.8803ZM6.92469 29.7894C4.1148 34.0695 4.26069 33.9849 3.93568 33.9849C3.58985 33.9849 3.3775 33.5906 3.57218 33.2944L6.19682 29.2968C6.33086 29.0929 6.60273 29.0376 6.8033 29.1735C7.0043 29.3095 7.05879 29.5853 6.92469 29.7894ZM30.5477 33.2944C30.6818 33.4985 30.6273 33.7743 30.4263 33.9102C30.2258 34.0461 29.9537 33.9908 29.8198 33.787L27.1951 29.7894C26.8747 29.3015 27.6016 28.8075 27.9231 29.2968L30.5477 33.2944ZM20.1226 32.2082H18.8102C18.2321 32.2082 18.2315 31.3198 18.8102 31.3198H20.1226C20.7007 31.3198 20.7013 32.2082 20.1226 32.2082ZM24.0596 31.3198C24.6376 31.3198 24.6383 32.2082 24.0596 32.2082H21.8723C21.2943 32.2082 21.2936 31.3198 21.8723 31.3198H24.0596ZM8.7491 22.4363C8.7491 22.6815 8.55311 22.8805 8.31162 22.8805H2.62464C2.38321 22.8805 2.18723 22.6815 2.18723 22.4363C2.18723 22.1912 2.38321 21.9922 2.62464 21.9922H8.31162C8.55311 21.9922 8.7491 22.1912 8.7491 22.4363ZM6.56187 20.6597C6.32019 20.6597 6.12421 20.4607 6.12421 20.2155C6.12421 19.9703 6.32019 19.7713 6.56187 19.7713H7.43675C7.67824 19.7713 7.87416 19.9703 7.87416 20.2155C7.87416 20.4607 7.67824 20.6597 7.43675 20.6597H6.56187ZM2.18723 20.2155C2.18723 19.9703 2.38321 19.7713 2.62464 19.7713H5.24933C5.49101 19.7713 5.68674 19.9703 5.68674 20.2155C5.68674 20.4607 5.49101 20.6597 5.24933 20.6597H2.62464C2.38321 20.6597 2.18723 20.4607 2.18723 20.2155ZM10.0614 17.9946C10.0614 18.2398 9.8654 18.4388 9.62397 18.4388H2.62464C2.38321 18.4388 2.18723 18.2398 2.18723 17.9946C2.18723 17.7494 2.38321 17.5504 2.62464 17.5504H9.62397C9.8654 17.5504 10.0614 17.7494 10.0614 17.9946ZM3.62773 7.47371C4.33657 5.8225 6.69703 6.39858 6.69703 8.10576C6.69703 9.36124 5.52226 9.52184 5.52226 10.1901C5.52226 10.4386 5.33967 10.6207 5.09837 10.6207C4.48271 10.6207 4.55791 9.69792 5.14369 9.10275C5.60323 8.66875 5.84639 8.52396 5.84639 8.10576C5.84639 7.12463 4.35034 7.08509 4.35034 8.10576C4.35034 8.27567 4.24866 8.43803 4.09031 8.50576C3.70753 8.66875 3.27204 8.2979 3.62773 7.47371ZM5.09837 11.8133C4.51681 11.8133 4.51681 10.9219 5.09837 10.9219C5.67955 10.9219 5.68061 11.8133 5.09837 11.8133ZM0.875129 6.22471C0.875129 5.85693 1.16993 5.55778 1.5317 5.55778H8.96733C9.3291 5.55778 9.62397 5.85693 9.62397 6.22471C9.62397 10.5787 9.54436 10.5467 9.75213 10.7577L11.63 12.6645H1.5317C1.16993 12.6645 0.875129 12.3654 0.875129 11.9976V6.22471ZM1.5317 13.5529C13.6281 13.5529 12.9325 13.6659 13.0903 13.2788C13.1581 13.1127 13.1205 12.9217 12.9953 12.7947L10.4989 10.2598V6.22471C10.4989 5.36721 9.81183 4.66944 8.96733 4.66944H1.5317C0.687204 4.66944 0.000187695 5.36721 0.000187695 6.22471V11.9976C0.000187695 12.8551 0.687204 13.5529 1.5317 13.5529ZM0.874881 23.5461V16.8849C0.874881 16.5171 1.16969 16.218 1.53145 16.218H13.3796L11.5017 18.1248C11.4197 18.2081 11.3737 18.3211 11.3737 18.4388V23.5461C11.3737 23.9139 11.0789 24.2131 10.7171 24.2131H1.53145C1.16969 24.2131 0.874881 23.9139 0.874881 23.5461ZM12.2486 23.5461V18.6227C14.8918 15.9386 14.9927 15.9777 14.8398 15.6037C14.7724 15.4378 14.6125 15.3296 14.4358 15.3296H1.53145C0.687018 15.3296 0 16.0274 0 16.8849V23.5461C0 24.4036 0.687018 25.1014 1.53145 25.1014H10.7171C11.5616 25.1014 12.2486 24.4036 12.2486 23.5461ZM19.6578 6.57227C19.6858 6.67086 19.714 6.76925 19.742 6.86765L19.751 6.8985C19.7991 7.06709 19.9402 7.19105 20.1112 7.21503C21.6309 7.42756 21.579 7.42976 21.8728 6.96051C21.8732 7.01603 21.8885 7.08018 21.9043 7.12041C21.9113 7.13791 21.9343 7.1828 21.9428 7.19658C21.9526 7.21169 21.9833 7.25123 21.9946 7.26344C22.0294 7.30027 22.0825 7.33917 22.1311 7.36133C22.1458 7.368 22.1963 7.38532 22.212 7.38909C22.4308 7.44021 24.3384 7.46754 26.1619 7.21503C26.3334 7.19124 26.4747 7.06734 26.523 6.8985C26.5541 6.7899 26.5851 6.68131 26.6162 6.57227C28.4187 10.5154 25.5688 14.2165 23.137 14.33C20.688 14.2156 17.8606 10.5025 19.6578 6.57227ZM23.137 15.2188C23.1427 15.2188 23.1482 15.2186 23.1538 15.2183C26.7251 15.0782 29.8551 9.67507 26.8494 5.19227C26.644 4.88688 26.1748 4.95506 26.0687 5.31484C25.9646 5.66707 25.8634 6.01954 25.7625 6.37177C24.8329 6.48766 23.9005 6.5425 22.7463 6.52606C22.7435 5.50471 22.833 5.13517 22.4277 5.01587C22.2404 4.9606 22.041 5.03746 21.9366 5.20379L21.1613 6.44127C20.9382 6.42037 20.7195 6.39771 20.5114 6.37196C20.2031 5.29419 20.1946 5.05679 19.8529 5.00347C19.686 4.97772 19.5196 5.05075 19.4247 5.19227C17.8384 7.55787 17.8914 10.5387 19.1285 12.5122C19.9996 13.9016 21.6499 15.2188 23.137 15.2188ZM12.3044 7.56902C12.3044 8.2306 11.3179 8.23148 11.3179 7.56902C11.3179 7.29227 11.5387 7.06822 11.8111 7.06822C12.0837 7.06822 12.3044 7.29227 12.3044 7.56902ZM30.7911 4.16864C31.4429 4.16864 31.4436 5.17023 30.7911 5.17023C30.1396 5.17023 30.1387 4.16864 30.7911 4.16864ZM33.6833 22.7522C33.6833 23.4137 32.6969 23.4146 32.6969 22.7522C32.6969 22.0903 33.6833 22.0894 33.6833 22.7522ZM22.212 11.9652C22.8837 12.482 23.5751 12.4818 24.2464 11.9652C24.4391 11.8166 24.7134 11.855 24.8594 12.0507C25.3161 12.6632 23.9824 13.2428 23.2291 13.2428C22.4758 13.2428 21.142 12.663 21.5992 12.0507C21.7453 11.8555 22.0198 11.8169 22.212 11.9652ZM24.6158 8.18596H25.7512C26.329 8.18596 26.3299 9.0743 25.7512 9.0743H24.6158C24.0379 9.0743 24.0371 8.18596 24.6158 8.18596ZM21.6583 9.0743H20.523C19.9449 9.0743 19.9443 8.18596 20.523 8.18596H21.6583C21.8997 8.18596 22.0957 8.38471 22.0957 8.63017C22.0957 8.87531 21.8997 9.0743 21.6583 9.0743ZM25.3719 27.7664V25.9897H28.1191C28.6647 25.9897 29.0742 25.4861 28.9791 24.9521C28.811 23.9366 28.6593 22.9103 28.4799 21.8794C28.3793 21.3019 27.5178 21.4549 27.6183 22.0339C27.8122 23.1486 27.9642 24.1977 28.1191 25.1014H24.9344C24.7317 25.1014 24.5626 25.2422 24.5132 25.4323C23.3004 25.282 23.0401 25.7281 21.4336 27.1111C21.2298 27.2847 21.1233 27.5212 21.1254 27.7664H20.6696C20.7348 27.4246 21.0277 26.4854 20.1335 26.0755C19.4498 25.7618 18.9992 25.49 18.2088 25.5682L18.8339 22.0713C18.8769 21.8301 18.719 21.5988 18.4815 21.5551C18.244 21.51 18.0161 21.6715 17.973 21.9131L17.3803 25.2333L16.3654 23.8539C16.0207 23.3847 15.3175 23.9141 15.6646 24.3856L16.8903 26.0512C16.8241 26.0868 15.6644 27.0209 15.6055 27.0678C15.3696 27.2565 15.2007 27.5014 15.1038 27.7664H14.5216L15.5837 21.8188C16.0843 19.0264 17.4971 17.0752 19.6851 16.1373V18.1012C19.6851 18.2538 19.7621 18.3957 19.8892 18.477C20.0161 18.5585 20.1755 18.5683 20.3109 18.5021L23.1847 17.1098C26.2835 18.6111 26.2085 18.6518 26.4802 18.477C26.6073 18.3957 26.6842 18.2538 26.6842 18.1012V16.1488C28.8533 17.0912 30.254 19.0382 30.7507 21.8185C31.7146 27.2012 31.8104 27.1937 31.5055 27.5639C31.3966 27.6965 31.2437 27.7664 31.063 27.7664C24.4469 27.7664 26.9097 27.7664 25.3719 27.7664ZM22.0334 27.7593C23.7041 26.3211 23.6193 26.2165 24.497 26.3253V27.7664C24.4583 27.7664 22.0703 27.7705 22.0334 27.7593ZM17.4979 33.0965C17.4979 33.0225 17.5034 29.971 17.4892 29.8991C17.5443 29.8674 17.5143 29.8876 17.6668 29.788C17.9758 30.1952 18.4465 30.3622 18.9223 30.2498C19.1574 30.1958 19.3277 30.0868 19.6629 29.8191C20.2783 30.6557 19.667 30.4314 23.6221 30.4314C23.8636 30.4314 24.0596 30.2324 24.0596 29.9873C24.0596 29.7421 23.8636 29.5431 23.6221 29.5431H20.5517L20.3011 29.2025C20.4579 29.0068 20.4395 28.9779 20.5008 28.6548C21.812 28.6548 22.7149 28.6548 24.027 28.6548L26.5788 33.0965H17.4979ZM17.3291 26.8205L17.3978 26.7837C17.4043 26.7804 17.4133 26.7755 17.4205 26.7717C18.9273 28.8196 19.2348 29.076 18.849 29.3226L18.0629 28.8549L17.7057 28.3847C17.5581 28.1902 17.2834 28.1542 17.0924 28.3041C16.901 28.4538 16.8654 28.7327 17.0128 28.927L17.1307 29.0821L17.0902 29.1083C16.8158 29.2881 16.4492 29.2189 16.2553 28.9517C16.1624 28.8234 15.9542 28.5604 15.908 28.4223C15.8359 28.206 15.9341 27.9359 16.1469 27.7655L17.3291 26.8205ZM19.6689 28.3434C18.7973 27.159 19.3284 27.8801 19.0283 27.4709L19.0274 27.4715L18.2777 26.4528C18.5661 26.4215 18.8597 26.4659 19.1307 26.59L19.7733 26.8848C19.992 26.9849 19.8968 27.1441 19.6689 28.3434ZM10.094 28.6548H15.0666C15.1583 28.9706 15.254 29.0687 15.5508 29.4782C15.8138 29.8412 16.2092 30.0519 16.6231 30.0895V33.0965H7.54215L10.094 28.6548ZM23.5672 1.13925C23.5823 1.13969 25.0873 1.22537 26.457 2.24314C29.3922 4.42404 31.0247 10.6018 28.3235 16.0645C27.7404 15.6516 27.0923 15.3223 26.3835 15.0853C26.1018 14.9905 25.8093 15.2045 25.8093 15.5073V17.3972C23.1932 16.1298 23.2529 16.0927 22.9963 16.2168L20.5601 17.3972V15.4984C20.5601 15.1965 20.2696 14.9827 19.9874 15.0757C19.2403 15.3225 18.5657 15.6643 17.9631 16.0918C14.6722 9.5054 17.5572 0.662192 23.5672 1.13925ZM34.5663 27.7664H32.3981C32.5374 27.4471 32.5805 27.0737 32.5127 26.692C31.5917 21.5487 31.4747 18.8752 29.0236 16.631C32.7286 9.3681 29.348 0.492972 23.6219 0.252426C16.8815 -0.279469 13.5212 9.39498 17.2626 16.6567C15.9669 17.8503 15.1034 19.5377 14.7228 21.6599L13.6467 27.6873C13.6421 27.714 13.6406 27.7402 13.6406 27.7664H2.18742C1.60933 27.7664 1.60871 28.6548 2.18742 28.6548H9.08111C6.21213 33.6486 6.22744 33.4543 6.40129 33.7619C6.58505 34.0868 5.13866 33.9849 27.3404 33.9849C27.497 33.9849 27.6415 33.8998 27.7197 33.7619C27.8933 33.4545 27.9093 33.6491 25.0399 28.6548C29.7078 28.6548 30.2233 28.6548 34.5663 28.6548C35.1441 28.6548 35.145 27.7664 34.5663 27.7664Z" fill="#3F4143"/>
</svg>
