<svg width="16" height="17" viewBox="0 0 16 17" fill="none" xmlns="http://www.w3.org/2000/svg">
<path d="M14.2285 0.776733H1.48168C0.785456 0.776733 0.176758 1.30029 0.176758 2.01915V15.3616C0.176758 16.0846 0.785456 16.7287 1.48168 16.7287H14.2246C14.9248 16.7287 15.4499 16.0805 15.4499 15.3616V2.01915C15.4539 1.30029 14.9248 0.776733 14.2285 0.776733ZM4.91108 14.0735H2.72295V6.96804H4.91108V14.0735ZM3.8926 5.88768H3.87669C3.17649 5.88768 2.72295 5.34334 2.72295 4.66188C2.72295 3.96796 3.18842 3.43609 3.90454 3.43609C4.62065 3.43609 5.05828 3.9638 5.0742 4.66188C5.0742 5.34334 4.62065 5.88768 3.8926 5.88768ZM12.9077 14.0735H10.7196V10.1883C10.7196 9.25758 10.4013 8.62182 9.6096 8.62182C9.00488 8.62182 8.64682 9.04981 8.48768 9.46534C8.428 9.61493 8.41209 9.81853 8.41209 10.0263V14.0735H6.22396V6.96804H8.41209V7.95699C8.73036 7.48329 9.22767 6.80183 10.3854 6.80183C11.8216 6.80183 12.9077 7.79078 12.9077 9.92241V14.0735V14.0735Z" fill="#55BCB6"/>
</svg>
