<svg width="21" height="16" viewBox="0 0 21 16" fill="none" xmlns="http://www.w3.org/2000/svg">
<path d="M17.4378 0C18.9819 0 20.2331 1.25126 20.2331 2.79536V13.1781C20.2331 14.7223 18.9819 15.9735 17.4378 15.9735H2.79537C2.05399 15.9735 1.34298 15.679 0.818743 15.1548C0.294511 14.6305 0 13.9195 0 13.1781V2.79536C0 1.25126 1.25126 0 2.79537 0H17.4378ZM18.902 4.97894L10.4371 9.63469C10.35 9.68258 10.2533 9.71035 10.1541 9.71597C10.0548 9.72159 9.95559 9.70492 9.86365 9.66717L9.79602 9.63522L1.33113 4.97841V13.1781C1.33113 13.5665 1.48539 13.9389 1.75999 14.2135C2.03459 14.4881 2.40702 14.6424 2.79537 14.6424H17.4378C17.8261 14.6424 18.1985 14.4881 18.4731 14.2135C18.7477 13.9389 18.902 13.5665 18.902 13.1781V4.97894ZM17.4378 1.33113H2.79537C2.40702 1.33113 2.03459 1.48539 1.75999 1.75999C1.48539 2.03459 1.33113 2.40702 1.33113 2.79536V3.4604L10.1166 8.29185L18.902 3.45986V2.79536C18.902 2.40702 18.7477 2.03459 18.4731 1.75999C18.1985 1.48539 17.8261 1.33113 17.4378 1.33113Z" fill="white"/>
</svg>
