<svg width="19" height="19" viewBox="0 0 19 19" fill="none" xmlns="http://www.w3.org/2000/svg">
<path d="M13.8639 10.287V13.7039H11.8832V10.5153C11.8832 9.71487 11.5967 9.16864 10.8795 9.16864C10.3323 9.16864 10.006 9.53649 9.86278 9.89325C9.81102 10.0208 9.79716 10.1983 9.79716 10.3757V13.7039H7.81556C7.81556 13.7039 7.84236 8.30446 7.81556 7.74528H9.79716V8.58913L9.78422 8.60854H9.79716V8.59005C10.0606 8.18338 10.5301 7.6048 11.5828 7.6048C12.886 7.6048 13.8639 8.45696 13.8639 10.287ZM5.74246 4.87178C5.06498 4.87178 4.62134 5.31727 4.62134 5.9014C4.62134 6.47444 5.05204 6.93194 5.71658 6.93194H5.72952C6.42086 6.93194 6.85064 6.47351 6.85064 5.9014C6.8377 5.31727 6.42086 4.87178 5.74246 4.87178ZM4.73872 13.7039H6.72032V7.74528H4.73872V13.7039Z" fill="white"/>
<path d="M3.69701 1.84851C3.20676 1.84851 2.73658 2.04326 2.38992 2.38992C2.04326 2.73658 1.84851 3.20676 1.84851 3.69701V14.7881C1.84851 15.2783 2.04326 15.7485 2.38992 16.0951C2.73658 16.4418 3.20676 16.6366 3.69701 16.6366H14.7881C15.2783 16.6366 15.7485 16.4418 16.0951 16.0951C16.4418 15.7485 16.6366 15.2783 16.6366 14.7881V3.69701C16.6366 3.20676 16.4418 2.73658 16.0951 2.38992C15.7485 2.04326 15.2783 1.84851 14.7881 1.84851H3.69701ZM3.69701 0H14.7881C15.7686 0 16.7089 0.389506 17.4022 1.08283C18.0956 1.77616 18.4851 2.71651 18.4851 3.69701V14.7881C18.4851 15.7686 18.0956 16.7089 17.4022 17.4022C16.7089 18.0956 15.7686 18.4851 14.7881 18.4851H3.69701C2.71651 18.4851 1.77616 18.0956 1.08283 17.4022C0.389506 16.7089 0 15.7686 0 14.7881V3.69701C0 2.71651 0.389506 1.77616 1.08283 1.08283C1.77616 0.389506 2.71651 0 3.69701 0Z" fill="white"/>
</svg>
