<svg width="22" height="24" viewBox="0 0 22 24" fill="none" xmlns="http://www.w3.org/2000/svg">
<path fill-rule="evenodd" clip-rule="evenodd" d="M9.68443 1.38419C9.68443 1.52717 9.68823 1.66117 9.74203 1.7851C9.77324 1.8569 9.78606 1.93516 9.82532 1.99534L9.87569 2.09167C9.98773 2.29811 10.2067 2.456 10.3161 2.67844L10.4038 2.88413C10.4168 2.92462 10.4329 2.94393 10.4462 2.9886C10.5028 3.18012 10.4907 3.43431 10.4528 3.63829L10.2663 4.03871C10.1666 4.17942 10.046 4.306 9.91741 4.42348C9.90019 4.43925 9.89642 4.4423 9.87894 4.45841C9.69054 4.63166 9.6593 4.66984 9.49828 4.90312C9.44955 4.97373 9.33494 5.22365 9.3192 5.311C9.24449 5.72548 9.2298 5.77823 9.31839 6.18902C9.33266 6.25542 9.33949 6.25501 9.36365 6.30884C9.38978 6.36701 9.37919 6.36611 9.39534 6.4239C9.41394 6.49056 9.41465 6.46853 9.4472 6.51875C9.46241 6.5422 9.45846 6.53922 9.4743 6.56502C9.64908 6.85034 9.65359 6.78845 9.83393 7.01241C9.88046 7.07024 9.91667 7.11699 9.96413 7.17571C9.99739 7.21684 9.99365 7.21837 10.0233 7.26326C10.0621 7.32194 10.047 7.28298 10.0767 7.35665C10.1123 7.44512 10.1474 7.47103 10.1609 7.56592C10.2031 7.86541 10.2597 7.76315 10.1731 8.10921C10.1323 8.27225 10.082 8.41869 9.97341 8.55146C9.81466 8.74552 9.89616 8.6796 9.66195 8.88198L9.52859 9.00535C9.49813 9.03383 9.49104 9.03823 9.46193 9.06709C9.45924 9.06977 9.4554 9.07361 9.45275 9.07626L9.27633 9.28505C9.24419 9.32483 9.25019 9.32173 9.22462 9.36173L8.99935 9.70507C8.99648 9.70973 8.98798 9.72282 8.98477 9.72715C8.98246 9.73021 8.97892 9.73431 8.97653 9.73725C8.97415 9.7402 8.97035 9.74407 8.96789 9.74695L8.84522 9.88109C8.75638 9.95883 8.64084 10.0502 8.52806 10.0775C8.49607 10.0853 8.3107 10.1333 8.30876 10.1333C8.01676 10.1333 7.81077 10.0265 7.638 9.88702C7.63386 9.88366 7.62222 9.8736 7.6182 9.87016L7.45128 9.7069C7.40982 9.66556 7.38164 9.64158 7.34432 9.59375L6.92492 9.04103C6.88297 8.97627 6.83391 8.91788 6.8089 8.84521C6.79022 8.79093 6.80751 8.819 6.77858 8.7655C6.75599 8.7236 6.76158 8.75298 6.73936 8.69466C6.65574 8.47496 6.65797 8.26311 6.65797 8.02402C6.65797 7.91929 6.76568 7.64127 6.82377 7.54784C6.84476 7.51413 6.85509 7.50653 6.8769 7.47256C6.9474 7.36261 7.03878 7.28723 7.13016 7.19391C7.15086 7.17281 7.17293 7.1473 7.1953 7.13064L7.43633 6.9865C7.48219 6.95858 7.47593 6.96768 7.52693 6.94866C7.66052 6.89893 7.82523 6.78775 7.93705 6.69853L8.18442 6.41395C8.25779 6.30478 8.30488 6.18048 8.36431 6.06192C8.45196 5.88691 8.45435 5.33136 8.37657 5.1499C8.32468 5.02888 8.28299 4.89551 8.20466 4.78989C8.10012 4.64904 7.98648 4.53417 7.85278 4.42642L7.64053 4.29015C7.54516 4.23407 7.19075 4.1355 7.07987 4.1355C6.83074 4.1355 6.61256 4.17845 6.39039 4.27143C6.33995 4.29254 6.32541 4.30573 6.28145 4.32754L5.91887 4.62532C5.88994 4.65981 5.86492 4.67554 5.83763 4.70914C5.80788 4.74578 5.80113 4.76797 5.77224 4.80883C5.64667 4.98619 5.67888 5.01255 5.6146 5.14639C5.52125 5.34082 5.51711 5.84918 5.60114 6.01774C5.6199 6.05539 5.61013 6.02807 5.62706 6.0652L5.81235 6.46685C5.83588 6.52449 5.84498 6.52117 5.86518 6.57907C5.92048 6.73745 5.94437 6.7876 5.96156 6.97808C5.97729 7.15249 5.98024 7.41574 5.91239 7.57189C5.8883 7.62733 5.88599 7.64735 5.87461 7.69917C5.85034 7.80975 5.87257 7.73172 5.82283 7.81247C5.69801 8.01503 5.78368 7.94311 5.56789 8.21785C5.44813 8.3703 5.30631 8.51805 5.14428 8.61961L4.78323 8.82717C4.62861 8.91016 4.33143 9.08521 4.22249 9.2019C4.18688 9.24004 4.18323 9.25466 4.14938 9.29384L4.07899 9.3702C3.95398 9.50434 3.88258 9.60948 3.80708 9.77696C3.78042 9.83598 3.77554 9.82572 3.74933 9.88426C3.71331 9.96472 3.67144 10.0341 3.65425 10.1194C3.62271 10.276 3.57652 10.3773 3.57652 10.5552C3.57652 10.7082 3.57231 10.8884 3.59315 11.0338C3.60739 11.1334 3.62726 11.1411 3.64568 11.2197C3.67666 11.3517 3.69833 11.4405 3.76368 11.5603C3.92325 11.8528 3.8652 11.7474 4.03514 11.9858C4.16049 12.1617 4.39172 12.3631 4.58745 12.4607L4.81734 12.5793C4.88826 12.6132 4.92994 12.6089 4.99704 12.638C5.20091 12.7262 5.5762 12.7542 5.79475 12.7368C5.86928 12.7308 6.10999 12.6938 6.17743 12.6609C6.33887 12.582 6.50422 12.5434 6.66412 12.4506C6.80185 12.3706 7.07748 12.1443 7.16316 12.0141C7.28541 11.8283 7.43111 11.6615 7.60161 11.5172L7.81207 11.3791C8.02798 11.2567 8.19534 11.2291 8.45491 11.2528C8.53193 11.2599 8.71257 11.3313 8.79217 11.3741C9.08726 11.5328 9.29128 11.8035 9.52393 12.0364C9.61538 12.1278 9.66173 12.1759 9.7751 12.2437C9.90552 12.3218 10.0069 12.4016 10.1548 12.451C10.1894 12.4625 10.2067 12.4633 10.2399 12.4759C10.3127 12.5036 10.3186 12.5253 10.41 12.5443C10.9041 12.6472 11.0352 12.5881 11.5005 12.6093C11.7041 12.6186 11.9981 12.7761 12.1189 12.9264C12.1869 13.0111 12.2548 13.1104 12.2915 13.2123C12.3582 13.3972 12.356 13.3623 12.3937 13.587C12.4189 13.7375 12.4174 13.9015 12.4174 14.0585C12.4174 14.1367 12.3944 14.1645 12.3788 14.2401C12.3603 14.3305 12.3587 14.349 12.3262 14.4259C12.2935 14.5034 12.2811 14.5998 12.2438 14.6737L12.0791 14.9675C12.0477 15.0196 12.0739 14.994 12.0282 15.045C11.9889 15.089 11.954 15.119 11.9106 15.1659L11.8927 15.1847C11.8901 15.1874 11.8862 15.1912 11.8836 15.1938C11.878 15.1994 11.8662 15.2106 11.8558 15.221L11.8193 15.2579C11.7218 15.3427 11.6121 15.4031 11.4855 15.4378L11.1326 15.5617C10.9336 15.6116 10.6945 15.5944 10.492 15.5804C10.4082 15.5746 10.3651 15.5492 10.3056 15.5284C10.2403 15.5054 10.1989 15.5094 10.1335 15.4804C9.98199 15.4132 9.80661 15.3418 9.67119 15.2456L9.25448 14.947C9.25042 14.9436 9.23867 14.9337 9.2345 14.9303L8.87319 14.6496C8.74385 14.5421 8.58506 14.46 8.43641 14.3894L8.05542 14.2935C7.76998 14.2633 7.47921 14.2862 7.21163 14.3737L6.85934 14.5533C6.85621 14.5556 6.85207 14.559 6.84893 14.5613C6.8458 14.5636 6.84155 14.5669 6.83838 14.5691L6.79462 14.5987C6.62352 14.722 6.43681 14.8956 6.34129 15.0808C6.2775 15.2046 6.20886 15.3094 6.17672 15.4482C6.12829 15.6574 6.0894 15.5078 6.0894 16.0028C6.0894 16.1333 6.09951 16.3359 6.13869 16.4304C6.19148 16.5578 6.16759 16.5406 6.24126 16.6947C6.25774 16.7292 6.26009 16.7537 6.27627 16.788C6.32749 16.8968 6.40102 16.9863 6.47693 17.0826L6.61002 17.2246C6.61275 17.2273 6.6164 17.2313 6.61909 17.2339L6.96489 17.4934C7.05314 17.5507 7.268 17.6339 7.37068 17.6562C7.6799 17.7235 7.91691 17.7217 8.21965 17.6562C8.35875 17.626 8.5505 17.5442 8.67044 17.465C8.70497 17.4422 8.68539 17.4539 8.71611 17.4373C8.82237 17.3799 8.9032 17.3073 8.99227 17.2182C9.17488 17.0356 9.38318 16.7749 9.60729 16.6594C9.64193 16.6415 9.61639 16.6551 9.65278 16.6315L9.80265 16.5429C9.92517 16.4685 10.033 16.4593 10.1608 16.4057C10.2386 16.3731 10.2636 16.3654 10.3639 16.3521C10.7168 16.3053 10.8008 16.2828 11.1365 16.3299L11.6753 16.4514C11.7868 16.4855 12.0003 16.6133 12.1098 16.6772C12.1639 16.7088 12.1094 16.6734 12.1508 16.7096C12.1717 16.7278 12.1802 16.7356 12.1998 16.7523C12.386 16.9103 12.5467 17.0869 12.7126 17.2667L13.2299 17.7031C13.3287 17.7733 13.4637 17.8028 13.5704 17.8579C13.8211 17.9872 13.8735 17.9396 14.0928 17.9958C14.2824 18.0445 14.6617 18.0569 14.8459 18.0094L15.4024 17.8322C15.6557 17.7084 15.8863 17.5746 16.0884 17.381C16.2899 17.1881 16.4721 16.9444 16.5892 16.6895L16.7442 16.2577C16.7765 16.0763 16.8195 15.9128 16.8195 15.7093C16.8195 15.2385 16.7928 15.3625 16.7358 15.0594L16.6515 14.7768C16.6305 14.7305 16.6262 14.7452 16.6031 14.6968C16.4839 14.4473 16.4428 14.3815 16.2662 14.1533C16.2639 14.1503 16.2604 14.1461 16.258 14.1432C16.0532 13.8925 15.9022 13.7998 15.6615 13.6392L15.41 13.5054C15.3754 13.4924 15.3596 13.4812 15.3206 13.4664C15.2039 13.4221 15.0451 13.3714 14.9333 13.3585C14.8615 13.3502 14.7953 13.3274 14.721 13.314C14.5682 13.2865 14.4239 13.2932 14.2509 13.2888C13.9471 13.2811 13.6172 13.0984 13.398 12.8945C13.3211 12.823 13.2681 12.7293 13.2042 12.6481L13.1876 12.628C13.0597 12.4629 13.0149 12.2736 12.9444 12.0826C12.8597 11.8537 12.8779 11.3347 12.9599 11.1161C13.0349 10.9163 13.0468 10.5917 13.0211 10.3733C13.0004 10.198 13.0119 10.1115 12.9442 9.93664C12.8908 9.79843 12.8824 9.6704 12.7978 9.55117C12.7742 9.51795 12.7677 9.508 12.7462 9.47441C12.6868 9.38191 12.6371 9.28318 12.5618 9.20023L12.5348 9.17219C12.419 9.05616 12.3091 8.93134 12.1764 8.83354L11.8691 8.55396C11.8664 8.55131 11.8625 8.54751 11.8599 8.54483L11.8334 8.5163C11.6958 8.36594 11.6541 8.28507 11.5983 8.09113C11.5582 7.95169 11.5464 7.84625 11.59 7.7102C11.6085 7.65242 11.6041 7.61517 11.6213 7.55809C11.6459 7.47674 11.652 7.51641 11.6855 7.43882C11.7267 7.3433 11.7748 7.29372 11.8379 7.20603L12.0161 6.99907C12.1859 6.8295 12.3227 6.65565 12.4321 6.44299C12.4619 6.38513 12.4544 6.36559 12.4772 6.30467C12.5312 6.16075 12.5268 6.17313 12.5506 5.99287C12.595 5.65676 12.5939 5.83538 12.5431 5.42218L12.4438 5.08126C12.4317 5.053 12.4172 5.04133 12.4003 5.01464L12.2811 4.80369C12.1827 4.65198 11.965 4.44991 11.8372 4.31215L11.6091 4.04505C11.5895 4.0144 11.5849 4.0134 11.5634 3.98074L11.4594 3.75454C11.4484 3.71972 11.441 3.70902 11.4273 3.67654C11.3857 3.57819 11.3902 3.44226 11.3902 3.32843C11.3902 3.05131 11.5607 2.8024 11.737 2.6114C11.7396 2.60861 11.7434 2.60476 11.746 2.60201L11.8628 2.48043C11.894 2.45299 11.9012 2.45052 11.9328 2.42193L12.1321 2.21773C12.1575 2.18328 12.1588 2.17582 12.1849 2.14219C12.2828 2.01595 12.3664 1.82223 12.384 1.66266C12.412 1.40954 12.4585 1.32808 12.3732 0.988206C12.3082 0.729461 12.0275 0.342165 11.7988 0.223567L11.7155 0.178565C11.6724 0.150267 11.684 0.155638 11.6317 0.133902C11.431 0.050425 11.2216 -0.0206382 10.9842 0.00549724C10.8513 0.0201122 10.6601 0.0365553 10.5433 0.0971031C10.4867 0.126482 10.4303 0.150415 10.3734 0.183896C10.224 0.271884 10.1115 0.376093 9.99388 0.501439L9.97584 0.520041C9.95235 0.54558 9.96219 0.531527 9.94228 0.559862L9.82506 0.75444C9.80228 0.78848 9.81067 0.767082 9.79523 0.797989C9.76943 0.849738 9.78252 0.854097 9.7644 0.913862C9.7433 0.983358 9.74464 0.952042 9.7238 1.0017C9.7046 1.04734 9.70665 1.0649 9.70199 1.1266C9.69479 1.221 9.68443 1.26839 9.68443 1.38419Z" fill="white"/>
<path fill-rule="evenodd" clip-rule="evenodd" d="M15.0957 4.61267C15.0957 4.82085 15.0418 5.19905 14.9344 5.38685L14.6795 5.77396L14.4742 5.97216C14.318 6.11752 14.1253 6.21763 13.9311 6.30942C13.8217 6.36106 13.6928 6.38306 13.5879 6.44312C13.5311 6.47567 13.5437 6.46914 13.4747 6.49502C13.1997 6.59825 12.9525 6.92217 12.8965 7.20079C12.8743 7.31144 12.8396 7.40513 12.8396 7.52906C12.8396 7.6109 12.8971 7.82285 12.9258 7.8831C13.0865 8.22055 13.2814 8.38941 13.6154 8.53243C13.7261 8.57981 13.8786 8.57676 13.979 8.60908C14.1372 8.66009 14.2344 8.66396 14.3617 8.77656C14.4187 8.827 14.4772 8.88487 14.5115 8.95693C14.6214 9.18731 14.6296 9.51592 14.5403 9.76173C14.5182 9.82287 14.5149 9.87742 14.4893 9.93077L14.3063 10.3897C14.2502 10.5269 14.2551 11.0136 14.2967 11.171L14.4017 11.4512C14.585 11.7679 14.7431 11.9935 15.0819 12.1651C15.2985 12.2748 15.3575 12.2885 15.6019 12.3237C15.8238 12.3556 15.9822 12.3655 16.2156 12.299L16.5654 12.1536C16.7381 12.0675 16.8754 11.9265 17.005 11.7861L17.1854 11.5264C17.2486 11.4125 17.2774 11.2766 17.3263 11.1537C17.3701 11.0435 17.3755 10.6006 17.3411 10.4745C17.3189 10.3935 17.2983 10.381 17.2772 10.2815C17.2676 10.2366 17.2656 10.2233 17.2439 10.1864L17.115 9.94855C16.9278 9.67206 16.5893 9.37846 16.2497 9.30974C16.1651 9.29263 16.1227 9.26754 16.047 9.25565C15.9757 9.24446 15.9071 9.24293 15.837 9.22724L15.4485 9.10219C15.3961 9.07594 15.4132 9.08836 15.3654 9.05685C15.3346 9.03657 15.3171 9.02788 15.287 9.00685C15.1778 8.93072 15.0473 8.79583 14.9959 8.67429L14.9122 8.37278C14.9122 7.99417 14.9984 7.90122 15.05 7.55524C15.0672 7.43996 15.0216 7.32192 15.0085 7.23106C14.983 7.05508 14.9856 6.86647 14.9856 6.68531C14.9856 6.54889 15.0241 6.45303 15.0483 6.32608C15.077 6.1746 15.1463 6.01656 15.2321 5.88629C15.2536 5.85363 15.2582 5.85263 15.2778 5.82198L15.5817 5.48382C15.6193 5.44512 15.588 5.46723 15.6398 5.43192C15.8361 5.29804 16.047 5.19085 16.2762 5.11457C16.352 5.08937 16.2959 5.10805 16.3508 5.07904L16.6545 4.94258C16.7513 4.88826 16.7943 4.82257 16.8859 4.75214C16.9666 4.6901 17.0383 4.5378 17.0876 4.44027C17.1269 4.36257 17.1238 4.26754 17.1518 4.17414C17.2279 3.91972 17.1103 3.59469 16.9512 3.38079C16.8845 3.29113 16.7693 3.18267 16.6697 3.13036C16.6331 3.11116 16.6327 3.11493 16.5975 3.09252C16.4046 2.96982 16.0124 2.93224 15.8103 3.0162C15.7091 3.05826 15.6148 3.08372 15.52 3.14781C15.5168 3.14997 15.5126 3.15329 15.5094 3.15553L15.3406 3.29858C15.1734 3.48295 15.1769 3.52168 15.0827 3.7377C15.0362 3.84444 15.0387 4.04726 15.054 4.15915C15.0619 4.21664 15.0572 4.26232 15.0585 4.31969C15.0609 4.42204 15.0957 4.52069 15.0957 4.61267Z" fill="white"/>
<path fill-rule="evenodd" clip-rule="evenodd" d="M10.4182 24H11.3352C11.3721 23.862 11.4733 24.0085 11.7974 23.8202C11.8737 23.7758 11.9402 23.7534 12.0134 23.706C12.0784 23.664 12.1308 23.6083 12.174 23.5365C12.2285 23.4456 12.2422 23.4121 12.2349 23.2659C12.2291 23.15 12.1213 22.9764 12.0653 22.8664L11.9184 22.5915C11.7331 22.2362 11.8001 22.3129 11.6803 22.0225C11.663 21.9804 11.6473 21.9628 11.6316 21.9061L11.5019 21.3755C11.4306 21.1369 11.4506 20.704 11.4637 20.4601C11.4692 20.3588 11.4548 20.2532 11.4704 20.1549C11.4898 20.0324 11.5224 20.0179 11.5383 19.8927C11.5674 19.6637 11.652 19.4772 11.7508 19.2798L11.9623 18.831C12.0376 18.7053 12.0713 18.622 12.0884 18.4619C12.119 18.177 12.163 18.3113 12.0746 17.8865C12.0341 17.6919 11.8414 17.4352 11.6791 17.2915C11.5088 17.1406 11.4565 17.1468 11.3211 17.0808C11.0822 16.9643 10.6983 16.9825 10.4416 17.0902C10.2268 17.1804 10.0973 17.2731 9.9432 17.4539C9.93974 17.4579 9.93004 17.4699 9.9268 17.4741C9.90883 17.4974 9.90488 17.5054 9.88866 17.5277C9.76089 17.7029 9.61642 18.073 9.62958 18.2572L9.71067 18.6546L10.0836 19.4373C10.11 19.5477 10.1421 19.6013 10.1563 19.6947C10.192 19.9286 10.1954 19.8222 10.2249 19.9562L10.2637 20.3943C10.3013 20.5686 10.3095 21.0198 10.2765 21.1804C10.224 21.4356 10.2403 21.6358 10.2048 21.769C10.191 21.821 10.1743 21.8518 10.1663 21.8956C10.1346 22.0687 10.102 22.2705 10.0333 22.4229L9.94458 22.6643C9.92311 22.7141 9.92609 22.7422 9.90372 22.7886L9.67156 23.2167C9.61071 23.3319 9.56981 23.4801 9.66086 23.6017C9.78721 23.7707 9.83087 23.7349 9.94615 23.8117C10.054 23.8836 10.1904 23.9116 10.3201 23.933C10.4061 23.9472 10.4004 23.9336 10.4182 24Z" fill="white"/>
<path fill-rule="evenodd" clip-rule="evenodd" d="M19.2775 7.27209C19.2775 7.00581 19.2598 6.90854 19.1824 6.67027C19.1306 6.51103 18.925 6.20665 18.7873 6.07489C18.672 5.96461 18.4658 5.81987 18.3229 5.75053L18.0206 5.64931C17.6332 5.58246 17.2559 5.58245 16.9035 5.77849C16.5881 5.95391 16.6284 5.91413 16.3751 6.18555C16.3072 6.25836 16.3227 6.21828 16.2658 6.3147C16.1758 6.4673 16.0859 6.6114 16.0416 6.78749C15.981 7.0286 15.9111 7.33152 16.0008 7.59582L16.0649 7.84357C16.0765 7.8709 16.0974 7.89867 16.1149 7.9402C16.172 8.07569 16.2152 8.14027 16.2983 8.25212C16.3006 8.25517 16.3039 8.25938 16.3063 8.26244C16.4573 8.46008 16.581 8.57111 16.7908 8.69496C17.0494 8.8476 17.1113 8.83977 17.3617 8.89443C17.6173 8.9502 17.4796 8.93701 17.7732 8.92258C17.9498 8.91389 18.3384 8.79011 18.4921 8.68765C18.6678 8.57055 18.7644 8.48379 18.9066 8.33183L19.0933 8.04165C19.1875 7.87943 19.1582 7.9109 19.2044 7.76758C19.2652 7.57919 19.2775 7.60022 19.2775 7.27209Z" fill="white"/>
<path fill-rule="evenodd" clip-rule="evenodd" d="M18.6356 10.4817C18.6356 10.8734 18.8004 11.2377 19.0617 11.523C19.0995 11.5643 19.115 11.5733 19.1597 11.6084C19.2891 11.7097 19.3122 11.7384 19.4868 11.8316C19.7253 11.9589 20.0226 11.9857 20.2864 11.9857C20.4818 11.9857 20.7709 11.865 20.952 11.7709C21.0028 11.7446 21.0154 11.7249 21.0568 11.6923C21.3459 11.4644 21.3437 11.4296 21.5183 11.1633C21.5616 11.0973 21.5503 11.092 21.5707 11.0322C21.6014 10.9419 21.624 10.9543 21.6411 10.8275C21.697 10.412 21.745 10.5842 21.6277 10.0392C21.6109 9.96131 21.605 9.97194 21.5783 9.90517C21.5665 9.87579 21.5634 9.85882 21.5542 9.83753C21.5279 9.77609 21.5521 9.83097 21.5208 9.77922C21.4519 9.66525 21.4871 9.65235 21.2909 9.44054C21.2591 9.40624 21.2329 9.38208 21.1992 9.34883L21.1419 9.29603C21.139 9.29357 21.1349 9.29003 21.132 9.28757L21.1021 9.26248C21.0684 9.23522 21.0311 9.20674 20.9966 9.18456C20.9544 9.15745 20.9807 9.17546 20.9362 9.1532L20.7427 9.05328C20.6659 9.01425 20.7049 9.03009 20.6066 9.00593C20.2445 8.91701 20.3881 8.94095 19.9746 8.94095C19.8868 8.94095 19.8419 8.9808 19.6942 9.0091L19.4389 9.12058C19.2978 9.2023 19.1412 9.30819 19.0365 9.43354C19.0196 9.45378 19.0201 9.45493 19.0033 9.47372C19.0008 9.47656 18.997 9.4804 18.9945 9.48319L18.8128 9.74176L18.6623 10.1415C18.6425 10.22 18.6356 10.3893 18.6356 10.4817Z" fill="white"/>
<path fill-rule="evenodd" clip-rule="evenodd" d="M0 11.1419C0 11.3895 0.0661044 11.6676 0.182241 11.8768C0.206214 11.9199 0.217845 11.9505 0.248566 11.9939L0.286969 12.0472C0.388342 12.1936 0.434386 12.2248 0.566554 12.3362L0.844538 12.5168C0.891365 12.5395 0.927531 12.5395 0.982971 12.5618C1.31501 12.6949 1.73273 12.6669 2.06247 12.5258C2.13781 12.4935 2.23211 12.4366 2.29675 12.3932L2.4693 12.254C2.62033 12.1126 2.69363 11.981 2.7921 11.8064C2.83471 11.7308 2.81115 11.7503 2.83643 11.6673C2.88229 11.5166 2.91636 11.5949 2.91636 11.197C2.91636 11.0787 2.91181 10.9291 2.87755 10.8322C2.83814 10.7207 2.83065 10.656 2.78475 10.5766C2.69915 10.4287 2.7707 10.5065 2.61683 10.3043L2.48682 10.1592C2.41878 10.0996 2.37691 10.0465 2.29907 9.99844L2.06549 9.86515C2.01832 9.84532 1.98331 9.84424 1.93984 9.82574C1.77617 9.75599 1.69411 9.74797 1.46735 9.74797C1.03069 9.74797 0.856544 9.85102 0.576361 10.0492C0.563499 10.0583 0.555855 10.0633 0.5437 10.0716C0.412725 10.1605 0.202485 10.4385 0.148947 10.5756C0.0900768 10.7265 0 10.9984 0 11.1419Z" fill="white"/>
<path fill-rule="evenodd" clip-rule="evenodd" d="M2.23779 6.90544C2.23779 7.00658 2.25125 7.07455 2.26639 7.1703C2.3046 7.41182 2.39285 7.58757 2.55474 7.78073C2.63542 7.877 2.87698 8.05767 2.98972 8.09775C3.31874 8.21467 3.24179 8.18939 3.63177 8.18939C3.75999 8.18939 3.87229 8.14954 3.98775 8.10517C4.20101 8.02318 4.42434 7.82797 4.55188 7.64211C4.67052 7.46919 4.64852 7.43623 4.69031 7.34034C4.71388 7.28624 4.7204 7.29381 4.72995 7.23323C4.75567 7.06933 4.76652 6.767 4.71671 6.60922L4.62764 6.38649C4.59804 6.34007 4.60214 6.33936 4.57582 6.29157C4.4646 6.08987 4.20541 5.86456 3.99674 5.78843C3.67532 5.67118 3.56932 5.65947 3.23053 5.71547C3.03245 5.74824 2.79447 5.87422 2.64813 6.01347L2.5512 6.11835C2.48233 6.1928 2.3914 6.3189 2.35889 6.4029C2.24857 6.688 2.30595 6.53454 2.26098 6.76357C2.24849 6.82722 2.23779 6.84235 2.23779 6.90544Z" fill="white"/>
<path fill-rule="evenodd" clip-rule="evenodd" d="M7.1167 2.59475C7.1167 2.86927 7.12341 2.91751 7.2369 3.17152C7.28943 3.28915 7.3489 3.36636 7.43875 3.4466C7.63542 3.6222 7.46925 3.49838 7.66845 3.62041C7.83585 3.72298 7.69075 3.62914 7.88484 3.71586C7.91829 3.73077 7.92213 3.7323 7.96966 3.74102C8.13076 3.77066 8.37184 3.75937 8.51869 3.70329C8.64322 3.65572 8.59587 3.69121 8.71137 3.62086L8.8535 3.52452C8.91878 3.48422 9.01881 3.36934 9.06944 3.30026C9.13029 3.21727 9.23803 2.99066 9.24448 2.88832C9.25358 2.74415 9.272 2.54203 9.2292 2.40815L8.99514 1.98189C8.88493 1.85793 8.70246 1.70998 8.53428 1.6724C8.33287 1.6274 8.21212 1.5632 7.97369 1.63591C7.92988 1.64925 7.93659 1.65257 7.87597 1.66655C7.61327 1.72706 7.359 1.94409 7.24115 2.18728C7.21408 2.24313 7.18769 2.28985 7.16774 2.37068C7.1532 2.4297 7.1167 2.5263 7.1167 2.59475Z" fill="white"/>
<path fill-rule="evenodd" clip-rule="evenodd" d="M3.35669 14.5174C3.35669 14.7185 3.36079 14.9023 3.45575 15.0787C3.60347 15.3528 3.68806 15.3968 3.90129 15.5502C3.95061 15.5857 4.167 15.6729 4.23713 15.6729C4.55478 15.6729 4.68811 15.7004 4.9539 15.546C4.97873 15.5316 4.99953 15.5228 5.02306 15.5051C5.23114 15.3484 5.36681 15.1951 5.44123 14.9328C5.49186 14.7542 5.54338 14.5827 5.46606 14.3706C5.39485 14.1751 5.46628 14.2561 5.30865 14.0145C5.24314 13.9141 5.15668 13.8176 5.05706 13.7525C4.94902 13.6818 4.83728 13.6138 4.70645 13.5895C4.39215 13.531 4.46907 13.5185 4.1528 13.5893C4.04956 13.6125 4.05675 13.6025 3.97205 13.6471C3.79939 13.7378 3.69246 13.814 3.56857 13.9772C3.47156 14.1049 3.35669 14.3535 3.35669 14.5174Z" fill="white"/>
<path fill-rule="evenodd" clip-rule="evenodd" d="M19.1308 13.3432C19.1308 12.9277 18.9407 12.6358 18.6001 12.4248C18.5442 12.3902 18.5765 12.3959 18.5071 12.3712L18.3198 12.3017C18.1596 12.2753 17.8864 12.2656 17.7338 12.3314C17.595 12.3912 17.4911 12.4226 17.3718 12.538L17.1012 12.9093C17.0472 13.0437 17.0067 13.1777 17.0108 13.3409C17.0117 13.3779 17.0275 13.5291 17.0339 13.5692C17.0653 13.7661 17.1803 13.9529 17.319 14.0912C17.4162 14.1882 17.4995 14.2557 17.6333 14.3088C17.7579 14.3583 17.9023 14.4109 18.0659 14.4062C18.1069 14.405 18.2391 14.3874 18.2956 14.3789C18.4691 14.3528 18.4008 14.3593 18.5026 14.3107C18.6201 14.2546 18.7308 14.193 18.8216 14.0978L18.8481 14.0693C19.0393 13.8568 19.1308 13.6251 19.1308 13.3432Z" fill="white"/>
<path fill-rule="evenodd" clip-rule="evenodd" d="M12.6926 3.69545C12.6926 3.76763 12.7018 3.79083 12.7182 3.85335C12.7709 4.05472 12.7635 4.09297 12.9016 4.25686C13.1096 4.50368 13.4928 4.58764 13.8142 4.4318C13.8673 4.40607 13.8234 4.43012 13.872 4.39787C14.1057 4.24292 14.2249 4.06702 14.2421 3.78277C14.2556 3.55877 14.1821 3.38873 14.0474 3.2211L13.8934 3.09997C13.635 2.92515 13.3285 2.925 13.0536 3.10265C12.935 3.17931 12.8836 3.22442 12.7875 3.38679L12.6926 3.69545Z" fill="white"/>
</svg>
