<svg width="18" height="18" viewBox="0 0 18 18" fill="none" xmlns="http://www.w3.org/2000/svg">
<path d="M0 0V18H18V0H0ZM1.63636 1.63636H16.3636V16.3636H1.63636V1.63636ZM11.5887 4.09255C10.539 4.09255 10.179 4.84282 10.179 5.34682V6.68455C10.179 7.36364 10.5496 8.01245 11.5061 8.01245C13.1114 8.01082 12.9166 6.79582 12.9166 5.95227H11.6624V6.39491H12.402C12.402 7.05355 12.0935 7.49618 11.5069 7.49618C11.0438 7.49618 10.7771 7.09527 10.7771 6.53891V5.42864C10.7771 4.91318 11.2598 4.617 11.5887 4.617C12.1754 4.617 12.4004 5.13082 12.4004 5.13082L12.843 4.83218C12.843 4.83218 12.6278 4.09255 11.5887 4.09255ZM7.02327 6.62073C6.28282 6.62073 5.15209 6.69191 4.09255 6.651V6.97991C4.73073 7.10345 4.99664 7.04127 4.99664 7.96745V12.4936C4.99664 13.4296 4.72991 13.3576 4.09255 13.4812V13.8215C4.401 13.8109 4.93527 13.7798 5.47936 13.7798C5.99482 13.7798 6.66327 13.8011 6.95209 13.8207V13.4812C6.12818 13.3683 5.88027 13.4607 5.88027 12.4936V10.5807C6.15845 10.6012 6.39573 10.5995 6.76636 10.5995C7.46591 11.8546 8.13355 12.7923 8.514 13.2341C9.20291 14.0678 10.305 13.9451 10.5725 13.8215V13.5131C10.161 13.5123 9.74864 13.2349 9.45082 12.9052C8.78218 12.164 8.19897 11.35 7.71218 10.4785C8.63836 10.2518 9.32727 9.37718 9.32727 8.51236C9.32727 7.21636 8.32909 6.62073 7.02327 6.62073ZM6.80727 7.14273C7.77436 7.14273 8.34955 7.64755 8.34955 8.57373C8.34955 9.48027 7.73182 10.0849 6.70336 10.0849C6.32291 10.0849 6.14864 10.0751 5.88109 10.0546V7.17382C6.14782 7.14273 6.498 7.14273 6.80727 7.14273Z" fill="white"/>
</svg>
