<svg width="21" height="19" viewBox="0 0 21 19" fill="none" xmlns="http://www.w3.org/2000/svg">
<path d="M10.5 0C4.71046 0 0 4.26185 0 9.5C0 14.7382 4.71046 19 10.5 19C16.2895 19 21 14.7382 21 9.5C21 4.26185 16.2895 0 10.5 0ZM10.5 1.46154C15.4164 1.46154 19.3846 5.05181 19.3846 9.5C19.3846 13.9482 15.4164 17.5385 10.5 17.5385C5.58358 17.5385 1.61538 13.9482 1.61538 9.5C1.61538 5.05181 5.58358 1.46154 10.5 1.46154ZM6.46154 3.65385C6.24732 3.65385 6.04189 3.73084 5.89041 3.86788C5.73894 4.00493 5.65385 4.1908 5.65385 4.38462C5.65385 4.57843 5.73894 4.7643 5.89041 4.90135C6.04189 5.03839 6.24732 5.11538 6.46154 5.11538C6.67575 5.11538 6.88119 5.03839 7.03266 4.90135C7.18413 4.7643 7.26923 4.57843 7.26923 4.38462C7.26923 4.1908 7.18413 4.00493 7.03266 3.86788C6.88119 3.73084 6.67575 3.65385 6.46154 3.65385ZM5.65385 5.84615V13.8846H7.26923V5.84615H5.65385ZM8.88461 5.84615V13.8846H12.5192C14.9633 13.8846 16.9615 12.0767 16.9615 9.86538C16.9615 7.65408 14.9633 5.84615 12.5192 5.84615H8.88461ZM10.5 7.30769H12.5192C14.0894 7.30769 15.3462 8.44477 15.3462 9.86538C15.3462 11.286 14.0894 12.4231 12.5192 12.4231H10.5V7.30769Z" fill="white"/>
</svg>
