<svg width="94" height="18" viewBox="0 0 94 18" fill="none" xmlns="http://www.w3.org/2000/svg">
<path d="M7.7811 14.6202C8.15196 14.6202 8.50391 14.5861 8.83512 14.5099C9.17109 14.4335 9.46925 14.3138 9.72077 14.1359C9.9723 13.9653 10.1803 13.7312 10.3321 13.4327C10.4838 13.1375 10.5563 12.7544 10.5563 12.2906C10.5563 11.3828 10.3088 10.7379 9.81661 10.3464C9.32329 9.96044 8.66547 9.76851 7.85638 9.76851H3.76958V14.6202H7.7811ZM7.57364 7.12023C8.23935 7.12023 8.7905 6.9571 9.22746 6.62571C9.65982 6.30076 9.86985 5.76209 9.86985 5.02352C9.86985 4.61426 9.7999 4.27491 9.65982 4.01192C9.51533 3.74893 9.32329 3.54297 9.08095 3.39916C8.84044 3.24929 8.56872 3.14546 8.25294 3.08994C7.94377 3.02703 7.61899 3.00297 7.2865 3.00297H3.76958V7.12023H7.57364ZM8.0598 0.00189846C8.87606 0.00189846 9.613 0.0748458 10.2868 0.225477C10.9564 0.371941 11.5281 0.61674 12.0111 0.952677C12.487 1.28786 12.8591 1.73407 13.1255 2.29605C13.3855 2.85007 13.5166 3.54316 13.5166 4.36339C13.5166 5.25051 13.3212 5.99116 12.9309 6.58327C12.538 7.17461 11.9606 7.65967 11.1892 8.03653C12.2399 8.34821 13.0177 8.8975 13.5338 9.67756C14.0525 10.4629 14.306 11.4037 14.306 12.5056C14.306 13.3994 14.1401 14.1681 13.8094 14.8151C13.4749 15.4701 13.02 16.0012 12.4591 16.4107C11.8936 16.8241 11.2442 17.1273 10.5168 17.3247C9.78867 17.5231 9.03855 17.6227 8.28544 17.6211H0.0108643V0.00170898H8.0598V0.00189846Z" fill="white"/>
<path d="M23.566 7.85889C23.1621 7.3979 22.4789 7.14836 21.6452 7.14836C21.1025 7.14836 20.6533 7.24272 20.2942 7.43466C19.9428 7.62413 19.6543 7.86021 19.4346 8.13779C19.2154 8.42011 19.0656 8.71777 18.9789 9.03628C18.8919 9.34683 18.8401 9.62838 18.8239 9.87735H24.3485C24.2675 8.98341 23.9712 8.3231 23.566 7.85889ZM19.6646 14.5613C20.173 15.0737 20.9081 15.3319 21.8604 15.3319C22.545 15.3319 23.1369 15.1532 23.6334 14.7967C24.1254 14.4414 24.425 14.0607 24.5411 13.6661H27.5309C27.0504 15.2016 26.3212 16.298 25.3259 16.9578C24.3433 17.6208 23.1439 17.9512 21.7469 17.9512C20.7732 17.9512 19.8969 17.7881 19.1105 17.468C18.324 17.1437 17.6668 16.6887 17.1138 16.0961C16.5749 15.5006 16.1569 14.7967 15.8587 13.9706C15.5637 13.1482 15.4144 12.2376 15.4144 11.2508C15.4144 10.2968 15.5696 9.40556 15.871 8.58211C16.1795 7.75581 16.6054 7.04264 17.1655 6.44447C17.7277 5.84308 18.3934 5.36863 19.1687 5.02209C19.9448 4.67611 20.7998 4.50293 21.7469 4.50293C22.7927 4.50293 23.7086 4.7104 24.4937 5.13388C25.2762 5.55072 25.9173 6.11592 26.4216 6.82398C26.9254 7.53091 27.284 8.3392 27.5081 9.24508C27.7299 10.1502 27.8083 11.0957 27.7442 12.0859H18.8238C18.8238 13.094 19.1542 14.0488 19.6646 14.5613Z" fill="white"/>
<path d="M32.5666 0.00189846V6.64523H32.6445C33.0756 5.90609 33.6208 5.36874 34.2911 5.03565C34.9601 4.69971 35.613 4.53373 36.2488 4.53373C37.1557 4.53373 37.8987 4.65689 38.4789 4.9104C39.0598 5.16866 39.5193 5.51805 39.8559 5.97221C40.1858 6.42449 40.4191 6.97643 40.5561 7.6267C40.6901 8.27565 40.7595 8.99167 40.7595 9.78102V17.6211H37.3476V10.4173C37.3476 9.36701 37.1888 8.57748 36.8725 8.06097C36.5556 7.54371 35.9929 7.28413 35.1812 7.28413C34.2632 7.28413 33.5993 7.57118 33.1883 8.1379C32.7697 8.70443 32.5666 9.6372 32.5666 10.9351V17.6211H29.156V0.00170898H32.5666" fill="white"/>
<path d="M49.8666 11.6944C49.6554 11.7666 49.4212 11.8276 49.1799 11.8805C48.9218 11.93 48.6622 11.9711 48.4015 12.0036C48.131 12.0361 47.8614 12.0765 47.5931 12.1247C47.339 12.1761 47.0849 12.2403 46.843 12.324C46.5968 12.407 46.3809 12.5173 46.2031 12.6566C46.0198 12.7976 45.8686 12.9784 45.7605 13.1863C45.6514 13.3991 45.5932 13.6754 45.5932 14.002C45.5932 14.3137 45.6514 14.5767 45.7603 14.7927C45.8727 15.0068 46.0192 15.1741 46.2116 15.2978C46.4034 15.4216 46.6283 15.5085 46.8788 15.5568C47.1329 15.609 47.3954 15.6285 47.6645 15.6285C48.3321 15.6285 48.8469 15.514 49.2137 15.2846C49.5787 15.0536 49.8537 14.7781 50.0254 14.457C50.2005 14.1358 50.3063 13.812 50.3404 13.4855C50.3852 13.157 50.4054 12.8921 50.4054 12.6933V11.3827C50.2582 11.5173 50.085 11.6209 49.8666 11.6944ZM43.1836 6.73021C43.5233 6.19247 43.9796 5.74371 44.5165 5.41944C45.0584 5.08786 45.6639 4.85424 46.3445 4.7144C47.0173 4.57236 47.7024 4.50151 48.3892 4.50295C49.0083 4.50295 49.6345 4.5471 50.2797 4.63805C50.9142 4.72842 51.4945 4.90577 52.0209 5.1699C52.5467 5.43554 52.9752 5.79895 53.3069 6.2732C53.6435 6.73552 53.814 7.36173 53.814 8.13782V14.7866C53.814 15.3647 53.8476 15.914 53.9073 16.44C53.9747 16.9705 54.1491 17.3684 54.3138 17.6295L50.8457 17.6208C50.7438 17.4683 50.6595 17.2293 50.6199 17.0213C50.5792 16.8141 50.5513 16.6045 50.5363 16.3938C49.9962 16.9705 49.363 17.376 48.6251 17.6073C47.8975 17.8355 47.1413 17.9514 46.3809 17.9512C45.7934 17.9512 45.2462 17.8743 44.7342 17.7258C44.2299 17.5772 43.7819 17.3472 43.4 17.0361C43.0163 16.7189 42.7213 16.3255 42.5059 15.8492C42.2922 15.3702 42.1819 14.8001 42.1819 14.1419C42.1819 13.4152 42.3084 12.8171 42.5579 12.3487C42.801 11.8805 43.1167 11.5036 43.5117 11.2247C43.9 10.9437 44.3459 10.7323 44.851 10.5945C45.3489 10.4547 45.8538 10.3428 46.3634 10.2594C46.8749 10.1784 47.3726 10.1129 47.87 10.0619C48.3684 10.0117 48.8003 9.94028 49.186 9.83986C49.5664 9.74209 49.8712 9.59354 50.0948 9.40558C50.3145 9.21706 50.4203 8.9427 50.4054 8.57739C50.4054 8.19996 50.3404 7.89908 50.2231 7.67417C50.1122 7.46224 49.9492 7.28412 49.7505 7.15767C49.5504 7.03318 49.3246 6.95171 49.0646 6.90813C48.7853 6.86673 48.5034 6.84615 48.2212 6.84655C47.5568 6.84655 47.031 6.99908 46.6583 7.29219C46.2751 7.59384 46.0548 8.09026 45.9867 8.78335H42.5806C42.6299 7.95592 42.827 7.27268 43.1836 6.73021Z" fill="white"/>
<path d="M58.9061 4.86698V6.64519H58.982C59.4118 5.90605 59.966 5.3687 60.6545 5.03561C61.3371 4.69967 62.0443 4.53369 62.7614 4.53369C63.6722 4.53369 64.4196 4.65685 64.9974 4.91037C65.5853 5.16862 66.0424 5.51801 66.3736 5.97218C66.7133 6.42445 66.9466 6.97639 67.0829 7.62666C67.2202 8.27561 67.2885 8.99163 67.2885 9.78098V17.621H63.8751V10.4172C63.8751 9.36698 63.715 8.57744 63.3967 8.06093C63.0739 7.54367 62.5171 7.21209 61.6995 7.21209C60.7757 7.21209 60.1028 7.57114 59.6892 8.13786C59.2731 8.70439 59.0668 9.63717 59.0668 10.9351V17.621H55.6907V4.86698H58.9061Z" fill="white"/>
<path d="M74.8432 7.14836C74.2974 7.14836 73.8468 7.27266 73.4844 7.5311C73.1148 7.78589 72.806 8.12394 72.5813 8.51977C72.35 8.92183 72.1897 9.36672 72.0906 9.85386C71.9978 10.3402 71.9461 10.8221 71.9461 11.3011C71.9461 11.7639 71.9978 12.2331 72.0906 12.7121C72.1897 13.1884 72.3421 13.6185 72.5574 14.0105C72.7739 14.3929 73.0738 14.718 73.4332 14.96C73.7982 15.2082 74.2423 15.3319 74.7692 15.3319C75.5867 15.3319 76.213 15.0964 76.6519 14.6301C77.0889 14.1612 77.3591 13.531 77.4732 12.7414H80.7521C80.5272 14.4334 79.8892 15.726 78.8398 16.6171C77.7864 17.5023 76.4373 17.9512 74.7945 17.9512C73.8663 17.9512 73.0229 17.7881 72.245 17.468C71.4684 17.1437 70.8089 16.6969 70.2658 16.1201C69.7224 15.542 69.301 14.855 68.9924 14.0562C68.691 13.2559 68.5393 12.3775 68.5393 11.4242C68.5393 10.4367 68.6799 9.51678 68.9594 8.66642C69.2375 7.81948 69.6486 7.08546 70.1962 6.46986C70.7389 5.85028 71.4028 5.36863 72.1879 5.02209C72.9696 4.67611 73.863 4.50293 74.8659 4.50293C75.5998 4.50293 76.3044 4.60525 76.985 4.79661C77.6606 4.99196 78.2679 5.29379 78.8007 5.69851C79.3337 6.09843 79.7791 6.60975 80.1079 7.19914C80.4391 7.79655 80.6284 8.51238 80.6807 9.33072H77.3514C77.1309 7.8748 76.2947 7.14836 74.8432 7.14836Z" fill="white"/>
<path d="M18.1295 1.18384H25.0499V2.92283H18.1295V1.18384Z" fill="white"/>
<path d="M89.8009 7.85889C89.3917 7.3979 88.7032 7.14836 87.88 7.14836C87.338 7.14836 86.8875 7.24272 86.5219 7.43466C86.1698 7.62413 85.8481 7.86021 85.6324 8.13779C85.4165 8.42011 85.2616 8.71777 85.1716 9.03628C85.0912 9.34682 85.0346 9.62838 85.0198 9.87735H90.586C90.4951 8.98341 90.2059 8.3231 89.8007 7.85889H89.8009ZM85.8573 14.5613C86.3677 15.0737 87.1377 15.3319 88.0972 15.3319C88.7805 15.3319 89.3709 15.1532 89.8644 14.7967C90.3578 14.4414 90.6636 14.0607 90.7727 13.6661H93.7625C93.2846 15.2016 92.5508 16.298 91.5621 16.9578C90.5755 17.6208 89.3814 17.9512 87.9791 17.9512C87.0029 17.9512 86.123 17.7881 85.3427 17.468C84.5575 17.1437 83.8997 16.6887 83.3493 16.0961C82.8047 15.5006 82.3872 14.7967 82.0902 13.9706C81.7953 13.1482 81.6488 12.2376 81.6488 11.2508C81.6488 10.2968 81.8005 9.40556 82.1025 8.58211C82.4085 7.75581 82.8435 7.04263 83.4005 6.44447C83.965 5.84308 84.625 5.36863 85.3983 5.02209C86.1749 4.67611 87.0373 4.50293 87.9791 4.50293C89.0236 4.50293 89.9436 4.7104 90.7207 5.13388C91.5052 5.55072 92.1495 6.11592 92.6499 6.82398C93.1537 7.53091 93.5161 8.3392 93.7385 9.24508C93.9575 10.1502 94.0419 11.0957 93.979 12.0859H85.0198C85.0198 13.094 85.3458 14.0488 85.8573 14.5613Z" fill="white"/>
</svg>
