<svg width="81" height="104" viewBox="0 0 81 104" fill="none" xmlns="http://www.w3.org/2000/svg">
<path d="M27.1747 24.9018C26.7223 24.4674 26.7081 23.742 27.1425 23.2891L27.4104 23.0108C27.8448 22.5579 28.5702 22.5431 29.0224 22.9775L29.302 23.2454C29.7544 23.6803 29.7691 24.4052 29.3348 24.8586L29.0668 25.1369C28.6325 25.5892 27.9071 25.6046 27.4541 25.1697L27.1747 24.9018ZM5.41072 32.7267C6.45594 28.6784 9.02027 25.277 12.6311 23.1478C16.2419 21.0191 20.4599 20.4235 24.5077 21.4682C26.1454 21.8909 25.5119 24.3729 23.8664 23.9502C16.8613 22.1422 9.70196 26.3628 7.89327 33.3679C7.71843 34.0451 7.02654 34.4672 6.33136 34.288C5.64584 34.1114 5.23388 33.4124 5.41072 32.7267V32.7267ZM15.1401 41.8033C14.8053 41.1795 15.0392 40.402 15.6624 40.0667C16.2869 39.7312 17.0637 39.9658 17.3984 40.5896C18.7219 43.053 21.6711 42.7356 22.2717 41.8058C22.5564 41.3645 22.5641 40.6269 22.2885 40.0512C21.9718 39.3888 21.3318 39.1049 20.3146 38.6975C19.1858 38.2453 17.7807 37.6818 17.1465 36.0967C16.6209 34.7867 16.8194 33.2246 17.6516 32.1171C18.5813 30.8808 20.1156 30.4767 21.5046 30.5789C21.9634 28.8017 24.4948 29.2546 23.9435 31.3891C25.4065 32.3484 26.9517 34.6144 25.2606 35.3828C24.6155 35.6771 23.8568 35.3912 23.5632 34.7461C23.4424 34.4794 22.9707 33.5852 21.9929 33.2639C21.2225 33.0121 20.1277 33.0898 19.701 33.6584C19.4512 33.9899 19.3111 34.606 19.5264 35.1426C19.7429 35.6835 20.3011 35.9295 21.2695 36.3176C22.4131 36.7764 23.8369 37.3476 24.6015 38.9443C25.8401 41.5335 24.6175 45.0518 20.4805 45.0518C20.4579 45.0518 20.4381 45.0493 20.4155 45.0486C20.2485 45.6962 19.9722 46.3355 19.0915 46.3355C18.2548 46.3355 17.6399 45.5452 17.8494 44.7326L17.9124 44.4889C16.2778 43.7012 15.406 42.2961 15.1401 41.8033V41.8033ZM61.7726 103.376H15.6251C13.9315 103.376 13.9289 100.812 15.6251 100.812H61.7726C63.4662 100.812 63.4675 103.376 61.7726 103.376ZM65.618 103.376C63.9243 103.376 63.9217 100.812 65.618 100.812C67.3122 100.812 67.3142 103.376 65.618 103.376ZM57.4994 84.2089C55.5583 84.2089 55.5552 81.2695 57.4994 81.2695C59.4411 81.2695 59.4436 84.2089 57.4994 84.2089ZM54.8702 86.349C44.7085 91.4262 32.0878 90.3815 23.1161 83.7714C21.7474 82.7626 23.276 80.7048 24.6368 81.707C29.257 85.111 35.1038 86.9858 41.1021 86.9858C45.5232 86.9858 49.8877 85.9726 53.7247 84.0548C55.2487 83.2992 56.3826 85.5929 54.8702 86.349V86.349ZM57.9267 59.0242C57.9267 57.3313 60.4901 57.3293 60.4901 59.0242C60.4901 60.7179 57.9267 60.7198 57.9267 59.0242ZM59.2083 55.1789C57.0882 55.1789 55.3631 56.904 55.3631 59.0242C55.3631 61.1452 57.0882 62.8703 59.2083 62.8703C61.3293 62.8703 63.0544 61.1452 63.0544 59.0242C63.0544 56.904 61.3293 55.1789 59.2083 55.1789ZM78.4364 63.5114C78.4364 68.7105 74.3843 73.1914 69.2114 73.7137C68.7579 73.7592 68.3621 74.0426 68.1733 74.4577C66.5656 77.9876 64.1024 81.2289 61.0479 83.8317C60.7613 84.0752 60.5968 84.4313 60.5968 84.8072V93.635C60.5968 94.3424 60.0218 94.9175 59.315 94.9175C57.4094 94.9175 56.1193 94.9175 54.1878 94.9175C53.4804 94.9175 52.9062 94.3424 52.9062 93.635V90.6044C52.9062 89.7286 52.0451 89.1086 51.2119 89.39C45.0342 91.4877 38.0227 91.6915 31.3901 89.6182C30.5627 89.3598 29.7254 89.9792 29.7254 90.8414V93.635C29.7254 94.3424 29.1503 94.9175 28.4436 94.9175H23.3164C22.609 94.9175 22.0341 94.3424 22.0341 93.635C22.0341 84.7962 22.2075 84.9427 21.5522 84.4191C10.4254 75.5364 8.15662 60.4416 16.4463 49.1748C17.965 49.778 19.4859 50.0955 21.3498 50.0337C20.1458 51.4093 19.1197 52.9191 18.3203 54.5466C18.0082 55.182 18.2702 55.9499 18.9051 56.262C19.0874 56.3515 19.2796 56.3939 19.4697 56.3939C19.9433 56.3939 20.3982 56.1304 20.6211 55.6769C23.2246 50.3801 27.4805 48.2181 28.3839 47.528C33.93 44.2891 36.762 45.578 36.3193 43.3883C36.1799 42.6939 35.5034 42.2473 34.8095 42.3855C33.8362 42.582 32.8851 42.8365 31.9574 43.1384C32.7117 41.5772 33.1113 40.0011 33.1698 38.1957C40.2778 36.3158 47.0953 37.3707 54.6133 40.0428C55.2558 40.2703 60.8281 40.3051 65.9546 38.6815C65.7446 41.3691 64.0592 44.9901 62.7377 46.2333C62.3554 46.5919 62.2301 47.1463 62.4208 47.6346C65.3809 55.1955 72.7439 55.2656 77.1431 55.3068C77.8563 55.3137 78.4364 55.8881 78.4364 56.5879V63.5114V63.5114ZM11.6037 35.4085C12.7274 31.0582 16.6601 28.1624 20.9592 28.1624C30.2323 28.1624 34.0731 39.9061 26.8489 45.4644C26.0991 45.9148 23.0973 48.3543 18.542 47.1785C13.3847 45.8459 10.2718 40.5665 11.6037 35.4085ZM77.1668 52.7432C72.1214 52.6957 67.4067 52.2382 65.1188 47.4182C68.6737 43.0222 69.8892 34.5437 66.6986 35.7183C62.4073 37.2898 59.2495 37.5989 55.268 37.5557C47.3807 34.8155 40.2938 33.7759 32.9694 35.5968C30.5818 22.7648 12.3734 22.1781 9.12171 34.7674C7.79183 39.917 9.97242 45.152 14.1538 47.9642C11.5465 51.6053 9.8779 55.6825 9.21934 59.9694C8.5768 60.0914 7.18517 60.6902 5.29561 59.7528C4.11981 59.1695 3.2416 58.1627 2.82325 56.9188C1.95652 54.3443 3.33867 51.561 5.91247 50.6936C7.51682 50.1539 6.70271 47.7233 5.09454 48.2644C1.17847 49.582 -0.925075 53.8199 0.393333 57.7367C1.45986 60.903 4.40265 62.8324 7.47365 62.8324C7.9632 62.8324 8.45295 62.7778 8.93868 62.68C8.44967 71.8659 12.5732 80.2986 19.4705 86.0303C19.4705 94.3045 19.396 94.0739 19.6947 94.9175H7.93371C7.22579 94.9175 6.65191 95.4912 6.65191 96.1993C6.65191 96.906 7.22579 97.4778 7.93371 97.4778H41.2627C41.9701 97.4778 42.5445 96.906 42.5445 96.1993C42.5445 95.4912 41.9701 94.9175 41.2627 94.9175H32.0646C32.3378 94.1489 32.289 93.6851 32.289 92.5395C38.1897 94.0622 44.5299 93.9857 50.3426 92.3442V93.635C50.3426 95.7558 52.067 97.4778 54.1878 97.4778H70.7451C71.4532 97.4778 72.0269 96.906 72.0269 96.1993C72.0269 95.4912 71.4532 94.9175 70.7451 94.9175H62.9362C63.2362 94.0739 63.161 94.3861 63.161 85.391C66.1076 82.7794 68.524 79.6126 70.2009 76.17C76.4075 75.1889 81 69.8703 81 63.5114V56.5879C81 54.4881 79.2813 52.763 77.1668 52.7432V52.7432ZM61.3543 20.7364C61.905 21.1154 62.0431 21.8762 61.6634 22.4256L61.5053 22.6549C61.125 23.2042 60.3642 23.343 59.815 22.9627L59.5862 22.8046C59.0369 22.4249 58.8981 21.6649 59.2777 21.1149L59.4358 20.8861C59.8162 20.3361 60.5762 20.1981 61.1263 20.5778L61.3543 20.7364V20.7364ZM46.2382 1.16336C46.3025 0.458536 46.9237 -0.0599728 47.6331 0.00559245C56.5902 0.836996 63.2008 8.8008 62.3694 17.7585C62.2134 19.4501 59.6594 19.2053 59.8175 17.5213C60.5178 9.96805 54.9511 3.25854 47.396 2.55827C46.6912 2.4927 46.1721 1.86819 46.2382 1.16336V1.16336ZM41.3102 10.2451L41.2447 10.0593C40.6852 8.46078 43.1047 7.61208 43.6644 9.21387L43.7872 9.56592C45.5745 9.53642 48.2383 10.5734 47.2412 12.1803C46.8693 12.781 46.0801 12.968 45.4762 12.5941C45.2116 12.4302 44.2638 11.9175 43.2076 12.2124C41.25 12.7586 40.8881 14.5203 42.1404 15.3786C43.4293 16.2614 46.0488 14.1283 48.7563 15.7345C51.3334 17.2605 52.2835 21.0333 48.6271 23.3925L48.7568 23.7639C48.9907 24.4321 48.6386 25.1639 47.9704 25.3972C47.2907 25.6349 46.5679 25.2693 46.3373 24.6113L46.2338 24.3157C44.8087 24.5285 43.3714 24.2026 42.2555 23.6078C40.7622 22.8097 41.963 20.5494 43.4626 21.3454C46.016 22.7159 48.4998 20.7725 48.48 19.5215C48.4709 18.9534 48.038 18.2892 47.4493 17.9402C46.7709 17.5374 46.0417 17.6634 44.9083 17.9031C43.6759 18.1632 42.1424 18.4864 40.6916 17.4937C38.3798 15.9099 37.8659 12.161 41.3102 10.2451V10.2451ZM44.9622 6.6805C49.1551 6.6805 53.0872 9.30056 54.5484 13.4762C56.3961 18.7562 53.6039 24.5567 48.3232 26.4053C43.0432 28.2511 37.2419 25.4608 35.3941 20.1793C33.0907 13.5976 37.9937 6.6805 44.9622 6.6805V6.6805ZM49.1699 28.8243C55.7851 26.51 59.2835 19.2439 56.968 12.6287C54.6532 6.01356 47.3876 2.5171 40.7724 4.83137C34.1573 7.14564 30.6595 14.4117 32.9745 21.0269C35.2888 27.6401 42.5522 31.1404 49.1699 28.8243Z" fill="#454645"/>
</svg>
