<?xml version="1.0" encoding="utf-8"?>
<!-- Generator: Adobe Illustrator 16.0.0, SVG Export Plug-In . SVG Version: 6.00 Build 0)  -->
<!DOCTYPE svg PUBLIC "-//W3C//DTD SVG 1.1//EN" "http://www.w3.org/Graphics/SVG/1.1/DTD/svg11.dtd">
<svg version="1.1" id="Capa_1" xmlns="http://www.w3.org/2000/svg" xmlns:xlink="http://www.w3.org/1999/xlink" x="0px" y="0px"
	 width="375px" height="150px" viewBox="0 0 375 150" enable-background="new 0 0 375 150" xml:space="preserve">
<g>
	<g>
		<path fill="#FFFFFF" d="M35,29.5h305c8.284,0,15,6.716,15,15v62c0,8.284-6.716,15-15,15H35c-8.284,0-15-6.716-15-15v-62
			C20,36.216,26.716,29.5,35,29.5z"/>
	</g>
</g>
<g>
	<path fill="#FFFFFF" d="M35,25h305c8.284,0,15,6.716,15,15v62c0,8.284-6.716,15-15,15H35c-8.284,0-15-6.716-15-15V40
		C20,31.716,26.716,25,35,25z"/>
</g>
<g>
	<path fill="#AACFBE" stroke="#AACFBE" stroke-width="2" stroke-linecap="round" stroke-linejoin="round" d="M102.027,36.481
		l1.708,3.46l3.819,0.558l-2.764,2.692l0.652,3.803l-3.416-1.797l-3.416,1.797l0.652-3.803L96.5,40.5l3.819-0.558L102.027,36.481z"
		/>
	<path fill="#AACFBE" stroke="#AACFBE" stroke-width="2" stroke-linecap="round" stroke-linejoin="round" d="M86.021,36.481
		l1.709,3.46L91.55,40.5l-2.765,2.692l0.652,3.803l-3.416-1.797l-3.416,1.797l0.652-3.803L80.494,40.5l3.82-0.558L86.021,36.481z"/>
	<path fill="#AACFBE" stroke="#AACFBE" stroke-width="2" stroke-linecap="round" stroke-linejoin="round" d="M70.017,36.481
		l1.708,3.46l3.82,0.558l-2.765,2.692l0.652,3.803l-3.416-1.797l-3.416,1.797l0.652-3.803L64.489,40.5l3.819-0.558L70.017,36.481z"
		/>
	<path fill="#AACFBE" stroke="#AACFBE" stroke-width="2" stroke-linecap="round" stroke-linejoin="round" d="M54.012,36.481
		l1.708,3.46l3.82,0.558l-2.764,2.692l0.652,3.803l-3.416-1.797l-3.417,1.797l0.652-3.803L48.484,40.5l3.82-0.558L54.012,36.481z"/>
	<path fill="#AACFBE" stroke="#AACFBE" stroke-width="2" stroke-linecap="round" stroke-linejoin="round" d="M38.006,36.481
		l1.708,3.46l3.819,0.558l-2.764,2.692l0.652,3.803l-3.416-1.797l-3.416,1.797l0.652-3.803L32.479,40.5l3.82-0.558L38.006,36.481z"
		/>
</g>
<g>
	<path d="M45.396,65.741c-0.114,0-0.21-0.051-0.288-0.153C45.036,65.48,45,65.33,45,65.138c0-0.324,0.066-0.6,0.198-0.828
		c0.138-0.228,0.327-0.42,0.567-0.576l0.162,0.207c-0.192,0.162-0.342,0.327-0.45,0.495c-0.102,0.162-0.153,0.372-0.153,0.63
		l0.144,0.486l-0.333-0.369c0.048-0.054,0.09-0.09,0.126-0.108c0.036-0.018,0.081-0.027,0.135-0.027c0.09,0,0.171,0.027,0.243,0.081
		c0.078,0.054,0.117,0.138,0.117,0.252c0,0.108-0.033,0.195-0.099,0.261C45.591,65.708,45.504,65.741,45.396,65.741z M46.665,65.741
		c-0.114,0-0.21-0.051-0.288-0.153c-0.072-0.108-0.108-0.258-0.108-0.45c0-0.324,0.066-0.6,0.198-0.828
		c0.138-0.228,0.327-0.42,0.567-0.576l0.162,0.207c-0.192,0.162-0.342,0.327-0.45,0.495c-0.102,0.162-0.153,0.372-0.153,0.63
		l0.144,0.486l-0.333-0.369c0.048-0.054,0.09-0.09,0.126-0.108c0.036-0.018,0.081-0.027,0.135-0.027c0.09,0,0.171,0.027,0.243,0.081
		c0.078,0.054,0.117,0.138,0.117,0.252c0,0.108-0.033,0.195-0.099,0.261C46.86,65.708,46.773,65.741,46.665,65.741z M50.045,70.187
		c-0.432,0-0.816-0.084-1.152-0.252c-0.33-0.168-0.615-0.381-0.855-0.639l0.261-0.27c0.21,0.24,0.465,0.432,0.765,0.576
		c0.306,0.138,0.633,0.207,0.981,0.207c0.456,0,0.816-0.108,1.08-0.324c0.264-0.222,0.396-0.51,0.396-0.864
		c0-0.246-0.048-0.444-0.144-0.594c-0.096-0.15-0.225-0.273-0.387-0.369c-0.162-0.096-0.339-0.189-0.531-0.279l-0.9-0.405
		c-0.18-0.078-0.363-0.177-0.549-0.297c-0.18-0.12-0.336-0.273-0.468-0.459c-0.126-0.192-0.189-0.432-0.189-0.72
		s0.075-0.54,0.225-0.756c0.15-0.222,0.354-0.393,0.612-0.513c0.258-0.126,0.555-0.189,0.891-0.189c0.36,0,0.681,0.069,0.963,0.207
		c0.282,0.138,0.51,0.303,0.684,0.495l-0.225,0.27c-0.18-0.18-0.39-0.324-0.63-0.432c-0.234-0.108-0.498-0.162-0.792-0.162
		c-0.39,0-0.708,0.096-0.954,0.288c-0.24,0.192-0.36,0.45-0.36,0.774c0,0.228,0.054,0.414,0.162,0.558
		c0.114,0.144,0.252,0.261,0.414,0.351c0.162,0.09,0.312,0.168,0.45,0.234l0.9,0.396c0.228,0.102,0.438,0.219,0.63,0.351
		c0.192,0.126,0.342,0.285,0.45,0.477c0.114,0.192,0.171,0.441,0.171,0.747c0,0.3-0.078,0.573-0.234,0.819
		c-0.15,0.24-0.369,0.429-0.657,0.567C50.771,70.118,50.436,70.187,50.045,70.187z M53.146,70.079v-6.471h0.396v1.872v0.954
		c0.222-0.222,0.453-0.408,0.693-0.558c0.24-0.15,0.507-0.225,0.801-0.225c0.45,0,0.78,0.138,0.99,0.414
		c0.21,0.27,0.315,0.684,0.315,1.242v2.772h-0.396v-2.718c0-0.462-0.078-0.801-0.234-1.017c-0.15-0.222-0.402-0.333-0.756-0.333
		c-0.258,0-0.492,0.069-0.702,0.207c-0.204,0.132-0.441,0.333-0.711,0.603v3.258H53.146z M59.539,70.187
		c-0.372,0-0.708-0.09-1.008-0.27c-0.3-0.18-0.54-0.438-0.72-0.774c-0.18-0.342-0.27-0.747-0.27-1.215
		c0-0.474,0.09-0.879,0.27-1.215c0.18-0.342,0.411-0.603,0.693-0.783c0.288-0.186,0.594-0.279,0.918-0.279
		c0.342,0,0.636,0.078,0.882,0.234c0.252,0.156,0.444,0.384,0.576,0.684c0.132,0.294,0.198,0.654,0.198,1.08
		c0,0.048-0.003,0.102-0.009,0.162c0,0.054-0.006,0.111-0.018,0.171h-3.267V67.64H60.7c0-0.552-0.114-0.963-0.342-1.233
		c-0.228-0.276-0.537-0.414-0.927-0.414c-0.24,0-0.474,0.069-0.702,0.207c-0.228,0.138-0.417,0.351-0.567,0.639
		c-0.144,0.282-0.216,0.639-0.216,1.071c0,0.396,0.072,0.741,0.216,1.035c0.144,0.288,0.339,0.51,0.585,0.666
		c0.246,0.15,0.522,0.225,0.828,0.225c0.234,0,0.447-0.03,0.639-0.09c0.198-0.066,0.372-0.153,0.522-0.261l0.162,0.279
		c-0.168,0.114-0.357,0.213-0.567,0.297S59.857,70.187,59.539,70.187z M64.998,70.187c-0.228,0-0.438-0.042-0.63-0.126
		c-0.186-0.084-0.336-0.213-0.45-0.387c-0.114-0.18-0.171-0.402-0.171-0.666c0-0.486,0.225-0.852,0.675-1.098
		c0.45-0.252,1.155-0.432,2.115-0.54c0-0.222-0.027-0.438-0.081-0.648c-0.048-0.21-0.147-0.381-0.297-0.513
		c-0.144-0.138-0.36-0.207-0.648-0.207s-0.552,0.057-0.792,0.171c-0.24,0.108-0.435,0.213-0.585,0.315l-0.18-0.279
		c0.102-0.078,0.234-0.159,0.396-0.243c0.162-0.09,0.345-0.165,0.549-0.225c0.21-0.06,0.432-0.09,0.666-0.09
		c0.336,0,0.603,0.075,0.801,0.225c0.204,0.15,0.348,0.351,0.432,0.603c0.09,0.252,0.135,0.531,0.135,0.837v2.763h-0.342
		l-0.036-0.558h-0.027c-0.216,0.174-0.456,0.33-0.72,0.468C65.55,70.121,65.28,70.187,64.998,70.187z M65.07,69.836
		c0.246,0,0.483-0.057,0.711-0.171c0.234-0.12,0.486-0.294,0.756-0.522v-1.458c-0.594,0.066-1.065,0.159-1.413,0.279
		c-0.348,0.114-0.597,0.255-0.747,0.423c-0.15,0.168-0.225,0.366-0.225,0.594c0,0.306,0.09,0.525,0.27,0.657
		C64.608,69.77,64.824,69.836,65.07,69.836z M70.076,70.187c-0.372,0-0.708-0.087-1.008-0.261c-0.294-0.18-0.528-0.438-0.702-0.774
		c-0.168-0.342-0.252-0.75-0.252-1.224c0-0.48,0.09-0.891,0.27-1.233c0.186-0.342,0.429-0.6,0.729-0.774
		c0.3-0.18,0.624-0.27,0.972-0.27c0.3,0,0.549,0.051,0.747,0.153c0.198,0.096,0.372,0.222,0.522,0.378l-0.216,0.243
		c-0.126-0.132-0.276-0.234-0.45-0.306c-0.174-0.078-0.372-0.117-0.594-0.117c-0.294,0-0.558,0.081-0.792,0.243
		c-0.234,0.162-0.423,0.387-0.567,0.675c-0.138,0.288-0.207,0.624-0.207,1.008c0,0.378,0.063,0.711,0.189,0.999
		c0.132,0.288,0.315,0.513,0.549,0.675c0.234,0.156,0.51,0.234,0.828,0.234c0.234,0,0.45-0.042,0.648-0.126
		c0.198-0.09,0.366-0.207,0.504-0.351l0.207,0.243c-0.18,0.174-0.384,0.315-0.612,0.423C70.613,70.133,70.358,70.187,70.076,70.187z
		 M73.608,70.151c-0.42,0-0.705-0.12-0.855-0.36c-0.15-0.24-0.225-0.552-0.225-0.936v-2.754h-0.675v-0.306l0.684-0.036l0.054-1.431
		h0.342v1.431h1.251v0.342h-1.251v2.781c0,0.276,0.048,0.501,0.144,0.675c0.096,0.168,0.291,0.252,0.585,0.252
		c0.084,0,0.168-0.009,0.252-0.027c0.09-0.024,0.186-0.06,0.288-0.108l0.126,0.279c-0.114,0.06-0.234,0.108-0.36,0.144
		C73.842,70.133,73.722,70.151,73.608,70.151z M76.475,70.187c-0.444,0-0.774-0.135-0.99-0.405c-0.21-0.276-0.315-0.693-0.315-1.251
		v-2.772h0.396v2.718c0,0.456,0.078,0.795,0.234,1.017c0.156,0.222,0.405,0.333,0.747,0.333c0.258,0,0.492-0.069,0.702-0.207
		c0.21-0.144,0.441-0.369,0.693-0.675v-3.186h0.396v4.32h-0.333l-0.045-0.72h-0.018c-0.21,0.246-0.432,0.447-0.666,0.603
		C77.042,70.112,76.775,70.187,76.475,70.187z M80.941,70.187c-0.228,0-0.438-0.042-0.63-0.126c-0.186-0.084-0.336-0.213-0.45-0.387
		c-0.114-0.18-0.171-0.402-0.171-0.666c0-0.486,0.225-0.852,0.675-1.098c0.45-0.252,1.155-0.432,2.115-0.54
		c0-0.222-0.027-0.438-0.081-0.648c-0.048-0.21-0.147-0.381-0.297-0.513c-0.144-0.138-0.36-0.207-0.648-0.207
		s-0.552,0.057-0.792,0.171c-0.24,0.108-0.435,0.213-0.585,0.315l-0.18-0.279c0.102-0.078,0.234-0.159,0.396-0.243
		c0.162-0.09,0.345-0.165,0.549-0.225c0.21-0.06,0.432-0.09,0.666-0.09c0.336,0,0.603,0.075,0.801,0.225
		c0.204,0.15,0.348,0.351,0.432,0.603c0.09,0.252,0.135,0.531,0.135,0.837v2.763h-0.342l-0.036-0.558h-0.027
		c-0.216,0.174-0.456,0.33-0.72,0.468C81.494,70.121,81.224,70.187,80.941,70.187z M81.014,69.836c0.246,0,0.483-0.057,0.711-0.171
		c0.234-0.12,0.486-0.294,0.756-0.522v-1.458c-0.594,0.066-1.065,0.159-1.413,0.279c-0.348,0.114-0.597,0.255-0.747,0.423
		s-0.225,0.366-0.225,0.594c0,0.306,0.09,0.525,0.27,0.657C80.551,69.77,80.768,69.836,81.014,69.836z M84.948,70.151
		c-0.12,0-0.219-0.024-0.297-0.072s-0.138-0.123-0.18-0.225c-0.036-0.102-0.054-0.231-0.054-0.387v-5.859h0.396v5.913
		c0,0.102,0.018,0.174,0.054,0.216c0.042,0.042,0.093,0.063,0.153,0.063c0.018,0,0.036,0,0.054,0
		c0.024-0.006,0.054-0.012,0.09-0.018l0.072,0.315c-0.042,0.018-0.087,0.03-0.135,0.036C85.06,70.145,85.008,70.151,84.948,70.151z
		 M87.084,70.151c-0.12,0-0.219-0.024-0.297-0.072s-0.138-0.123-0.18-0.225c-0.036-0.102-0.054-0.231-0.054-0.387v-5.859h0.396
		v5.913c0,0.102,0.018,0.174,0.054,0.216c0.042,0.042,0.093,0.063,0.153,0.063c0.018,0,0.036,0,0.054,0
		c0.024-0.006,0.054-0.012,0.09-0.018l0.072,0.315c-0.042,0.018-0.087,0.03-0.135,0.036C87.195,70.145,87.144,70.151,87.084,70.151z
		 M88.518,72.05c-0.084,0-0.165-0.009-0.243-0.027s-0.144-0.042-0.198-0.072l0.108-0.333c0.048,0.018,0.102,0.033,0.162,0.045
		c0.06,0.012,0.117,0.018,0.171,0.018c0.264,0,0.486-0.111,0.666-0.333c0.186-0.216,0.333-0.486,0.441-0.81l0.117-0.378
		l-1.773-4.401h0.432l1.044,2.718c0.066,0.18,0.141,0.378,0.225,0.594c0.084,0.216,0.165,0.42,0.243,0.612h0.036
		c0.066-0.192,0.132-0.396,0.198-0.612c0.072-0.216,0.138-0.414,0.198-0.594l0.927-2.718h0.405l-1.71,4.86
		c-0.078,0.24-0.183,0.468-0.315,0.684c-0.126,0.222-0.282,0.402-0.468,0.54C88.998,71.981,88.776,72.05,88.518,72.05z
		 M94.411,70.079v-4.32h0.396v4.32H94.411z M94.6,64.715c-0.096,0-0.177-0.033-0.243-0.099c-0.066-0.072-0.099-0.162-0.099-0.27
		s0.033-0.192,0.099-0.252c0.066-0.066,0.147-0.099,0.243-0.099c0.102,0,0.183,0.033,0.243,0.099
		c0.066,0.06,0.099,0.144,0.099,0.252s-0.033,0.198-0.099,0.27C94.783,64.682,94.702,64.715,94.6,64.715z M97.511,70.187
		c-0.336,0-0.639-0.054-0.909-0.162c-0.264-0.108-0.489-0.255-0.675-0.441l0.216-0.252c0.18,0.156,0.375,0.282,0.585,0.378
		c0.216,0.09,0.486,0.135,0.81,0.135c0.336,0,0.591-0.084,0.765-0.252c0.174-0.174,0.261-0.375,0.261-0.603
		c0-0.18-0.054-0.327-0.162-0.441c-0.102-0.12-0.234-0.219-0.396-0.297c-0.162-0.084-0.327-0.156-0.495-0.216
		c-0.222-0.078-0.435-0.165-0.639-0.261c-0.204-0.102-0.372-0.228-0.504-0.378c-0.132-0.156-0.198-0.354-0.198-0.594
		c0-0.318,0.12-0.588,0.36-0.81c0.24-0.228,0.582-0.342,1.026-0.342c0.246,0,0.474,0.042,0.684,0.126
		c0.216,0.084,0.402,0.192,0.558,0.324l-0.216,0.243c-0.144-0.102-0.297-0.186-0.459-0.252s-0.354-0.099-0.576-0.099
		c-0.336,0-0.585,0.081-0.747,0.243c-0.156,0.162-0.234,0.342-0.234,0.54c0,0.162,0.045,0.297,0.135,0.405
		c0.096,0.102,0.219,0.189,0.369,0.261c0.15,0.072,0.312,0.141,0.486,0.207c0.228,0.09,0.45,0.183,0.666,0.279
		c0.222,0.096,0.402,0.225,0.54,0.387c0.138,0.156,0.207,0.375,0.207,0.657c0,0.216-0.057,0.417-0.171,0.603
		c-0.108,0.18-0.273,0.327-0.495,0.441C98.087,70.13,97.823,70.187,97.511,70.187z M103.095,70.151c-0.42,0-0.705-0.12-0.855-0.36
		c-0.15-0.24-0.225-0.552-0.225-0.936v-2.754h-0.675v-0.306l0.684-0.036l0.054-1.431h0.342v1.431h1.251v0.342h-1.251v2.781
		c0,0.276,0.048,0.501,0.144,0.675c0.096,0.168,0.291,0.252,0.585,0.252c0.084,0,0.168-0.009,0.252-0.027
		c0.09-0.024,0.186-0.06,0.288-0.108l0.126,0.279c-0.114,0.06-0.234,0.108-0.36,0.144C103.329,70.133,103.209,70.151,103.095,70.151
		z M104.72,70.079v-6.471h0.396v1.872v0.954c0.222-0.222,0.453-0.408,0.693-0.558c0.24-0.15,0.507-0.225,0.801-0.225
		c0.45,0,0.78,0.138,0.99,0.414c0.21,0.27,0.315,0.684,0.315,1.242v2.772h-0.396v-2.718c0-0.462-0.078-0.801-0.234-1.017
		c-0.15-0.222-0.402-0.333-0.756-0.333c-0.258,0-0.492,0.069-0.702,0.207c-0.204,0.132-0.441,0.333-0.711,0.603v3.258H104.72z
		 M111.113,70.187c-0.372,0-0.708-0.09-1.008-0.27c-0.3-0.18-0.54-0.438-0.72-0.774c-0.18-0.342-0.27-0.747-0.27-1.215
		c0-0.474,0.09-0.879,0.27-1.215c0.18-0.342,0.411-0.603,0.693-0.783c0.288-0.186,0.594-0.279,0.918-0.279
		c0.342,0,0.636,0.078,0.882,0.234c0.252,0.156,0.444,0.384,0.576,0.684c0.132,0.294,0.198,0.654,0.198,1.08
		c0,0.048-0.003,0.102-0.009,0.162c0,0.054-0.006,0.111-0.018,0.171h-3.267V67.64h2.916c0-0.552-0.114-0.963-0.342-1.233
		c-0.228-0.276-0.537-0.414-0.927-0.414c-0.24,0-0.474,0.069-0.702,0.207c-0.228,0.138-0.417,0.351-0.567,0.639
		c-0.144,0.282-0.216,0.639-0.216,1.071c0,0.396,0.072,0.741,0.216,1.035c0.144,0.288,0.339,0.51,0.585,0.666
		c0.246,0.15,0.522,0.225,0.828,0.225c0.234,0,0.447-0.03,0.639-0.09c0.198-0.066,0.372-0.153,0.522-0.261l0.162,0.279
		c-0.168,0.114-0.357,0.213-0.567,0.297S111.431,70.187,111.113,70.187z M117.319,70.187c-0.204,0-0.42-0.048-0.648-0.144
		c-0.222-0.102-0.438-0.237-0.648-0.405h-0.018l-0.045,0.441h-0.333v-6.471h0.396v1.872l-0.018,0.846
		c0.222-0.186,0.459-0.345,0.711-0.477c0.258-0.132,0.516-0.198,0.774-0.198c0.39,0,0.711,0.09,0.963,0.27
		c0.258,0.18,0.45,0.435,0.576,0.765c0.132,0.33,0.198,0.72,0.198,1.17c0,0.486-0.09,0.903-0.27,1.251
		c-0.174,0.348-0.405,0.615-0.693,0.801C117.977,70.094,117.661,70.187,117.319,70.187z M117.301,69.836
		c0.294,0,0.552-0.084,0.774-0.252c0.228-0.168,0.405-0.399,0.531-0.693c0.132-0.3,0.198-0.645,0.198-1.035
		c0-0.354-0.045-0.669-0.135-0.945c-0.09-0.282-0.237-0.504-0.441-0.666c-0.198-0.162-0.462-0.243-0.792-0.243
		c-0.216,0-0.441,0.06-0.675,0.18s-0.48,0.297-0.738,0.531v2.565c0.24,0.204,0.471,0.348,0.693,0.432
		C116.944,69.794,117.139,69.836,117.301,69.836z M122.143,70.187c-0.372,0-0.708-0.09-1.008-0.27c-0.3-0.18-0.54-0.438-0.72-0.774
		c-0.18-0.342-0.27-0.747-0.27-1.215c0-0.474,0.09-0.879,0.27-1.215c0.18-0.342,0.411-0.603,0.693-0.783
		c0.288-0.186,0.594-0.279,0.918-0.279c0.342,0,0.636,0.078,0.882,0.234c0.252,0.156,0.444,0.384,0.576,0.684
		c0.132,0.294,0.198,0.654,0.198,1.08c0,0.048-0.003,0.102-0.009,0.162c0,0.054-0.006,0.111-0.018,0.171h-3.267V67.64h2.916
		c0-0.552-0.114-0.963-0.342-1.233c-0.228-0.276-0.537-0.414-0.927-0.414c-0.24,0-0.474,0.069-0.702,0.207
		c-0.228,0.138-0.417,0.351-0.567,0.639c-0.144,0.282-0.216,0.639-0.216,1.071c0,0.396,0.072,0.741,0.216,1.035
		c0.144,0.288,0.339,0.51,0.585,0.666c0.246,0.15,0.522,0.225,0.828,0.225c0.234,0,0.447-0.03,0.639-0.09
		c0.198-0.066,0.372-0.153,0.522-0.261l0.162,0.279c-0.168,0.114-0.357,0.213-0.567,0.297S122.461,70.187,122.143,70.187z
		 M125.9,70.187c-0.336,0-0.639-0.054-0.909-0.162c-0.264-0.108-0.489-0.255-0.675-0.441l0.216-0.252
		c0.18,0.156,0.375,0.282,0.585,0.378c0.216,0.09,0.486,0.135,0.81,0.135c0.336,0,0.591-0.084,0.765-0.252
		c0.174-0.174,0.261-0.375,0.261-0.603c0-0.18-0.054-0.327-0.162-0.441c-0.102-0.12-0.234-0.219-0.396-0.297
		c-0.162-0.084-0.327-0.156-0.495-0.216c-0.222-0.078-0.435-0.165-0.639-0.261c-0.204-0.102-0.372-0.228-0.504-0.378
		c-0.132-0.156-0.198-0.354-0.198-0.594c0-0.318,0.12-0.588,0.36-0.81c0.24-0.228,0.582-0.342,1.026-0.342
		c0.246,0,0.474,0.042,0.684,0.126c0.216,0.084,0.402,0.192,0.558,0.324l-0.216,0.243c-0.144-0.102-0.297-0.186-0.459-0.252
		s-0.354-0.099-0.576-0.099c-0.336,0-0.585,0.081-0.747,0.243c-0.156,0.162-0.234,0.342-0.234,0.54c0,0.162,0.045,0.297,0.135,0.405
		c0.096,0.102,0.219,0.189,0.369,0.261c0.15,0.072,0.312,0.141,0.486,0.207c0.228,0.09,0.45,0.183,0.666,0.279
		c0.222,0.096,0.402,0.225,0.54,0.387c0.138,0.156,0.207,0.375,0.207,0.657c0,0.216-0.057,0.417-0.171,0.603
		c-0.108,0.18-0.273,0.327-0.495,0.441C126.476,70.13,126.212,70.187,125.9,70.187z M129.506,70.151c-0.42,0-0.705-0.12-0.855-0.36
		c-0.15-0.24-0.225-0.552-0.225-0.936v-2.754h-0.675v-0.306l0.684-0.036l0.054-1.431h0.342v1.431h1.251v0.342h-1.251v2.781
		c0,0.276,0.048,0.501,0.144,0.675c0.096,0.168,0.291,0.252,0.585,0.252c0.084,0,0.168-0.009,0.252-0.027
		c0.09-0.024,0.186-0.06,0.288-0.108l0.126,0.279c-0.114,0.06-0.234,0.108-0.36,0.144S129.621,70.151,129.506,70.151z
		 M131.32,68.468l-0.054-3.78v-0.639h0.414l-0.009,0.639l-0.054,3.78H131.32z M131.473,70.187c-0.096,0-0.186-0.036-0.27-0.108
		c-0.078-0.072-0.117-0.171-0.117-0.297c0-0.132,0.039-0.234,0.117-0.306c0.084-0.072,0.174-0.108,0.27-0.108
		c0.102,0,0.189,0.036,0.261,0.108c0.078,0.072,0.117,0.174,0.117,0.306c0,0.126-0.039,0.225-0.117,0.297
		C131.662,70.151,131.575,70.187,131.473,70.187z M135.307,70.079v-5.931h0.414v5.931H135.307z M139.226,70.079v-6.471h0.396v1.872
		v0.954c0.222-0.222,0.453-0.408,0.693-0.558c0.24-0.15,0.507-0.225,0.801-0.225c0.45,0,0.78,0.138,0.99,0.414
		c0.21,0.27,0.315,0.684,0.315,1.242v2.772h-0.396v-2.718c0-0.462-0.078-0.801-0.234-1.017c-0.15-0.222-0.402-0.333-0.756-0.333
		c-0.258,0-0.492,0.069-0.702,0.207c-0.204,0.132-0.441,0.333-0.711,0.603v3.258H139.226z M144.926,70.187
		c-0.228,0-0.438-0.042-0.63-0.126c-0.186-0.084-0.336-0.213-0.45-0.387c-0.114-0.18-0.171-0.402-0.171-0.666
		c0-0.486,0.225-0.852,0.675-1.098c0.45-0.252,1.155-0.432,2.115-0.54c0-0.222-0.027-0.438-0.081-0.648
		c-0.048-0.21-0.147-0.381-0.297-0.513c-0.144-0.138-0.36-0.207-0.648-0.207s-0.552,0.057-0.792,0.171
		c-0.24,0.108-0.435,0.213-0.585,0.315l-0.18-0.279c0.102-0.078,0.234-0.159,0.396-0.243c0.162-0.09,0.345-0.165,0.549-0.225
		c0.21-0.06,0.432-0.09,0.666-0.09c0.336,0,0.603,0.075,0.801,0.225c0.204,0.15,0.348,0.351,0.432,0.603
		c0.09,0.252,0.135,0.531,0.135,0.837v2.763h-0.342l-0.036-0.558h-0.027c-0.216,0.174-0.456,0.33-0.72,0.468
		C145.478,70.121,145.208,70.187,144.926,70.187z M144.998,69.836c0.246,0,0.483-0.057,0.711-0.171
		c0.234-0.12,0.486-0.294,0.756-0.522v-1.458c-0.594,0.066-1.065,0.159-1.413,0.279c-0.348,0.114-0.597,0.255-0.747,0.423
		s-0.225,0.366-0.225,0.594c0,0.306,0.09,0.525,0.27,0.657C144.536,69.77,144.752,69.836,144.998,69.836z M149.302,70.079
		l-1.62-4.32h0.432l0.972,2.709c0.066,0.204,0.138,0.414,0.216,0.63c0.078,0.21,0.15,0.414,0.216,0.612h0.036
		c0.072-0.198,0.144-0.402,0.216-0.612c0.078-0.216,0.153-0.426,0.225-0.63l0.972-2.709h0.405l-1.602,4.32H149.302z M153.933,70.187
		c-0.372,0-0.708-0.09-1.008-0.27c-0.3-0.18-0.54-0.438-0.72-0.774c-0.18-0.342-0.27-0.747-0.27-1.215
		c0-0.474,0.09-0.879,0.27-1.215c0.18-0.342,0.411-0.603,0.693-0.783c0.288-0.186,0.594-0.279,0.918-0.279
		c0.342,0,0.636,0.078,0.882,0.234c0.252,0.156,0.444,0.384,0.576,0.684c0.132,0.294,0.198,0.654,0.198,1.08
		c0,0.048-0.003,0.102-0.009,0.162c0,0.054-0.006,0.111-0.018,0.171h-3.267V67.64h2.916c0-0.552-0.114-0.963-0.342-1.233
		c-0.228-0.276-0.537-0.414-0.927-0.414c-0.24,0-0.474,0.069-0.702,0.207c-0.228,0.138-0.417,0.351-0.567,0.639
		c-0.144,0.282-0.216,0.639-0.216,1.071c0,0.396,0.072,0.741,0.216,1.035c0.144,0.288,0.339,0.51,0.585,0.666
		c0.246,0.15,0.522,0.225,0.828,0.225c0.234,0,0.447-0.03,0.639-0.09c0.198-0.066,0.372-0.153,0.522-0.261l0.162,0.279
		c-0.168,0.114-0.357,0.213-0.567,0.297S154.251,70.187,153.933,70.187z M158.448,70.079v-6.471h0.396v1.872v0.954
		c0.222-0.222,0.453-0.408,0.693-0.558c0.24-0.15,0.507-0.225,0.801-0.225c0.45,0,0.78,0.138,0.99,0.414
		c0.21,0.27,0.315,0.684,0.315,1.242v2.772h-0.396v-2.718c0-0.462-0.078-0.801-0.234-1.017c-0.15-0.222-0.402-0.333-0.756-0.333
		c-0.258,0-0.492,0.069-0.702,0.207c-0.204,0.132-0.441,0.333-0.711,0.603v3.258H158.448z M163.202,70.079v-4.32h0.396v4.32H163.202
		z M163.391,64.715c-0.096,0-0.177-0.033-0.243-0.099c-0.066-0.072-0.099-0.162-0.099-0.27s0.033-0.192,0.099-0.252
		c0.066-0.066,0.147-0.099,0.243-0.099c0.102,0,0.183,0.033,0.243,0.099c0.066,0.06,0.099,0.144,0.099,0.252
		s-0.033,0.198-0.099,0.27C163.574,64.682,163.493,64.715,163.391,64.715z M165.259,70.079v-4.32h0.342l0.036,0.801h0.027
		c0.138-0.264,0.309-0.48,0.513-0.648c0.21-0.174,0.447-0.261,0.711-0.261c0.078,0,0.15,0.006,0.216,0.018
		c0.072,0.012,0.144,0.036,0.216,0.072l-0.108,0.342c-0.06-0.018-0.117-0.03-0.171-0.036c-0.048-0.012-0.117-0.018-0.207-0.018
		c-0.192,0-0.396,0.084-0.612,0.252c-0.21,0.162-0.399,0.447-0.567,0.855v2.943H165.259z M169.666,70.187
		c-0.372,0-0.708-0.09-1.008-0.27c-0.3-0.18-0.54-0.438-0.72-0.774c-0.18-0.342-0.27-0.747-0.27-1.215
		c0-0.474,0.09-0.879,0.27-1.215c0.18-0.342,0.411-0.603,0.693-0.783c0.288-0.186,0.594-0.279,0.918-0.279
		c0.342,0,0.636,0.078,0.882,0.234c0.252,0.156,0.444,0.384,0.576,0.684c0.132,0.294,0.198,0.654,0.198,1.08
		c0,0.048-0.003,0.102-0.009,0.162c0,0.054-0.006,0.111-0.018,0.171h-3.267V67.64h2.916c0-0.552-0.114-0.963-0.342-1.233
		c-0.228-0.276-0.537-0.414-0.927-0.414c-0.24,0-0.474,0.069-0.702,0.207c-0.228,0.138-0.417,0.351-0.567,0.639
		c-0.144,0.282-0.216,0.639-0.216,1.071c0,0.396,0.072,0.741,0.216,1.035c0.144,0.288,0.339,0.51,0.585,0.666
		c0.246,0.15,0.522,0.225,0.828,0.225c0.234,0,0.447-0.03,0.639-0.09c0.198-0.066,0.372-0.153,0.522-0.261l0.162,0.279
		c-0.168,0.114-0.357,0.213-0.567,0.297S169.984,70.187,169.666,70.187z M173.809,70.187c-0.54,0-0.975-0.195-1.305-0.585
		c-0.324-0.39-0.486-0.948-0.486-1.674c0-0.468,0.087-0.87,0.261-1.206c0.18-0.342,0.414-0.606,0.702-0.792
		c0.294-0.186,0.612-0.279,0.954-0.279c0.264,0,0.495,0.045,0.693,0.135c0.198,0.09,0.402,0.222,0.612,0.396l-0.018-0.792v-1.782
		h0.396v6.471h-0.342l-0.036-0.558h-0.027c-0.174,0.174-0.381,0.33-0.621,0.468C174.358,70.121,174.097,70.187,173.809,70.187z
		 M173.863,69.836c0.24,0,0.468-0.06,0.684-0.18c0.222-0.126,0.447-0.303,0.675-0.531V66.56c-0.228-0.204-0.441-0.348-0.639-0.432
		c-0.198-0.084-0.405-0.126-0.621-0.126c-0.288,0-0.546,0.084-0.774,0.252s-0.411,0.399-0.549,0.693
		c-0.132,0.288-0.198,0.615-0.198,0.981c0,0.57,0.123,1.032,0.369,1.386C173.056,69.662,173.407,69.836,173.863,69.836z
		 M180.021,70.187c-0.228,0-0.438-0.042-0.63-0.126c-0.186-0.084-0.336-0.213-0.45-0.387c-0.114-0.18-0.171-0.402-0.171-0.666
		c0-0.486,0.225-0.852,0.675-1.098c0.45-0.252,1.155-0.432,2.115-0.54c0-0.222-0.027-0.438-0.081-0.648
		c-0.048-0.21-0.147-0.381-0.297-0.513c-0.144-0.138-0.36-0.207-0.648-0.207s-0.552,0.057-0.792,0.171
		c-0.24,0.108-0.435,0.213-0.585,0.315l-0.18-0.279c0.102-0.078,0.234-0.159,0.396-0.243c0.162-0.09,0.345-0.165,0.549-0.225
		c0.21-0.06,0.432-0.09,0.666-0.09c0.336,0,0.603,0.075,0.801,0.225c0.204,0.15,0.348,0.351,0.432,0.603
		c0.09,0.252,0.135,0.531,0.135,0.837v2.763h-0.342l-0.036-0.558h-0.027c-0.216,0.174-0.456,0.33-0.72,0.468
		C180.573,70.121,180.303,70.187,180.021,70.187z M180.093,69.836c0.246,0,0.483-0.057,0.711-0.171
		c0.234-0.12,0.486-0.294,0.756-0.522v-1.458c-0.594,0.066-1.065,0.159-1.413,0.279c-0.348,0.114-0.597,0.255-0.747,0.423
		s-0.225,0.366-0.225,0.594c0,0.306,0.09,0.525,0.27,0.657C179.631,69.77,179.847,69.836,180.093,69.836z M185.361,70.079v-5.283
		c0-0.288,0.042-0.528,0.126-0.72s0.204-0.336,0.36-0.432c0.162-0.096,0.357-0.144,0.585-0.144c0.102,0,0.207,0.012,0.315,0.036
		c0.114,0.024,0.219,0.06,0.315,0.108l-0.117,0.306c-0.18-0.072-0.351-0.108-0.513-0.108c-0.228,0-0.399,0.087-0.513,0.261
		c-0.108,0.168-0.162,0.408-0.162,0.72v5.256H185.361z M184.722,66.101v-0.306l0.648-0.036h1.386v0.342H184.722z M189.213,70.187
		c-0.372,0-0.708-0.09-1.008-0.27c-0.3-0.18-0.54-0.438-0.72-0.774c-0.18-0.342-0.27-0.747-0.27-1.215
		c0-0.474,0.09-0.879,0.27-1.215c0.18-0.342,0.411-0.603,0.693-0.783c0.288-0.186,0.594-0.279,0.918-0.279
		c0.342,0,0.637,0.078,0.883,0.234c0.252,0.156,0.443,0.384,0.576,0.684c0.131,0.294,0.197,0.654,0.197,1.08
		c0,0.048-0.003,0.102-0.009,0.162c0,0.054-0.007,0.111-0.019,0.171h-3.267V67.64h2.916c0-0.552-0.114-0.963-0.342-1.233
		c-0.228-0.276-0.537-0.414-0.927-0.414c-0.24,0-0.475,0.069-0.703,0.207c-0.228,0.138-0.417,0.351-0.566,0.639
		c-0.144,0.282-0.216,0.639-0.216,1.071c0,0.396,0.072,0.741,0.216,1.035c0.144,0.288,0.339,0.51,0.585,0.666
		c0.246,0.15,0.522,0.225,0.828,0.225c0.233,0,0.446-0.03,0.64-0.09c0.197-0.066,0.371-0.153,0.521-0.261l0.162,0.279
		c-0.168,0.114-0.357,0.213-0.567,0.297S189.531,70.187,189.213,70.187z M192.697,70.079l-1.278-4.32h0.433l0.773,2.799
		c0.055,0.198,0.105,0.39,0.152,0.576c0.055,0.186,0.103,0.381,0.145,0.585h0.036c0.048-0.204,0.099-0.399,0.153-0.585
		c0.054-0.186,0.104-0.378,0.152-0.576l0.783-2.799h0.495l0.783,2.799c0.054,0.198,0.104,0.39,0.153,0.576
		c0.054,0.186,0.107,0.381,0.162,0.585h0.035c0.049-0.204,0.096-0.399,0.145-0.585c0.054-0.186,0.107-0.378,0.162-0.576l0.765-2.799
		h0.405l-1.242,4.32h-0.531l-0.756-2.682c-0.055-0.21-0.107-0.414-0.162-0.612c-0.048-0.204-0.102-0.414-0.162-0.63h-0.035
		c-0.049,0.216-0.1,0.429-0.154,0.639c-0.053,0.204-0.113,0.411-0.18,0.621l-0.738,2.664H192.697z M199.993,72.032v-6.273h0.342
		l0.036,0.54h0.027c0.209-0.168,0.438-0.318,0.684-0.45c0.252-0.132,0.514-0.198,0.783-0.198c0.384,0,0.701,0.09,0.953,0.27
		c0.259,0.18,0.451,0.438,0.576,0.774c0.133,0.33,0.199,0.717,0.199,1.161c0,0.486-0.091,0.903-0.271,1.251
		c-0.175,0.348-0.405,0.615-0.693,0.801s-0.603,0.279-0.944,0.279c-0.205,0-0.418-0.045-0.64-0.135
		c-0.216-0.096-0.435-0.228-0.657-0.396v0.801v1.575H199.993z M201.667,69.836c0.294,0,0.552-0.084,0.774-0.252
		c0.228-0.168,0.404-0.399,0.531-0.693c0.131-0.3,0.197-0.645,0.197-1.035c0-0.354-0.045-0.669-0.135-0.945
		c-0.09-0.282-0.237-0.504-0.441-0.666c-0.197-0.162-0.462-0.243-0.791-0.243c-0.217,0-0.441,0.06-0.676,0.18
		c-0.229,0.12-0.475,0.297-0.738,0.531v2.565c0.246,0.204,0.48,0.348,0.702,0.432S201.505,69.836,201.667,69.836z M206.527,70.187
		c-0.373,0-0.709-0.09-1.008-0.27c-0.301-0.18-0.541-0.438-0.721-0.774c-0.18-0.342-0.27-0.747-0.27-1.215
		c0-0.474,0.09-0.879,0.27-1.215c0.18-0.342,0.411-0.603,0.693-0.783c0.287-0.186,0.594-0.279,0.918-0.279
		c0.342,0,0.636,0.078,0.882,0.234c0.252,0.156,0.444,0.384,0.575,0.684c0.133,0.294,0.199,0.654,0.199,1.08
		c0,0.048-0.004,0.102-0.01,0.162c0,0.054-0.006,0.111-0.018,0.171h-3.268V67.64h2.916c0-0.552-0.113-0.963-0.342-1.233
		c-0.228-0.276-0.537-0.414-0.927-0.414c-0.239,0-0.474,0.069-0.702,0.207c-0.228,0.138-0.417,0.351-0.566,0.639
		c-0.145,0.282-0.217,0.639-0.217,1.071c0,0.396,0.072,0.741,0.217,1.035c0.144,0.288,0.339,0.51,0.584,0.666
		c0.246,0.15,0.522,0.225,0.828,0.225c0.234,0,0.447-0.03,0.64-0.09c0.198-0.066,0.372-0.153,0.522-0.261l0.162,0.279
		c-0.168,0.114-0.357,0.213-0.568,0.297C207.109,70.145,206.846,70.187,206.527,70.187z M210.814,70.187
		c-0.342,0-0.662-0.087-0.963-0.261c-0.293-0.18-0.531-0.438-0.711-0.774c-0.174-0.342-0.26-0.75-0.26-1.224
		c0-0.48,0.086-0.891,0.26-1.233c0.18-0.342,0.418-0.6,0.711-0.774c0.301-0.18,0.621-0.27,0.963-0.27c0.348,0,0.67,0.09,0.963,0.27
		c0.295,0.174,0.531,0.432,0.711,0.774c0.182,0.342,0.271,0.753,0.271,1.233c0,0.474-0.09,0.882-0.271,1.224
		c-0.18,0.336-0.416,0.594-0.711,0.774C211.484,70.1,211.162,70.187,210.814,70.187z M210.814,69.836
		c0.295,0,0.555-0.078,0.783-0.234c0.234-0.162,0.418-0.387,0.549-0.675c0.133-0.288,0.199-0.621,0.199-0.999
		s-0.066-0.711-0.199-0.999c-0.131-0.294-0.314-0.522-0.549-0.684c-0.229-0.162-0.488-0.243-0.783-0.243
		c-0.287,0-0.545,0.081-0.773,0.243s-0.41,0.39-0.549,0.684c-0.133,0.288-0.197,0.621-0.197,0.999s0.064,0.711,0.197,0.999
		c0.139,0.288,0.32,0.513,0.549,0.675C210.27,69.758,210.527,69.836,210.814,69.836z M214.057,72.032v-6.273h0.342l0.035,0.54h0.027
		c0.211-0.168,0.438-0.318,0.684-0.45c0.252-0.132,0.514-0.198,0.783-0.198c0.385,0,0.703,0.09,0.955,0.27
		c0.258,0.18,0.449,0.438,0.576,0.774c0.131,0.33,0.197,0.717,0.197,1.161c0,0.486-0.09,0.903-0.27,1.251
		c-0.174,0.348-0.406,0.615-0.693,0.801c-0.289,0.186-0.604,0.279-0.945,0.279c-0.203,0-0.418-0.045-0.639-0.135
		c-0.217-0.096-0.436-0.228-0.658-0.396v0.801v1.575H214.057z M215.73,69.836c0.293,0,0.551-0.084,0.773-0.252
		c0.229-0.168,0.404-0.399,0.531-0.693c0.133-0.3,0.197-0.645,0.197-1.035c0-0.354-0.045-0.669-0.135-0.945
		c-0.09-0.282-0.236-0.504-0.441-0.666c-0.197-0.162-0.461-0.243-0.791-0.243c-0.217,0-0.441,0.06-0.676,0.18
		c-0.227,0.12-0.473,0.297-0.738,0.531v2.565c0.246,0.204,0.48,0.348,0.703,0.432S215.568,69.836,215.73,69.836z M219.482,70.151
		c-0.119,0-0.219-0.024-0.297-0.072s-0.137-0.123-0.18-0.225c-0.035-0.102-0.055-0.231-0.055-0.387v-5.859h0.396v5.913
		c0,0.102,0.018,0.174,0.055,0.216c0.041,0.042,0.092,0.063,0.152,0.063c0.018,0,0.037,0,0.055,0
		c0.023-0.006,0.053-0.012,0.09-0.018l0.072,0.315c-0.043,0.018-0.088,0.03-0.135,0.036
		C219.594,70.145,219.543,70.151,219.482,70.151z M222.725,70.187c-0.371,0-0.707-0.09-1.008-0.27
		c-0.299-0.18-0.539-0.438-0.721-0.774c-0.18-0.342-0.27-0.747-0.27-1.215c0-0.474,0.09-0.879,0.27-1.215
		c0.182-0.342,0.412-0.603,0.693-0.783c0.289-0.186,0.594-0.279,0.918-0.279c0.342,0,0.637,0.078,0.883,0.234
		c0.252,0.156,0.443,0.384,0.576,0.684c0.131,0.294,0.197,0.654,0.197,1.08c0,0.048-0.002,0.102-0.008,0.162
		c0,0.054-0.006,0.111-0.02,0.171h-3.266V67.64h2.916c0-0.552-0.115-0.963-0.342-1.233c-0.229-0.276-0.537-0.414-0.928-0.414
		c-0.24,0-0.475,0.069-0.703,0.207c-0.227,0.138-0.416,0.351-0.566,0.639c-0.145,0.282-0.215,0.639-0.215,1.071
		c0,0.396,0.07,0.741,0.215,1.035c0.145,0.288,0.34,0.51,0.586,0.666c0.246,0.15,0.521,0.225,0.828,0.225
		c0.232,0,0.447-0.03,0.639-0.09c0.197-0.066,0.371-0.153,0.521-0.261l0.162,0.279c-0.168,0.114-0.357,0.213-0.566,0.297
		C223.307,70.145,223.043,70.187,222.725,70.187z M227.303,70.079v-5.283c0-0.288,0.043-0.528,0.127-0.72s0.203-0.336,0.359-0.432
		c0.162-0.096,0.357-0.144,0.586-0.144c0.102,0,0.205,0.012,0.314,0.036c0.113,0.024,0.219,0.06,0.314,0.108l-0.117,0.306
		c-0.18-0.072-0.352-0.108-0.512-0.108c-0.229,0-0.4,0.087-0.514,0.261c-0.107,0.168-0.162,0.408-0.162,0.72v5.256H227.303z
		 M226.664,66.101v-0.306l0.648-0.036h1.385v0.342H226.664z M229.604,70.079v-4.32h0.342l0.037,0.801h0.027
		c0.137-0.264,0.309-0.48,0.512-0.648c0.211-0.174,0.447-0.261,0.711-0.261c0.078,0,0.15,0.006,0.217,0.018
		c0.072,0.012,0.145,0.036,0.215,0.072l-0.107,0.342c-0.061-0.018-0.117-0.03-0.17-0.036c-0.049-0.012-0.117-0.018-0.207-0.018
		c-0.193,0-0.396,0.084-0.613,0.252c-0.209,0.162-0.398,0.447-0.566,0.855v2.943H229.604z M233.947,70.187
		c-0.342,0-0.664-0.087-0.963-0.261c-0.295-0.18-0.531-0.438-0.711-0.774c-0.174-0.342-0.262-0.75-0.262-1.224
		c0-0.48,0.088-0.891,0.262-1.233c0.18-0.342,0.416-0.6,0.711-0.774c0.299-0.18,0.621-0.27,0.963-0.27
		c0.348,0,0.668,0.09,0.963,0.27c0.293,0.174,0.531,0.432,0.711,0.774c0.18,0.342,0.27,0.753,0.27,1.233
		c0,0.474-0.09,0.882-0.27,1.224c-0.18,0.336-0.418,0.594-0.711,0.774C234.615,70.1,234.295,70.187,233.947,70.187z M233.947,69.836
		c0.293,0,0.555-0.078,0.783-0.234c0.234-0.162,0.416-0.387,0.549-0.675c0.131-0.288,0.197-0.621,0.197-0.999
		s-0.066-0.711-0.197-0.999c-0.133-0.294-0.314-0.522-0.549-0.684c-0.229-0.162-0.49-0.243-0.783-0.243
		c-0.289,0-0.547,0.081-0.773,0.243c-0.229,0.162-0.412,0.39-0.549,0.684c-0.133,0.288-0.199,0.621-0.199,0.999
		s0.066,0.711,0.199,0.999c0.137,0.288,0.32,0.513,0.549,0.675C233.4,69.758,233.658,69.836,233.947,69.836z M237.189,70.079v-4.32
		h0.342l0.035,0.666h0.027c0.191-0.222,0.406-0.405,0.639-0.549c0.24-0.15,0.48-0.225,0.721-0.225c0.354,0,0.621,0.081,0.801,0.243
		c0.186,0.156,0.318,0.369,0.396,0.639c0.246-0.276,0.488-0.492,0.729-0.648c0.246-0.156,0.492-0.234,0.738-0.234
		c0.432,0,0.756,0.138,0.973,0.414c0.215,0.27,0.322,0.684,0.322,1.242v2.772h-0.404v-2.718c0-0.462-0.078-0.801-0.234-1.017
		c-0.148-0.222-0.393-0.333-0.729-0.333c-0.203,0-0.41,0.069-0.621,0.207c-0.209,0.132-0.436,0.333-0.674,0.603v3.258h-0.396v-2.718
		c0-0.462-0.078-0.801-0.234-1.017c-0.156-0.222-0.402-0.333-0.738-0.333c-0.385,0-0.816,0.27-1.295,0.81v3.258H237.189z
		 M246.34,70.079v-5.931h0.414v3.294h0.018l2.871-3.294h0.494l-1.891,2.196l2.152,3.735h-0.477l-1.963-3.42l-1.205,1.377v2.043
		H246.34z M252.869,70.187c-0.342,0-0.662-0.087-0.963-0.261c-0.293-0.18-0.529-0.438-0.711-0.774
		c-0.174-0.342-0.26-0.75-0.26-1.224c0-0.48,0.086-0.891,0.26-1.233c0.182-0.342,0.418-0.6,0.711-0.774
		c0.301-0.18,0.621-0.27,0.963-0.27c0.35,0,0.67,0.09,0.965,0.27c0.293,0.174,0.529,0.432,0.711,0.774
		c0.18,0.342,0.27,0.753,0.27,1.233c0,0.474-0.09,0.882-0.27,1.224c-0.182,0.336-0.418,0.594-0.711,0.774
		C253.539,70.1,253.219,70.187,252.869,70.187z M252.869,69.836c0.295,0,0.557-0.078,0.783-0.234
		c0.234-0.162,0.418-0.387,0.549-0.675c0.133-0.288,0.199-0.621,0.199-0.999s-0.066-0.711-0.199-0.999
		c-0.131-0.294-0.314-0.522-0.549-0.684c-0.227-0.162-0.488-0.243-0.783-0.243c-0.287,0-0.545,0.081-0.773,0.243
		s-0.41,0.39-0.549,0.684c-0.133,0.288-0.197,0.621-0.197,0.999s0.064,0.711,0.197,0.999c0.139,0.288,0.32,0.513,0.549,0.675
		C252.324,69.758,252.582,69.836,252.869,69.836z M256.643,70.151c-0.119,0-0.219-0.024-0.297-0.072s-0.137-0.123-0.18-0.225
		c-0.035-0.102-0.055-0.231-0.055-0.387v-5.859h0.396v5.913c0,0.102,0.018,0.174,0.055,0.216c0.041,0.042,0.092,0.063,0.152,0.063
		c0.018,0,0.037,0,0.055,0c0.023-0.006,0.053-0.012,0.09-0.018l0.072,0.315c-0.043,0.018-0.088,0.03-0.135,0.036
		C256.754,70.145,256.703,70.151,256.643,70.151z M259.191,70.187c-0.227,0-0.438-0.042-0.629-0.126
		c-0.186-0.084-0.336-0.213-0.451-0.387c-0.113-0.18-0.17-0.402-0.17-0.666c0-0.486,0.225-0.852,0.674-1.098
		c0.451-0.252,1.156-0.432,2.115-0.54c0-0.222-0.027-0.438-0.08-0.648c-0.049-0.21-0.146-0.381-0.297-0.513
		c-0.145-0.138-0.361-0.207-0.648-0.207s-0.553,0.057-0.793,0.171c-0.238,0.108-0.434,0.213-0.584,0.315l-0.18-0.279
		c0.102-0.078,0.234-0.159,0.396-0.243c0.16-0.09,0.344-0.165,0.549-0.225c0.209-0.06,0.432-0.09,0.666-0.09
		c0.336,0,0.602,0.075,0.801,0.225c0.203,0.15,0.348,0.351,0.432,0.603c0.09,0.252,0.135,0.531,0.135,0.837v2.763h-0.342
		l-0.035-0.558h-0.027c-0.217,0.174-0.457,0.33-0.721,0.468C259.744,70.121,259.475,70.187,259.191,70.187z M259.264,69.836
		c0.246,0,0.482-0.057,0.711-0.171c0.234-0.12,0.486-0.294,0.756-0.522v-1.458c-0.594,0.066-1.064,0.159-1.412,0.279
		c-0.348,0.114-0.598,0.255-0.748,0.423c-0.148,0.168-0.225,0.366-0.225,0.594c0,0.306,0.09,0.525,0.27,0.657
		C258.803,69.77,259.018,69.836,259.264,69.836z M264.359,70.187c-0.203,0-0.42-0.048-0.646-0.144
		c-0.223-0.102-0.439-0.237-0.648-0.405h-0.018l-0.045,0.441h-0.334v-6.471h0.396v1.872l-0.018,0.846
		c0.221-0.186,0.459-0.345,0.711-0.477c0.258-0.132,0.516-0.198,0.773-0.198c0.391,0,0.711,0.09,0.963,0.27
		c0.258,0.18,0.449,0.435,0.576,0.765c0.131,0.33,0.197,0.72,0.197,1.17c0,0.486-0.09,0.903-0.27,1.251
		c-0.174,0.348-0.404,0.615-0.693,0.801C265.018,70.094,264.701,70.187,264.359,70.187z M264.342,69.836
		c0.295,0,0.553-0.084,0.773-0.252c0.229-0.168,0.406-0.399,0.531-0.693c0.133-0.3,0.199-0.645,0.199-1.035
		c0-0.354-0.045-0.669-0.135-0.945c-0.092-0.282-0.238-0.504-0.441-0.666c-0.199-0.162-0.463-0.243-0.793-0.243
		c-0.215,0-0.441,0.06-0.674,0.18c-0.234,0.12-0.48,0.297-0.738,0.531v2.565c0.24,0.204,0.471,0.348,0.693,0.432
		C263.984,69.794,264.18,69.836,264.342,69.836z M268.619,70.151c-0.42,0-0.705-0.12-0.854-0.36c-0.15-0.24-0.227-0.552-0.227-0.936
		v-2.754h-0.674v-0.306l0.684-0.036l0.055-1.431h0.342v1.431h1.25v0.342h-1.25v2.781c0,0.276,0.047,0.501,0.145,0.675
		c0.096,0.168,0.291,0.252,0.584,0.252c0.084,0,0.168-0.009,0.252-0.027c0.09-0.024,0.186-0.06,0.289-0.108l0.125,0.279
		c-0.113,0.06-0.234,0.108-0.359,0.144C268.854,70.133,268.734,70.151,268.619,70.151z M270.244,70.079v-4.32h0.342l0.035,0.801
		h0.027c0.139-0.264,0.311-0.48,0.514-0.648c0.209-0.174,0.447-0.261,0.711-0.261c0.078,0,0.15,0.006,0.217,0.018
		c0.07,0.012,0.143,0.036,0.215,0.072l-0.107,0.342c-0.061-0.018-0.117-0.03-0.172-0.036c-0.047-0.012-0.117-0.018-0.207-0.018
		c-0.191,0-0.395,0.084-0.611,0.252c-0.211,0.162-0.398,0.447-0.566,0.855v2.943H270.244z M274.65,70.187
		c-0.371,0-0.707-0.09-1.008-0.27c-0.299-0.18-0.539-0.438-0.719-0.774c-0.182-0.342-0.271-0.747-0.271-1.215
		c0-0.474,0.09-0.879,0.271-1.215c0.18-0.342,0.41-0.603,0.691-0.783c0.289-0.186,0.596-0.279,0.918-0.279
		c0.344,0,0.637,0.078,0.883,0.234c0.252,0.156,0.443,0.384,0.576,0.684c0.131,0.294,0.197,0.654,0.197,1.08
		c0,0.048-0.002,0.102-0.008,0.162c0,0.054-0.006,0.111-0.02,0.171h-3.266V67.64h2.916c0-0.552-0.115-0.963-0.342-1.233
		c-0.229-0.276-0.537-0.414-0.928-0.414c-0.24,0-0.475,0.069-0.701,0.207c-0.229,0.138-0.418,0.351-0.568,0.639
		c-0.143,0.282-0.215,0.639-0.215,1.071c0,0.396,0.072,0.741,0.215,1.035c0.145,0.288,0.34,0.51,0.586,0.666
		c0.246,0.15,0.521,0.225,0.828,0.225c0.234,0,0.447-0.03,0.639-0.09c0.197-0.066,0.371-0.153,0.521-0.261l0.162,0.279
		c-0.168,0.114-0.357,0.213-0.566,0.297C275.232,70.145,274.969,70.187,274.65,70.187z M279.002,70.187
		c-0.371,0-0.707-0.09-1.008-0.27c-0.301-0.18-0.541-0.438-0.721-0.774c-0.18-0.342-0.27-0.747-0.27-1.215
		c0-0.474,0.09-0.879,0.27-1.215c0.18-0.342,0.412-0.603,0.693-0.783c0.289-0.186,0.594-0.279,0.918-0.279
		c0.342,0,0.637,0.078,0.883,0.234c0.252,0.156,0.443,0.384,0.576,0.684c0.131,0.294,0.197,0.654,0.197,1.08
		c0,0.048-0.004,0.102-0.01,0.162c0,0.054-0.006,0.111-0.018,0.171h-3.268V67.64h2.916c0-0.552-0.113-0.963-0.342-1.233
		c-0.227-0.276-0.537-0.414-0.926-0.414c-0.24,0-0.475,0.069-0.703,0.207c-0.227,0.138-0.416,0.351-0.566,0.639
		c-0.145,0.282-0.217,0.639-0.217,1.071c0,0.396,0.072,0.741,0.217,1.035c0.145,0.288,0.34,0.51,0.586,0.666
		c0.244,0.15,0.521,0.225,0.826,0.225c0.234,0,0.447-0.03,0.641-0.09c0.197-0.066,0.371-0.153,0.521-0.261l0.162,0.279
		c-0.168,0.114-0.357,0.213-0.566,0.297C279.584,70.145,279.32,70.187,279.002,70.187z M284.461,70.187
		c-0.229,0-0.438-0.042-0.631-0.126c-0.186-0.084-0.336-0.213-0.449-0.387c-0.113-0.18-0.17-0.402-0.17-0.666
		c0-0.486,0.225-0.852,0.674-1.098c0.451-0.252,1.154-0.432,2.115-0.54c0-0.222-0.027-0.438-0.08-0.648
		c-0.049-0.21-0.148-0.381-0.299-0.513c-0.143-0.138-0.359-0.207-0.646-0.207c-0.289,0-0.553,0.057-0.793,0.171
		c-0.24,0.108-0.436,0.213-0.584,0.315l-0.18-0.279c0.102-0.078,0.232-0.159,0.395-0.243c0.162-0.09,0.346-0.165,0.549-0.225
		c0.211-0.06,0.434-0.09,0.666-0.09c0.336,0,0.604,0.075,0.801,0.225c0.205,0.15,0.35,0.351,0.434,0.603
		c0.09,0.252,0.135,0.531,0.135,0.837v2.763h-0.342l-0.037-0.558h-0.027c-0.215,0.174-0.455,0.33-0.719,0.468
		C285.014,70.121,284.742,70.187,284.461,70.187z M284.533,69.836c0.246,0,0.482-0.057,0.711-0.171
		c0.234-0.12,0.486-0.294,0.756-0.522v-1.458c-0.594,0.066-1.064,0.159-1.412,0.279c-0.35,0.114-0.598,0.255-0.748,0.423
		s-0.225,0.366-0.225,0.594c0,0.306,0.09,0.525,0.27,0.657C284.07,69.77,284.287,69.836,284.533,69.836z M287.938,70.079v-4.32
		h0.342l0.035,0.666h0.027c0.223-0.222,0.451-0.405,0.684-0.549c0.24-0.15,0.508-0.225,0.801-0.225c0.451,0,0.781,0.138,0.99,0.414
		c0.211,0.27,0.316,0.684,0.316,1.242v2.772h-0.396v-2.718c0-0.462-0.078-0.801-0.234-1.017c-0.15-0.222-0.402-0.333-0.756-0.333
		c-0.258,0-0.492,0.069-0.701,0.207c-0.205,0.132-0.441,0.333-0.711,0.603v3.258H287.938z M294.158,70.187
		c-0.541,0-0.975-0.195-1.305-0.585c-0.324-0.39-0.486-0.948-0.486-1.674c0-0.468,0.086-0.87,0.262-1.206
		c0.18-0.342,0.414-0.606,0.701-0.792c0.293-0.186,0.611-0.279,0.953-0.279c0.266,0,0.496,0.045,0.693,0.135
		c0.199,0.09,0.402,0.222,0.613,0.396l-0.02-0.792v-1.782h0.396v6.471h-0.342l-0.035-0.558h-0.027
		c-0.174,0.174-0.381,0.33-0.621,0.468C294.707,70.121,294.445,70.187,294.158,70.187z M294.213,69.836
		c0.238,0,0.467-0.06,0.684-0.18c0.221-0.126,0.447-0.303,0.674-0.531V66.56c-0.227-0.204-0.439-0.348-0.639-0.432
		c-0.197-0.084-0.404-0.126-0.621-0.126c-0.287,0-0.545,0.084-0.773,0.252s-0.41,0.399-0.549,0.693
		c-0.133,0.288-0.199,0.615-0.199,0.981c0,0.57,0.123,1.032,0.369,1.386C293.404,69.662,293.756,69.836,294.213,69.836z
		 M300.559,70.079l-1.926-5.931h0.439l1.063,3.465c0.078,0.246,0.15,0.474,0.217,0.684s0.131,0.42,0.197,0.63
		c0.066,0.204,0.139,0.426,0.217,0.666h0.035c0.072-0.24,0.141-0.462,0.207-0.666c0.066-0.21,0.133-0.42,0.197-0.63
		c0.066-0.21,0.139-0.438,0.217-0.684l1.135-3.465h0.422l-1.98,5.931H300.559z M305.369,70.187c-0.373,0-0.709-0.09-1.008-0.27
		c-0.301-0.18-0.541-0.438-0.721-0.774c-0.18-0.342-0.27-0.747-0.27-1.215c0-0.474,0.09-0.879,0.27-1.215
		c0.18-0.342,0.412-0.603,0.693-0.783c0.287-0.186,0.594-0.279,0.918-0.279c0.342,0,0.637,0.078,0.883,0.234
		c0.252,0.156,0.443,0.384,0.576,0.684c0.131,0.294,0.197,0.654,0.197,1.08c0,0.048-0.004,0.102-0.01,0.162
		c0,0.054-0.006,0.111-0.018,0.171h-3.268V67.64h2.916c0-0.552-0.113-0.963-0.342-1.233c-0.227-0.276-0.537-0.414-0.926-0.414
		c-0.24,0-0.475,0.069-0.703,0.207c-0.229,0.138-0.416,0.351-0.566,0.639c-0.145,0.282-0.217,0.639-0.217,1.071
		c0,0.396,0.072,0.741,0.217,1.035c0.145,0.288,0.338,0.51,0.584,0.666c0.246,0.15,0.523,0.225,0.828,0.225
		c0.234,0,0.447-0.03,0.641-0.09c0.197-0.066,0.371-0.153,0.521-0.261l0.162,0.279c-0.168,0.114-0.357,0.213-0.568,0.297
		C305.951,70.145,305.688,70.187,305.369,70.187z M308.08,70.079v-4.32h0.344l0.035,0.801h0.027c0.137-0.264,0.309-0.48,0.512-0.648
		c0.211-0.174,0.447-0.261,0.713-0.261c0.076,0,0.148,0.006,0.215,0.018c0.072,0.012,0.145,0.036,0.217,0.072l-0.109,0.342
		c-0.059-0.018-0.115-0.03-0.17-0.036c-0.049-0.012-0.117-0.018-0.207-0.018c-0.191,0-0.396,0.084-0.611,0.252
		c-0.211,0.162-0.4,0.447-0.568,0.855v2.943H308.08z M312.426,70.187c-0.342,0-0.664-0.087-0.963-0.261
		c-0.295-0.18-0.531-0.438-0.711-0.774c-0.176-0.342-0.262-0.75-0.262-1.224c0-0.48,0.086-0.891,0.262-1.233
		c0.18-0.342,0.416-0.6,0.711-0.774c0.299-0.18,0.621-0.27,0.963-0.27c0.348,0,0.668,0.09,0.963,0.27
		c0.293,0.174,0.531,0.432,0.711,0.774c0.18,0.342,0.27,0.753,0.27,1.233c0,0.474-0.09,0.882-0.27,1.224
		c-0.18,0.336-0.418,0.594-0.711,0.774C313.094,70.1,312.773,70.187,312.426,70.187z M312.426,69.836
		c0.293,0,0.555-0.078,0.783-0.234c0.232-0.162,0.416-0.387,0.549-0.675c0.131-0.288,0.197-0.621,0.197-0.999
		s-0.066-0.711-0.197-0.999c-0.133-0.294-0.316-0.522-0.549-0.684c-0.229-0.162-0.49-0.243-0.783-0.243
		c-0.289,0-0.547,0.081-0.775,0.243c-0.227,0.162-0.41,0.39-0.549,0.684c-0.131,0.288-0.197,0.621-0.197,0.999
		s0.066,0.711,0.197,0.999c0.139,0.288,0.322,0.513,0.549,0.675C311.879,69.758,312.137,69.836,312.426,69.836z M315.666,70.079
		v-4.32h0.342l0.037,0.666h0.025c0.223-0.222,0.451-0.405,0.686-0.549c0.238-0.15,0.506-0.225,0.801-0.225
		c0.449,0,0.779,0.138,0.99,0.414c0.209,0.27,0.314,0.684,0.314,1.242v2.772h-0.396v-2.718c0-0.462-0.078-0.801-0.234-1.017
		c-0.15-0.222-0.402-0.333-0.756-0.333c-0.258,0-0.492,0.069-0.701,0.207c-0.205,0.132-0.441,0.333-0.711,0.603v3.258H315.666z
		 M320.455,70.079v-4.32h0.396v4.32H320.455z M320.645,64.715c-0.096,0-0.176-0.033-0.242-0.099c-0.066-0.072-0.1-0.162-0.1-0.27
		s0.033-0.192,0.1-0.252c0.066-0.066,0.146-0.099,0.242-0.099c0.102,0,0.184,0.033,0.244,0.099c0.064,0.06,0.098,0.144,0.098,0.252
		s-0.033,0.198-0.098,0.27C320.828,64.682,320.746,64.715,320.645,64.715z M324.115,70.187c-0.373,0-0.709-0.087-1.008-0.261
		c-0.295-0.18-0.529-0.438-0.703-0.774c-0.168-0.342-0.252-0.75-0.252-1.224c0-0.48,0.09-0.891,0.271-1.233
		c0.186-0.342,0.428-0.6,0.729-0.774c0.299-0.18,0.623-0.27,0.971-0.27c0.301,0,0.551,0.051,0.748,0.153
		c0.197,0.096,0.371,0.222,0.521,0.378l-0.215,0.243c-0.127-0.132-0.277-0.234-0.451-0.306c-0.174-0.078-0.371-0.117-0.594-0.117
		c-0.293,0-0.559,0.081-0.791,0.243c-0.234,0.162-0.424,0.387-0.568,0.675c-0.137,0.288-0.207,0.624-0.207,1.008
		c0,0.378,0.064,0.711,0.189,0.999c0.133,0.288,0.314,0.513,0.549,0.675c0.234,0.156,0.51,0.234,0.828,0.234
		c0.234,0,0.451-0.042,0.648-0.126c0.197-0.09,0.365-0.207,0.504-0.351l0.207,0.243c-0.18,0.174-0.385,0.315-0.611,0.423
		C324.652,70.133,324.396,70.187,324.115,70.187z M327.412,70.187c-0.227,0-0.438-0.042-0.629-0.126
		c-0.186-0.084-0.336-0.213-0.449-0.387c-0.115-0.18-0.172-0.402-0.172-0.666c0-0.486,0.225-0.852,0.676-1.098
		c0.449-0.252,1.154-0.432,2.113-0.54c0-0.222-0.025-0.438-0.08-0.648c-0.049-0.21-0.146-0.381-0.297-0.513
		c-0.145-0.138-0.359-0.207-0.648-0.207c-0.287,0-0.553,0.057-0.791,0.171c-0.24,0.108-0.436,0.213-0.586,0.315l-0.18-0.279
		c0.102-0.078,0.234-0.159,0.396-0.243c0.162-0.09,0.344-0.165,0.549-0.225c0.209-0.06,0.432-0.09,0.666-0.09
		c0.336,0,0.604,0.075,0.801,0.225c0.203,0.15,0.348,0.351,0.432,0.603c0.09,0.252,0.135,0.531,0.135,0.837v2.763h-0.342
		l-0.035-0.558h-0.027c-0.217,0.174-0.457,0.33-0.721,0.468C327.965,70.121,327.695,70.187,327.412,70.187z M327.484,69.836
		c0.246,0,0.484-0.057,0.711-0.171c0.234-0.12,0.486-0.294,0.756-0.522v-1.458c-0.594,0.066-1.064,0.159-1.412,0.279
		c-0.348,0.114-0.598,0.255-0.746,0.423c-0.15,0.168-0.227,0.366-0.227,0.594c0,0.306,0.09,0.525,0.271,0.657
		C327.023,69.77,327.238,69.836,327.484,69.836z M53.367,86.188c-0.342,0-0.663-0.088-0.963-0.262
		c-0.294-0.18-0.531-0.438-0.711-0.773c-0.174-0.342-0.261-0.75-0.261-1.225c0-0.479,0.087-0.891,0.261-1.232
		c0.18-0.342,0.417-0.6,0.711-0.774c0.3-0.18,0.621-0.27,0.963-0.27c0.348,0,0.669,0.09,0.963,0.27
		c0.294,0.175,0.531,0.433,0.711,0.774c0.18,0.342,0.27,0.753,0.27,1.232c0,0.475-0.09,0.883-0.27,1.225
		c-0.18,0.336-0.417,0.594-0.711,0.773C54.036,86.1,53.715,86.188,53.367,86.188z M53.367,85.836c0.294,0,0.555-0.078,0.783-0.234
		c0.234-0.162,0.417-0.387,0.549-0.674c0.132-0.289,0.198-0.621,0.198-1c0-0.377-0.066-0.711-0.198-0.998
		c-0.132-0.295-0.315-0.522-0.549-0.685c-0.228-0.162-0.489-0.243-0.783-0.243c-0.288,0-0.546,0.081-0.774,0.243
		s-0.411,0.39-0.549,0.685c-0.132,0.287-0.198,0.621-0.198,0.998c0,0.379,0.066,0.711,0.198,1c0.138,0.287,0.321,0.512,0.549,0.674
		C52.821,85.758,53.08,85.836,53.367,85.836z M57.851,86.188c-0.444,0-0.774-0.135-0.99-0.405c-0.21-0.276-0.315-0.693-0.315-1.251
		V81.76h0.396v2.717c0,0.457,0.078,0.795,0.234,1.018c0.156,0.223,0.405,0.333,0.747,0.333c0.258,0,0.492-0.069,0.702-0.207
		c0.21-0.144,0.441-0.369,0.693-0.675V81.76h0.396v4.319h-0.333l-0.045-0.72h-0.018c-0.21,0.246-0.432,0.447-0.666,0.603
		C58.418,86.112,58.151,86.188,57.851,86.188z M62.551,86.151c-0.42,0-0.705-0.12-0.855-0.36s-0.225-0.552-0.225-0.936v-2.754
		h-0.675v-0.307l0.684-0.035l0.054-1.432h0.342v1.432h1.251v0.342h-1.251v2.78c0,0.276,0.048,0.501,0.144,0.675
		c0.096,0.168,0.291,0.252,0.585,0.252c0.084,0,0.168-0.008,0.252-0.026c0.09-0.024,0.186-0.06,0.288-0.108l0.126,0.279
		c-0.114,0.061-0.234,0.107-0.36,0.145C62.786,86.133,62.666,86.151,62.551,86.151z M65.132,86.188
		c-0.336,0-0.639-0.055-0.909-0.162c-0.264-0.108-0.489-0.256-0.675-0.441l0.216-0.252c0.18,0.156,0.375,0.282,0.585,0.378
		c0.216,0.091,0.486,0.136,0.81,0.136c0.336,0,0.591-0.084,0.765-0.252c0.174-0.175,0.261-0.375,0.261-0.604
		c0-0.18-0.054-0.327-0.162-0.441c-0.102-0.119-0.234-0.219-0.396-0.297c-0.162-0.084-0.327-0.156-0.495-0.216
		c-0.222-0.078-0.435-0.165-0.639-0.261c-0.204-0.103-0.372-0.229-0.504-0.379c-0.132-0.155-0.198-0.354-0.198-0.594
		c0-0.317,0.12-0.588,0.36-0.81c0.24-0.228,0.582-0.342,1.026-0.342c0.246,0,0.474,0.042,0.684,0.126
		c0.216,0.084,0.402,0.191,0.558,0.324l-0.216,0.242c-0.144-0.102-0.297-0.186-0.459-0.252c-0.162-0.065-0.354-0.099-0.576-0.099
		c-0.336,0-0.585,0.081-0.747,0.243c-0.156,0.162-0.234,0.342-0.234,0.54c0,0.161,0.045,0.297,0.135,0.405
		c0.096,0.102,0.219,0.188,0.369,0.26c0.15,0.072,0.312,0.142,0.486,0.207c0.228,0.091,0.45,0.184,0.666,0.279
		c0.222,0.096,0.402,0.226,0.54,0.387c0.138,0.156,0.207,0.375,0.207,0.658c0,0.215-0.057,0.416-0.171,0.603
		c-0.108,0.18-0.273,0.327-0.495,0.44C65.708,86.13,65.444,86.188,65.132,86.188z M67.736,86.079v-6.472h0.396v1.873v0.953
		c0.222-0.222,0.453-0.407,0.693-0.558c0.24-0.149,0.507-0.225,0.801-0.225c0.45,0,0.78,0.138,0.99,0.413
		c0.21,0.271,0.315,0.685,0.315,1.242v2.772h-0.396v-2.718c0-0.463-0.078-0.801-0.234-1.018c-0.15-0.222-0.402-0.332-0.756-0.332
		c-0.258,0-0.492,0.068-0.702,0.207c-0.204,0.131-0.441,0.332-0.711,0.603v3.258H67.736z M72.491,86.079V81.76h0.396v4.319H72.491z
		 M72.68,80.715c-0.096,0-0.177-0.033-0.243-0.099c-0.066-0.072-0.099-0.162-0.099-0.271c0-0.107,0.033-0.191,0.099-0.252
		c0.066-0.065,0.147-0.099,0.243-0.099c0.102,0,0.183,0.033,0.243,0.099c0.066,0.061,0.099,0.145,0.099,0.252
		c0,0.108-0.033,0.198-0.099,0.271C72.863,80.682,72.782,80.715,72.68,80.715z M74.547,86.079V81.76h0.342l0.036,0.666h0.027
		c0.222-0.223,0.45-0.406,0.684-0.55c0.24-0.149,0.507-0.225,0.801-0.225c0.45,0,0.78,0.138,0.99,0.413
		c0.21,0.271,0.315,0.685,0.315,1.242v2.772h-0.396v-2.718c0-0.463-0.078-0.801-0.234-1.018c-0.15-0.222-0.402-0.332-0.756-0.332
		c-0.258,0-0.492,0.068-0.702,0.207c-0.204,0.131-0.441,0.332-0.711,0.603v3.258H74.547z M80.975,86.188
		c-0.372,0-0.708-0.09-1.008-0.271c-0.3-0.18-0.54-0.438-0.72-0.774c-0.18-0.342-0.27-0.746-0.27-1.215
		c0-0.474,0.09-0.879,0.27-1.215c0.18-0.342,0.411-0.603,0.693-0.783c0.288-0.186,0.594-0.278,0.918-0.278
		c0.342,0,0.636,0.077,0.882,0.233c0.252,0.156,0.444,0.385,0.576,0.685c0.132,0.294,0.198,0.653,0.198,1.079
		c0,0.049-0.003,0.103-0.009,0.162c0,0.055-0.006,0.111-0.018,0.172H79.22v-0.342h2.916c0-0.553-0.114-0.963-0.342-1.233
		c-0.228-0.276-0.537-0.414-0.927-0.414c-0.24,0-0.474,0.069-0.702,0.207s-0.417,0.351-0.567,0.639
		c-0.144,0.282-0.216,0.64-0.216,1.071c0,0.396,0.072,0.741,0.216,1.035c0.144,0.287,0.339,0.51,0.585,0.666
		c0.246,0.15,0.522,0.225,0.828,0.225c0.234,0,0.447-0.029,0.639-0.09c0.198-0.066,0.372-0.152,0.522-0.261l0.162,0.278
		c-0.168,0.114-0.357,0.213-0.567,0.297S81.293,86.188,80.975,86.188z M84.732,86.188c-0.336,0-0.639-0.055-0.909-0.162
		c-0.264-0.108-0.489-0.256-0.675-0.441l0.216-0.252c0.18,0.156,0.375,0.282,0.585,0.378c0.216,0.091,0.486,0.136,0.81,0.136
		c0.336,0,0.591-0.084,0.765-0.252c0.174-0.175,0.261-0.375,0.261-0.604c0-0.18-0.054-0.327-0.162-0.441
		c-0.102-0.119-0.234-0.219-0.396-0.297c-0.162-0.084-0.327-0.156-0.495-0.216c-0.222-0.078-0.435-0.165-0.639-0.261
		c-0.204-0.103-0.372-0.229-0.504-0.379c-0.132-0.155-0.198-0.354-0.198-0.594c0-0.317,0.12-0.588,0.36-0.81
		c0.24-0.228,0.582-0.342,1.026-0.342c0.246,0,0.474,0.042,0.684,0.126c0.216,0.084,0.402,0.191,0.558,0.324l-0.216,0.242
		c-0.144-0.102-0.297-0.186-0.459-0.252c-0.162-0.065-0.354-0.099-0.576-0.099c-0.336,0-0.585,0.081-0.747,0.243
		c-0.156,0.162-0.234,0.342-0.234,0.54c0,0.161,0.045,0.297,0.135,0.405c0.096,0.102,0.219,0.188,0.369,0.26
		c0.15,0.072,0.312,0.142,0.486,0.207c0.228,0.091,0.45,0.184,0.666,0.279c0.222,0.096,0.402,0.226,0.54,0.387
		c0.138,0.156,0.207,0.375,0.207,0.658c0,0.215-0.057,0.416-0.171,0.603c-0.108,0.18-0.273,0.327-0.495,0.44
		C85.308,86.13,85.044,86.188,84.732,86.188z M90.316,86.151c-0.42,0-0.705-0.12-0.855-0.36s-0.225-0.552-0.225-0.936v-2.754h-0.675
		v-0.307l0.684-0.035l0.054-1.432h0.342v1.432h1.251v0.342h-1.251v2.78c0,0.276,0.048,0.501,0.144,0.675
		c0.096,0.168,0.291,0.252,0.585,0.252c0.084,0,0.168-0.008,0.252-0.026c0.09-0.024,0.186-0.06,0.288-0.108l0.126,0.279
		c-0.114,0.061-0.234,0.107-0.36,0.145C90.55,86.133,90.43,86.151,90.316,86.151z M91.941,86.079v-6.472h0.396v1.873v0.953
		c0.222-0.222,0.453-0.407,0.693-0.558c0.24-0.149,0.507-0.225,0.801-0.225c0.45,0,0.78,0.138,0.99,0.413
		c0.21,0.271,0.315,0.685,0.315,1.242v2.772H94.74v-2.718c0-0.463-0.078-0.801-0.234-1.018c-0.15-0.222-0.402-0.332-0.756-0.332
		c-0.258,0-0.492,0.068-0.702,0.207c-0.204,0.131-0.441,0.332-0.711,0.603v3.258H91.941z M98.333,86.188
		c-0.372,0-0.708-0.09-1.008-0.271c-0.3-0.18-0.54-0.438-0.72-0.774c-0.18-0.342-0.27-0.746-0.27-1.215
		c0-0.474,0.09-0.879,0.27-1.215c0.18-0.342,0.411-0.603,0.693-0.783c0.288-0.186,0.594-0.278,0.918-0.278
		c0.342,0,0.636,0.077,0.882,0.233c0.252,0.156,0.444,0.385,0.576,0.685c0.132,0.294,0.198,0.653,0.198,1.079
		c0,0.049-0.003,0.103-0.009,0.162c0,0.055-0.006,0.111-0.018,0.172h-3.267v-0.342h2.916c0-0.553-0.114-0.963-0.342-1.233
		c-0.228-0.276-0.537-0.414-0.927-0.414c-0.24,0-0.474,0.069-0.702,0.207s-0.417,0.351-0.567,0.639
		c-0.144,0.282-0.216,0.64-0.216,1.071c0,0.396,0.072,0.741,0.216,1.035c0.144,0.287,0.339,0.51,0.585,0.666
		c0.246,0.15,0.522,0.225,0.828,0.225c0.234,0,0.447-0.029,0.639-0.09c0.198-0.066,0.372-0.152,0.522-0.261l0.162,0.278
		c-0.168,0.114-0.357,0.213-0.567,0.297S98.652,86.188,98.333,86.188z M101.046,86.079V81.76h0.342l0.036,0.666h0.027
		c0.192-0.223,0.405-0.406,0.639-0.55c0.24-0.149,0.48-0.225,0.72-0.225c0.354,0,0.621,0.081,0.801,0.243
		c0.186,0.156,0.318,0.369,0.396,0.639c0.246-0.276,0.489-0.492,0.729-0.648c0.246-0.156,0.492-0.233,0.738-0.233
		c0.432,0,0.756,0.138,0.972,0.413c0.216,0.271,0.324,0.685,0.324,1.242v2.772h-0.405v-2.718c0-0.463-0.078-0.801-0.234-1.018
		c-0.15-0.222-0.393-0.332-0.729-0.332c-0.204,0-0.411,0.068-0.621,0.207c-0.21,0.131-0.435,0.332-0.675,0.603v3.258h-0.396v-2.718
		c0-0.463-0.078-0.801-0.234-1.018c-0.156-0.222-0.402-0.332-0.738-0.332c-0.384,0-0.816,0.27-1.296,0.81v3.258H101.046z
		 M111.097,86.188c-0.228,0-0.438-0.043-0.63-0.127c-0.186-0.084-0.336-0.213-0.45-0.387c-0.114-0.18-0.171-0.402-0.171-0.666
		c0-0.486,0.225-0.852,0.675-1.098c0.45-0.252,1.155-0.432,2.115-0.54c0-0.222-0.027-0.438-0.081-0.647
		c-0.048-0.211-0.147-0.381-0.297-0.514c-0.144-0.138-0.36-0.207-0.648-0.207s-0.552,0.057-0.792,0.171
		c-0.24,0.108-0.435,0.214-0.585,0.315l-0.18-0.279c0.102-0.078,0.234-0.158,0.396-0.242c0.162-0.091,0.345-0.166,0.549-0.226
		c0.21-0.06,0.432-0.09,0.666-0.09c0.336,0,0.603,0.075,0.801,0.225c0.204,0.15,0.348,0.351,0.432,0.603
		c0.09,0.252,0.135,0.531,0.135,0.838v2.763h-0.342l-0.036-0.558h-0.027c-0.216,0.174-0.456,0.33-0.72,0.468
		C111.649,86.121,111.379,86.188,111.097,86.188z M111.169,85.836c0.246,0,0.483-0.057,0.711-0.171
		c0.234-0.12,0.486-0.294,0.756-0.522v-1.457c-0.594,0.065-1.065,0.158-1.413,0.278c-0.348,0.114-0.597,0.255-0.747,0.423
		s-0.225,0.366-0.225,0.594c0,0.307,0.09,0.525,0.27,0.658C110.707,85.77,110.923,85.836,111.169,85.836z M115.104,86.151
		c-0.12,0-0.219-0.024-0.297-0.072s-0.138-0.123-0.18-0.226c-0.036-0.102-0.054-0.23-0.054-0.387v-5.859h0.396v5.914
		c0,0.102,0.018,0.174,0.054,0.216c0.042,0.042,0.093,0.063,0.153,0.063c0.018,0,0.036,0,0.054,0
		c0.024-0.007,0.054-0.013,0.09-0.019l0.072,0.315c-0.042,0.018-0.087,0.029-0.135,0.035
		C115.215,86.145,115.164,86.151,115.104,86.151z M117.239,86.151c-0.12,0-0.219-0.024-0.297-0.072s-0.138-0.123-0.18-0.226
		c-0.036-0.102-0.054-0.23-0.054-0.387v-5.859h0.396v5.914c0,0.102,0.018,0.174,0.054,0.216c0.042,0.042,0.093,0.063,0.153,0.063
		c0.018,0,0.036,0,0.054,0c0.024-0.007,0.054-0.013,0.09-0.019l0.072,0.315c-0.042,0.018-0.087,0.029-0.135,0.035
		C117.35,86.145,117.299,86.151,117.239,86.151z M119.006,86.188c-0.096,0-0.186-0.036-0.27-0.108
		c-0.078-0.072-0.117-0.171-0.117-0.297c0-0.132,0.039-0.234,0.117-0.306c0.084-0.072,0.174-0.108,0.27-0.108
		c0.102,0,0.189,0.036,0.261,0.108c0.078,0.071,0.117,0.174,0.117,0.306c0,0.126-0.039,0.225-0.117,0.297
		C119.195,86.151,119.108,86.188,119.006,86.188z M124.461,86.079v-5.931h0.414v5.931H124.461z M129.046,86.079l-1.278-4.319h0.432
		l0.774,2.799c0.054,0.197,0.105,0.39,0.153,0.576c0.054,0.186,0.102,0.381,0.144,0.584h0.036c0.048-0.203,0.099-0.398,0.153-0.584
		c0.054-0.187,0.105-0.379,0.153-0.576l0.783-2.799h0.495l0.783,2.799c0.054,0.197,0.105,0.39,0.153,0.576
		c0.054,0.186,0.108,0.381,0.162,0.584h0.036c0.048-0.203,0.096-0.398,0.144-0.584c0.054-0.187,0.108-0.379,0.162-0.576l0.765-2.799
		h0.405l-1.242,4.319h-0.531l-0.756-2.683c-0.054-0.209-0.108-0.414-0.162-0.611c-0.048-0.204-0.102-0.414-0.162-0.63h-0.036
		c-0.048,0.216-0.099,0.429-0.153,0.639c-0.054,0.204-0.114,0.411-0.18,0.621l-0.738,2.664H129.046z M136.107,86.188
		c-0.342,0-0.663-0.088-0.963-0.262c-0.294-0.18-0.531-0.438-0.711-0.773c-0.174-0.342-0.261-0.75-0.261-1.225
		c0-0.479,0.087-0.891,0.261-1.232c0.18-0.342,0.417-0.6,0.711-0.774c0.3-0.18,0.621-0.27,0.963-0.27c0.348,0,0.669,0.09,0.963,0.27
		c0.294,0.175,0.531,0.433,0.711,0.774c0.18,0.342,0.27,0.753,0.27,1.232c0,0.475-0.09,0.883-0.27,1.225
		c-0.18,0.336-0.417,0.594-0.711,0.773C136.777,86.1,136.456,86.188,136.107,86.188z M136.107,85.836
		c0.294,0,0.555-0.078,0.783-0.234c0.234-0.162,0.417-0.387,0.549-0.674c0.132-0.289,0.198-0.621,0.198-1
		c0-0.377-0.066-0.711-0.198-0.998c-0.132-0.295-0.315-0.522-0.549-0.685c-0.228-0.162-0.489-0.243-0.783-0.243
		c-0.288,0-0.546,0.081-0.774,0.243s-0.411,0.39-0.549,0.685c-0.132,0.287-0.198,0.621-0.198,0.998c0,0.379,0.066,0.711,0.198,1
		c0.138,0.287,0.321,0.512,0.549,0.674C135.562,85.758,135.82,85.836,136.107,85.836z M140.591,86.188
		c-0.444,0-0.774-0.135-0.99-0.405c-0.21-0.276-0.315-0.693-0.315-1.251V81.76h0.396v2.717c0,0.457,0.078,0.795,0.234,1.018
		c0.156,0.223,0.405,0.333,0.747,0.333c0.258,0,0.492-0.069,0.702-0.207c0.21-0.144,0.441-0.369,0.693-0.675V81.76h0.396v4.319
		h-0.333l-0.045-0.72h-0.018c-0.21,0.246-0.432,0.447-0.666,0.603C141.158,86.112,140.891,86.188,140.591,86.188z M144.644,86.151
		c-0.12,0-0.219-0.024-0.297-0.072c-0.078-0.048-0.138-0.123-0.18-0.226c-0.036-0.102-0.054-0.23-0.054-0.387v-5.859h0.396v5.914
		c0,0.102,0.018,0.174,0.054,0.216c0.042,0.042,0.093,0.063,0.153,0.063c0.018,0,0.036,0,0.054,0
		c0.024-0.007,0.054-0.013,0.09-0.019l0.072,0.315c-0.042,0.018-0.087,0.029-0.135,0.035
		C144.755,86.145,144.704,86.151,144.644,86.151z M147.679,86.188c-0.54,0-0.975-0.195-1.305-0.586
		c-0.324-0.39-0.486-0.947-0.486-1.674c0-0.468,0.087-0.869,0.261-1.205c0.18-0.343,0.414-0.606,0.702-0.793
		c0.294-0.186,0.612-0.278,0.954-0.278c0.264,0,0.495,0.045,0.693,0.135c0.198,0.09,0.402,0.222,0.612,0.396l-0.018-0.791v-1.783
		h0.396v6.472h-0.342l-0.036-0.558h-0.027c-0.174,0.174-0.381,0.33-0.621,0.468C148.228,86.121,147.967,86.188,147.679,86.188z
		 M147.733,85.836c0.24,0,0.468-0.06,0.684-0.18c0.222-0.126,0.447-0.303,0.675-0.531v-2.564c-0.228-0.205-0.441-0.349-0.639-0.433
		c-0.198-0.084-0.405-0.126-0.621-0.126c-0.288,0-0.546,0.084-0.774,0.252s-0.411,0.399-0.549,0.693
		c-0.132,0.288-0.198,0.615-0.198,0.98c0,0.57,0.123,1.032,0.369,1.387C146.926,85.662,147.277,85.836,147.733,85.836z
		 M154.377,86.188c-0.54,0-0.975-0.195-1.305-0.586c-0.324-0.39-0.486-0.947-0.486-1.674c0-0.468,0.087-0.869,0.261-1.205
		c0.18-0.343,0.414-0.606,0.702-0.793c0.294-0.186,0.612-0.278,0.954-0.278c0.264,0,0.495,0.045,0.693,0.135
		c0.198,0.09,0.402,0.222,0.612,0.396l-0.018-0.791v-1.783h0.396v6.472h-0.342l-0.036-0.558h-0.027
		c-0.174,0.174-0.381,0.33-0.621,0.468C154.926,86.121,154.665,86.188,154.377,86.188z M154.431,85.836
		c0.24,0,0.468-0.06,0.684-0.18c0.222-0.126,0.447-0.303,0.675-0.531v-2.564c-0.228-0.205-0.441-0.349-0.639-0.433
		c-0.198-0.084-0.405-0.126-0.621-0.126c-0.288,0-0.546,0.084-0.774,0.252s-0.411,0.399-0.549,0.693
		c-0.132,0.288-0.198,0.615-0.198,0.98c0,0.57,0.123,1.032,0.369,1.387C153.624,85.662,153.975,85.836,154.431,85.836z
		 M159.479,86.188c-0.372,0-0.708-0.09-1.008-0.271c-0.3-0.18-0.54-0.438-0.72-0.774c-0.18-0.342-0.27-0.746-0.27-1.215
		c0-0.474,0.09-0.879,0.27-1.215c0.18-0.342,0.411-0.603,0.693-0.783c0.288-0.186,0.594-0.278,0.918-0.278
		c0.342,0,0.636,0.077,0.882,0.233c0.252,0.156,0.444,0.385,0.576,0.685c0.132,0.294,0.198,0.653,0.198,1.079
		c0,0.049-0.003,0.103-0.009,0.162c0,0.055-0.006,0.111-0.018,0.172h-3.267v-0.342h2.916c0-0.553-0.114-0.963-0.342-1.233
		c-0.228-0.276-0.537-0.414-0.927-0.414c-0.24,0-0.474,0.069-0.702,0.207s-0.417,0.351-0.567,0.639
		c-0.144,0.282-0.216,0.64-0.216,1.071c0,0.396,0.072,0.741,0.216,1.035c0.144,0.287,0.339,0.51,0.585,0.666
		c0.246,0.15,0.522,0.225,0.828,0.225c0.234,0,0.447-0.029,0.639-0.09c0.198-0.066,0.372-0.152,0.522-0.261l0.162,0.278
		c-0.168,0.114-0.357,0.213-0.567,0.297S159.797,86.188,159.479,86.188z M162.246,86.079v-5.121c0-0.3,0.045-0.552,0.135-0.756
		c0.096-0.204,0.231-0.356,0.405-0.459c0.174-0.103,0.384-0.153,0.63-0.153c0.114,0,0.234,0.016,0.36,0.045
		c0.132,0.024,0.255,0.063,0.369,0.117l-0.108,0.324c-0.108-0.055-0.213-0.09-0.315-0.107c-0.096-0.024-0.198-0.037-0.306-0.037
		c-0.252,0-0.444,0.094-0.576,0.279c-0.132,0.18-0.198,0.438-0.198,0.774v5.094H162.246z M164.649,86.079v-5.283
		c0-0.288,0.042-0.528,0.126-0.72s0.204-0.336,0.36-0.432c0.156-0.097,0.348-0.145,0.576-0.145c0.102,0,0.207,0.012,0.315,0.036
		c0.114,0.024,0.219,0.06,0.315,0.108l-0.108,0.324c-0.084-0.049-0.171-0.082-0.261-0.1c-0.084-0.018-0.168-0.027-0.252-0.027
		c-0.228,0-0.399,0.088-0.513,0.262c-0.108,0.168-0.162,0.408-0.162,0.72v5.256H164.649z M161.607,82.102v-0.307l0.639-0.035h3.798
		v0.342H161.607z M168.443,86.188c-0.342,0-0.663-0.088-0.963-0.262c-0.294-0.18-0.531-0.438-0.711-0.773
		c-0.174-0.342-0.261-0.75-0.261-1.225c0-0.479,0.087-0.891,0.261-1.232c0.18-0.342,0.417-0.6,0.711-0.774
		c0.3-0.18,0.621-0.27,0.963-0.27c0.348,0,0.669,0.09,0.963,0.27c0.294,0.175,0.531,0.433,0.711,0.774
		c0.18,0.342,0.27,0.753,0.27,1.232c0,0.475-0.09,0.883-0.27,1.225c-0.18,0.336-0.417,0.594-0.711,0.773
		C169.112,86.1,168.791,86.188,168.443,86.188z M168.443,85.836c0.294,0,0.555-0.078,0.783-0.234
		c0.234-0.162,0.417-0.387,0.549-0.674c0.132-0.289,0.198-0.621,0.198-1c0-0.377-0.066-0.711-0.198-0.998
		c-0.132-0.295-0.315-0.522-0.549-0.685c-0.228-0.162-0.489-0.243-0.783-0.243c-0.288,0-0.546,0.081-0.774,0.243
		s-0.411,0.39-0.549,0.685c-0.132,0.287-0.198,0.621-0.198,0.998c0,0.379,0.066,0.711,0.198,1c0.138,0.287,0.321,0.512,0.549,0.674
		C167.897,85.758,168.155,85.836,168.443,85.836z M173.486,86.079v-6.472h0.396v1.873v0.953c0.222-0.222,0.453-0.407,0.693-0.558
		c0.24-0.149,0.507-0.225,0.801-0.225c0.45,0,0.78,0.138,0.99,0.413c0.21,0.271,0.315,0.685,0.315,1.242v2.772h-0.396v-2.718
		c0-0.463-0.078-0.801-0.234-1.018c-0.15-0.222-0.402-0.332-0.756-0.332c-0.258,0-0.492,0.068-0.702,0.207
		c-0.204,0.131-0.441,0.332-0.711,0.603v3.258H173.486z M178.241,86.079V81.76h0.396v4.319H178.241z M178.43,80.715
		c-0.096,0-0.177-0.033-0.243-0.099c-0.066-0.072-0.099-0.162-0.099-0.271c0-0.107,0.033-0.191,0.099-0.252
		c0.066-0.065,0.147-0.099,0.243-0.099c0.102,0,0.183,0.033,0.243,0.099c0.066,0.061,0.099,0.145,0.099,0.252
		c0,0.108-0.033,0.198-0.099,0.271C178.613,80.682,178.532,80.715,178.43,80.715z M180.297,86.079V81.76h0.342l0.036,0.801h0.027
		c0.138-0.265,0.309-0.48,0.513-0.648c0.21-0.174,0.447-0.261,0.711-0.261c0.078,0,0.15,0.006,0.216,0.018
		c0.072,0.013,0.144,0.036,0.216,0.072l-0.108,0.342c-0.06-0.019-0.117-0.03-0.171-0.036c-0.048-0.012-0.117-0.018-0.207-0.018
		c-0.192,0-0.396,0.084-0.612,0.252c-0.21,0.162-0.399,0.447-0.567,0.855v2.942H180.297z M184.704,86.188
		c-0.372,0-0.708-0.09-1.008-0.271c-0.3-0.18-0.54-0.438-0.72-0.774c-0.18-0.342-0.27-0.746-0.27-1.215
		c0-0.474,0.09-0.879,0.27-1.215c0.18-0.342,0.411-0.603,0.693-0.783c0.288-0.186,0.594-0.278,0.918-0.278
		c0.342,0,0.636,0.077,0.882,0.233c0.252,0.156,0.444,0.385,0.576,0.685c0.132,0.294,0.198,0.653,0.198,1.079
		c0,0.049-0.003,0.103-0.009,0.162c0,0.055-0.006,0.111-0.018,0.172h-3.267v-0.342h2.916c0-0.553-0.114-0.963-0.342-1.233
		c-0.228-0.276-0.537-0.414-0.927-0.414c-0.24,0-0.474,0.069-0.702,0.207s-0.417,0.351-0.567,0.639
		c-0.144,0.282-0.216,0.64-0.216,1.071c0,0.396,0.072,0.741,0.216,1.035c0.144,0.287,0.339,0.51,0.585,0.666
		c0.246,0.15,0.522,0.225,0.828,0.225c0.234,0,0.447-0.029,0.639-0.09c0.198-0.066,0.372-0.152,0.522-0.261l0.162,0.278
		c-0.168,0.114-0.357,0.213-0.567,0.297S185.022,86.188,184.704,86.188z M190.163,86.188c-0.228,0-0.438-0.043-0.63-0.127
		c-0.186-0.084-0.336-0.213-0.45-0.387c-0.114-0.18-0.171-0.402-0.171-0.666c0-0.486,0.225-0.852,0.675-1.098
		c0.45-0.252,1.155-0.432,2.115-0.54c0-0.222-0.027-0.438-0.081-0.647c-0.048-0.211-0.146-0.381-0.297-0.514
		c-0.145-0.138-0.36-0.207-0.648-0.207c-0.287,0-0.552,0.057-0.791,0.171c-0.24,0.108-0.436,0.214-0.586,0.315l-0.18-0.279
		c0.102-0.078,0.234-0.158,0.396-0.242c0.162-0.091,0.344-0.166,0.549-0.226c0.209-0.06,0.432-0.09,0.666-0.09
		c0.336,0,0.603,0.075,0.801,0.225c0.203,0.15,0.348,0.351,0.432,0.603c0.09,0.252,0.135,0.531,0.135,0.838v2.763h-0.342
		l-0.035-0.558h-0.027c-0.217,0.174-0.457,0.33-0.721,0.468C190.715,86.121,190.445,86.188,190.163,86.188z M190.234,85.836
		c0.246,0,0.484-0.057,0.711-0.171c0.234-0.12,0.486-0.294,0.757-0.522v-1.457c-0.595,0.065-1.065,0.158-1.413,0.278
		c-0.348,0.114-0.598,0.255-0.747,0.423s-0.226,0.366-0.226,0.594c0,0.307,0.091,0.525,0.271,0.658
		C189.773,85.77,189.989,85.836,190.234,85.836z M195.053,88.158c-0.367,0-0.682-0.051-0.945-0.153
		c-0.264-0.096-0.469-0.233-0.612-0.413c-0.144-0.175-0.216-0.385-0.216-0.631c0-0.191,0.057-0.378,0.171-0.558
		c0.114-0.181,0.271-0.343,0.468-0.486v-0.036c-0.107-0.066-0.197-0.156-0.27-0.27c-0.072-0.114-0.108-0.256-0.108-0.424
		c0-0.191,0.054-0.354,0.162-0.485c0.108-0.138,0.21-0.24,0.306-0.306V84.36c-0.132-0.12-0.255-0.282-0.369-0.486
		c-0.113-0.21-0.17-0.444-0.17-0.702c0-0.294,0.065-0.555,0.197-0.783c0.139-0.233,0.32-0.414,0.549-0.539
		c0.234-0.133,0.492-0.198,0.774-0.198c0.12,0,0.228,0.012,0.323,0.036c0.103,0.018,0.184,0.041,0.244,0.072h1.467v0.332h-1.008
		v0.036c0.131,0.108,0.242,0.249,0.332,0.423c0.096,0.174,0.145,0.385,0.145,0.631c0,0.293-0.069,0.555-0.207,0.782
		c-0.133,0.228-0.313,0.408-0.54,0.54c-0.222,0.133-0.474,0.198-0.756,0.198c-0.126,0-0.253-0.015-0.378-0.045
		c-0.127-0.036-0.24-0.081-0.342-0.136c-0.09,0.072-0.172,0.16-0.244,0.262c-0.071,0.096-0.107,0.216-0.107,0.359
		c0,0.156,0.057,0.291,0.171,0.405c0.12,0.108,0.339,0.162,0.657,0.162h0.927c0.486,0,0.843,0.081,1.071,0.243
		c0.234,0.156,0.352,0.404,0.352,0.747c0,0.246-0.084,0.479-0.252,0.702c-0.169,0.222-0.406,0.402-0.712,0.539
		C195.826,88.086,195.466,88.158,195.053,88.158z M194.989,84.387c0.198,0,0.381-0.051,0.549-0.152
		c0.168-0.103,0.303-0.243,0.405-0.424c0.107-0.186,0.162-0.398,0.162-0.639c0-0.371-0.111-0.662-0.334-0.873
		c-0.215-0.216-0.477-0.324-0.782-0.324s-0.57,0.108-0.792,0.324c-0.223,0.211-0.333,0.502-0.333,0.873
		c0,0.24,0.051,0.453,0.153,0.639c0.107,0.181,0.246,0.321,0.414,0.424C194.6,84.336,194.785,84.387,194.989,84.387z
		 M195.098,87.834c0.323,0,0.603-0.054,0.836-0.162c0.24-0.102,0.426-0.236,0.559-0.404c0.132-0.168,0.197-0.342,0.197-0.522
		c0-0.24-0.086-0.411-0.26-0.513c-0.168-0.096-0.414-0.145-0.738-0.145h-0.928c-0.041,0-0.113-0.006-0.216-0.018
		s-0.21-0.03-0.323-0.055c-0.199,0.133-0.343,0.276-0.433,0.433c-0.09,0.162-0.135,0.321-0.135,0.478
		c0,0.27,0.126,0.488,0.378,0.656S194.641,87.834,195.098,87.834z M198.838,86.188c-0.229,0-0.438-0.043-0.63-0.127
		c-0.187-0.084-0.336-0.213-0.45-0.387c-0.113-0.18-0.171-0.402-0.171-0.666c0-0.486,0.226-0.852,0.675-1.098
		c0.45-0.252,1.155-0.432,2.115-0.54c0-0.222-0.027-0.438-0.081-0.647c-0.048-0.211-0.147-0.381-0.297-0.514
		c-0.144-0.138-0.36-0.207-0.647-0.207c-0.289,0-0.553,0.057-0.793,0.171c-0.24,0.108-0.435,0.214-0.584,0.315l-0.181-0.279
		c0.103-0.078,0.233-0.158,0.396-0.242c0.162-0.091,0.346-0.166,0.55-0.226c0.21-0.06,0.432-0.09,0.665-0.09
		c0.337,0,0.604,0.075,0.802,0.225c0.204,0.15,0.349,0.351,0.433,0.603c0.09,0.252,0.135,0.531,0.135,0.838v2.763h-0.342
		l-0.037-0.558h-0.026c-0.216,0.174-0.456,0.33-0.72,0.468C199.391,86.121,199.12,86.188,198.838,86.188z M198.91,85.836
		c0.246,0,0.482-0.057,0.711-0.171c0.234-0.12,0.486-0.294,0.756-0.522v-1.457c-0.594,0.065-1.064,0.158-1.413,0.278
		c-0.348,0.114-0.597,0.255-0.747,0.423s-0.225,0.366-0.225,0.594c0,0.307,0.09,0.525,0.27,0.658
		C198.448,85.77,198.664,85.836,198.91,85.836z M202.314,86.079V81.76h0.396v4.319H202.314z M202.503,80.715
		c-0.096,0-0.177-0.033-0.243-0.099c-0.066-0.072-0.099-0.162-0.099-0.271c0-0.107,0.032-0.191,0.099-0.252
		c0.066-0.065,0.147-0.099,0.243-0.099c0.103,0,0.183,0.033,0.243,0.099c0.066,0.061,0.1,0.145,0.1,0.252
		c0,0.108-0.033,0.198-0.1,0.271C202.686,80.682,202.605,80.715,202.503,80.715z M204.37,86.079V81.76h0.342l0.036,0.666h0.027
		c0.222-0.223,0.449-0.406,0.684-0.55c0.24-0.149,0.507-0.225,0.801-0.225c0.45,0,0.78,0.138,0.99,0.413
		c0.21,0.271,0.314,0.685,0.314,1.242v2.772h-0.396v-2.718c0-0.463-0.078-0.801-0.233-1.018c-0.15-0.222-0.402-0.332-0.756-0.332
		c-0.259,0-0.492,0.068-0.703,0.207c-0.203,0.131-0.44,0.332-0.711,0.603v3.258H204.37z M211.906,86.188
		c-0.227,0-0.438-0.043-0.629-0.127c-0.186-0.084-0.336-0.213-0.451-0.387c-0.113-0.18-0.17-0.402-0.17-0.666
		c0-0.486,0.225-0.852,0.674-1.098c0.451-0.252,1.156-0.432,2.115-0.54c0-0.222-0.025-0.438-0.08-0.647
		c-0.049-0.211-0.146-0.381-0.297-0.514c-0.145-0.138-0.359-0.207-0.648-0.207c-0.287,0-0.553,0.057-0.791,0.171
		c-0.24,0.108-0.436,0.214-0.586,0.315l-0.18-0.279c0.102-0.078,0.234-0.158,0.396-0.242c0.162-0.091,0.344-0.166,0.549-0.226
		c0.209-0.06,0.432-0.09,0.666-0.09c0.336,0,0.602,0.075,0.801,0.225c0.203,0.15,0.348,0.351,0.432,0.603
		c0.09,0.252,0.135,0.531,0.135,0.838v2.763H213.5l-0.035-0.558h-0.027c-0.217,0.174-0.457,0.33-0.721,0.468
		C212.459,86.121,212.189,86.188,211.906,86.188z M211.979,85.836c0.246,0,0.484-0.057,0.711-0.171
		c0.234-0.12,0.486-0.294,0.756-0.522v-1.457c-0.594,0.065-1.064,0.158-1.412,0.278c-0.348,0.114-0.598,0.255-0.748,0.423
		c-0.148,0.168-0.225,0.366-0.225,0.594c0,0.307,0.09,0.525,0.27,0.658C211.518,85.77,211.732,85.836,211.979,85.836z
		 M215.383,86.079V81.76h0.342l0.037,0.666h0.025c0.223-0.223,0.451-0.406,0.686-0.55c0.24-0.149,0.506-0.225,0.801-0.225
		c0.449,0,0.779,0.138,0.99,0.413c0.209,0.271,0.314,0.685,0.314,1.242v2.772h-0.396v-2.718c0-0.463-0.078-0.801-0.234-1.018
		c-0.148-0.222-0.4-0.332-0.756-0.332c-0.258,0-0.492,0.068-0.701,0.207c-0.205,0.131-0.441,0.332-0.711,0.603v3.258H215.383z
		 M221.604,86.188c-0.539,0-0.975-0.195-1.305-0.586c-0.324-0.39-0.486-0.947-0.486-1.674c0-0.468,0.088-0.869,0.262-1.205
		c0.18-0.343,0.414-0.606,0.701-0.793c0.295-0.186,0.613-0.278,0.955-0.278c0.264,0,0.494,0.045,0.693,0.135
		c0.197,0.09,0.4,0.222,0.611,0.396l-0.018-0.791v-1.783h0.395v6.472h-0.342l-0.035-0.558h-0.027
		c-0.174,0.174-0.381,0.33-0.621,0.468C222.152,86.121,221.893,86.188,221.604,86.188z M221.658,85.836
		c0.24,0,0.469-0.06,0.684-0.18c0.223-0.126,0.447-0.303,0.676-0.531v-2.564c-0.229-0.205-0.441-0.349-0.639-0.433
		c-0.199-0.084-0.406-0.126-0.621-0.126c-0.289,0-0.547,0.084-0.775,0.252c-0.227,0.168-0.41,0.399-0.549,0.693
		c-0.131,0.288-0.197,0.615-0.197,0.98c0,0.57,0.123,1.032,0.369,1.387C220.852,85.662,221.201,85.836,221.658,85.836z
		 M226.869,86.079V81.76h0.396v4.319H226.869z M227.059,80.715c-0.096,0-0.176-0.033-0.242-0.099c-0.066-0.072-0.1-0.162-0.1-0.271
		c0-0.107,0.033-0.191,0.1-0.252c0.066-0.065,0.146-0.099,0.242-0.099c0.102,0,0.184,0.033,0.244,0.099
		c0.064,0.061,0.098,0.145,0.098,0.252c0,0.108-0.033,0.198-0.098,0.271C227.242,80.682,227.16,80.715,227.059,80.715z
		 M230.357,86.188c-0.539,0-0.975-0.195-1.305-0.586c-0.324-0.39-0.486-0.947-0.486-1.674c0-0.468,0.088-0.869,0.262-1.205
		c0.18-0.343,0.414-0.606,0.701-0.793c0.295-0.186,0.613-0.278,0.955-0.278c0.264,0,0.494,0.045,0.693,0.135
		c0.197,0.09,0.4,0.222,0.611,0.396l-0.018-0.791v-1.783h0.396v6.472h-0.344l-0.035-0.558h-0.027
		c-0.174,0.174-0.381,0.33-0.621,0.468C230.906,86.121,230.646,86.188,230.357,86.188z M230.412,85.836
		c0.24,0,0.469-0.06,0.684-0.18c0.223-0.126,0.447-0.303,0.676-0.531v-2.564c-0.229-0.205-0.441-0.349-0.639-0.433
		c-0.199-0.084-0.406-0.126-0.621-0.126c-0.289,0-0.547,0.084-0.775,0.252c-0.227,0.168-0.41,0.399-0.549,0.693
		c-0.131,0.288-0.197,0.615-0.197,0.98c0,0.57,0.123,1.032,0.369,1.387C229.605,85.662,229.955,85.836,230.412,85.836z
		 M235.625,86.079V81.76h0.342l0.035,0.801h0.027c0.139-0.265,0.309-0.48,0.514-0.648c0.209-0.174,0.445-0.261,0.711-0.261
		c0.076,0,0.148,0.006,0.215,0.018c0.072,0.013,0.145,0.036,0.217,0.072l-0.109,0.342c-0.059-0.019-0.115-0.03-0.17-0.036
		c-0.049-0.012-0.117-0.018-0.207-0.018c-0.191,0-0.396,0.084-0.611,0.252c-0.211,0.162-0.4,0.447-0.568,0.855v2.942H235.625z
		 M240.031,86.188c-0.373,0-0.709-0.09-1.008-0.271c-0.301-0.18-0.541-0.438-0.721-0.774c-0.18-0.342-0.27-0.746-0.27-1.215
		c0-0.474,0.09-0.879,0.27-1.215c0.18-0.342,0.412-0.603,0.693-0.783c0.287-0.186,0.594-0.278,0.918-0.278
		c0.342,0,0.637,0.077,0.883,0.233c0.252,0.156,0.443,0.385,0.574,0.685c0.133,0.294,0.199,0.653,0.199,1.079
		c0,0.049-0.004,0.103-0.01,0.162c0,0.055-0.006,0.111-0.018,0.172h-3.268v-0.342h2.916c0-0.553-0.113-0.963-0.342-1.233
		c-0.229-0.276-0.537-0.414-0.926-0.414c-0.24,0-0.475,0.069-0.703,0.207s-0.416,0.351-0.566,0.639
		c-0.145,0.282-0.217,0.64-0.217,1.071c0,0.396,0.072,0.741,0.217,1.035c0.145,0.287,0.338,0.51,0.584,0.666
		c0.246,0.15,0.523,0.225,0.828,0.225c0.234,0,0.447-0.029,0.639-0.09c0.199-0.066,0.373-0.152,0.523-0.261l0.162,0.278
		c-0.168,0.114-0.357,0.213-0.568,0.297C240.613,86.145,240.35,86.188,240.031,86.188z M244.346,86.188
		c-0.373,0-0.709-0.088-1.008-0.262c-0.295-0.18-0.529-0.438-0.703-0.773c-0.168-0.342-0.252-0.75-0.252-1.225
		c0-0.479,0.09-0.891,0.27-1.232c0.188-0.342,0.43-0.6,0.73-0.774c0.299-0.18,0.623-0.27,0.971-0.27
		c0.301,0,0.549,0.051,0.748,0.153c0.197,0.096,0.371,0.222,0.521,0.377l-0.217,0.244c-0.125-0.133-0.275-0.234-0.449-0.307
		c-0.174-0.078-0.371-0.117-0.594-0.117c-0.295,0-0.559,0.081-0.793,0.243c-0.232,0.162-0.422,0.387-0.566,0.675
		c-0.139,0.288-0.207,0.624-0.207,1.008c0,0.379,0.063,0.711,0.189,1c0.131,0.287,0.314,0.512,0.549,0.674
		c0.234,0.156,0.51,0.234,0.828,0.234c0.234,0,0.449-0.042,0.648-0.126c0.197-0.09,0.365-0.207,0.504-0.351l0.207,0.242
		c-0.18,0.175-0.385,0.315-0.613,0.424C244.883,86.133,244.627,86.188,244.346,86.188z M248.213,86.188
		c-0.344,0-0.664-0.088-0.963-0.262c-0.295-0.18-0.531-0.438-0.713-0.773c-0.174-0.342-0.26-0.75-0.26-1.225
		c0-0.479,0.086-0.891,0.26-1.232c0.182-0.342,0.418-0.6,0.713-0.774c0.299-0.18,0.619-0.27,0.963-0.27
		c0.348,0,0.668,0.09,0.963,0.27c0.293,0.175,0.529,0.433,0.711,0.774c0.18,0.342,0.27,0.753,0.27,1.232
		c0,0.475-0.09,0.883-0.27,1.225c-0.182,0.336-0.418,0.594-0.711,0.773C248.881,86.1,248.561,86.188,248.213,86.188z
		 M248.213,85.836c0.293,0,0.555-0.078,0.781-0.234c0.234-0.162,0.418-0.387,0.551-0.674c0.131-0.289,0.197-0.621,0.197-1
		c0-0.377-0.066-0.711-0.197-0.998c-0.133-0.295-0.316-0.522-0.551-0.685c-0.227-0.162-0.488-0.243-0.781-0.243
		c-0.289,0-0.547,0.081-0.775,0.243c-0.227,0.162-0.41,0.39-0.549,0.685c-0.131,0.287-0.197,0.621-0.197,0.998
		c0,0.379,0.066,0.711,0.197,1c0.139,0.287,0.322,0.512,0.549,0.674C247.666,85.758,247.924,85.836,248.213,85.836z M251.453,86.079
		V81.76h0.342l0.035,0.666h0.027c0.193-0.223,0.406-0.406,0.639-0.55c0.24-0.149,0.48-0.225,0.721-0.225
		c0.354,0,0.621,0.081,0.801,0.243c0.186,0.156,0.318,0.369,0.396,0.639c0.246-0.276,0.488-0.492,0.729-0.648
		c0.246-0.156,0.492-0.233,0.738-0.233c0.432,0,0.756,0.138,0.973,0.413c0.215,0.271,0.324,0.685,0.324,1.242v2.772h-0.406v-2.718
		c0-0.463-0.078-0.801-0.234-1.018c-0.148-0.222-0.393-0.332-0.729-0.332c-0.203,0-0.41,0.068-0.621,0.207
		c-0.209,0.131-0.434,0.332-0.674,0.603v3.258h-0.396v-2.718c0-0.463-0.078-0.801-0.234-1.018c-0.156-0.222-0.402-0.332-0.738-0.332
		c-0.383,0-0.816,0.27-1.295,0.81v3.258H251.453z M258.758,86.079V81.76h0.342l0.035,0.666h0.027
		c0.191-0.223,0.404-0.406,0.639-0.55c0.24-0.149,0.48-0.225,0.721-0.225c0.354,0,0.621,0.081,0.801,0.243
		c0.186,0.156,0.318,0.369,0.396,0.639c0.246-0.276,0.488-0.492,0.729-0.648c0.246-0.156,0.492-0.233,0.738-0.233
		c0.432,0,0.756,0.138,0.971,0.413c0.217,0.271,0.324,0.685,0.324,1.242v2.772h-0.404v-2.718c0-0.463-0.078-0.801-0.234-1.018
		c-0.15-0.222-0.393-0.332-0.729-0.332c-0.205,0-0.412,0.068-0.621,0.207c-0.211,0.131-0.436,0.332-0.676,0.603v3.258h-0.395v-2.718
		c0-0.463-0.078-0.801-0.234-1.018c-0.156-0.222-0.402-0.332-0.738-0.332c-0.385,0-0.816,0.27-1.297,0.81v3.258H258.758z
		 M267.699,86.188c-0.373,0-0.709-0.09-1.008-0.271c-0.301-0.18-0.541-0.438-0.721-0.774c-0.18-0.342-0.27-0.746-0.27-1.215
		c0-0.474,0.09-0.879,0.27-1.215c0.18-0.342,0.412-0.603,0.693-0.783c0.287-0.186,0.594-0.278,0.918-0.278
		c0.342,0,0.637,0.077,0.883,0.233c0.252,0.156,0.443,0.385,0.574,0.685c0.133,0.294,0.199,0.653,0.199,1.079
		c0,0.049-0.004,0.103-0.01,0.162c0,0.055-0.006,0.111-0.018,0.172h-3.268v-0.342h2.916c0-0.553-0.113-0.963-0.342-1.233
		c-0.229-0.276-0.537-0.414-0.926-0.414c-0.24,0-0.475,0.069-0.703,0.207s-0.416,0.351-0.566,0.639
		c-0.145,0.282-0.217,0.64-0.217,1.071c0,0.396,0.072,0.741,0.217,1.035c0.145,0.287,0.338,0.51,0.584,0.666
		c0.246,0.15,0.523,0.225,0.828,0.225c0.234,0,0.447-0.029,0.641-0.09c0.197-0.066,0.371-0.152,0.521-0.261l0.162,0.278
		c-0.168,0.114-0.357,0.213-0.568,0.297C268.281,86.145,268.018,86.188,267.699,86.188z M270.41,86.079V81.76h0.344l0.035,0.666
		h0.027c0.221-0.223,0.449-0.406,0.684-0.55c0.24-0.149,0.508-0.225,0.801-0.225c0.451,0,0.779,0.138,0.99,0.413
		c0.211,0.271,0.314,0.685,0.314,1.242v2.772h-0.395v-2.718c0-0.463-0.078-0.801-0.234-1.018c-0.15-0.222-0.402-0.332-0.756-0.332
		c-0.258,0-0.492,0.068-0.703,0.207c-0.203,0.131-0.441,0.332-0.711,0.603v3.258H270.41z M276.633,86.188
		c-0.539,0-0.975-0.195-1.305-0.586c-0.324-0.39-0.486-0.947-0.486-1.674c0-0.468,0.088-0.869,0.262-1.205
		c0.18-0.343,0.414-0.606,0.701-0.793c0.295-0.186,0.613-0.278,0.955-0.278c0.264,0,0.494,0.045,0.691,0.135
		c0.199,0.09,0.402,0.222,0.613,0.396l-0.018-0.791v-1.783h0.395v6.472H278.1l-0.035-0.558h-0.027
		c-0.174,0.174-0.381,0.33-0.621,0.468C277.182,86.121,276.922,86.188,276.633,86.188z M276.686,85.836
		c0.242,0,0.469-0.06,0.686-0.18c0.223-0.126,0.447-0.303,0.676-0.531v-2.564c-0.229-0.205-0.441-0.349-0.641-0.433
		c-0.197-0.084-0.404-0.126-0.621-0.126c-0.287,0-0.545,0.084-0.773,0.252s-0.41,0.399-0.549,0.693
		c-0.133,0.288-0.197,0.615-0.197,0.98c0,0.57,0.123,1.032,0.369,1.387C275.881,85.662,276.23,85.836,276.686,85.836z
		 M281.729,88.051c-0.084,0-0.166-0.01-0.244-0.027c-0.078-0.019-0.143-0.043-0.197-0.072l0.107-0.333
		c0.049,0.019,0.102,0.033,0.162,0.045c0.061,0.013,0.117,0.019,0.172,0.019c0.264,0,0.486-0.111,0.666-0.334
		c0.186-0.216,0.332-0.485,0.441-0.81l0.115-0.378l-1.771-4.4h0.432l1.043,2.717c0.066,0.181,0.143,0.379,0.227,0.595
		s0.164,0.42,0.242,0.612h0.035c0.066-0.192,0.133-0.396,0.199-0.612c0.072-0.216,0.137-0.414,0.197-0.595l0.928-2.717h0.404
		l-1.709,4.859c-0.078,0.24-0.184,0.468-0.316,0.684c-0.125,0.223-0.281,0.402-0.467,0.541
		C282.209,87.98,281.986,88.051,281.729,88.051z M287.385,86.188c-0.342,0-0.662-0.088-0.963-0.262
		c-0.293-0.18-0.531-0.438-0.711-0.773c-0.174-0.342-0.262-0.75-0.262-1.225c0-0.479,0.088-0.891,0.262-1.232
		c0.18-0.342,0.418-0.6,0.711-0.774c0.301-0.18,0.621-0.27,0.963-0.27c0.348,0,0.67,0.09,0.963,0.27
		c0.295,0.175,0.531,0.433,0.711,0.774s0.27,0.753,0.27,1.232c0,0.475-0.09,0.883-0.27,1.225c-0.18,0.336-0.416,0.594-0.711,0.773
		C288.055,86.1,287.732,86.188,287.385,86.188z M287.385,85.836c0.295,0,0.555-0.078,0.783-0.234
		c0.234-0.162,0.418-0.387,0.549-0.674c0.133-0.289,0.197-0.621,0.197-1c0-0.377-0.064-0.711-0.197-0.998
		c-0.131-0.295-0.314-0.522-0.549-0.685c-0.229-0.162-0.488-0.243-0.783-0.243c-0.287,0-0.545,0.081-0.773,0.243
		s-0.412,0.39-0.549,0.685c-0.133,0.287-0.199,0.621-0.199,0.998c0,0.379,0.066,0.711,0.199,1c0.137,0.287,0.32,0.512,0.549,0.674
		C286.84,85.758,287.098,85.836,287.385,85.836z M291.867,86.188c-0.443,0-0.773-0.135-0.988-0.405
		c-0.211-0.276-0.316-0.693-0.316-1.251V81.76h0.396v2.717c0,0.457,0.078,0.795,0.234,1.018s0.404,0.333,0.746,0.333
		c0.258,0,0.492-0.069,0.703-0.207c0.209-0.144,0.441-0.369,0.693-0.675V81.76h0.395v4.319h-0.332l-0.045-0.72h-0.018
		c-0.211,0.246-0.434,0.447-0.666,0.603C292.436,86.112,292.168,86.188,291.867,86.188z M298.371,86.151
		c-0.42,0-0.705-0.12-0.855-0.36s-0.225-0.552-0.225-0.936v-2.754h-0.676v-0.307l0.686-0.035l0.053-1.432h0.342v1.432h1.252v0.342
		h-1.252v2.78c0,0.276,0.049,0.501,0.145,0.675c0.096,0.168,0.291,0.252,0.586,0.252c0.084,0,0.168-0.008,0.252-0.026
		c0.09-0.024,0.186-0.06,0.287-0.108l0.127,0.279c-0.115,0.061-0.234,0.107-0.361,0.145
		C298.605,86.133,298.484,86.151,298.371,86.151z M301.475,86.188c-0.342,0-0.664-0.088-0.963-0.262
		c-0.295-0.18-0.531-0.438-0.711-0.773c-0.174-0.342-0.262-0.75-0.262-1.225c0-0.479,0.088-0.891,0.262-1.232
		c0.18-0.342,0.416-0.6,0.711-0.774c0.299-0.18,0.621-0.27,0.963-0.27c0.348,0,0.668,0.09,0.963,0.27
		c0.293,0.175,0.531,0.433,0.711,0.774s0.27,0.753,0.27,1.232c0,0.475-0.09,0.883-0.27,1.225c-0.18,0.336-0.418,0.594-0.711,0.773
		C302.143,86.1,301.822,86.188,301.475,86.188z M301.475,85.836c0.293,0,0.555-0.078,0.783-0.234
		c0.232-0.162,0.416-0.387,0.549-0.674c0.131-0.289,0.197-0.621,0.197-1c0-0.377-0.066-0.711-0.197-0.998
		c-0.133-0.295-0.316-0.522-0.549-0.685c-0.229-0.162-0.49-0.243-0.783-0.243c-0.289,0-0.547,0.081-0.775,0.243
		c-0.227,0.162-0.41,0.39-0.549,0.685c-0.131,0.287-0.197,0.621-0.197,0.998c0,0.379,0.066,0.711,0.197,1
		c0.139,0.287,0.322,0.512,0.549,0.674C300.928,85.758,301.186,85.836,301.475,85.836z M307.947,86.188
		c-0.539,0-0.975-0.195-1.305-0.586c-0.324-0.39-0.486-0.947-0.486-1.674c0-0.468,0.088-0.869,0.262-1.205
		c0.18-0.343,0.414-0.606,0.701-0.793c0.295-0.186,0.613-0.278,0.955-0.278c0.264,0,0.494,0.045,0.693,0.135
		c0.197,0.09,0.402,0.222,0.611,0.396l-0.018-0.791v-1.783h0.396v6.472h-0.344l-0.035-0.558h-0.027
		c-0.174,0.174-0.381,0.33-0.621,0.468C308.496,86.121,308.236,86.188,307.947,86.188z M308.002,85.836
		c0.24,0,0.469-0.06,0.684-0.18c0.223-0.126,0.447-0.303,0.676-0.531v-2.564c-0.229-0.205-0.441-0.349-0.639-0.433
		c-0.199-0.084-0.406-0.126-0.621-0.126c-0.289,0-0.547,0.084-0.775,0.252c-0.227,0.168-0.41,0.399-0.549,0.693
		c-0.131,0.288-0.197,0.615-0.197,0.98c0,0.57,0.123,1.032,0.369,1.387C307.195,85.662,307.547,85.836,308.002,85.836z
		 M312.986,86.188c-0.342,0-0.662-0.088-0.963-0.262c-0.293-0.18-0.531-0.438-0.711-0.773c-0.174-0.342-0.26-0.75-0.26-1.225
		c0-0.479,0.086-0.891,0.26-1.232c0.18-0.342,0.418-0.6,0.711-0.774c0.301-0.18,0.621-0.27,0.963-0.27c0.35,0,0.67,0.09,0.963,0.27
		c0.295,0.175,0.531,0.433,0.711,0.774c0.182,0.342,0.271,0.753,0.271,1.232c0,0.475-0.09,0.883-0.271,1.225
		c-0.18,0.336-0.416,0.594-0.711,0.773C313.656,86.1,313.336,86.188,312.986,86.188z M312.986,85.836
		c0.295,0,0.557-0.078,0.783-0.234c0.234-0.162,0.418-0.387,0.549-0.674c0.133-0.289,0.199-0.621,0.199-1
		c0-0.377-0.066-0.711-0.199-0.998c-0.131-0.295-0.314-0.522-0.549-0.685c-0.227-0.162-0.488-0.243-0.783-0.243
		c-0.287,0-0.545,0.081-0.773,0.243s-0.41,0.39-0.549,0.685c-0.133,0.287-0.197,0.621-0.197,0.998c0,0.379,0.064,0.711,0.197,1
		c0.139,0.287,0.32,0.512,0.549,0.674C312.441,85.758,312.699,85.836,312.986,85.836z M319.074,86.188
		c-0.336,0-0.639-0.055-0.908-0.162c-0.264-0.108-0.488-0.256-0.676-0.441l0.217-0.252c0.18,0.156,0.375,0.282,0.586,0.378
		c0.215,0.091,0.484,0.136,0.809,0.136c0.336,0,0.592-0.084,0.766-0.252c0.174-0.175,0.262-0.375,0.262-0.604
		c0-0.18-0.055-0.327-0.162-0.441c-0.104-0.119-0.234-0.219-0.396-0.297c-0.162-0.084-0.328-0.156-0.496-0.216
		c-0.221-0.078-0.434-0.165-0.639-0.261c-0.203-0.103-0.371-0.229-0.504-0.379c-0.131-0.155-0.197-0.354-0.197-0.594
		c0-0.317,0.119-0.588,0.359-0.81c0.24-0.228,0.582-0.342,1.025-0.342c0.246,0,0.475,0.042,0.686,0.126
		c0.215,0.084,0.4,0.191,0.557,0.324l-0.215,0.242c-0.145-0.102-0.297-0.186-0.459-0.252c-0.162-0.065-0.354-0.099-0.576-0.099
		c-0.336,0-0.586,0.081-0.748,0.243c-0.154,0.162-0.232,0.342-0.232,0.54c0,0.161,0.045,0.297,0.135,0.405
		c0.096,0.102,0.219,0.188,0.369,0.26c0.148,0.072,0.311,0.142,0.484,0.207c0.229,0.091,0.451,0.184,0.666,0.279
		c0.223,0.096,0.402,0.226,0.541,0.387c0.139,0.156,0.207,0.375,0.207,0.658c0,0.215-0.057,0.416-0.172,0.603
		c-0.107,0.18-0.271,0.327-0.494,0.44C319.65,86.13,319.387,86.188,319.074,86.188z M323.254,86.188
		c-0.344,0-0.664-0.088-0.965-0.262c-0.293-0.18-0.529-0.438-0.711-0.773c-0.174-0.342-0.26-0.75-0.26-1.225
		c0-0.479,0.086-0.891,0.26-1.232c0.182-0.342,0.418-0.6,0.711-0.774c0.301-0.18,0.621-0.27,0.965-0.27
		c0.348,0,0.668,0.09,0.963,0.27c0.293,0.175,0.529,0.433,0.711,0.774c0.18,0.342,0.27,0.753,0.27,1.232
		c0,0.475-0.09,0.883-0.27,1.225c-0.182,0.336-0.418,0.594-0.711,0.773C323.922,86.1,323.602,86.188,323.254,86.188z
		 M323.254,85.836c0.293,0,0.555-0.078,0.781-0.234c0.234-0.162,0.418-0.387,0.551-0.674c0.131-0.289,0.197-0.621,0.197-1
		c0-0.377-0.066-0.711-0.197-0.998c-0.133-0.295-0.316-0.522-0.551-0.685c-0.227-0.162-0.488-0.243-0.781-0.243
		c-0.289,0-0.547,0.081-0.775,0.243c-0.227,0.162-0.41,0.39-0.549,0.685c-0.131,0.287-0.197,0.621-0.197,0.998
		c0,0.379,0.066,0.711,0.197,1c0.139,0.287,0.322,0.512,0.549,0.674C322.707,85.758,322.965,85.836,323.254,85.836z M326.568,86.188
		c-0.096,0-0.186-0.036-0.27-0.108c-0.078-0.072-0.117-0.171-0.117-0.297c0-0.132,0.039-0.234,0.117-0.306
		c0.084-0.072,0.174-0.108,0.27-0.108c0.104,0,0.189,0.036,0.262,0.108c0.078,0.071,0.117,0.174,0.117,0.306
		c0,0.126-0.039,0.225-0.117,0.297C326.758,86.151,326.672,86.188,326.568,86.188z M327.502,81.786l-0.162-0.207
		c0.197-0.162,0.348-0.327,0.449-0.495c0.104-0.168,0.154-0.378,0.154-0.63l-0.145-0.485l0.334,0.368
		c-0.043,0.054-0.082,0.091-0.117,0.108c-0.037,0.018-0.084,0.027-0.145,0.027c-0.09,0-0.172-0.027-0.242-0.082
		c-0.072-0.06-0.109-0.144-0.109-0.252c0-0.113,0.033-0.201,0.1-0.261c0.066-0.065,0.15-0.099,0.252-0.099
		c0.119,0,0.217,0.051,0.287,0.152c0.078,0.103,0.117,0.252,0.117,0.45c0,0.324-0.068,0.601-0.207,0.828
		C327.932,81.432,327.742,81.624,327.502,81.786z M328.771,81.786l-0.162-0.207c0.197-0.162,0.348-0.327,0.449-0.495
		s0.154-0.378,0.154-0.63l-0.145-0.485l0.332,0.368c-0.041,0.054-0.08,0.091-0.117,0.108c-0.035,0.018-0.084,0.027-0.143,0.027
		c-0.09,0-0.172-0.027-0.244-0.082c-0.072-0.06-0.107-0.144-0.107-0.252c0-0.113,0.033-0.201,0.1-0.261
		c0.064-0.065,0.148-0.099,0.252-0.099c0.119,0,0.215,0.051,0.287,0.152c0.078,0.103,0.117,0.252,0.117,0.45
		c0,0.324-0.068,0.601-0.207,0.828C329.199,81.432,329.012,81.624,328.771,81.786z"/>
</g>
<g>
	<path d="M242.027,111.14l2.221-6.56h0.939l2.221,6.56h-0.881l-1.15-3.67c-0.119-0.366-0.232-0.729-0.34-1.09
		c-0.106-0.366-0.213-0.74-0.319-1.12h-0.04c-0.1,0.38-0.203,0.754-0.311,1.12c-0.106,0.36-0.22,0.724-0.34,1.09l-1.16,3.67H242.027
		z M243.188,109.14v-0.66h3.03v0.66H243.188z M248.247,111.14v-7.12h0.82v1.939l-0.03,1c0.233-0.219,0.477-0.406,0.73-0.56
		c0.26-0.159,0.557-0.239,0.89-0.239c0.513,0,0.887,0.163,1.12,0.489c0.24,0.32,0.359,0.79,0.359,1.41v3.08h-0.819v-2.97
		c0-0.461-0.073-0.79-0.22-0.99c-0.141-0.207-0.373-0.311-0.7-0.311c-0.247,0-0.47,0.064-0.671,0.19
		c-0.193,0.127-0.412,0.313-0.659,0.56v3.521H248.247z M253.687,111.14v-4.86h0.681l0.069,0.7h0.03
		c0.213-0.227,0.443-0.42,0.689-0.58c0.254-0.159,0.527-0.239,0.82-0.239c0.373,0,0.664,0.083,0.87,0.25
		c0.214,0.166,0.37,0.393,0.47,0.68c0.254-0.28,0.51-0.504,0.771-0.67c0.26-0.174,0.536-0.26,0.829-0.26
		c0.508,0,0.881,0.163,1.121,0.489c0.24,0.32,0.359,0.79,0.359,1.41v3.08h-0.82v-2.97c0-0.461-0.072-0.79-0.219-0.99
		c-0.147-0.207-0.374-0.311-0.681-0.311c-0.193,0-0.39,0.064-0.59,0.19c-0.193,0.12-0.403,0.307-0.63,0.56v3.521h-0.82v-2.97
		c0-0.461-0.073-0.79-0.221-0.99c-0.146-0.207-0.376-0.311-0.689-0.311c-0.367,0-0.773,0.25-1.22,0.75v3.521H253.687z
		 M263.947,111.26c-0.434,0-0.83-0.1-1.189-0.301c-0.354-0.206-0.633-0.496-0.84-0.869c-0.207-0.381-0.311-0.84-0.311-1.381
		c0-0.525,0.107-0.979,0.32-1.359s0.486-0.674,0.82-0.88c0.333-0.206,0.687-0.31,1.06-0.31c0.413,0,0.764,0.096,1.05,0.289
		c0.293,0.188,0.514,0.45,0.66,0.791c0.146,0.34,0.221,0.739,0.221,1.199c0,0.087-0.004,0.17-0.011,0.25c0,0.08-0.01,0.16-0.03,0.24
		h-3.5v-0.65h2.801c0-0.467-0.104-0.823-0.311-1.07c-0.199-0.253-0.49-0.379-0.869-0.379c-0.221,0-0.438,0.063-0.65,0.189
		c-0.213,0.12-0.391,0.316-0.53,0.59c-0.134,0.273-0.2,0.637-0.2,1.09c0,0.414,0.07,0.76,0.211,1.041
		c0.146,0.279,0.343,0.492,0.59,0.64c0.246,0.14,0.516,0.21,0.81,0.21c0.233,0,0.45-0.033,0.649-0.1
		c0.207-0.067,0.394-0.157,0.561-0.271l0.3,0.54c-0.214,0.146-0.453,0.267-0.72,0.359
		C264.578,111.213,264.281,111.26,263.947,111.26z M268.599,111.26c-0.613,0-1.104-0.221-1.47-0.66
		c-0.36-0.447-0.54-1.073-0.54-1.88c0-0.526,0.097-0.979,0.29-1.36c0.199-0.387,0.46-0.684,0.779-0.89
		c0.32-0.206,0.667-0.31,1.041-0.31c0.286,0,0.529,0.049,0.729,0.149c0.206,0.093,0.417,0.229,0.63,0.41l-0.04-0.83v-1.87h0.83v7.12
		h-0.681l-0.069-0.569h-0.03c-0.187,0.186-0.406,0.35-0.66,0.489C269.155,111.193,268.885,111.26,268.599,111.26z M268.779,110.57
		c0.227,0,0.439-0.057,0.639-0.171c0.201-0.113,0.4-0.28,0.601-0.5v-2.54c-0.2-0.187-0.396-0.316-0.59-0.39
		c-0.193-0.08-0.39-0.12-0.59-0.12c-0.261,0-0.497,0.08-0.71,0.24c-0.207,0.153-0.373,0.369-0.5,0.65
		c-0.127,0.273-0.19,0.596-0.19,0.969c0,0.58,0.116,1.037,0.351,1.371C268.021,110.406,268.352,110.57,268.779,110.57z
		 M274.078,108.91v-0.57h3.979v0.57H274.078z M282.544,111.26c-0.394,0-0.736-0.087-1.03-0.26c-0.293-0.18-0.529-0.447-0.709-0.801
		l0.56-0.369c0.134,0.24,0.293,0.416,0.479,0.529c0.193,0.107,0.41,0.16,0.65,0.16c0.359,0,0.627-0.106,0.8-0.32
		c0.181-0.22,0.271-0.583,0.271-1.09v-4.529h0.83v4.609c0,0.381-0.064,0.727-0.19,1.04c-0.12,0.313-0.317,0.563-0.59,0.75
		C283.341,111.166,282.984,111.26,282.544,111.26z M287.199,111.26c-0.267,0-0.51-0.054-0.73-0.16
		c-0.213-0.113-0.383-0.27-0.51-0.47c-0.127-0.207-0.189-0.457-0.189-0.75c0-0.547,0.24-0.96,0.72-1.24s1.239-0.477,2.28-0.59
		c-0.007-0.2-0.041-0.394-0.1-0.58c-0.055-0.187-0.154-0.337-0.301-0.45s-0.35-0.17-0.609-0.17c-0.281,0-0.544,0.053-0.791,0.16
		c-0.246,0.1-0.467,0.213-0.66,0.34l-0.319-0.561c0.146-0.1,0.319-0.196,0.521-0.289c0.199-0.101,0.416-0.18,0.649-0.24
		c0.233-0.066,0.479-0.1,0.74-0.1c0.394,0,0.714,0.083,0.96,0.25c0.254,0.16,0.437,0.39,0.55,0.689
		c0.12,0.3,0.181,0.653,0.181,1.061v2.979h-0.681l-0.069-0.58h-0.031c-0.232,0.193-0.482,0.36-0.75,0.5
		C287.793,111.193,287.506,111.26,287.199,111.26z M287.43,110.58c0.24,0,0.463-0.054,0.67-0.16c0.213-0.107,0.437-0.264,0.67-0.471
		v-1.31c-0.547,0.066-0.98,0.153-1.301,0.26c-0.313,0.101-0.539,0.228-0.68,0.38c-0.14,0.154-0.21,0.337-0.21,0.551
		c0,0.266,0.083,0.459,0.25,0.58C286.996,110.523,287.195,110.58,287.43,110.58z M291.118,111.14v-4.86h0.681l0.069,0.7h0.03
		c0.233-0.233,0.48-0.427,0.74-0.58c0.26-0.159,0.557-0.239,0.89-0.239c0.513,0,0.887,0.163,1.12,0.489
		c0.24,0.32,0.359,0.79,0.359,1.41v3.08h-0.819v-2.97c0-0.461-0.073-0.79-0.22-0.99c-0.141-0.207-0.373-0.311-0.7-0.311
		c-0.247,0-0.47,0.064-0.671,0.19c-0.192,0.127-0.412,0.313-0.659,0.56v3.521H291.118z M298.559,111.14v-0.681h1.461v-4.699h-1.16
		v-0.53c0.287-0.054,0.539-0.116,0.76-0.19c0.22-0.08,0.416-0.173,0.59-0.279h0.63v5.699h1.32v0.681H298.559z M305.779,111.14
		v-4.271c0-0.166,0.008-0.369,0.021-0.609c0.013-0.246,0.023-0.453,0.03-0.62h-0.041c-0.079,0.153-0.162,0.304-0.25,0.45
		c-0.086,0.14-0.176,0.29-0.27,0.449l-1.49,2.181h3.65v0.66h-4.52v-0.54l2.729-4.08h0.92v6.38H305.779z M308.381,112.84l-0.2-0.48
		c0.286-0.127,0.51-0.3,0.67-0.52c0.159-0.213,0.236-0.453,0.229-0.721l-0.09-0.739l0.41,0.6c-0.061,0.06-0.127,0.104-0.199,0.13
		c-0.067,0.027-0.141,0.04-0.221,0.04c-0.16,0-0.3-0.05-0.42-0.149c-0.113-0.101-0.17-0.24-0.17-0.42c0-0.181,0.061-0.32,0.18-0.42
		c0.127-0.107,0.27-0.16,0.43-0.16c0.221,0,0.391,0.086,0.51,0.26c0.121,0.166,0.181,0.403,0.181,0.71
		c0,0.427-0.116,0.804-0.351,1.13C309.107,112.426,308.787,112.673,308.381,112.84z M312.603,111.14v-0.5
		c0.634-0.626,1.173-1.181,1.62-1.66c0.453-0.486,0.797-0.927,1.029-1.319c0.234-0.395,0.351-0.761,0.351-1.101
		c0-0.366-0.101-0.667-0.3-0.899c-0.2-0.234-0.504-0.351-0.91-0.351c-0.267,0-0.514,0.073-0.74,0.22s-0.434,0.33-0.619,0.551
		l-0.461-0.45c0.268-0.3,0.551-0.54,0.851-0.72c0.307-0.181,0.663-0.271,1.069-0.271c0.394,0,0.734,0.08,1.021,0.24
		c0.286,0.153,0.507,0.37,0.66,0.649c0.153,0.28,0.229,0.607,0.229,0.98c0,0.413-0.116,0.823-0.35,1.23
		c-0.227,0.406-0.54,0.833-0.939,1.279c-0.4,0.447-0.861,0.937-1.381,1.471c0.174-0.021,0.354-0.034,0.54-0.041
		c0.187-0.013,0.363-0.02,0.53-0.02h1.92v0.71H312.603z M319.664,111.26c-0.641,0-1.145-0.287-1.511-0.86
		c-0.36-0.579-0.54-1.403-0.54-2.47c0-1.073,0.18-1.891,0.54-2.45c0.366-0.56,0.87-0.84,1.511-0.84c0.633,0,1.129,0.283,1.489,0.851
		c0.366,0.56,0.55,1.373,0.55,2.439s-0.184,1.891-0.55,2.47C320.793,110.973,320.297,111.26,319.664,111.26z M319.664,110.6
		c0.246,0,0.463-0.094,0.649-0.279c0.187-0.188,0.33-0.478,0.43-0.871c0.106-0.393,0.16-0.899,0.16-1.52
		c0-0.627-0.054-1.133-0.16-1.52c-0.1-0.387-0.243-0.667-0.43-0.84c-0.187-0.181-0.403-0.271-0.649-0.271
		c-0.254,0-0.475,0.09-0.66,0.271c-0.188,0.173-0.334,0.453-0.44,0.84c-0.101,0.387-0.149,0.893-0.149,1.52
		c0,0.62,0.049,1.127,0.149,1.52c0.106,0.394,0.253,0.684,0.44,0.871C319.189,110.506,319.41,110.6,319.664,110.6z M322.544,111.14
		v-0.5c0.634-0.626,1.173-1.181,1.62-1.66c0.453-0.486,0.797-0.927,1.029-1.319c0.234-0.395,0.351-0.761,0.351-1.101
		c0-0.366-0.101-0.667-0.3-0.899c-0.2-0.234-0.504-0.351-0.91-0.351c-0.267,0-0.514,0.073-0.74,0.22s-0.434,0.33-0.619,0.551
		l-0.461-0.45c0.268-0.3,0.551-0.54,0.851-0.72c0.307-0.181,0.663-0.271,1.069-0.271c0.394,0,0.734,0.08,1.021,0.24
		c0.286,0.153,0.507,0.37,0.66,0.649c0.153,0.28,0.229,0.607,0.229,0.98c0,0.413-0.116,0.823-0.35,1.23
		c-0.227,0.406-0.54,0.833-0.939,1.279c-0.4,0.447-0.861,0.937-1.381,1.471c0.174-0.021,0.354-0.034,0.54-0.041
		c0.187-0.013,0.363-0.02,0.53-0.02h1.92v0.71H322.544z M327.515,111.14v-0.5c0.634-0.626,1.173-1.181,1.62-1.66
		c0.453-0.486,0.797-0.927,1.029-1.319c0.234-0.395,0.351-0.761,0.351-1.101c0-0.366-0.101-0.667-0.3-0.899
		c-0.2-0.234-0.504-0.351-0.91-0.351c-0.267,0-0.514,0.073-0.74,0.22s-0.434,0.33-0.619,0.551l-0.461-0.45
		c0.268-0.3,0.551-0.54,0.851-0.72c0.307-0.181,0.663-0.271,1.069-0.271c0.394,0,0.734,0.08,1.021,0.24
		c0.286,0.153,0.507,0.37,0.66,0.649c0.153,0.28,0.229,0.607,0.229,0.98c0,0.413-0.116,0.823-0.35,1.23
		c-0.227,0.406-0.54,0.833-0.939,1.279c-0.4,0.447-0.861,0.937-1.381,1.471c0.174-0.021,0.354-0.034,0.54-0.041
		c0.187-0.013,0.363-0.02,0.53-0.02h1.92v0.71H327.515z"/>
</g>
</svg>
