<?xml version="1.0" encoding="utf-8"?>
<!-- Generator: Adobe Illustrator 16.0.0, SVG Export Plug-In . SVG Version: 6.00 Build 0)  -->
<!DOCTYPE svg PUBLIC "-//W3C//DTD SVG 1.1//EN" "http://www.w3.org/Graphics/SVG/1.1/DTD/svg11.dtd">
<svg version="1.1" id="Capa_1" xmlns="http://www.w3.org/2000/svg" xmlns:xlink="http://www.w3.org/1999/xlink" x="0px" y="0px"
	 width="375px" height="150px" viewBox="0 0 375 150" enable-background="new 0 0 375 150" xml:space="preserve">
<g opacity="0.17">
	<image overflow="visible" width="421" height="179" xlink:href="2419BA94.png"  transform="matrix(1 0 0 1 -23 -14.5)">
	</image>
</g>
<g>
	<g>
		<path fill="#FFFFFF" d="M35,29.5h305c8.284,0,15,6.716,15,15v62c0,8.284-6.716,15-15,15H35c-8.284,0-15-6.716-15-15v-62
			C20,36.216,26.716,29.5,35,29.5z"/>
	</g>
</g>
<g>
	<image overflow="visible" width="407" height="165" xlink:href="2419BA95.png"  transform="matrix(1 0 0 1 -7 -11.5)">
	</image>
</g>
<g>
	<path fill="#AACFBE" stroke="#AACFBE" stroke-width="2" stroke-linecap="round" stroke-linejoin="round" d="M102.027,36.481
		l1.708,3.46l3.819,0.558l-2.764,2.692l0.652,3.803l-3.416-1.797l-3.416,1.797l0.652-3.803L96.5,40.5l3.819-0.558L102.027,36.481z"
		/>
	<path fill="#AACFBE" stroke="#AACFBE" stroke-width="2" stroke-linecap="round" stroke-linejoin="round" d="M86.021,36.481
		l1.709,3.46L91.55,40.5l-2.765,2.692l0.652,3.803l-3.416-1.797l-3.416,1.797l0.652-3.803L80.494,40.5l3.82-0.558L86.021,36.481z"/>
	<path fill="#AACFBE" stroke="#AACFBE" stroke-width="2" stroke-linecap="round" stroke-linejoin="round" d="M70.017,36.481
		l1.708,3.46l3.82,0.558l-2.765,2.692l0.652,3.803l-3.416-1.797l-3.416,1.797l0.652-3.803L64.489,40.5l3.819-0.558L70.017,36.481z"
		/>
	<path fill="#AACFBE" stroke="#AACFBE" stroke-width="2" stroke-linecap="round" stroke-linejoin="round" d="M54.012,36.481
		l1.708,3.46l3.82,0.558l-2.764,2.692l0.652,3.803l-3.416-1.797l-3.417,1.797l0.652-3.803L48.484,40.5l3.82-0.558L54.012,36.481z"/>
	<path fill="#AACFBE" stroke="#AACFBE" stroke-width="2" stroke-linecap="round" stroke-linejoin="round" d="M38.006,36.481
		l1.708,3.46l3.819,0.558l-2.764,2.692l0.652,3.803l-3.416-1.797l-3.416,1.797l0.652-3.803L32.479,40.5l3.82-0.558L38.006,36.481z"
		/>
</g>
<g>
	<path d="M210.723,64.858c-0.113,0-0.209-0.051-0.287-0.153c-0.072-0.108-0.108-0.258-0.108-0.45c0-0.324,0.066-0.6,0.198-0.828
		c0.139-0.228,0.327-0.42,0.566-0.576l0.162,0.207c-0.191,0.162-0.342,0.327-0.449,0.495c-0.103,0.162-0.153,0.372-0.153,0.63
		l0.144,0.486l-0.332-0.369c0.047-0.054,0.09-0.09,0.125-0.108c0.037-0.018,0.082-0.027,0.135-0.027
		c0.091,0,0.172,0.027,0.244,0.081c0.078,0.054,0.117,0.138,0.117,0.252c0,0.108-0.033,0.195-0.1,0.261
		S210.832,64.858,210.723,64.858z M211.992,64.858c-0.113,0-0.21-0.051-0.287-0.153c-0.072-0.108-0.109-0.258-0.109-0.45
		c0-0.324,0.066-0.6,0.199-0.828c0.137-0.228,0.326-0.42,0.566-0.576l0.162,0.207c-0.191,0.162-0.342,0.327-0.45,0.495
		c-0.103,0.162-0.153,0.372-0.153,0.63l0.145,0.486l-0.333-0.369c0.048-0.054,0.09-0.09,0.126-0.108s0.081-0.027,0.135-0.027
		c0.09,0,0.172,0.027,0.243,0.081c0.078,0.054,0.117,0.138,0.117,0.252c0,0.108-0.033,0.195-0.099,0.261
		C212.188,64.825,212.101,64.858,211.992,64.858z M213.922,69.196v-5.931h1.494c0.449,0,0.834,0.054,1.151,0.162
		c0.317,0.102,0.563,0.276,0.737,0.522c0.175,0.24,0.262,0.564,0.262,0.972c0,0.384-0.084,0.705-0.252,0.963
		c-0.168,0.252-0.411,0.444-0.729,0.576c-0.313,0.126-0.69,0.189-1.135,0.189h-1.115v2.547H213.922z M214.336,66.298h1.017
		c0.606,0,1.056-0.108,1.35-0.324c0.294-0.222,0.441-0.573,0.441-1.053c0-0.498-0.153-0.84-0.459-1.026
		c-0.3-0.186-0.757-0.279-1.368-0.279h-0.98V66.298z M219.348,69.268c-0.12,0-0.219-0.024-0.297-0.072s-0.139-0.123-0.181-0.225
		c-0.036-0.102-0.054-0.231-0.054-0.387v-5.859h0.396v5.913c0,0.102,0.018,0.174,0.054,0.216c0.042,0.042,0.093,0.063,0.153,0.063
		c0.018,0,0.035,0,0.053,0c0.025-0.006,0.055-0.012,0.091-0.018l0.071,0.315c-0.041,0.018-0.086,0.03-0.135,0.036
		C219.459,69.262,219.407,69.268,219.348,69.268z M222.59,69.304c-0.371,0-0.707-0.09-1.008-0.27c-0.3-0.18-0.539-0.438-0.72-0.774
		c-0.181-0.342-0.271-0.747-0.271-1.215c0-0.474,0.09-0.879,0.271-1.215c0.181-0.342,0.411-0.603,0.692-0.783
		c0.289-0.186,0.595-0.279,0.918-0.279c0.343,0,0.637,0.078,0.883,0.234c0.252,0.156,0.443,0.384,0.576,0.684
		c0.132,0.294,0.197,0.654,0.197,1.08c0,0.048-0.002,0.102-0.009,0.162c0,0.054-0.006,0.111-0.018,0.171h-3.267v-0.342h2.916
		c0-0.552-0.115-0.963-0.343-1.233c-0.228-0.276-0.536-0.414-0.927-0.414c-0.24,0-0.475,0.069-0.702,0.207
		c-0.228,0.138-0.417,0.351-0.567,0.639c-0.144,0.282-0.215,0.639-0.215,1.071c0,0.396,0.071,0.741,0.215,1.035
		c0.145,0.288,0.34,0.51,0.586,0.666c0.246,0.15,0.521,0.225,0.828,0.225c0.233,0,0.446-0.03,0.639-0.09
		c0.197-0.066,0.371-0.153,0.521-0.261l0.162,0.279c-0.168,0.114-0.357,0.213-0.566,0.297
		C223.172,69.262,222.908,69.304,222.59,69.304z M226.115,69.304c-0.229,0-0.438-0.042-0.63-0.126
		c-0.187-0.084-0.336-0.213-0.45-0.387c-0.113-0.18-0.171-0.402-0.171-0.666c0-0.486,0.226-0.852,0.675-1.098
		c0.45-0.252,1.155-0.432,2.115-0.54c0-0.222-0.027-0.438-0.081-0.648c-0.048-0.21-0.147-0.381-0.297-0.513
		c-0.144-0.138-0.36-0.207-0.647-0.207c-0.289,0-0.553,0.057-0.793,0.171c-0.24,0.108-0.435,0.213-0.584,0.315l-0.181-0.279
		c0.103-0.078,0.233-0.159,0.396-0.243c0.162-0.09,0.346-0.165,0.55-0.225c0.21-0.06,0.432-0.09,0.665-0.09
		c0.337,0,0.604,0.075,0.802,0.225c0.204,0.15,0.349,0.351,0.433,0.603c0.09,0.252,0.135,0.531,0.135,0.837v2.763h-0.342
		l-0.037-0.558h-0.026c-0.216,0.174-0.456,0.33-0.72,0.468C226.668,69.238,226.397,69.304,226.115,69.304z M226.188,68.953
		c0.246,0,0.482-0.057,0.711-0.171c0.234-0.12,0.486-0.294,0.756-0.522v-1.458c-0.594,0.066-1.064,0.159-1.413,0.279
		c-0.348,0.114-0.597,0.255-0.747,0.423s-0.225,0.366-0.225,0.594c0,0.306,0.09,0.525,0.27,0.657
		C225.726,68.887,225.941,68.953,226.188,68.953z M230.635,69.304c-0.336,0-0.639-0.054-0.908-0.162
		c-0.264-0.108-0.489-0.255-0.676-0.441l0.217-0.252c0.18,0.156,0.375,0.282,0.585,0.378c0.216,0.09,0.485,0.135,0.81,0.135
		c0.336,0,0.592-0.084,0.766-0.252c0.174-0.174,0.261-0.375,0.261-0.603c0-0.18-0.054-0.327-0.162-0.441
		c-0.103-0.12-0.233-0.219-0.396-0.297c-0.162-0.084-0.328-0.156-0.496-0.216c-0.221-0.078-0.435-0.165-0.639-0.261
		c-0.203-0.102-0.371-0.228-0.504-0.378c-0.132-0.156-0.197-0.354-0.197-0.594c0-0.318,0.119-0.588,0.359-0.81
		c0.24-0.228,0.582-0.342,1.025-0.342c0.246,0,0.475,0.042,0.685,0.126c0.216,0.084,0.402,0.192,0.558,0.324l-0.215,0.243
		c-0.145-0.102-0.298-0.186-0.459-0.252c-0.162-0.066-0.354-0.099-0.576-0.099c-0.336,0-0.586,0.081-0.748,0.243
		c-0.155,0.162-0.233,0.342-0.233,0.54c0,0.162,0.045,0.297,0.135,0.405c0.097,0.102,0.22,0.189,0.369,0.261
		c0.149,0.072,0.312,0.141,0.485,0.207c0.229,0.09,0.451,0.183,0.666,0.279c0.223,0.096,0.402,0.225,0.541,0.387
		c0.138,0.156,0.207,0.375,0.207,0.657c0,0.216-0.058,0.417-0.172,0.603c-0.107,0.18-0.272,0.327-0.494,0.441
		C231.211,69.247,230.947,69.304,230.635,69.304z M234.481,69.304c-0.444,0-0.774-0.135-0.99-0.405
		c-0.21-0.276-0.315-0.693-0.315-1.251v-2.772h0.396v2.718c0,0.456,0.078,0.795,0.234,1.017s0.404,0.333,0.746,0.333
		c0.259,0,0.492-0.069,0.703-0.207c0.209-0.144,0.44-0.369,0.692-0.675v-3.186h0.396v4.32h-0.332l-0.045-0.72h-0.019
		c-0.21,0.246-0.432,0.447-0.666,0.603C235.049,69.229,234.781,69.304,234.481,69.304z M238.002,69.196v-4.32h0.342l0.037,0.801
		h0.026c0.138-0.264,0.31-0.48,0.513-0.648c0.211-0.174,0.447-0.261,0.711-0.261c0.078,0,0.15,0.006,0.217,0.018
		c0.072,0.012,0.144,0.036,0.216,0.072l-0.108,0.342c-0.06-0.018-0.117-0.03-0.171-0.036c-0.048-0.012-0.116-0.018-0.207-0.018
		c-0.192,0-0.396,0.084-0.612,0.252c-0.209,0.162-0.398,0.447-0.566,0.855v2.943H238.002z M242.409,69.304
		c-0.372,0-0.708-0.09-1.008-0.27c-0.3-0.18-0.54-0.438-0.72-0.774c-0.18-0.342-0.271-0.747-0.271-1.215
		c0-0.474,0.091-0.879,0.271-1.215c0.18-0.342,0.41-0.603,0.693-0.783c0.287-0.186,0.594-0.279,0.918-0.279
		c0.342,0,0.635,0.078,0.881,0.234c0.252,0.156,0.444,0.384,0.576,0.684c0.133,0.294,0.198,0.654,0.198,1.08
		c0,0.048-0.003,0.102-0.009,0.162c0,0.054-0.006,0.111-0.018,0.171h-3.268v-0.342h2.916c0-0.552-0.113-0.963-0.342-1.233
		c-0.229-0.276-0.537-0.414-0.928-0.414c-0.239,0-0.474,0.069-0.701,0.207c-0.229,0.138-0.418,0.351-0.567,0.639
		c-0.144,0.282-0.216,0.639-0.216,1.071c0,0.396,0.072,0.741,0.216,1.035c0.144,0.288,0.339,0.51,0.585,0.666
		c0.246,0.15,0.521,0.225,0.828,0.225c0.234,0,0.447-0.03,0.639-0.09c0.198-0.066,0.373-0.153,0.522-0.261l0.162,0.279
		c-0.168,0.114-0.357,0.213-0.567,0.297S242.728,69.304,242.409,69.304z M247.59,69.196l-1.278-4.32h0.432l0.774,2.799
		c0.054,0.198,0.105,0.39,0.152,0.576c0.055,0.186,0.103,0.381,0.145,0.585h0.036c0.048-0.204,0.099-0.399,0.153-0.585
		c0.053-0.186,0.104-0.378,0.152-0.576l0.783-2.799h0.495l0.782,2.799c0.055,0.198,0.105,0.39,0.153,0.576
		c0.054,0.186,0.108,0.381,0.162,0.585h0.036c0.048-0.204,0.096-0.399,0.145-0.585c0.054-0.186,0.107-0.378,0.162-0.576l0.764-2.799
		h0.406l-1.242,4.32h-0.531l-0.756-2.682c-0.055-0.21-0.108-0.414-0.162-0.612c-0.049-0.204-0.102-0.414-0.162-0.63h-0.036
		c-0.048,0.216-0.099,0.429-0.153,0.639c-0.054,0.204-0.113,0.411-0.18,0.621l-0.738,2.664H247.59z M254.651,69.304
		c-0.342,0-0.663-0.087-0.963-0.261c-0.294-0.18-0.531-0.438-0.711-0.774c-0.175-0.342-0.261-0.75-0.261-1.224
		c0-0.48,0.086-0.891,0.261-1.233c0.18-0.342,0.417-0.6,0.711-0.774c0.3-0.18,0.621-0.27,0.963-0.27c0.349,0,0.669,0.09,0.963,0.27
		c0.294,0.174,0.531,0.432,0.711,0.774c0.181,0.342,0.271,0.753,0.271,1.233c0,0.474-0.09,0.882-0.271,1.224
		c-0.18,0.336-0.417,0.594-0.711,0.774C255.32,69.217,255,69.304,254.651,69.304z M254.651,68.953c0.294,0,0.556-0.078,0.783-0.234
		c0.233-0.162,0.417-0.387,0.549-0.675c0.132-0.288,0.198-0.621,0.198-0.999s-0.066-0.711-0.198-0.999
		c-0.132-0.294-0.315-0.522-0.549-0.684c-0.228-0.162-0.489-0.243-0.783-0.243c-0.288,0-0.546,0.081-0.774,0.243
		c-0.228,0.162-0.41,0.39-0.549,0.684c-0.132,0.288-0.197,0.621-0.197,0.999s0.065,0.711,0.197,0.999
		c0.139,0.288,0.321,0.513,0.549,0.675C254.105,68.875,254.363,68.953,254.651,68.953z M257.893,69.196v-4.32h0.342l0.036,0.801
		h0.026c0.139-0.264,0.31-0.48,0.514-0.648c0.21-0.174,0.447-0.261,0.711-0.261c0.078,0,0.15,0.006,0.216,0.018
		c0.072,0.012,0.144,0.036,0.216,0.072l-0.107,0.342c-0.061-0.018-0.117-0.03-0.172-0.036c-0.047-0.012-0.117-0.018-0.207-0.018
		c-0.191,0-0.396,0.084-0.611,0.252c-0.21,0.162-0.398,0.447-0.566,0.855v2.943H257.893z M260.75,69.196v-6.471h0.396v4.77h0.019
		l2.133-2.619h0.459l-1.404,1.71l1.638,2.61h-0.44l-1.432-2.313l-0.972,1.134v1.179H260.75z M264.924,69.196v-4.32h0.396v4.32
		H264.924z M265.112,63.832c-0.096,0-0.177-0.033-0.243-0.099c-0.066-0.072-0.099-0.162-0.099-0.27s0.032-0.192,0.099-0.252
		c0.066-0.066,0.147-0.099,0.243-0.099c0.103,0,0.183,0.033,0.243,0.099c0.066,0.06,0.1,0.144,0.1,0.252s-0.033,0.198-0.1,0.27
		C265.295,63.799,265.215,63.832,265.112,63.832z M266.98,69.196v-4.32h0.342l0.036,0.666h0.026
		c0.223-0.222,0.451-0.405,0.685-0.549c0.24-0.15,0.507-0.225,0.801-0.225c0.45,0,0.78,0.138,0.99,0.414
		c0.21,0.27,0.315,0.684,0.315,1.242v2.772h-0.396v-2.718c0-0.462-0.078-0.801-0.234-1.017c-0.149-0.222-0.401-0.333-0.756-0.333
		c-0.258,0-0.492,0.069-0.701,0.207c-0.205,0.132-0.441,0.333-0.711,0.603v3.258H266.98z M273.184,71.275
		c-0.366,0-0.682-0.051-0.945-0.153c-0.264-0.096-0.468-0.234-0.612-0.414c-0.144-0.174-0.216-0.384-0.216-0.63
		c0-0.192,0.058-0.378,0.171-0.558c0.114-0.18,0.271-0.342,0.469-0.486v-0.036c-0.108-0.066-0.198-0.156-0.271-0.27
		c-0.072-0.114-0.108-0.255-0.108-0.423c0-0.192,0.055-0.354,0.162-0.486c0.108-0.138,0.21-0.24,0.307-0.306v-0.036
		c-0.132-0.12-0.255-0.282-0.369-0.486c-0.114-0.21-0.171-0.444-0.171-0.702c0-0.294,0.065-0.555,0.197-0.783
		c0.139-0.234,0.321-0.414,0.55-0.54c0.233-0.132,0.491-0.198,0.773-0.198c0.12,0,0.229,0.012,0.324,0.036
		c0.102,0.018,0.183,0.042,0.243,0.072h1.467v0.333h-1.008v0.036c0.132,0.108,0.243,0.249,0.333,0.423
		c0.096,0.174,0.144,0.384,0.144,0.63c0,0.294-0.068,0.555-0.207,0.783c-0.132,0.228-0.312,0.408-0.54,0.54
		c-0.222,0.132-0.474,0.198-0.756,0.198c-0.126,0-0.252-0.015-0.378-0.045c-0.126-0.036-0.24-0.081-0.342-0.135
		c-0.09,0.072-0.171,0.159-0.243,0.261c-0.072,0.096-0.107,0.216-0.107,0.36c0,0.156,0.057,0.291,0.171,0.405
		c0.12,0.108,0.339,0.162,0.656,0.162h0.928c0.485,0,0.843,0.081,1.07,0.243c0.234,0.156,0.352,0.405,0.352,0.747
		c0,0.246-0.084,0.48-0.252,0.702c-0.168,0.222-0.405,0.402-0.711,0.54C273.957,71.203,273.598,71.275,273.184,71.275z
		 M273.12,67.504c0.198,0,0.381-0.051,0.549-0.153c0.168-0.103,0.304-0.243,0.405-0.423c0.108-0.186,0.162-0.399,0.162-0.639
		c0-0.372-0.111-0.663-0.333-0.873c-0.216-0.216-0.477-0.324-0.783-0.324c-0.306,0-0.569,0.108-0.792,0.324
		c-0.222,0.21-0.333,0.501-0.333,0.873c0,0.24,0.051,0.453,0.153,0.639c0.108,0.18,0.246,0.321,0.414,0.423
		C272.73,67.453,272.916,67.504,273.12,67.504z M273.229,70.951c0.324,0,0.603-0.054,0.837-0.162
		c0.24-0.102,0.426-0.237,0.558-0.405s0.198-0.342,0.198-0.522c0-0.24-0.087-0.411-0.261-0.513
		c-0.168-0.096-0.414-0.144-0.738-0.144h-0.927c-0.042,0-0.114-0.006-0.216-0.018c-0.103-0.012-0.21-0.03-0.324-0.054
		c-0.198,0.132-0.342,0.276-0.432,0.432c-0.091,0.162-0.136,0.321-0.136,0.477c0,0.27,0.126,0.489,0.378,0.657
		S272.772,70.951,273.229,70.951z M278.624,69.196l-1.277-4.32h0.432l0.774,2.799c0.054,0.198,0.104,0.39,0.152,0.576
		c0.055,0.186,0.103,0.381,0.145,0.585h0.036c0.048-0.204,0.099-0.399,0.152-0.585c0.055-0.186,0.105-0.378,0.153-0.576l0.783-2.799
		h0.495l0.782,2.799c0.055,0.198,0.105,0.39,0.153,0.576c0.054,0.186,0.108,0.381,0.162,0.585h0.036
		c0.048-0.204,0.096-0.399,0.144-0.585c0.055-0.186,0.108-0.378,0.162-0.576l0.766-2.799h0.404l-1.242,4.32h-0.53l-0.756-2.682
		c-0.055-0.21-0.108-0.414-0.162-0.612c-0.048-0.204-0.103-0.414-0.162-0.63h-0.036c-0.048,0.216-0.099,0.429-0.153,0.639
		c-0.054,0.204-0.113,0.411-0.18,0.621l-0.738,2.664H278.624z M284.119,69.196v-4.32h0.396v4.32H284.119z M284.309,63.832
		c-0.097,0-0.177-0.033-0.243-0.099c-0.066-0.072-0.099-0.162-0.099-0.27s0.032-0.192,0.099-0.252
		c0.066-0.066,0.146-0.099,0.243-0.099c0.102,0,0.183,0.033,0.243,0.099c0.065,0.06,0.099,0.144,0.099,0.252
		s-0.033,0.198-0.099,0.27C284.491,63.799,284.41,63.832,284.309,63.832z M287.354,69.268c-0.42,0-0.705-0.12-0.855-0.36
		c-0.149-0.24-0.225-0.552-0.225-0.936v-2.754H285.6v-0.306l0.684-0.036l0.054-1.431h0.343v1.431h1.251v0.342h-1.251v2.781
		c0,0.276,0.048,0.501,0.144,0.675c0.096,0.168,0.291,0.252,0.585,0.252c0.084,0,0.168-0.009,0.252-0.027
		c0.09-0.024,0.187-0.06,0.288-0.108l0.126,0.279c-0.114,0.06-0.233,0.108-0.359,0.144C287.588,69.25,287.469,69.268,287.354,69.268
		z M288.979,69.196v-6.471h0.396v1.872v0.954c0.223-0.222,0.453-0.408,0.693-0.558c0.24-0.15,0.507-0.225,0.801-0.225
		c0.45,0,0.78,0.138,0.99,0.414c0.21,0.27,0.315,0.684,0.315,1.242v2.772h-0.396v-2.718c0-0.462-0.078-0.801-0.234-1.017
		c-0.149-0.222-0.401-0.333-0.756-0.333c-0.258,0-0.492,0.069-0.702,0.207c-0.203,0.132-0.44,0.333-0.711,0.603v3.258H288.979z
		 M296.67,69.196l-1.926-5.931h0.441l1.062,3.465c0.078,0.246,0.15,0.474,0.216,0.684c0.066,0.21,0.133,0.42,0.198,0.63
		c0.066,0.204,0.139,0.426,0.216,0.666h0.036c0.072-0.24,0.142-0.462,0.207-0.666c0.066-0.21,0.132-0.42,0.198-0.63
		s0.138-0.438,0.216-0.684l1.134-3.465h0.424l-1.98,5.931H296.67z M301.48,69.304c-0.372,0-0.708-0.09-1.008-0.27
		c-0.301-0.18-0.54-0.438-0.721-0.774c-0.18-0.342-0.27-0.747-0.27-1.215c0-0.474,0.09-0.879,0.27-1.215
		c0.181-0.342,0.411-0.603,0.693-0.783c0.288-0.186,0.594-0.279,0.918-0.279c0.342,0,0.636,0.078,0.882,0.234
		c0.252,0.156,0.444,0.384,0.576,0.684c0.132,0.294,0.198,0.654,0.198,1.08c0,0.048-0.003,0.102-0.009,0.162
		c0,0.054-0.007,0.111-0.019,0.171h-3.267v-0.342h2.916c0-0.552-0.114-0.963-0.342-1.233c-0.229-0.276-0.537-0.414-0.928-0.414
		c-0.239,0-0.474,0.069-0.702,0.207c-0.228,0.138-0.417,0.351-0.566,0.639c-0.145,0.282-0.216,0.639-0.216,1.071
		c0,0.396,0.071,0.741,0.216,1.035c0.144,0.288,0.339,0.51,0.585,0.666c0.246,0.15,0.521,0.225,0.828,0.225
		c0.233,0,0.446-0.03,0.639-0.09c0.198-0.066,0.372-0.153,0.522-0.261l0.162,0.279c-0.169,0.114-0.357,0.213-0.567,0.297
		S301.799,69.304,301.48,69.304z M304.193,69.196v-4.32h0.342l0.036,0.801h0.027c0.138-0.264,0.309-0.48,0.513-0.648
		c0.21-0.174,0.447-0.261,0.711-0.261c0.078,0,0.15,0.006,0.216,0.018c0.072,0.012,0.145,0.036,0.216,0.072l-0.107,0.342
		c-0.061-0.018-0.117-0.03-0.171-0.036c-0.048-0.012-0.117-0.018-0.207-0.018c-0.192,0-0.396,0.084-0.612,0.252
		c-0.21,0.162-0.398,0.447-0.566,0.855v2.943H304.193z M308.536,69.304c-0.342,0-0.663-0.087-0.963-0.261
		c-0.294-0.18-0.531-0.438-0.711-0.774c-0.174-0.342-0.261-0.75-0.261-1.224c0-0.48,0.087-0.891,0.261-1.233
		c0.18-0.342,0.417-0.6,0.711-0.774c0.3-0.18,0.621-0.27,0.963-0.27c0.349,0,0.669,0.09,0.963,0.27
		c0.294,0.174,0.531,0.432,0.711,0.774c0.181,0.342,0.271,0.753,0.271,1.233c0,0.474-0.09,0.882-0.271,1.224
		c-0.18,0.336-0.417,0.594-0.711,0.774C309.205,69.217,308.885,69.304,308.536,69.304z M308.536,68.953
		c0.294,0,0.556-0.078,0.783-0.234c0.234-0.162,0.417-0.387,0.549-0.675c0.132-0.288,0.198-0.621,0.198-0.999
		s-0.066-0.711-0.198-0.999c-0.132-0.294-0.314-0.522-0.549-0.684c-0.228-0.162-0.489-0.243-0.783-0.243
		c-0.288,0-0.546,0.081-0.773,0.243c-0.229,0.162-0.411,0.39-0.55,0.684c-0.132,0.288-0.197,0.621-0.197,0.999
		s0.065,0.711,0.197,0.999c0.139,0.288,0.321,0.513,0.55,0.675C307.99,68.875,308.248,68.953,308.536,68.953z M311.778,69.196v-4.32
		h0.342l0.036,0.666h0.027c0.222-0.222,0.45-0.405,0.684-0.549c0.24-0.15,0.507-0.225,0.801-0.225c0.45,0,0.78,0.138,0.99,0.414
		c0.21,0.27,0.315,0.684,0.315,1.242v2.772h-0.396v-2.718c0-0.462-0.078-0.801-0.233-1.017c-0.15-0.222-0.402-0.333-0.757-0.333
		c-0.258,0-0.491,0.069-0.701,0.207c-0.204,0.132-0.441,0.333-0.711,0.603v3.258H311.778z M316.568,69.196v-4.32h0.396v4.32H316.568
		z M316.758,63.832c-0.097,0-0.178-0.033-0.243-0.099c-0.066-0.072-0.1-0.162-0.1-0.27s0.033-0.192,0.1-0.252
		c0.065-0.066,0.146-0.099,0.243-0.099c0.102,0,0.183,0.033,0.242,0.099c0.066,0.06,0.1,0.144,0.1,0.252s-0.033,0.198-0.1,0.27
		C316.94,63.799,316.859,63.832,316.758,63.832z M320.228,69.304c-0.372,0-0.708-0.087-1.008-0.261
		c-0.294-0.18-0.528-0.438-0.702-0.774c-0.168-0.342-0.252-0.75-0.252-1.224c0-0.48,0.09-0.891,0.27-1.233
		c0.187-0.342,0.43-0.6,0.729-0.774c0.3-0.18,0.624-0.27,0.972-0.27c0.3,0,0.549,0.051,0.747,0.153
		c0.198,0.096,0.372,0.222,0.521,0.378l-0.216,0.243c-0.126-0.132-0.275-0.234-0.449-0.306c-0.175-0.078-0.372-0.117-0.595-0.117
		c-0.294,0-0.558,0.081-0.792,0.243c-0.233,0.162-0.423,0.387-0.566,0.675c-0.139,0.288-0.207,0.624-0.207,1.008
		c0,0.378,0.063,0.711,0.188,0.999c0.132,0.288,0.315,0.513,0.549,0.675c0.234,0.156,0.511,0.234,0.828,0.234
		c0.234,0,0.45-0.042,0.648-0.126c0.198-0.09,0.366-0.207,0.504-0.351l0.207,0.243c-0.18,0.174-0.384,0.315-0.612,0.423
		C320.765,69.25,320.51,69.304,320.228,69.304z M323.525,69.304c-0.229,0-0.438-0.042-0.63-0.126
		c-0.187-0.084-0.336-0.213-0.45-0.387c-0.114-0.18-0.171-0.402-0.171-0.666c0-0.486,0.225-0.852,0.675-1.098
		c0.45-0.252,1.155-0.432,2.115-0.54c0-0.222-0.027-0.438-0.081-0.648c-0.048-0.21-0.147-0.381-0.297-0.513
		c-0.145-0.138-0.36-0.207-0.648-0.207s-0.552,0.057-0.792,0.171c-0.239,0.108-0.435,0.213-0.585,0.315l-0.18-0.279
		c0.102-0.078,0.234-0.159,0.396-0.243c0.162-0.09,0.346-0.165,0.55-0.225c0.21-0.06,0.432-0.09,0.666-0.09
		c0.336,0,0.603,0.075,0.801,0.225c0.204,0.15,0.348,0.351,0.432,0.603c0.09,0.252,0.135,0.531,0.135,0.837v2.763h-0.342
		l-0.036-0.558h-0.026c-0.216,0.174-0.456,0.33-0.721,0.468C324.077,69.238,323.808,69.304,323.525,69.304z M323.598,68.953
		c0.246,0,0.482-0.057,0.711-0.171c0.233-0.12,0.485-0.294,0.756-0.522v-1.458c-0.594,0.066-1.065,0.159-1.413,0.279
		c-0.348,0.114-0.597,0.255-0.747,0.423s-0.225,0.366-0.225,0.594c0,0.306,0.09,0.525,0.27,0.657
		C323.136,68.887,323.352,68.953,323.598,68.953z M327.162,69.304c-0.096,0-0.186-0.036-0.27-0.108
		c-0.078-0.072-0.117-0.171-0.117-0.297c0-0.132,0.039-0.234,0.117-0.306c0.084-0.072,0.174-0.108,0.27-0.108
		c0.103,0,0.189,0.036,0.262,0.108c0.077,0.072,0.116,0.174,0.116,0.306c0,0.126-0.039,0.225-0.116,0.297
		C327.352,69.268,327.265,69.304,327.162,69.304z M109.562,85.304c-0.432,0-0.816-0.084-1.152-0.252
		c-0.33-0.168-0.615-0.381-0.855-0.64l0.261-0.27c0.21,0.24,0.465,0.432,0.765,0.576c0.306,0.139,0.633,0.207,0.981,0.207
		c0.456,0,0.816-0.107,1.08-0.324c0.264-0.222,0.396-0.51,0.396-0.863c0-0.246-0.048-0.444-0.144-0.594
		c-0.096-0.15-0.225-0.273-0.387-0.369c-0.162-0.097-0.339-0.189-0.531-0.279l-0.9-0.405c-0.18-0.078-0.363-0.177-0.549-0.297
		c-0.18-0.12-0.336-0.272-0.468-0.459c-0.126-0.192-0.189-0.433-0.189-0.72c0-0.289,0.075-0.541,0.225-0.756
		c0.15-0.223,0.354-0.394,0.612-0.514c0.258-0.126,0.555-0.189,0.891-0.189c0.36,0,0.681,0.07,0.963,0.207
		c0.282,0.139,0.51,0.304,0.684,0.496l-0.225,0.27c-0.18-0.18-0.39-0.324-0.63-0.432c-0.234-0.108-0.498-0.162-0.792-0.162
		c-0.39,0-0.708,0.096-0.954,0.287c-0.24,0.192-0.36,0.451-0.36,0.774c0,0.228,0.054,0.414,0.162,0.558
		c0.114,0.145,0.252,0.262,0.414,0.352c0.162,0.09,0.312,0.168,0.45,0.234l0.9,0.396c0.228,0.103,0.438,0.22,0.63,0.351
		c0.192,0.127,0.342,0.285,0.45,0.478c0.114,0.192,0.171,0.44,0.171,0.747c0,0.3-0.078,0.572-0.234,0.818
		c-0.15,0.24-0.369,0.43-0.657,0.567C110.288,85.234,109.952,85.304,109.562,85.304z M112.662,85.195v-6.471h0.396v1.872v0.954
		c0.222-0.223,0.453-0.408,0.693-0.559c0.24-0.149,0.507-0.225,0.801-0.225c0.45,0,0.78,0.139,0.99,0.414
		c0.21,0.27,0.315,0.684,0.315,1.242v2.771h-0.396v-2.717c0-0.463-0.078-0.802-0.234-1.018c-0.15-0.223-0.402-0.333-0.756-0.333
		c-0.258,0-0.492,0.069-0.702,0.207c-0.204,0.132-0.441,0.333-0.711,0.603v3.258H112.662z M119.055,85.304
		c-0.372,0-0.708-0.09-1.008-0.271c-0.3-0.18-0.54-0.438-0.72-0.773c-0.18-0.342-0.27-0.747-0.27-1.215
		c0-0.475,0.09-0.879,0.27-1.215c0.18-0.342,0.411-0.604,0.693-0.783c0.288-0.186,0.594-0.279,0.918-0.279
		c0.342,0,0.636,0.078,0.882,0.234c0.252,0.156,0.444,0.384,0.576,0.684c0.132,0.295,0.198,0.654,0.198,1.08
		c0,0.049-0.003,0.102-0.009,0.162c0,0.055-0.006,0.111-0.018,0.171H117.3v-0.342h2.916c0-0.552-0.114-0.963-0.342-1.233
		c-0.228-0.275-0.537-0.414-0.927-0.414c-0.24,0-0.474,0.069-0.702,0.207c-0.228,0.139-0.417,0.352-0.567,0.639
		c-0.144,0.283-0.216,0.64-0.216,1.072c0,0.396,0.072,0.74,0.216,1.035c0.144,0.287,0.339,0.51,0.585,0.666
		c0.246,0.149,0.522,0.225,0.828,0.225c0.234,0,0.447-0.03,0.639-0.09c0.198-0.066,0.372-0.153,0.522-0.262l0.162,0.279
		c-0.168,0.113-0.357,0.213-0.567,0.297S119.373,85.304,119.055,85.304z M123.569,87.148v-6.272h0.342l0.036,0.54h0.027
		c0.21-0.168,0.438-0.318,0.684-0.45c0.252-0.132,0.513-0.198,0.783-0.198c0.384,0,0.702,0.09,0.954,0.27
		c0.258,0.181,0.45,0.439,0.576,0.775c0.132,0.329,0.198,0.717,0.198,1.16c0,0.486-0.09,0.903-0.27,1.251
		c-0.174,0.349-0.405,0.615-0.693,0.802c-0.288,0.186-0.603,0.278-0.945,0.278c-0.204,0-0.417-0.045-0.639-0.135
		c-0.216-0.097-0.435-0.228-0.657-0.396v0.801v1.574H123.569z M125.243,84.953c0.294,0,0.552-0.084,0.774-0.252
		c0.228-0.168,0.405-0.399,0.531-0.693c0.132-0.3,0.198-0.645,0.198-1.035c0-0.354-0.045-0.669-0.135-0.945
		c-0.09-0.281-0.237-0.504-0.441-0.666c-0.198-0.162-0.462-0.242-0.792-0.242c-0.216,0-0.441,0.06-0.675,0.18
		c-0.228,0.12-0.474,0.297-0.738,0.531v2.564c0.246,0.204,0.48,0.348,0.702,0.432C124.889,84.91,125.081,84.953,125.243,84.953z
		 M128.465,85.195v-4.319h0.342l0.036,0.801h0.027c0.138-0.265,0.309-0.479,0.513-0.647c0.21-0.174,0.447-0.262,0.711-0.262
		c0.078,0,0.15,0.006,0.216,0.018c0.072,0.013,0.144,0.037,0.216,0.072l-0.108,0.342c-0.06-0.018-0.117-0.029-0.171-0.035
		c-0.048-0.012-0.117-0.018-0.207-0.018c-0.192,0-0.396,0.084-0.612,0.252c-0.21,0.162-0.399,0.446-0.567,0.854v2.942H128.465z
		 M132.808,85.304c-0.342,0-0.663-0.087-0.963-0.261c-0.294-0.18-0.531-0.438-0.711-0.773c-0.174-0.343-0.261-0.75-0.261-1.225
		c0-0.48,0.087-0.891,0.261-1.232c0.18-0.343,0.417-0.601,0.711-0.775c0.3-0.18,0.621-0.27,0.963-0.27
		c0.348,0,0.669,0.09,0.963,0.27c0.294,0.175,0.531,0.433,0.711,0.775c0.18,0.342,0.27,0.752,0.27,1.232
		c0,0.475-0.09,0.882-0.27,1.225c-0.18,0.336-0.417,0.594-0.711,0.773C133.477,85.217,133.156,85.304,132.808,85.304z
		 M132.808,84.953c0.294,0,0.555-0.078,0.783-0.234c0.234-0.162,0.417-0.387,0.549-0.675c0.132-0.288,0.198-0.621,0.198-0.999
		s-0.066-0.711-0.198-0.999c-0.132-0.294-0.315-0.522-0.549-0.685c-0.228-0.162-0.489-0.242-0.783-0.242
		c-0.288,0-0.546,0.08-0.774,0.242s-0.411,0.391-0.549,0.685c-0.132,0.288-0.198,0.621-0.198,0.999s0.066,0.711,0.198,0.999
		c0.138,0.288,0.321,0.513,0.549,0.675C132.262,84.875,132.52,84.953,132.808,84.953z M136.941,85.195l-1.62-4.319h0.432
		l0.972,2.709c0.066,0.204,0.138,0.413,0.216,0.63c0.078,0.21,0.15,0.414,0.216,0.611h0.036c0.072-0.197,0.144-0.401,0.216-0.611
		c0.078-0.217,0.153-0.426,0.225-0.63l0.972-2.709h0.405l-1.602,4.319H136.941z M139.943,85.195v-4.319h0.396v4.319H139.943z
		 M140.132,79.832c-0.096,0-0.177-0.033-0.243-0.1c-0.066-0.072-0.099-0.162-0.099-0.27s0.033-0.191,0.099-0.252
		c0.066-0.066,0.147-0.1,0.243-0.1c0.102,0,0.183,0.033,0.243,0.1c0.066,0.061,0.099,0.145,0.099,0.252s-0.033,0.197-0.099,0.27
		C140.315,79.799,140.234,79.832,140.132,79.832z M143.431,85.304c-0.54,0-0.975-0.194-1.305-0.585
		c-0.324-0.391-0.486-0.947-0.486-1.674c0-0.469,0.087-0.87,0.261-1.206c0.18-0.343,0.414-0.606,0.702-0.792
		c0.294-0.186,0.612-0.279,0.954-0.279c0.264,0,0.495,0.045,0.693,0.135c0.198,0.09,0.402,0.223,0.612,0.396l-0.018-0.792v-1.782
		h0.396v6.471h-0.342l-0.036-0.558h-0.027c-0.174,0.175-0.381,0.33-0.621,0.468C143.98,85.238,143.719,85.304,143.431,85.304z
		 M143.485,84.953c0.24,0,0.468-0.061,0.684-0.18c0.222-0.127,0.447-0.304,0.675-0.531v-2.565c-0.228-0.204-0.441-0.349-0.639-0.433
		c-0.198-0.084-0.405-0.125-0.621-0.125c-0.288,0-0.546,0.084-0.774,0.252s-0.411,0.398-0.549,0.693
		c-0.132,0.287-0.198,0.614-0.198,0.98c0,0.57,0.123,1.031,0.369,1.386C142.678,84.779,143.029,84.953,143.485,84.953z
		 M148.533,85.304c-0.372,0-0.708-0.09-1.008-0.271c-0.3-0.18-0.54-0.438-0.72-0.773c-0.18-0.342-0.27-0.747-0.27-1.215
		c0-0.475,0.09-0.879,0.27-1.215c0.18-0.342,0.411-0.604,0.693-0.783c0.288-0.186,0.594-0.279,0.918-0.279
		c0.342,0,0.636,0.078,0.882,0.234c0.252,0.156,0.444,0.384,0.576,0.684c0.132,0.295,0.198,0.654,0.198,1.08
		c0,0.049-0.003,0.102-0.009,0.162c0,0.055-0.006,0.111-0.018,0.171h-3.267v-0.342h2.916c0-0.552-0.114-0.963-0.342-1.233
		c-0.228-0.275-0.537-0.414-0.927-0.414c-0.24,0-0.474,0.069-0.702,0.207c-0.228,0.139-0.417,0.352-0.567,0.639
		c-0.144,0.283-0.216,0.64-0.216,1.072c0,0.396,0.072,0.74,0.216,1.035c0.144,0.287,0.339,0.51,0.585,0.666
		c0.246,0.149,0.522,0.225,0.828,0.225c0.234,0,0.447-0.03,0.639-0.09c0.198-0.066,0.372-0.153,0.522-0.262l0.162,0.279
		c-0.168,0.113-0.357,0.213-0.567,0.297S148.852,85.304,148.533,85.304z M152.677,85.304c-0.54,0-0.975-0.194-1.305-0.585
		c-0.324-0.391-0.486-0.947-0.486-1.674c0-0.469,0.087-0.87,0.261-1.206c0.18-0.343,0.414-0.606,0.702-0.792
		c0.294-0.186,0.612-0.279,0.954-0.279c0.264,0,0.495,0.045,0.693,0.135c0.198,0.09,0.402,0.223,0.612,0.396l-0.018-0.792v-1.782
		h0.396v6.471h-0.342l-0.036-0.558h-0.027c-0.174,0.175-0.381,0.33-0.621,0.468C153.226,85.238,152.965,85.304,152.677,85.304z
		 M152.731,84.953c0.24,0,0.468-0.061,0.684-0.18c0.222-0.127,0.447-0.304,0.675-0.531v-2.565c-0.228-0.204-0.441-0.349-0.639-0.433
		c-0.198-0.084-0.405-0.125-0.621-0.125c-0.288,0-0.546,0.084-0.774,0.252s-0.411,0.398-0.549,0.693
		c-0.132,0.287-0.198,0.614-0.198,0.98c0,0.57,0.123,1.031,0.369,1.386C151.924,84.779,152.275,84.953,152.731,84.953z
		 M159.356,87.275c-0.366,0-0.681-0.052-0.945-0.154c-0.264-0.096-0.468-0.233-0.612-0.413c-0.144-0.175-0.216-0.384-0.216-0.63
		c0-0.192,0.057-0.379,0.171-0.559c0.114-0.18,0.27-0.342,0.468-0.486v-0.035c-0.108-0.066-0.198-0.156-0.27-0.27
		c-0.072-0.115-0.108-0.256-0.108-0.424c0-0.191,0.054-0.354,0.162-0.486c0.108-0.138,0.21-0.24,0.306-0.306v-0.036
		c-0.132-0.119-0.255-0.281-0.369-0.486c-0.114-0.209-0.171-0.443-0.171-0.701c0-0.295,0.066-0.555,0.198-0.783
		c0.138-0.234,0.321-0.414,0.549-0.54c0.234-0.132,0.492-0.198,0.774-0.198c0.12,0,0.228,0.012,0.324,0.036
		c0.102,0.019,0.183,0.042,0.243,0.072h1.467v0.333h-1.008v0.035c0.132,0.109,0.243,0.25,0.333,0.424
		c0.096,0.174,0.144,0.384,0.144,0.63c0,0.294-0.069,0.556-0.207,0.782c-0.132,0.229-0.312,0.408-0.54,0.541
		c-0.222,0.132-0.474,0.197-0.756,0.197c-0.126,0-0.252-0.015-0.378-0.045c-0.126-0.035-0.24-0.08-0.342-0.135
		c-0.09,0.072-0.171,0.159-0.243,0.262c-0.072,0.096-0.108,0.215-0.108,0.359c0,0.156,0.057,0.291,0.171,0.404
		c0.12,0.109,0.339,0.162,0.657,0.162h0.927c0.486,0,0.843,0.082,1.071,0.244c0.234,0.156,0.351,0.404,0.351,0.746
		c0,0.246-0.084,0.48-0.252,0.703c-0.168,0.221-0.405,0.401-0.711,0.539C160.13,87.203,159.771,87.275,159.356,87.275z
		 M159.293,83.504c0.198,0,0.381-0.051,0.549-0.152c0.168-0.104,0.303-0.244,0.405-0.424c0.108-0.186,0.162-0.398,0.162-0.639
		c0-0.372-0.111-0.663-0.333-0.873c-0.216-0.217-0.477-0.324-0.783-0.324c-0.306,0-0.57,0.107-0.792,0.324
		c-0.222,0.21-0.333,0.501-0.333,0.873c0,0.24,0.051,0.453,0.153,0.639c0.108,0.18,0.246,0.32,0.414,0.424
		C158.903,83.453,159.089,83.504,159.293,83.504z M159.401,86.951c0.324,0,0.603-0.055,0.837-0.162
		c0.24-0.102,0.426-0.237,0.558-0.405c0.132-0.168,0.198-0.342,0.198-0.522c0-0.24-0.087-0.41-0.261-0.513
		c-0.168-0.096-0.414-0.144-0.738-0.144h-0.927c-0.042,0-0.114-0.006-0.216-0.018c-0.102-0.013-0.21-0.031-0.324-0.055
		c-0.198,0.132-0.342,0.275-0.432,0.432c-0.09,0.162-0.135,0.321-0.135,0.478c0,0.271,0.126,0.489,0.378,0.657
		S158.945,86.951,159.401,86.951z M162.329,85.195v-4.319h0.342l0.036,0.801h0.027c0.138-0.265,0.309-0.479,0.513-0.647
		c0.21-0.174,0.447-0.262,0.711-0.262c0.078,0,0.15,0.006,0.216,0.018c0.072,0.013,0.144,0.037,0.216,0.072l-0.108,0.342
		c-0.06-0.018-0.117-0.029-0.171-0.035c-0.048-0.012-0.117-0.018-0.207-0.018c-0.192,0-0.396,0.084-0.612,0.252
		c-0.21,0.162-0.399,0.446-0.567,0.854v2.942H162.329z M166.735,85.304c-0.372,0-0.708-0.09-1.008-0.271
		c-0.3-0.18-0.54-0.438-0.72-0.773c-0.18-0.342-0.27-0.747-0.27-1.215c0-0.475,0.09-0.879,0.27-1.215
		c0.18-0.342,0.411-0.604,0.693-0.783c0.288-0.186,0.594-0.279,0.918-0.279c0.342,0,0.636,0.078,0.882,0.234
		c0.252,0.156,0.444,0.384,0.576,0.684c0.132,0.295,0.198,0.654,0.198,1.08c0,0.049-0.003,0.102-0.009,0.162
		c0,0.055-0.006,0.111-0.018,0.171h-3.267v-0.342h2.916c0-0.552-0.114-0.963-0.342-1.233c-0.228-0.275-0.537-0.414-0.927-0.414
		c-0.24,0-0.474,0.069-0.702,0.207c-0.228,0.139-0.417,0.352-0.567,0.639c-0.144,0.283-0.216,0.64-0.216,1.072
		c0,0.396,0.072,0.74,0.216,1.035c0.144,0.287,0.339,0.51,0.585,0.666c0.246,0.149,0.522,0.225,0.828,0.225
		c0.234,0,0.447-0.03,0.639-0.09c0.198-0.066,0.372-0.153,0.522-0.262l0.162,0.279c-0.168,0.113-0.357,0.213-0.567,0.297
		C167.317,85.262,167.054,85.304,166.735,85.304z M170.261,85.304c-0.228,0-0.438-0.042-0.63-0.126
		c-0.186-0.084-0.336-0.213-0.45-0.387c-0.114-0.18-0.171-0.402-0.171-0.666c0-0.486,0.225-0.852,0.675-1.098
		c0.45-0.252,1.155-0.433,2.115-0.541c0-0.222-0.027-0.438-0.081-0.647c-0.048-0.21-0.147-0.381-0.297-0.513
		c-0.144-0.139-0.36-0.207-0.648-0.207s-0.552,0.057-0.792,0.17c-0.24,0.109-0.435,0.214-0.585,0.316l-0.18-0.279
		c0.102-0.078,0.234-0.159,0.396-0.243c0.162-0.091,0.345-0.165,0.549-0.226c0.21-0.06,0.432-0.09,0.666-0.09
		c0.336,0,0.603,0.075,0.801,0.225c0.204,0.15,0.348,0.352,0.432,0.604c0.09,0.252,0.135,0.531,0.135,0.837v2.763h-0.342
		l-0.036-0.558h-0.027c-0.216,0.175-0.456,0.33-0.72,0.468C170.813,85.238,170.543,85.304,170.261,85.304z M170.333,84.953
		c0.246,0,0.483-0.057,0.711-0.172c0.234-0.119,0.486-0.293,0.756-0.521v-1.458c-0.594,0.065-1.065,0.159-1.413,0.278
		c-0.348,0.115-0.597,0.256-0.747,0.424s-0.225,0.365-0.225,0.594c0,0.307,0.09,0.525,0.27,0.657
		C169.871,84.887,170.087,84.953,170.333,84.953z M174.819,85.268c-0.42,0-0.705-0.119-0.855-0.359s-0.225-0.553-0.225-0.937v-2.754
		h-0.675v-0.306l0.684-0.036l0.054-1.431h0.342v1.431h1.251v0.342h-1.251v2.78c0,0.277,0.048,0.502,0.144,0.676
		c0.096,0.168,0.291,0.252,0.585,0.252c0.084,0,0.168-0.009,0.252-0.027c0.09-0.023,0.186-0.06,0.288-0.107l0.126,0.279
		c-0.114,0.06-0.234,0.107-0.36,0.144C175.053,85.25,174.934,85.268,174.819,85.268z M178.246,85.195v-4.319h0.342l0.036,0.801
		h0.026c0.139-0.265,0.31-0.479,0.514-0.647c0.21-0.174,0.447-0.262,0.711-0.262c0.078,0,0.15,0.006,0.216,0.018
		c0.072,0.013,0.144,0.037,0.216,0.072l-0.107,0.342c-0.061-0.018-0.117-0.029-0.172-0.035c-0.047-0.012-0.116-0.018-0.207-0.018
		c-0.191,0-0.396,0.084-0.611,0.252c-0.21,0.162-0.398,0.446-0.566,0.854v2.942H178.246z M182.652,85.304
		c-0.371,0-0.708-0.09-1.008-0.271c-0.3-0.18-0.54-0.438-0.72-0.773c-0.181-0.342-0.271-0.747-0.271-1.215
		c0-0.475,0.09-0.879,0.271-1.215c0.18-0.342,0.411-0.604,0.692-0.783c0.289-0.186,0.594-0.279,0.918-0.279
		c0.342,0,0.637,0.078,0.883,0.234c0.252,0.156,0.443,0.384,0.576,0.684c0.131,0.295,0.197,0.654,0.197,1.08
		c0,0.049-0.003,0.102-0.009,0.162c0,0.055-0.006,0.111-0.019,0.171h-3.267v-0.342h2.916c0-0.552-0.114-0.963-0.342-1.233
		c-0.228-0.275-0.537-0.414-0.927-0.414c-0.24,0-0.475,0.069-0.702,0.207c-0.228,0.139-0.417,0.352-0.567,0.639
		c-0.145,0.283-0.216,0.64-0.216,1.072c0,0.396,0.071,0.74,0.216,1.035c0.145,0.287,0.34,0.51,0.585,0.666
		c0.246,0.149,0.522,0.225,0.828,0.225c0.233,0,0.447-0.03,0.64-0.09c0.197-0.066,0.371-0.153,0.521-0.262l0.162,0.279
		c-0.168,0.113-0.357,0.213-0.567,0.297S182.971,85.304,182.652,85.304z M186.967,85.304c-0.371,0-0.707-0.087-1.008-0.261
		c-0.294-0.18-0.527-0.438-0.701-0.773c-0.168-0.343-0.252-0.75-0.252-1.225c0-0.48,0.09-0.891,0.27-1.232
		c0.186-0.343,0.429-0.601,0.729-0.775c0.301-0.18,0.624-0.27,0.973-0.27c0.3,0,0.549,0.051,0.746,0.153
		c0.199,0.096,0.373,0.222,0.522,0.378l-0.216,0.243c-0.126-0.132-0.276-0.234-0.45-0.306c-0.174-0.078-0.372-0.117-0.594-0.117
		c-0.294,0-0.558,0.08-0.792,0.242s-0.424,0.387-0.567,0.676c-0.138,0.287-0.207,0.623-0.207,1.008c0,0.378,0.063,0.711,0.189,0.999
		c0.132,0.288,0.315,0.513,0.549,0.675c0.233,0.156,0.51,0.234,0.828,0.234c0.233,0,0.45-0.043,0.647-0.127
		c0.198-0.09,0.366-0.207,0.504-0.35l0.207,0.242c-0.18,0.174-0.384,0.314-0.611,0.423C187.504,85.25,187.249,85.304,186.967,85.304
		z M190.834,85.304c-0.342,0-0.663-0.087-0.963-0.261c-0.295-0.18-0.531-0.438-0.711-0.773c-0.174-0.343-0.262-0.75-0.262-1.225
		c0-0.48,0.088-0.891,0.262-1.232c0.18-0.343,0.416-0.601,0.711-0.775c0.3-0.18,0.621-0.27,0.963-0.27
		c0.348,0,0.668,0.09,0.963,0.27c0.294,0.175,0.531,0.433,0.711,0.775c0.18,0.342,0.27,0.752,0.27,1.232
		c0,0.475-0.09,0.882-0.27,1.225c-0.18,0.336-0.417,0.594-0.711,0.773C191.502,85.217,191.182,85.304,190.834,85.304z
		 M190.834,84.953c0.293,0,0.555-0.078,0.783-0.234c0.233-0.162,0.416-0.387,0.549-0.675c0.132-0.288,0.197-0.621,0.197-0.999
		s-0.065-0.711-0.197-0.999c-0.133-0.294-0.315-0.522-0.549-0.685c-0.229-0.162-0.49-0.242-0.783-0.242
		c-0.288,0-0.547,0.08-0.774,0.242s-0.411,0.391-0.549,0.685c-0.132,0.288-0.198,0.621-0.198,0.999s0.066,0.711,0.198,0.999
		c0.138,0.288,0.321,0.513,0.549,0.675C190.287,84.875,190.546,84.953,190.834,84.953z M194.075,85.195v-4.319h0.342l0.036,0.666
		h0.027c0.191-0.222,0.404-0.405,0.639-0.55c0.24-0.149,0.48-0.225,0.72-0.225c0.354,0,0.621,0.081,0.802,0.243
		c0.186,0.156,0.317,0.369,0.396,0.64c0.246-0.277,0.489-0.492,0.729-0.648c0.246-0.156,0.491-0.234,0.737-0.234
		c0.433,0,0.757,0.139,0.972,0.414c0.217,0.27,0.324,0.684,0.324,1.242v2.771h-0.404v-2.717c0-0.463-0.078-0.802-0.234-1.018
		c-0.15-0.223-0.393-0.333-0.729-0.333c-0.205,0-0.412,0.069-0.621,0.207c-0.211,0.132-0.436,0.333-0.676,0.603v3.258h-0.396v-2.717
		c0-0.463-0.078-0.802-0.234-1.018c-0.155-0.223-0.401-0.333-0.737-0.333c-0.385,0-0.816,0.271-1.297,0.81v3.258H194.075z
		 M201.379,85.195v-4.319h0.342l0.036,0.666h0.026c0.192-0.222,0.406-0.405,0.64-0.55c0.239-0.149,0.479-0.225,0.72-0.225
		c0.354,0,0.621,0.081,0.801,0.243c0.187,0.156,0.318,0.369,0.396,0.64c0.246-0.277,0.488-0.492,0.729-0.648
		c0.246-0.156,0.492-0.234,0.738-0.234c0.432,0,0.756,0.139,0.973,0.414c0.215,0.27,0.323,0.684,0.323,1.242v2.771h-0.405v-2.717
		c0-0.463-0.078-0.802-0.233-1.018c-0.149-0.223-0.394-0.333-0.729-0.333c-0.203,0-0.41,0.069-0.621,0.207
		c-0.209,0.132-0.435,0.333-0.674,0.603v3.258h-0.396v-2.717c0-0.463-0.078-0.802-0.234-1.018c-0.156-0.223-0.402-0.333-0.738-0.333
		c-0.384,0-0.815,0.271-1.295,0.81v3.258H201.379z M210.32,85.304c-0.372,0-0.708-0.09-1.008-0.271
		c-0.301-0.18-0.54-0.438-0.721-0.773c-0.18-0.342-0.27-0.747-0.27-1.215c0-0.475,0.09-0.879,0.27-1.215
		c0.181-0.342,0.412-0.604,0.693-0.783c0.288-0.186,0.594-0.279,0.918-0.279c0.342,0,0.637,0.078,0.883,0.234
		c0.252,0.156,0.443,0.384,0.575,0.684c0.132,0.295,0.198,0.654,0.198,1.08c0,0.049-0.003,0.102-0.009,0.162
		c0,0.055-0.007,0.111-0.019,0.171h-3.267v-0.342h2.916c0-0.552-0.114-0.963-0.343-1.233c-0.228-0.275-0.536-0.414-0.926-0.414
		c-0.24,0-0.475,0.069-0.703,0.207c-0.228,0.139-0.416,0.352-0.566,0.639c-0.145,0.283-0.216,0.64-0.216,1.072
		c0,0.396,0.071,0.74,0.216,1.035c0.145,0.287,0.339,0.51,0.585,0.666c0.246,0.149,0.522,0.225,0.828,0.225
		c0.233,0,0.446-0.03,0.639-0.09c0.198-0.066,0.372-0.153,0.522-0.262l0.162,0.279c-0.168,0.113-0.357,0.213-0.567,0.297
		S210.639,85.304,210.32,85.304z M213.033,85.195v-4.319h0.342l0.036,0.666h0.027c0.222-0.222,0.45-0.405,0.685-0.55
		c0.239-0.149,0.506-0.225,0.801-0.225c0.449,0,0.779,0.139,0.99,0.414c0.209,0.27,0.314,0.684,0.314,1.242v2.771h-0.396v-2.717
		c0-0.463-0.078-0.802-0.234-1.018c-0.149-0.223-0.401-0.333-0.756-0.333c-0.258,0-0.491,0.069-0.701,0.207
		c-0.204,0.132-0.441,0.333-0.711,0.603v3.258H213.033z M219.254,85.304c-0.539,0-0.975-0.194-1.305-0.585
		c-0.324-0.391-0.486-0.947-0.486-1.674c0-0.469,0.088-0.87,0.262-1.206c0.18-0.343,0.414-0.606,0.701-0.792
		c0.295-0.186,0.613-0.279,0.955-0.279c0.264,0,0.494,0.045,0.692,0.135s0.402,0.223,0.612,0.396l-0.018-0.792v-1.782h0.396v6.471
		h-0.343l-0.035-0.558h-0.027c-0.174,0.175-0.381,0.33-0.621,0.468C219.803,85.238,219.543,85.304,219.254,85.304z M219.309,84.953
		c0.24,0,0.468-0.061,0.684-0.18c0.223-0.127,0.447-0.304,0.676-0.531v-2.565c-0.229-0.204-0.441-0.349-0.64-0.433
		s-0.405-0.125-0.621-0.125c-0.288,0-0.546,0.084-0.774,0.252c-0.228,0.168-0.41,0.398-0.549,0.693
		c-0.132,0.287-0.197,0.614-0.197,0.98c0,0.57,0.123,1.031,0.369,1.386C218.502,84.779,218.853,84.953,219.309,84.953z
		 M223.664,85.304c-0.229,0-0.438-0.042-0.631-0.126c-0.186-0.084-0.336-0.213-0.449-0.387c-0.115-0.18-0.172-0.402-0.172-0.666
		c0-0.486,0.225-0.852,0.676-1.098c0.449-0.252,1.154-0.433,2.114-0.541c0-0.222-0.026-0.438-0.081-0.647
		c-0.048-0.21-0.146-0.381-0.297-0.513c-0.145-0.139-0.359-0.207-0.648-0.207c-0.287,0-0.551,0.057-0.791,0.17
		c-0.24,0.109-0.436,0.214-0.586,0.316l-0.18-0.279c0.102-0.078,0.234-0.159,0.396-0.243c0.162-0.091,0.345-0.165,0.549-0.226
		c0.21-0.06,0.432-0.09,0.666-0.09c0.336,0,0.604,0.075,0.801,0.225c0.204,0.15,0.348,0.352,0.432,0.604
		c0.09,0.252,0.135,0.531,0.135,0.837v2.763h-0.342l-0.035-0.558h-0.027c-0.216,0.175-0.456,0.33-0.721,0.468
		C224.215,85.238,223.945,85.304,223.664,85.304z M223.735,84.953c0.246,0,0.483-0.057,0.711-0.172
		c0.233-0.119,0.485-0.293,0.756-0.521v-1.458c-0.594,0.065-1.065,0.159-1.413,0.278c-0.348,0.115-0.597,0.256-0.746,0.424
		c-0.15,0.168-0.226,0.365-0.226,0.594c0,0.307,0.09,0.525,0.271,0.657C223.273,84.887,223.489,84.953,223.735,84.953z
		 M228.221,85.268c-0.42,0-0.704-0.119-0.854-0.359c-0.149-0.24-0.225-0.553-0.225-0.937v-2.754h-0.675v-0.306l0.684-0.036
		l0.055-1.431h0.342v1.431h1.25v0.342h-1.25v2.78c0,0.277,0.047,0.502,0.144,0.676c0.096,0.168,0.291,0.252,0.585,0.252
		c0.084,0,0.168-0.009,0.252-0.027c0.09-0.023,0.186-0.06,0.288-0.107l0.126,0.279c-0.114,0.06-0.234,0.107-0.359,0.144
		C228.455,85.25,228.336,85.268,228.221,85.268z M229.846,85.195v-4.319h0.396v4.319H229.846z M230.035,79.832
		c-0.096,0-0.177-0.033-0.242-0.1c-0.066-0.072-0.1-0.162-0.1-0.27s0.033-0.191,0.1-0.252c0.065-0.066,0.146-0.1,0.242-0.1
		c0.102,0,0.184,0.033,0.243,0.1c0.065,0.061,0.099,0.145,0.099,0.252s-0.033,0.197-0.099,0.27
		C230.219,79.799,230.137,79.832,230.035,79.832z M233.479,85.304c-0.342,0-0.663-0.087-0.963-0.261
		c-0.295-0.18-0.531-0.438-0.711-0.773c-0.174-0.343-0.262-0.75-0.262-1.225c0-0.48,0.088-0.891,0.262-1.232
		c0.18-0.343,0.416-0.601,0.711-0.775c0.3-0.18,0.621-0.27,0.963-0.27c0.348,0,0.669,0.09,0.963,0.27
		c0.294,0.175,0.531,0.433,0.711,0.775c0.18,0.342,0.27,0.752,0.27,1.232c0,0.475-0.09,0.882-0.27,1.225
		c-0.18,0.336-0.417,0.594-0.711,0.773C234.147,85.217,233.826,85.304,233.479,85.304z M233.479,84.953
		c0.294,0,0.555-0.078,0.783-0.234c0.233-0.162,0.416-0.387,0.549-0.675c0.132-0.288,0.197-0.621,0.197-0.999
		s-0.065-0.711-0.197-0.999c-0.133-0.294-0.315-0.522-0.549-0.685c-0.229-0.162-0.489-0.242-0.783-0.242
		c-0.288,0-0.547,0.08-0.773,0.242c-0.229,0.162-0.412,0.391-0.55,0.685c-0.132,0.288-0.198,0.621-0.198,0.999
		s0.066,0.711,0.198,0.999c0.138,0.288,0.321,0.513,0.55,0.675C232.932,84.875,233.19,84.953,233.479,84.953z M236.719,85.195
		v-4.319h0.343l0.036,0.666h0.027c0.221-0.222,0.449-0.405,0.684-0.55c0.24-0.149,0.507-0.225,0.801-0.225
		c0.45,0,0.779,0.139,0.99,0.414c0.21,0.27,0.314,0.684,0.314,1.242v2.771h-0.396v-2.717c0-0.463-0.078-0.802-0.234-1.018
		c-0.149-0.223-0.401-0.333-0.756-0.333c-0.258,0-0.492,0.069-0.702,0.207c-0.203,0.132-0.441,0.333-0.711,0.603v3.258H236.719z
		 M242.553,85.304c-0.336,0-0.639-0.054-0.908-0.162c-0.264-0.108-0.489-0.255-0.676-0.44l0.217-0.252
		c0.18,0.156,0.375,0.281,0.585,0.377c0.216,0.091,0.485,0.136,0.81,0.136c0.336,0,0.592-0.084,0.766-0.252
		c0.174-0.175,0.261-0.375,0.261-0.603c0-0.181-0.054-0.328-0.162-0.441c-0.103-0.12-0.233-0.219-0.396-0.297
		c-0.162-0.084-0.328-0.156-0.496-0.217c-0.221-0.078-0.435-0.164-0.639-0.261c-0.203-0.103-0.371-0.228-0.504-0.378
		c-0.132-0.156-0.197-0.354-0.197-0.594c0-0.318,0.119-0.588,0.359-0.811c0.24-0.228,0.582-0.342,1.025-0.342
		c0.246,0,0.475,0.043,0.685,0.127c0.216,0.084,0.402,0.191,0.558,0.323l-0.215,0.243c-0.145-0.102-0.298-0.186-0.459-0.252
		c-0.162-0.066-0.354-0.1-0.576-0.1c-0.336,0-0.586,0.082-0.748,0.244c-0.155,0.161-0.233,0.342-0.233,0.539
		c0,0.162,0.045,0.297,0.135,0.405c0.097,0.103,0.22,0.188,0.369,0.261s0.312,0.141,0.485,0.207c0.229,0.09,0.451,0.184,0.666,0.279
		c0.223,0.096,0.402,0.225,0.541,0.387c0.138,0.156,0.207,0.375,0.207,0.657c0,0.216-0.057,0.417-0.172,0.603
		c-0.107,0.18-0.272,0.328-0.494,0.441C243.129,85.246,242.865,85.304,242.553,85.304z M247.904,85.304
		c-0.229,0-0.438-0.042-0.63-0.126c-0.187-0.084-0.336-0.213-0.45-0.387c-0.113-0.18-0.171-0.402-0.171-0.666
		c0-0.486,0.226-0.852,0.675-1.098c0.45-0.252,1.155-0.433,2.115-0.541c0-0.222-0.027-0.438-0.081-0.647
		c-0.048-0.21-0.147-0.381-0.297-0.513c-0.144-0.139-0.36-0.207-0.647-0.207c-0.289,0-0.553,0.057-0.793,0.17
		c-0.24,0.109-0.435,0.214-0.584,0.316l-0.181-0.279c0.103-0.078,0.233-0.159,0.396-0.243c0.162-0.091,0.346-0.165,0.549-0.226
		c0.211-0.06,0.433-0.09,0.666-0.09c0.336,0,0.604,0.075,0.802,0.225c0.204,0.15,0.348,0.352,0.433,0.604
		c0.09,0.252,0.135,0.531,0.135,0.837v2.763h-0.342l-0.037-0.558h-0.026c-0.216,0.175-0.456,0.33-0.72,0.468
		C248.457,85.238,248.187,85.304,247.904,85.304z M247.977,84.953c0.246,0,0.482-0.057,0.711-0.172
		c0.234-0.119,0.486-0.293,0.756-0.521v-1.458c-0.594,0.065-1.064,0.159-1.413,0.278c-0.349,0.115-0.597,0.256-0.747,0.424
		s-0.225,0.365-0.225,0.594c0,0.307,0.09,0.525,0.27,0.657C247.514,84.887,247.73,84.953,247.977,84.953z M251.379,85.195v-4.319
		h0.342l0.037,0.666h0.026c0.222-0.222,0.45-0.405,0.685-0.55c0.24-0.149,0.507-0.225,0.801-0.225c0.449,0,0.779,0.139,0.99,0.414
		c0.209,0.27,0.314,0.684,0.314,1.242v2.771h-0.396v-2.717c0-0.463-0.077-0.802-0.233-1.018c-0.149-0.223-0.401-0.333-0.756-0.333
		c-0.259,0-0.492,0.069-0.702,0.207c-0.204,0.132-0.441,0.333-0.711,0.603v3.258H251.379z M257.601,85.304
		c-0.54,0-0.976-0.194-1.306-0.585c-0.324-0.391-0.485-0.947-0.485-1.674c0-0.469,0.087-0.87,0.261-1.206
		c0.18-0.343,0.414-0.606,0.702-0.792c0.294-0.186,0.612-0.279,0.954-0.279c0.264,0,0.494,0.045,0.693,0.135
		c0.197,0.09,0.401,0.223,0.611,0.396l-0.018-0.792v-1.782h0.396v6.471h-0.342l-0.036-0.558h-0.027
		c-0.174,0.175-0.381,0.33-0.621,0.468C258.149,85.238,257.889,85.304,257.601,85.304z M257.654,84.953
		c0.24,0,0.469-0.061,0.684-0.18c0.223-0.127,0.447-0.304,0.676-0.531v-2.565c-0.229-0.204-0.441-0.349-0.639-0.433
		c-0.199-0.084-0.406-0.125-0.621-0.125c-0.289,0-0.547,0.084-0.774,0.252s-0.411,0.398-0.55,0.693
		c-0.131,0.287-0.197,0.614-0.197,0.98c0,0.57,0.123,1.031,0.369,1.386C256.848,84.779,257.198,84.953,257.654,84.953z
		 M264.299,85.304c-0.541,0-0.976-0.194-1.306-0.585c-0.323-0.391-0.485-0.947-0.485-1.674c0-0.469,0.086-0.87,0.261-1.206
		c0.18-0.343,0.413-0.606,0.702-0.792c0.293-0.186,0.611-0.279,0.953-0.279c0.265,0,0.496,0.045,0.693,0.135
		c0.198,0.09,0.402,0.223,0.612,0.396l-0.019-0.792v-1.782h0.396v6.471h-0.342l-0.036-0.558h-0.027
		c-0.174,0.175-0.381,0.33-0.62,0.468C264.848,85.238,264.586,85.304,264.299,85.304z M264.353,84.953
		c0.239,0,0.468-0.061,0.684-0.18c0.222-0.127,0.447-0.304,0.675-0.531v-2.565c-0.228-0.204-0.44-0.349-0.639-0.433
		c-0.197-0.084-0.404-0.125-0.621-0.125c-0.287,0-0.546,0.084-0.773,0.252c-0.229,0.168-0.411,0.398-0.549,0.693
		c-0.133,0.287-0.199,0.614-0.199,0.98c0,0.57,0.123,1.031,0.369,1.386C263.545,84.779,263.896,84.953,264.353,84.953z
		 M269.4,85.304c-0.372,0-0.708-0.09-1.008-0.271c-0.301-0.18-0.54-0.438-0.721-0.773c-0.18-0.342-0.27-0.747-0.27-1.215
		c0-0.475,0.09-0.879,0.27-1.215c0.181-0.342,0.412-0.604,0.693-0.783c0.288-0.186,0.594-0.279,0.918-0.279
		c0.342,0,0.637,0.078,0.883,0.234c0.252,0.156,0.443,0.384,0.575,0.684c0.132,0.295,0.198,0.654,0.198,1.08
		c0,0.049-0.003,0.102-0.009,0.162c0,0.055-0.006,0.111-0.019,0.171h-3.267v-0.342h2.916c0-0.552-0.114-0.963-0.343-1.233
		c-0.228-0.275-0.537-0.414-0.926-0.414c-0.24,0-0.475,0.069-0.703,0.207c-0.228,0.139-0.416,0.352-0.566,0.639
		c-0.145,0.283-0.217,0.64-0.217,1.072c0,0.396,0.072,0.74,0.217,1.035c0.145,0.287,0.339,0.51,0.585,0.666
		c0.246,0.149,0.522,0.225,0.828,0.225c0.233,0,0.446-0.03,0.639-0.09c0.198-0.066,0.372-0.153,0.522-0.262l0.162,0.279
		c-0.168,0.113-0.357,0.213-0.567,0.297S269.719,85.304,269.4,85.304z M272.645,85.268c-0.12,0-0.219-0.023-0.297-0.072
		c-0.078-0.047-0.139-0.123-0.181-0.225c-0.035-0.102-0.054-0.23-0.054-0.387v-5.859h0.396v5.913c0,0.103,0.018,0.175,0.054,0.216
		c0.042,0.043,0.093,0.063,0.153,0.063c0.018,0,0.035,0,0.054,0c0.023-0.007,0.054-0.013,0.09-0.019l0.072,0.315
		c-0.042,0.019-0.087,0.03-0.136,0.036C272.755,85.262,272.704,85.268,272.645,85.268z M274.249,85.195v-4.319h0.396v4.319H274.249z
		 M274.438,79.832c-0.096,0-0.177-0.033-0.243-0.1c-0.066-0.072-0.099-0.162-0.099-0.27s0.032-0.191,0.099-0.252
		c0.066-0.066,0.147-0.1,0.243-0.1c0.102,0,0.183,0.033,0.243,0.1c0.065,0.061,0.099,0.145,0.099,0.252s-0.033,0.197-0.099,0.27
		C274.621,79.799,274.54,79.832,274.438,79.832z M277.205,85.195l-1.62-4.319h0.433l0.972,2.709c0.066,0.204,0.138,0.413,0.216,0.63
		c0.078,0.21,0.15,0.414,0.216,0.611h0.036c0.072-0.197,0.145-0.401,0.217-0.611c0.077-0.217,0.152-0.426,0.225-0.63l0.972-2.709
		h0.405l-1.602,4.319H277.205z M281.837,85.304c-0.371,0-0.708-0.09-1.008-0.271c-0.3-0.18-0.54-0.438-0.72-0.773
		c-0.18-0.342-0.27-0.747-0.27-1.215c0-0.475,0.09-0.879,0.27-1.215c0.18-0.342,0.411-0.604,0.693-0.783
		c0.288-0.186,0.594-0.279,0.918-0.279c0.342,0,0.636,0.078,0.882,0.234c0.252,0.156,0.443,0.384,0.576,0.684
		c0.132,0.295,0.197,0.654,0.197,1.08c0,0.049-0.003,0.102-0.009,0.162c0,0.055-0.006,0.111-0.018,0.171h-3.268v-0.342h2.916
		c0-0.552-0.113-0.963-0.342-1.233c-0.228-0.275-0.537-0.414-0.927-0.414c-0.24,0-0.475,0.069-0.702,0.207
		c-0.228,0.139-0.417,0.352-0.567,0.639c-0.144,0.283-0.216,0.64-0.216,1.072c0,0.396,0.072,0.74,0.216,1.035
		c0.145,0.287,0.34,0.51,0.585,0.666c0.246,0.149,0.522,0.225,0.828,0.225c0.234,0,0.447-0.03,0.64-0.09
		c0.197-0.066,0.372-0.153,0.521-0.262l0.162,0.279c-0.168,0.113-0.356,0.213-0.567,0.297
		C282.419,85.262,282.155,85.304,281.837,85.304z M284.55,85.195v-4.319h0.342l0.036,0.801h0.026
		c0.139-0.265,0.31-0.479,0.514-0.647c0.21-0.174,0.446-0.262,0.711-0.262c0.078,0,0.149,0.006,0.216,0.018
		c0.072,0.013,0.144,0.037,0.216,0.072l-0.108,0.342c-0.06-0.018-0.116-0.029-0.171-0.035c-0.048-0.012-0.116-0.018-0.207-0.018
		c-0.191,0-0.396,0.084-0.611,0.252c-0.21,0.162-0.399,0.446-0.567,0.854v2.942H284.55z M288.956,85.304
		c-0.372,0-0.708-0.09-1.008-0.271c-0.3-0.18-0.54-0.438-0.72-0.773c-0.18-0.342-0.271-0.747-0.271-1.215
		c0-0.475,0.091-0.879,0.271-1.215c0.18-0.342,0.411-0.604,0.692-0.783c0.288-0.186,0.595-0.279,0.919-0.279
		c0.342,0,0.636,0.078,0.882,0.234c0.252,0.156,0.443,0.384,0.575,0.684c0.133,0.295,0.198,0.654,0.198,1.08
		c0,0.049-0.003,0.102-0.009,0.162c0,0.055-0.006,0.111-0.018,0.171h-3.268v-0.342h2.916c0-0.552-0.114-0.963-0.342-1.233
		c-0.229-0.275-0.537-0.414-0.927-0.414c-0.24,0-0.475,0.069-0.702,0.207c-0.229,0.139-0.417,0.352-0.567,0.639
		c-0.144,0.283-0.216,0.64-0.216,1.072c0,0.396,0.072,0.74,0.216,1.035c0.145,0.287,0.339,0.51,0.585,0.666
		c0.246,0.149,0.522,0.225,0.828,0.225c0.234,0,0.447-0.03,0.64-0.09c0.197-0.066,0.371-0.153,0.521-0.262l0.162,0.279
		c-0.168,0.113-0.357,0.213-0.567,0.297S289.274,85.304,288.956,85.304z M293.1,85.304c-0.54,0-0.976-0.194-1.306-0.585
		c-0.323-0.391-0.485-0.947-0.485-1.674c0-0.469,0.087-0.87,0.261-1.206c0.18-0.343,0.414-0.606,0.702-0.792
		c0.294-0.186,0.612-0.279,0.954-0.279c0.264,0,0.495,0.045,0.692,0.135c0.198,0.09,0.402,0.223,0.612,0.396l-0.018-0.792v-1.782
		h0.396v6.471h-0.342l-0.036-0.558h-0.027c-0.174,0.175-0.381,0.33-0.62,0.468C293.648,85.238,293.388,85.304,293.1,85.304z
		 M293.153,84.953c0.24,0,0.468-0.061,0.684-0.18c0.223-0.127,0.447-0.304,0.676-0.531v-2.565c-0.229-0.204-0.441-0.349-0.64-0.433
		c-0.197-0.084-0.404-0.125-0.621-0.125c-0.287,0-0.546,0.084-0.773,0.252c-0.229,0.168-0.411,0.398-0.549,0.693
		c-0.133,0.287-0.198,0.614-0.198,0.98c0,0.57,0.123,1.031,0.369,1.386C292.347,84.779,292.697,84.953,293.153,84.953z
		 M299.941,85.304c-0.342,0-0.663-0.087-0.963-0.261c-0.294-0.18-0.531-0.438-0.711-0.773c-0.174-0.343-0.261-0.75-0.261-1.225
		c0-0.48,0.087-0.891,0.261-1.232c0.18-0.343,0.417-0.601,0.711-0.775c0.3-0.18,0.621-0.27,0.963-0.27
		c0.348,0,0.669,0.09,0.963,0.27c0.294,0.175,0.531,0.433,0.711,0.775c0.18,0.342,0.271,0.752,0.271,1.232
		c0,0.475-0.091,0.882-0.271,1.225c-0.18,0.336-0.417,0.594-0.711,0.773C300.61,85.217,300.289,85.304,299.941,85.304z
		 M299.941,84.953c0.294,0,0.555-0.078,0.783-0.234c0.233-0.162,0.417-0.387,0.549-0.675s0.198-0.621,0.198-0.999
		s-0.066-0.711-0.198-0.999c-0.132-0.294-0.315-0.522-0.549-0.685c-0.229-0.162-0.489-0.242-0.783-0.242
		c-0.288,0-0.546,0.08-0.774,0.242c-0.228,0.162-0.41,0.391-0.549,0.685c-0.132,0.288-0.198,0.621-0.198,0.999
		s0.066,0.711,0.198,0.999c0.139,0.288,0.321,0.513,0.549,0.675C299.396,84.875,299.653,84.953,299.941,84.953z M303.183,85.195
		v-4.319h0.342l0.036,0.666h0.026c0.223-0.222,0.45-0.405,0.685-0.55c0.24-0.149,0.507-0.225,0.801-0.225
		c0.45,0,0.78,0.139,0.99,0.414c0.21,0.27,0.314,0.684,0.314,1.242v2.771h-0.396v-2.717c0-0.463-0.078-0.802-0.234-1.018
		c-0.149-0.223-0.401-0.333-0.756-0.333c-0.258,0-0.492,0.069-0.702,0.207c-0.204,0.132-0.44,0.333-0.711,0.603v3.258H303.183z
		 M310.953,85.268c-0.42,0-0.705-0.119-0.854-0.359c-0.15-0.24-0.226-0.553-0.226-0.937v-2.754h-0.675v-0.306l0.685-0.036
		l0.054-1.431h0.342v1.431h1.251v0.342h-1.251v2.78c0,0.277,0.048,0.502,0.144,0.676c0.097,0.168,0.291,0.252,0.586,0.252
		c0.084,0,0.168-0.009,0.252-0.027c0.09-0.023,0.186-0.06,0.287-0.107l0.127,0.279c-0.114,0.06-0.234,0.107-0.36,0.144
		S311.067,85.268,310.953,85.268z M312.578,85.195v-4.319h0.396v4.319H312.578z M312.768,79.832c-0.097,0-0.177-0.033-0.243-0.1
		c-0.066-0.072-0.099-0.162-0.099-0.27s0.032-0.191,0.099-0.252c0.066-0.066,0.146-0.1,0.243-0.1c0.102,0,0.183,0.033,0.243,0.1
		c0.065,0.061,0.099,0.145,0.099,0.252s-0.033,0.197-0.099,0.27C312.95,79.799,312.869,79.832,312.768,79.832z M314.635,85.195
		v-4.319h0.342l0.036,0.666h0.026c0.192-0.222,0.405-0.405,0.64-0.55c0.239-0.149,0.479-0.225,0.72-0.225
		c0.354,0,0.621,0.081,0.801,0.243c0.187,0.156,0.318,0.369,0.396,0.64c0.246-0.277,0.488-0.492,0.729-0.648
		c0.246-0.156,0.492-0.234,0.738-0.234c0.432,0,0.756,0.139,0.972,0.414c0.216,0.27,0.324,0.684,0.324,1.242v2.771h-0.405v-2.717
		c0-0.463-0.078-0.802-0.233-1.018c-0.15-0.223-0.394-0.333-0.729-0.333c-0.204,0-0.411,0.069-0.621,0.207
		c-0.21,0.132-0.435,0.333-0.675,0.603v3.258h-0.396v-2.717c0-0.463-0.078-0.802-0.234-1.018c-0.156-0.223-0.402-0.333-0.738-0.333
		c-0.384,0-0.815,0.271-1.296,0.81v3.258H314.635z M323.576,85.304c-0.372,0-0.708-0.09-1.008-0.271
		c-0.3-0.18-0.54-0.438-0.72-0.773c-0.181-0.342-0.271-0.747-0.271-1.215c0-0.475,0.09-0.879,0.271-1.215
		c0.18-0.342,0.411-0.604,0.692-0.783c0.288-0.186,0.595-0.279,0.918-0.279c0.343,0,0.637,0.078,0.883,0.234
		c0.252,0.156,0.443,0.384,0.575,0.684c0.133,0.295,0.198,0.654,0.198,1.08c0,0.049-0.003,0.102-0.009,0.162
		c0,0.055-0.006,0.111-0.019,0.171h-3.267v-0.342h2.916c0-0.552-0.114-0.963-0.342-1.233c-0.229-0.275-0.537-0.414-0.927-0.414
		c-0.24,0-0.475,0.069-0.702,0.207c-0.229,0.139-0.417,0.352-0.567,0.639c-0.144,0.283-0.216,0.64-0.216,1.072
		c0,0.396,0.072,0.74,0.216,1.035c0.145,0.287,0.339,0.51,0.585,0.666c0.246,0.149,0.522,0.225,0.828,0.225
		c0.234,0,0.447-0.03,0.639-0.09c0.198-0.066,0.372-0.153,0.522-0.262l0.162,0.279c-0.168,0.113-0.357,0.213-0.567,0.297
		S323.895,85.304,323.576,85.304z M326.451,85.304c-0.096,0-0.186-0.036-0.27-0.108c-0.078-0.072-0.117-0.17-0.117-0.297
		c0-0.132,0.039-0.234,0.117-0.306c0.084-0.071,0.174-0.108,0.27-0.108c0.103,0,0.189,0.037,0.261,0.108
		c0.078,0.071,0.117,0.174,0.117,0.306c0,0.127-0.039,0.225-0.117,0.297C326.641,85.268,326.554,85.304,326.451,85.304z
		 M327.385,80.902l-0.162-0.207c0.197-0.162,0.348-0.326,0.449-0.494c0.103-0.168,0.153-0.379,0.153-0.631l-0.144-0.485l0.333,0.368
		c-0.042,0.055-0.081,0.091-0.117,0.109c-0.036,0.018-0.084,0.026-0.145,0.026c-0.09,0-0.171-0.026-0.242-0.081
		c-0.072-0.061-0.108-0.145-0.108-0.252c0-0.114,0.033-0.201,0.099-0.262c0.066-0.065,0.15-0.098,0.252-0.098
		c0.12,0,0.217,0.051,0.288,0.152c0.078,0.102,0.117,0.252,0.117,0.449c0,0.324-0.068,0.601-0.207,0.828
		C327.813,80.549,327.624,80.74,327.385,80.902z M328.653,80.902l-0.162-0.207c0.198-0.162,0.349-0.326,0.45-0.494
		s0.153-0.379,0.153-0.631l-0.145-0.485l0.333,0.368c-0.042,0.055-0.081,0.091-0.117,0.109c-0.036,0.018-0.084,0.026-0.144,0.026
		c-0.09,0-0.171-0.026-0.243-0.081c-0.072-0.061-0.108-0.145-0.108-0.252c0-0.114,0.033-0.201,0.1-0.262
		c0.065-0.065,0.149-0.098,0.252-0.098c0.12,0,0.216,0.051,0.288,0.152c0.078,0.102,0.117,0.252,0.117,0.449
		c0,0.324-0.069,0.601-0.207,0.828C329.082,80.549,328.894,80.74,328.653,80.902z"/>
</g>
<g>
	<path d="M248.84,110.447c-0.467,0-0.895-0.087-1.281-0.26c-0.387-0.18-0.727-0.42-1.02-0.721l0.471-0.539
		c0.232,0.246,0.51,0.439,0.83,0.58c0.326,0.139,0.662,0.209,1.01,0.209c0.434,0,0.77-0.096,1.01-0.289
		c0.24-0.201,0.359-0.461,0.359-0.781c0-0.227-0.05-0.406-0.149-0.539c-0.094-0.134-0.224-0.247-0.39-0.34
		c-0.16-0.094-0.344-0.188-0.551-0.28l-0.939-0.41c-0.214-0.093-0.424-0.21-0.631-0.351c-0.199-0.14-0.366-0.316-0.5-0.529
		c-0.133-0.221-0.199-0.49-0.199-0.811c0-0.333,0.086-0.629,0.26-0.89c0.18-0.267,0.424-0.474,0.73-0.62
		c0.313-0.153,0.67-0.23,1.069-0.23c0.4,0,0.767,0.074,1.101,0.221c0.333,0.146,0.613,0.336,0.84,0.57l-0.45,0.539
		c-0.206-0.18-0.434-0.322-0.681-0.43c-0.246-0.113-0.516-0.17-0.81-0.17c-0.366,0-0.663,0.087-0.89,0.26
		c-0.221,0.174-0.33,0.407-0.33,0.7c0,0.207,0.053,0.377,0.16,0.511c0.106,0.133,0.243,0.242,0.41,0.33
		c0.173,0.086,0.346,0.17,0.52,0.25l0.93,0.399c0.26,0.113,0.49,0.243,0.69,0.39c0.206,0.146,0.366,0.33,0.479,0.551
		c0.121,0.22,0.181,0.49,0.181,0.81c0,0.347-0.091,0.663-0.271,0.95c-0.173,0.279-0.43,0.503-0.77,0.67
		C249.695,110.363,249.299,110.447,248.84,110.447z M253.4,110.447c-0.266,0-0.51-0.054-0.729-0.16
		c-0.214-0.113-0.384-0.27-0.51-0.47c-0.127-0.207-0.19-0.457-0.19-0.75c0-0.547,0.24-0.96,0.721-1.24
		c0.479-0.28,1.24-0.477,2.279-0.59c-0.006-0.2-0.039-0.394-0.1-0.58c-0.054-0.187-0.153-0.337-0.301-0.45
		c-0.146-0.113-0.35-0.17-0.609-0.17c-0.279,0-0.543,0.053-0.79,0.16c-0.247,0.1-0.467,0.213-0.66,0.34l-0.319-0.561
		c0.146-0.1,0.319-0.196,0.52-0.289c0.2-0.101,0.416-0.18,0.65-0.24c0.232-0.066,0.479-0.1,0.74-0.1c0.393,0,0.713,0.083,0.959,0.25
		c0.254,0.16,0.438,0.39,0.551,0.689c0.119,0.3,0.18,0.653,0.18,1.061v2.979h-0.68l-0.07-0.58h-0.03
		c-0.233,0.193-0.483,0.36-0.75,0.5C253.994,110.381,253.707,110.447,253.4,110.447z M253.631,109.768c0.24,0,0.463-0.054,0.67-0.16
		c0.213-0.107,0.438-0.264,0.67-0.471v-1.31c-0.547,0.066-0.98,0.153-1.3,0.26c-0.313,0.101-0.54,0.228-0.681,0.38
		c-0.139,0.154-0.209,0.337-0.209,0.551c0,0.266,0.083,0.459,0.25,0.58C253.197,109.711,253.397,109.768,253.631,109.768z
		 M259.25,110.447c-0.434,0-0.823-0.1-1.17-0.301c-0.347-0.199-0.62-0.489-0.82-0.869c-0.199-0.381-0.3-0.837-0.3-1.37
		c0-0.547,0.106-1.011,0.319-1.39c0.221-0.381,0.508-0.67,0.861-0.871c0.359-0.199,0.746-0.299,1.159-0.299
		c0.32,0,0.593,0.053,0.82,0.16c0.233,0.105,0.433,0.242,0.601,0.409l-0.41,0.511c-0.121-0.121-0.264-0.214-0.431-0.281
		c-0.159-0.072-0.343-0.109-0.55-0.109c-0.287,0-0.547,0.08-0.78,0.24c-0.227,0.153-0.407,0.369-0.54,0.65
		c-0.133,0.279-0.199,0.605-0.199,0.979c0,0.366,0.063,0.69,0.189,0.97c0.127,0.28,0.303,0.5,0.529,0.66
		c0.228,0.153,0.49,0.23,0.791,0.23c0.227,0,0.437-0.044,0.63-0.131c0.192-0.086,0.36-0.196,0.5-0.33l0.36,0.5
		c-0.207,0.193-0.44,0.351-0.701,0.471C259.85,110.391,259.563,110.447,259.25,110.447z M261.881,110.327v-7.12h0.82v1.939l-0.031,1
		c0.234-0.219,0.477-0.406,0.73-0.56c0.26-0.159,0.557-0.239,0.891-0.239c0.513,0,0.887,0.163,1.119,0.489
		c0.24,0.32,0.36,0.79,0.36,1.41v3.08h-0.819v-2.97c0-0.461-0.074-0.79-0.221-0.99c-0.141-0.207-0.373-0.311-0.7-0.311
		c-0.247,0-0.47,0.064-0.67,0.19c-0.193,0.127-0.413,0.313-0.659,0.56v3.521H261.881z M267.32,110.327v-4.86h0.82v4.86H267.32z
		 M267.73,104.467c-0.16,0-0.294-0.05-0.4-0.149c-0.1-0.101-0.15-0.23-0.15-0.39c0-0.16,0.051-0.291,0.15-0.391
		c0.106-0.1,0.24-0.15,0.4-0.15s0.289,0.051,0.39,0.15c0.106,0.1,0.159,0.23,0.159,0.391c0,0.159-0.053,0.289-0.159,0.39
		C268.02,104.417,267.891,104.467,267.73,104.467z M269.781,110.327v-4.86h0.68l0.07,0.7h0.029c0.234-0.233,0.48-0.427,0.74-0.58
		c0.26-0.159,0.557-0.239,0.891-0.239c0.513,0,0.887,0.163,1.119,0.489c0.24,0.32,0.36,0.79,0.36,1.41v3.08h-0.819v-2.97
		c0-0.461-0.074-0.79-0.221-0.99c-0.141-0.207-0.373-0.311-0.7-0.311c-0.247,0-0.47,0.064-0.67,0.19
		c-0.193,0.127-0.413,0.313-0.659,0.56v3.521H269.781z M276.842,108.098v-0.57h3.98v0.57H276.842z M284.139,110.327v-6.56h3.779
		v0.699h-2.949v2.221h2.5v0.699h-2.5v2.94H284.139z M290.833,110.447c-0.434,0-0.83-0.1-1.19-0.301
		c-0.354-0.206-0.633-0.496-0.84-0.869c-0.207-0.381-0.31-0.84-0.31-1.381c0-0.525,0.106-0.979,0.319-1.359
		c0.214-0.38,0.487-0.674,0.82-0.88c0.334-0.206,0.688-0.31,1.061-0.31c0.413,0,0.764,0.096,1.05,0.289
		c0.293,0.188,0.513,0.45,0.659,0.791c0.147,0.34,0.221,0.739,0.221,1.199c0,0.087-0.004,0.17-0.01,0.25c0,0.08-0.01,0.16-0.03,0.24
		h-3.5v-0.65h2.8c0-0.467-0.104-0.823-0.31-1.07c-0.2-0.253-0.49-0.379-0.87-0.379c-0.221,0-0.438,0.063-0.65,0.189
		c-0.213,0.12-0.39,0.316-0.529,0.59c-0.134,0.273-0.2,0.637-0.2,1.09c0,0.414,0.069,0.76,0.21,1.041
		c0.146,0.279,0.344,0.492,0.59,0.64c0.246,0.14,0.517,0.21,0.811,0.21c0.232,0,0.449-0.033,0.649-0.1
		c0.206-0.067,0.394-0.157,0.56-0.271l0.301,0.54c-0.214,0.146-0.453,0.267-0.721,0.359
		C291.463,110.4,291.166,110.447,290.833,110.447z M295.975,110.447c-0.228,0-0.461-0.054-0.701-0.16
		c-0.24-0.113-0.47-0.267-0.689-0.46h-0.03l-0.069,0.5h-0.66v-7.12h0.82v1.939l-0.021,0.881c0.22-0.193,0.46-0.354,0.72-0.48
		c0.268-0.133,0.533-0.199,0.801-0.199c0.42,0,0.772,0.104,1.06,0.31c0.286,0.2,0.503,0.486,0.649,0.86
		c0.146,0.366,0.221,0.8,0.221,1.3c0,0.554-0.1,1.026-0.301,1.42c-0.193,0.394-0.449,0.693-0.77,0.899
		C296.684,110.344,296.341,110.447,295.975,110.447z M295.834,109.758c0.267,0,0.504-0.077,0.71-0.23
		c0.214-0.153,0.38-0.373,0.5-0.66c0.12-0.293,0.181-0.641,0.181-1.04c0-0.354-0.044-0.663-0.131-0.931
		c-0.086-0.272-0.223-0.482-0.41-0.629c-0.187-0.154-0.434-0.23-0.74-0.23c-0.199,0-0.41,0.057-0.629,0.17
		c-0.214,0.107-0.438,0.27-0.67,0.49v2.55c0.213,0.187,0.423,0.32,0.629,0.399C295.487,109.721,295.674,109.758,295.834,109.758z
		 M300.934,110.327v-0.5c0.633-0.626,1.173-1.181,1.619-1.66c0.453-0.486,0.797-0.927,1.03-1.319
		c0.233-0.395,0.351-0.761,0.351-1.101c0-0.366-0.101-0.667-0.301-0.899c-0.199-0.234-0.503-0.351-0.91-0.351
		c-0.266,0-0.513,0.073-0.739,0.22c-0.228,0.146-0.434,0.33-0.62,0.551l-0.46-0.45c0.267-0.3,0.55-0.54,0.851-0.72
		c0.307-0.181,0.662-0.271,1.069-0.271c0.394,0,0.733,0.08,1.021,0.24c0.286,0.153,0.506,0.37,0.66,0.649
		c0.152,0.28,0.229,0.607,0.229,0.98c0,0.413-0.116,0.823-0.351,1.23c-0.227,0.406-0.539,0.833-0.939,1.279
		c-0.4,0.447-0.86,0.937-1.381,1.471c0.174-0.021,0.354-0.034,0.541-0.041c0.187-0.013,0.363-0.02,0.529-0.02h1.92v0.71H300.934z
		 M306.174,112.027l-0.199-0.48c0.286-0.127,0.51-0.3,0.67-0.52c0.159-0.213,0.236-0.453,0.229-0.721l-0.091-0.739l0.41,0.6
		c-0.06,0.06-0.126,0.104-0.199,0.13c-0.066,0.027-0.141,0.04-0.221,0.04c-0.16,0-0.299-0.05-0.42-0.149
		c-0.113-0.101-0.17-0.24-0.17-0.42c0-0.181,0.061-0.32,0.18-0.42c0.127-0.107,0.271-0.16,0.431-0.16c0.22,0,0.39,0.086,0.51,0.26
		c0.12,0.166,0.181,0.403,0.181,0.71c0,0.427-0.117,0.804-0.351,1.13S306.58,111.86,306.174,112.027z M310.396,110.327v-0.5
		c0.633-0.626,1.173-1.181,1.619-1.66c0.453-0.486,0.797-0.927,1.03-1.319c0.233-0.395,0.351-0.761,0.351-1.101
		c0-0.366-0.101-0.667-0.301-0.899c-0.199-0.234-0.503-0.351-0.91-0.351c-0.266,0-0.513,0.073-0.739,0.22
		c-0.228,0.146-0.434,0.33-0.62,0.551l-0.46-0.45c0.267-0.3,0.55-0.54,0.851-0.72c0.307-0.181,0.662-0.271,1.069-0.271
		c0.394,0,0.733,0.08,1.021,0.24c0.286,0.153,0.506,0.37,0.66,0.649c0.152,0.28,0.229,0.607,0.229,0.98
		c0,0.413-0.116,0.823-0.351,1.23c-0.227,0.406-0.539,0.833-0.939,1.279c-0.4,0.447-0.86,0.937-1.381,1.471
		c0.174-0.021,0.354-0.034,0.541-0.041c0.187-0.013,0.363-0.02,0.529-0.02h1.92v0.71H310.396z M317.457,110.447
		c-0.641,0-1.144-0.287-1.51-0.86c-0.36-0.579-0.541-1.403-0.541-2.47c0-1.073,0.181-1.891,0.541-2.45
		c0.366-0.56,0.869-0.84,1.51-0.84c0.633,0,1.13,0.283,1.49,0.851c0.366,0.56,0.549,1.373,0.549,2.439s-0.183,1.891-0.549,2.47
		C318.587,110.16,318.09,110.447,317.457,110.447z M317.457,109.787c0.246,0,0.463-0.094,0.65-0.279
		c0.186-0.188,0.33-0.478,0.43-0.871c0.106-0.393,0.16-0.899,0.16-1.52c0-0.627-0.054-1.133-0.16-1.52
		c-0.1-0.387-0.244-0.667-0.43-0.84c-0.188-0.181-0.404-0.271-0.65-0.271c-0.254,0-0.474,0.09-0.66,0.271
		c-0.187,0.173-0.334,0.453-0.439,0.84c-0.101,0.387-0.15,0.893-0.15,1.52c0,0.62,0.05,1.127,0.15,1.52
		c0.105,0.394,0.253,0.684,0.439,0.871C316.983,109.693,317.203,109.787,317.457,109.787z M320.338,110.327v-0.5
		c0.633-0.626,1.173-1.181,1.619-1.66c0.453-0.486,0.797-0.927,1.03-1.319c0.233-0.395,0.351-0.761,0.351-1.101
		c0-0.366-0.101-0.667-0.301-0.899c-0.199-0.234-0.503-0.351-0.91-0.351c-0.266,0-0.513,0.073-0.739,0.22
		c-0.228,0.146-0.434,0.33-0.62,0.551l-0.46-0.45c0.267-0.3,0.55-0.54,0.851-0.72c0.307-0.181,0.662-0.271,1.069-0.271
		c0.394,0,0.733,0.08,1.021,0.24c0.286,0.153,0.506,0.37,0.66,0.649c0.152,0.28,0.229,0.607,0.229,0.98
		c0,0.413-0.116,0.823-0.351,1.23c-0.227,0.406-0.539,0.833-0.939,1.279c-0.4,0.447-0.86,0.937-1.381,1.471
		c0.174-0.021,0.354-0.034,0.541-0.041c0.187-0.013,0.363-0.02,0.529-0.02h1.92v0.71H320.338z M325.309,110.327v-0.5
		c0.633-0.626,1.173-1.181,1.619-1.66c0.453-0.486,0.797-0.927,1.03-1.319c0.233-0.395,0.351-0.761,0.351-1.101
		c0-0.366-0.101-0.667-0.301-0.899c-0.199-0.234-0.503-0.351-0.91-0.351c-0.266,0-0.513,0.073-0.739,0.22
		c-0.228,0.146-0.434,0.33-0.62,0.551l-0.46-0.45c0.267-0.3,0.55-0.54,0.851-0.72c0.307-0.181,0.662-0.271,1.069-0.271
		c0.394,0,0.733,0.08,1.021,0.24c0.286,0.153,0.506,0.37,0.66,0.649c0.152,0.28,0.229,0.607,0.229,0.98
		c0,0.413-0.116,0.823-0.351,1.23c-0.227,0.406-0.539,0.833-0.939,1.279c-0.4,0.447-0.86,0.937-1.381,1.471
		c0.174-0.021,0.354-0.034,0.541-0.041c0.187-0.013,0.363-0.02,0.529-0.02h1.92v0.71H325.309z"/>
</g>
</svg>
