<svg width="81" height="90" viewBox="0 0 81 90" fill="none" xmlns="http://www.w3.org/2000/svg">
<path d="M32.308 70.244C31.8572 69.9907 31.2578 70.1295 30.9795 70.626C30.726 71.0768 30.865 71.6756 31.3607 71.954C31.8116 72.208 32.4109 72.0685 32.6893 71.5727C32.9427 71.1231 32.8051 70.5231 32.308 70.244Z" fill="#454645"/>
<path d="M19.481 54.1626C17.8754 54.1626 17.873 56.5931 19.481 56.5931C25.6231 56.5931 30.6191 61.5905 30.6191 67.7319C30.6191 68.4025 31.1632 68.9471 31.8343 68.9471C32.5057 68.9471 33.0503 68.4025 33.0503 67.7319C33.0503 60.2497 26.9632 54.1626 19.481 54.1626Z" fill="#454645"/>
<path d="M10.9379 37.6751H38.8902C40.4964 37.6751 40.4983 35.2446 38.8902 35.2446H10.9379C10.2666 35.2446 9.72266 35.7886 9.72266 36.4599C9.72266 37.1305 10.2666 37.6751 10.9379 37.6751Z" fill="#454645"/>
<path d="M49.8285 41.3213H10.9379C9.33273 41.3213 9.32979 43.7518 10.9379 43.7518H49.8285C50.4998 43.7518 51.0437 43.2079 51.0437 42.5365C51.0437 41.8659 50.4998 41.3213 49.8285 41.3213Z" fill="#454645"/>
<path d="M49.8285 47.3984H10.9379C9.33273 47.3984 9.32979 49.8289 10.9379 49.8289H49.8285C50.4998 49.8289 51.0437 49.2843 51.0437 48.6137C51.0437 47.9423 50.4998 47.3984 49.8285 47.3984Z" fill="#454645"/>
<path d="M12.1532 17.0145H24.3067V29.1675H12.1532V17.0145ZM10.9379 31.598H25.5219C26.1933 31.598 26.7372 31.0539 26.7372 30.3827V15.7992C26.7372 15.1281 26.1933 14.584 25.5219 14.584H10.9379C10.2666 14.584 9.72266 15.1281 9.72266 15.7992V30.3827C9.72266 31.0539 10.2666 31.598 10.9379 31.598Z" fill="#454645"/>
<path d="M10.9379 2.4305H41.2797C43.3856 2.4305 45.367 3.25033 46.8589 4.73857C54.9251 12.806 54.5109 12.5837 55.2071 12.5837C55.5177 12.5837 55.8291 12.4655 56.066 12.228C56.5412 11.7535 56.5412 10.9835 56.066 10.5089C48.4597 2.90258 46.642 0 41.2797 0H10.9379C9.33273 0 9.32979 2.4305 10.9379 2.4305Z" fill="#454645"/>
<path d="M57.8022 15.3885C58.4733 15.3885 59.0172 14.8439 59.0172 14.1733C59.0172 13.5014 58.4733 12.958 57.8022 12.958C57.1308 12.958 56.5869 13.5014 56.5869 14.1733C56.5869 14.8439 57.1308 15.3885 57.8022 15.3885Z" fill="#454645"/>
<path d="M56.5989 64.4036C48.8476 64.4036 49.8284 63.4534 49.8284 69.2311C46.4257 69.5449 43.7516 72.4121 43.7516 75.8957V78.9963H26.5932V74.3905C31.8983 68.1699 27.4655 58.5382 19.2763 58.5382C10.9669 58.5382 6.55196 68.4355 12.1615 74.6129V78.9963H4.65881C3.43009 78.9963 2.4305 77.9965 2.4305 76.7685V10.736C2.4305 9.50724 3.43009 8.50766 4.65881 8.50766C4.94078 8.50766 41.0738 8.50334 41.3558 8.51491C41.3351 8.61851 41.3211 8.72401 41.3211 8.83228V18.508C41.3211 22.1135 44.8651 25.5222 48.6131 25.5222H58.2887C58.3033 25.5222 58.3161 25.5161 58.3308 25.5161C58.3308 25.5319 58.3356 25.5477 58.3356 25.5636C58.3356 43.5059 58.2759 42.51 58.4294 42.8772C54.618 51.8402 55.6121 60.1238 56.5989 64.4036ZM66.8429 69.2H58.4959C58.7687 68.4106 59.0361 67.6187 59.32 66.8341H66.8429V69.2ZM72.4324 73.9239C65.1922 78.1799 60.997 75.8012 56.6989 74.6787C57.0059 73.6815 57.3233 72.6873 57.6491 71.6951C57.9915 71.6951 68.1061 71.7364 68.4321 71.6305C70.3735 71.6305 71.722 72.5673 72.4324 73.9239ZM71.5424 81.4833H47.5593C46.8003 81.4833 46.1826 80.8656 46.1826 80.1067V76.2752C46.7918 76.361 49.4324 75.8318 53.6233 76.5079C53.384 77.3314 53.136 78.1538 52.91 78.9785C52.7327 79.626 53.1134 80.2949 53.7609 80.4721C53.8681 80.5015 53.9766 80.516 54.0826 80.516C54.6161 80.516 55.106 80.1609 55.254 79.6212C55.4928 78.7495 55.754 77.8808 56.008 77.0104C60.1076 78.0722 65.0324 80.7183 72.9197 76.4451V80.1067C72.9197 80.8656 72.302 81.4833 71.5424 81.4833ZM50.6696 71.6305C50.9911 71.7352 54.7513 71.6951 55.0986 71.6951C54.833 72.5169 54.5655 73.3379 54.3128 74.1628C51.9121 73.7473 49.397 73.6237 46.7181 73.8307C47.4545 72.5058 48.7866 71.6305 50.6696 71.6305ZM52.2589 69.2V66.8341H56.7464C56.4661 67.6205 56.1914 68.4087 55.9222 69.2H52.2589ZM18.7031 83.7706L14.592 86.51V76.5559C17.5433 78.2093 21.164 78.211 24.1629 76.433V86.51C19.908 83.6744 19.5899 83.1792 18.7031 83.7706ZM19.2763 75.3499C15.3113 75.3499 12.086 72.1239 12.086 68.1595C12.086 64.1947 15.3113 60.9687 19.2763 60.9687C23.2412 60.9687 26.4667 64.1947 26.4667 68.1595C26.4667 72.1239 23.2412 75.3499 19.2763 75.3499ZM43.7516 10.2261L56.6165 23.0912H48.6131C46.2052 23.0912 43.7516 20.7783 43.7516 18.508V10.2261ZM79.1719 25.0392C79.0793 24.7084 78.8502 24.4325 78.542 24.2795C78.2337 24.1272 77.8749 24.1108 77.5558 24.238C74.1624 25.5795 66.1911 29.509 60.7661 38.3452V25.5636C60.7661 24.4281 60.3239 23.3609 59.5215 22.5587L59.1976 22.2347C59.1969 22.234 59.1964 22.2335 59.1957 22.2328C43.1029 6.14001 43.6596 6.07715 41.2796 6.07715H4.65881C2.09 6.07715 0 8.16663 0 10.736V76.7685C0 79.3368 2.09 81.4266 4.65881 81.4266H12.1615V88.782C12.1615 89.7505 13.2446 90.3293 14.051 89.7932L19.3773 86.2419C24.8384 89.8847 24.7926 90.0004 25.378 90.0004C26.0438 90.0004 26.5932 89.4582 26.5932 88.782V81.4266H43.9928C44.5312 82.8764 45.9243 83.915 47.5593 83.915H71.5424C73.6421 83.915 75.3502 82.2057 75.3502 80.1067V75.8957C75.3502 72.4121 72.676 69.5449 69.2734 69.2311C69.2734 63.4821 70.1279 64.4036 63.0796 64.4036C71.1817 59.6932 77.0503 52.1605 79.3649 42.9972C79.4734 42.5659 79.3381 42.1097 79.0116 41.8075C78.3082 41.1576 77.9754 41.4885 73.1189 43.1264C71.5979 43.6404 72.3719 45.943 73.8961 45.4295L76.371 44.5944C73.7347 52.6022 68.0928 59.0006 60.8112 62.8862C63.1393 56.9301 65.7154 51.3327 68.5259 45.9887C69.2734 44.5677 67.1237 43.4339 66.375 44.8576C63.481 50.3594 60.9049 55.9848 58.5824 61.9092C56.0793 46.8379 64.0037 33.0092 77.1739 27.0401C77.78 29.6911 78.3728 33.9502 77.6728 38.9787C77.4517 40.5735 79.8601 40.9012 80.0806 39.3144C80.9756 32.8819 79.8955 27.6091 79.1719 25.0392Z" fill="#454645"/>
</svg>
