<svg width="36" height="33" viewBox="0 0 36 33" fill="none" xmlns="http://www.w3.org/2000/svg">
<path d="M12.1446 0.91397H22.8476C23.4423 0.91397 23.4429 0.0300417 22.8476 0.0300417H12.1446C11.8962 0.0300417 11.6946 0.228036 11.6946 0.472006C11.6946 0.716163 11.8962 0.91397 12.1446 0.91397ZM21.9483 16.6241H11.6384C11.0437 16.6241 11.043 17.508 11.6384 17.508H21.9483C22.1967 17.508 22.3983 17.31 22.3983 17.0661C22.3983 16.8218 22.1967 16.6241 21.9483 16.6241ZM24.8118 14.6552H11.6384C11.0437 14.6552 11.043 15.5392 11.6384 15.5392H24.8118C25.0605 15.5392 25.2619 15.3412 25.2619 15.0972C25.2619 14.8531 25.0605 14.6552 24.8118 14.6552ZM10.2062 7.66387H20.5164C21.1108 7.66387 21.1117 6.77995 20.5164 6.77995H10.2062C9.95759 6.77995 9.75623 6.97794 9.75623 7.22191C9.75623 7.46607 9.95759 7.66387 10.2062 7.66387ZM10.2062 5.69527H23.38C23.9747 5.69527 23.9756 4.81135 23.38 4.81135H10.2062C9.95759 4.81135 9.75623 5.00915 9.75623 5.25331C9.75623 5.49728 9.95759 5.69527 10.2062 5.69527ZM5.93099 11.8194C8.58868 9.85008 8.48224 9.87395 8.70725 9.87395H26.0834C26.7923 9.87395 27.3692 9.30765 27.3692 8.61138V4.14539C27.3692 3.44912 26.7923 2.88257 26.0834 2.88257H7.2164C6.50768 2.88257 5.93099 3.44912 5.93099 4.14539V11.8194ZM5.03099 4.14539C5.03099 2.96187 6.01129 1.99865 7.2164 1.99865H26.0834C27.2885 1.99865 28.2692 2.96187 28.2692 4.14539V8.61138C28.2692 9.79509 27.2885 10.7579 26.0834 10.7579H8.85802C5.51317 13.2362 5.61439 13.2652 5.28031 13.1019C4.92615 12.9289 5.03099 13.3872 5.03099 4.14539ZM27.3692 13.9893C27.3692 13.293 26.7923 12.7264 26.0834 12.7264H10.0807C9.37171 12.7264 8.79475 13.293 8.79475 13.9893V18.174C8.79475 18.8703 9.37171 19.4364 10.0807 19.4364C25.5449 19.4364 24.6764 19.3869 24.8636 19.5256L27.3692 21.382V13.9893ZM28.2692 13.9893V22.2692C28.2692 22.5146 28.0658 22.7111 27.8192 22.7111C27.5942 22.7111 27.7675 22.7845 24.442 20.3202H10.0807C8.87531 20.3202 7.89476 19.3575 7.89476 18.174V13.9893C7.89476 12.8058 8.87531 11.8426 10.0807 11.8426H26.0834C27.2885 11.8426 28.2692 12.8058 28.2692 13.9893ZM21.0125 31.1116C19.6848 32.1126 17.872 32.4175 16.216 31.7878C15.6611 31.5781 15.3364 32.4021 15.8913 32.6142C17.8495 33.3567 19.9923 32.9943 21.5604 31.8121C22.032 31.4579 21.485 30.7561 21.0125 31.1116ZM2.87257 22.2729C13.9846 22.2729 14.2794 21.8445 17.7329 24.3474C17.8893 24.4609 18.1066 24.4638 18.2673 24.3474C20.9304 22.4172 22.0783 22.2729 25.0394 22.2729C25.634 22.2729 25.6349 21.3891 25.0394 21.3891C22.8559 21.3891 20.9643 21.2936 18 23.4425C16.2484 22.1726 14.5359 21.3891 12.0447 21.3891H2.87257C2.62414 21.3891 2.42254 21.5871 2.42254 21.831C2.42254 22.0752 2.62414 22.2729 2.87257 22.2729ZM29.2498 22.2729H33.1274C33.7221 22.2729 33.723 21.3891 33.1274 21.3891H29.2498C29.0014 21.3891 28.7998 21.5871 28.7998 21.831C28.7998 22.0752 29.0014 22.2729 29.2498 22.2729ZM1.97258 24.1609H12.0447C15.1304 24.1609 16.8482 25.8831 17.7032 26.6198C17.8726 26.7659 18.1267 26.7663 18.2968 26.6198C19.145 25.8893 20.8605 24.1609 23.9555 24.1609H34.0274C34.6221 24.1609 34.623 23.277 34.0274 23.277H23.9555C21.4549 23.277 19.7244 24.2142 18 25.6997C16.3285 24.2601 14.5998 23.277 12.0447 23.277H1.97258C1.72396 23.277 1.52254 23.475 1.52254 23.7189C1.52254 23.9631 1.72396 24.1609 1.97258 24.1609ZM19.0832 26.736C18.7328 26.9895 18.9187 27.534 19.3505 27.534C19.5754 27.534 19.6886 27.3961 20.2401 26.9977C21.2078 26.2983 22.3547 25.9286 23.5564 25.9286H34.7895C35.3842 25.9286 35.3851 25.0448 34.7895 25.0448C21.6414 25.0448 22.0307 24.6066 19.0832 26.736ZM1.21047 25.9286H12.4436C13.6453 25.9286 14.7921 26.2983 15.7599 26.9977C16.3109 27.3957 16.4248 27.534 16.6498 27.534C17.0813 27.534 17.2672 26.9895 16.9166 26.736C13.941 24.5862 14.2852 25.0448 1.21047 25.0448C0.615792 25.0448 0.615154 25.9286 1.21047 25.9286ZM35.1 27.6964H23.1327C21.9517 27.6964 20.8228 28.1891 19.9546 29.0838C18.8867 30.1841 17.1081 30.1792 16.0454 29.0838C15.1771 28.1891 14.0485 27.6964 12.8675 27.6964H0.899996V28.1752L12.9379 28.1739C14.036 28.1739 15.0117 28.609 15.6476 29.3117C16.8984 30.6934 19.1025 30.692 20.3521 29.3117C20.9869 28.6105 21.962 28.1739 23.0622 28.1739L35.1 28.1752V27.6964ZM36 27.2544V28.6171C36 28.8611 35.7984 29.0591 35.55 29.0591C35.1259 29.0591 23.0213 29.0577 23.0612 29.0577C22.2509 29.0577 21.5089 29.3645 21.0249 29.899C19.4164 31.6751 16.5825 31.6751 14.9751 29.899C14.4914 29.3645 13.7491 29.0577 12.9388 29.0577C12.9231 29.0577 0.533706 29.0591 0.449964 29.0591C0.201606 29.0591 0 28.8613 0 28.6171V27.2544C0 27.0105 0.201606 26.8125 0.449964 26.8125H12.8675C14.2971 26.8125 15.6571 27.4025 16.6968 28.4739C17.4069 29.2058 18.5931 29.2058 19.3029 28.4739C20.3429 27.4025 21.7029 26.8125 23.1327 26.8125H35.55C35.7984 26.8125 36 27.0105 36 27.2544ZM25.1298 0.472006C25.1298 -0.157116 24.1605 -0.157555 24.1605 0.472006C24.1605 1.10113 25.1298 1.10175 25.1298 0.472006ZM22.34 31.1004C21.6698 31.1004 21.669 30.1038 22.34 30.1038C23.0105 30.1038 23.0114 31.1004 22.34 31.1004Z" fill="#454645"/>
</svg>
