<svg width="105" height="32" viewBox="0 0 105 32" fill="none" xmlns="http://www.w3.org/2000/svg">
<path d="M17.26 19V13.15H15.28V12.44H20.08V13.15H18.1V19H17.26ZM22.1423 19.12C21.629 19.12 21.2523 18.96 21.0123 18.64C20.779 18.3133 20.6623 17.84 20.6623 17.22V14.14H21.4823V17.11C21.4823 17.5633 21.5523 17.8933 21.6923 18.1C21.839 18.3 22.0723 18.4 22.3923 18.4C22.639 18.4 22.859 18.3367 23.0523 18.21C23.2523 18.0767 23.469 17.87 23.7023 17.59V14.14H24.5223V19H23.8423L23.7723 18.24H23.7423C23.5223 18.5067 23.2823 18.72 23.0223 18.88C22.769 19.04 22.4757 19.12 22.1423 19.12ZM28.0918 19.12C27.6585 19.12 27.2685 19.02 26.9218 18.82C26.5751 18.62 26.3018 18.33 26.1018 17.95C25.9018 17.57 25.8018 17.1133 25.8018 16.58C25.8018 16.0333 25.9085 15.57 26.1218 15.19C26.3418 14.81 26.6285 14.52 26.9818 14.32C27.3418 14.12 27.7285 14.02 28.1418 14.02C28.4618 14.02 28.7351 14.0733 28.9618 14.18C29.1951 14.2867 29.3951 14.4233 29.5618 14.59L29.1518 15.1C29.0318 14.98 28.8885 14.8867 28.7218 14.82C28.5618 14.7467 28.3785 14.71 28.1718 14.71C27.8851 14.71 27.6251 14.79 27.3918 14.95C27.1651 15.1033 26.9851 15.32 26.8518 15.6C26.7185 15.88 26.6518 16.2067 26.6518 16.58C26.6518 16.9467 26.7151 17.27 26.8418 17.55C26.9685 17.83 27.1451 18.05 27.3718 18.21C27.5985 18.3633 27.8618 18.44 28.1618 18.44C28.3885 18.44 28.5985 18.3967 28.7918 18.31C28.9851 18.2233 29.1518 18.1133 29.2918 17.98L29.6518 18.48C29.4451 18.6733 29.2118 18.83 28.9518 18.95C28.6918 19.0633 28.4051 19.12 28.0918 19.12ZM32.1423 19.12C31.629 19.12 31.2523 18.96 31.0123 18.64C30.779 18.3133 30.6623 17.84 30.6623 17.22V14.14H31.4823V17.11C31.4823 17.5633 31.5523 17.8933 31.6923 18.1C31.839 18.3 32.0723 18.4 32.3923 18.4C32.639 18.4 32.859 18.3367 33.0523 18.21C33.2523 18.0767 33.469 17.87 33.7023 17.59V14.14H34.5223V19H33.8423L33.7723 18.24H33.7423C33.5223 18.5067 33.2823 18.72 33.0223 18.88C32.769 19.04 32.4757 19.12 32.1423 19.12ZM36.1618 19V14.14H36.8418L36.9118 14.84H36.9418C37.1551 14.6133 37.3851 14.42 37.6318 14.26C37.8851 14.1 38.1585 14.02 38.4518 14.02C38.8251 14.02 39.1151 14.1033 39.3218 14.27C39.5351 14.4367 39.6918 14.6633 39.7918 14.95C40.0451 14.67 40.3018 14.4467 40.5618 14.28C40.8218 14.1067 41.0985 14.02 41.3918 14.02C41.8985 14.02 42.2718 14.1833 42.5118 14.51C42.7518 14.83 42.8718 15.3 42.8718 15.92V19H42.0518V16.03C42.0518 15.57 41.9785 15.24 41.8318 15.04C41.6851 14.8333 41.4585 14.73 41.1518 14.73C40.9585 14.73 40.7618 14.7933 40.5618 14.92C40.3685 15.04 40.1585 15.2267 39.9318 15.48V19H39.1118V16.03C39.1118 15.57 39.0385 15.24 38.8918 15.04C38.7451 14.8333 38.5151 14.73 38.2018 14.73C37.8351 14.73 37.4285 14.98 36.9818 15.48V19H36.1618ZM45.5728 19.12C45.3061 19.12 45.0628 19.0667 44.8428 18.96C44.6295 18.8467 44.4595 18.69 44.3328 18.49C44.2061 18.2833 44.1428 18.0333 44.1428 17.74C44.1428 17.1933 44.3828 16.78 44.8628 16.5C45.3428 16.22 46.1028 16.0233 47.1428 15.91C47.1361 15.71 47.1028 15.5167 47.0428 15.33C46.9895 15.1433 46.8895 14.9933 46.7428 14.88C46.5961 14.7667 46.3928 14.71 46.1328 14.71C45.8528 14.71 45.5895 14.7633 45.3428 14.87C45.0961 14.97 44.8761 15.0833 44.6828 15.21L44.3628 14.65C44.5095 14.55 44.6828 14.4533 44.8828 14.36C45.0828 14.26 45.2995 14.18 45.5328 14.12C45.7661 14.0533 46.0128 14.02 46.2728 14.02C46.6661 14.02 46.9861 14.1033 47.2328 14.27C47.4861 14.43 47.6695 14.66 47.7828 14.96C47.9028 15.26 47.9628 15.6133 47.9628 16.02V19H47.2828L47.2128 18.42H47.1828C46.9495 18.6133 46.6995 18.78 46.4328 18.92C46.1661 19.0533 45.8795 19.12 45.5728 19.12ZM45.8028 18.44C46.0428 18.44 46.2661 18.3867 46.4728 18.28C46.6861 18.1733 46.9095 18.0167 47.1428 17.81V16.5C46.5961 16.5667 46.1628 16.6533 45.8428 16.76C45.5295 16.86 45.3028 16.9867 45.1628 17.14C45.0228 17.2933 44.9528 17.4767 44.9528 17.69C44.9528 17.9567 45.0361 18.15 45.2028 18.27C45.3695 18.3833 45.5695 18.44 45.8028 18.44ZM45.5328 13.3L46.8228 11.65H47.7228L47.7728 11.74L46.1928 13.3H45.5328ZM49.4919 19V14.14H50.1719L50.2419 14.84H50.2719C50.5052 14.6067 50.7519 14.4133 51.0119 14.26C51.2719 14.1 51.5685 14.02 51.9019 14.02C52.4152 14.02 52.7885 14.1833 53.0219 14.51C53.2619 14.83 53.3819 15.3 53.3819 15.92V19H52.5619V16.03C52.5619 15.57 52.4885 15.24 52.3419 15.04C52.2019 14.8333 51.9685 14.73 51.6419 14.73C51.3952 14.73 51.1719 14.7933 50.9719 14.92C50.7785 15.0467 50.5585 15.2333 50.3119 15.48V19H49.4919ZM54.8106 20.7L54.6106 20.22C54.8973 20.0933 55.1206 19.92 55.2806 19.7C55.4406 19.4867 55.5173 19.2467 55.5106 18.98L55.4206 18.24L55.8306 18.84C55.7706 18.9 55.704 18.9433 55.6306 18.97C55.564 18.9967 55.4906 19.01 55.4106 19.01C55.2506 19.01 55.1106 18.96 54.9906 18.86C54.8773 18.76 54.8206 18.62 54.8206 18.44C54.8206 18.26 54.8806 18.12 55.0006 18.02C55.1273 17.9133 55.2706 17.86 55.4306 17.86C55.6506 17.86 55.8206 17.9467 55.9406 18.12C56.0606 18.2867 56.1206 18.5233 56.1206 18.83C56.1206 19.2567 56.004 19.6333 55.7706 19.96C55.5373 20.2867 55.2173 20.5333 54.8106 20.7ZM58.6628 19L60.8828 12.44H61.8228L64.0428 19H63.1628L62.0128 15.33C61.8928 14.9633 61.7795 14.6 61.6728 14.24C61.5661 13.8733 61.4595 13.5 61.3528 13.12H61.3128C61.2128 13.5 61.1095 13.8733 61.0028 14.24C60.8961 14.6 60.7828 14.9633 60.6628 15.33L59.5028 19H58.6628ZM59.8228 17V16.34H62.8528V17H59.8228ZM64.8825 19V14.14H65.5625L65.6325 15.02H65.6625C65.8225 14.7133 66.0225 14.47 66.2625 14.29C66.5025 14.11 66.7625 14.02 67.0425 14.02C67.1492 14.02 67.2425 14.0267 67.3225 14.04C67.4025 14.0533 67.4825 14.08 67.5625 14.12L67.3825 14.82C67.3092 14.8 67.2392 14.7867 67.1725 14.78C67.1125 14.7667 67.0325 14.76 66.9325 14.76C66.7258 14.76 66.5092 14.8433 66.2825 15.01C66.0625 15.1767 65.8692 15.4667 65.7025 15.88V19H64.8825ZM69.8916 21.24C69.4983 21.24 69.1483 21.1867 68.8416 21.08C68.5416 20.98 68.305 20.8333 68.1316 20.64C67.965 20.4467 67.8816 20.21 67.8816 19.93C67.8816 19.7233 67.945 19.5233 68.0716 19.33C68.1983 19.1433 68.3716 18.9767 68.5916 18.83V18.79C68.4716 18.71 68.3683 18.6067 68.2816 18.48C68.2016 18.3467 68.1616 18.1867 68.1616 18C68.1616 17.7933 68.2183 17.6133 68.3316 17.46C68.4516 17.3067 68.5716 17.1867 68.6916 17.1V17.06C68.5383 16.9267 68.395 16.7467 68.2616 16.52C68.1283 16.2933 68.0616 16.0367 68.0616 15.75C68.0616 15.3967 68.145 15.09 68.3116 14.83C68.485 14.57 68.7083 14.37 68.9816 14.23C69.2616 14.09 69.565 14.02 69.8916 14.02C70.025 14.02 70.1516 14.0333 70.2716 14.06C70.3916 14.08 70.495 14.1067 70.5816 14.14H72.2716V14.77H71.2616V14.81C71.3816 14.9167 71.4783 15.05 71.5516 15.21C71.6316 15.37 71.6716 15.56 71.6716 15.78C71.6716 16.1267 71.5916 16.4267 71.4316 16.68C71.2716 16.9267 71.0583 17.12 70.7916 17.26C70.525 17.3933 70.225 17.46 69.8916 17.46C69.7716 17.46 69.6483 17.4467 69.5216 17.42C69.395 17.3867 69.275 17.3433 69.1616 17.29C69.0816 17.3633 69.0083 17.4433 68.9416 17.53C68.8816 17.6167 68.8516 17.73 68.8516 17.87C68.8516 18.0233 68.9116 18.15 69.0316 18.25C69.1583 18.35 69.385 18.4 69.7116 18.4H70.6516C71.2183 18.4 71.6416 18.4933 71.9216 18.68C72.2083 18.86 72.3516 19.1533 72.3516 19.56C72.3516 19.86 72.2516 20.1367 72.0516 20.39C71.8516 20.6433 71.565 20.8467 71.1916 21C70.825 21.16 70.3916 21.24 69.8916 21.24ZM69.8916 16.91C70.0783 16.91 70.2483 16.8633 70.4016 16.77C70.5616 16.67 70.6883 16.5333 70.7816 16.36C70.875 16.1867 70.9216 15.9833 70.9216 15.75C70.9216 15.39 70.8216 15.1133 70.6216 14.92C70.4216 14.72 70.1783 14.62 69.8916 14.62C69.605 14.62 69.3616 14.72 69.1616 14.92C68.9616 15.1133 68.8616 15.39 68.8616 15.75C68.8616 15.9833 68.9083 16.1867 69.0016 16.36C69.095 16.5333 69.2183 16.67 69.3716 16.77C69.5316 16.8633 69.705 16.91 69.8916 16.91ZM70.0116 20.67C70.3183 20.67 70.585 20.6233 70.8116 20.53C71.045 20.4367 71.225 20.3133 71.3516 20.16C71.485 20.0067 71.5516 19.8467 71.5516 19.68C71.5516 19.4533 71.465 19.2967 71.2916 19.21C71.125 19.1233 70.885 19.08 70.5716 19.08H69.7316C69.6383 19.08 69.535 19.0733 69.4216 19.06C69.315 19.0467 69.2083 19.0267 69.1016 19C68.9216 19.1267 68.7916 19.26 68.7116 19.4C68.6383 19.54 68.6016 19.68 68.6016 19.82C68.6016 20.08 68.725 20.2867 68.9716 20.44C69.225 20.5933 69.5716 20.67 70.0116 20.67ZM75.124 19.12C74.6907 19.12 74.294 19.02 73.934 18.82C73.5807 18.6133 73.3007 18.3233 73.094 17.95C72.8873 17.57 72.784 17.11 72.784 16.57C72.784 16.0433 72.8907 15.59 73.104 15.21C73.3173 14.83 73.5907 14.5367 73.924 14.33C74.2573 14.1233 74.6107 14.02 74.984 14.02C75.3973 14.02 75.7473 14.1167 76.034 14.31C76.3273 14.4967 76.5473 14.76 76.694 15.1C76.8407 15.44 76.914 15.84 76.914 16.3C76.914 16.3867 76.9107 16.47 76.904 16.55C76.904 16.63 76.894 16.71 76.874 16.79H73.374V16.14H76.174C76.174 15.6733 76.0707 15.3167 75.864 15.07C75.664 14.8167 75.374 14.69 74.994 14.69C74.774 14.69 74.5573 14.7533 74.344 14.88C74.1307 15 73.954 15.1967 73.814 15.47C73.6807 15.7433 73.614 16.1067 73.614 16.56C73.614 16.9733 73.684 17.32 73.824 17.6C73.9707 17.88 74.1673 18.0933 74.414 18.24C74.6607 18.38 74.9307 18.45 75.224 18.45C75.4573 18.45 75.674 18.4167 75.874 18.35C76.0807 18.2833 76.2673 18.1933 76.434 18.08L76.734 18.62C76.5207 18.7667 76.2807 18.8867 76.014 18.98C75.754 19.0733 75.4573 19.12 75.124 19.12ZM78.1149 19V14.14H78.7949L78.8649 14.84H78.8949C79.1283 14.6067 79.3749 14.4133 79.6349 14.26C79.8949 14.1 80.1916 14.02 80.5249 14.02C81.0383 14.02 81.4116 14.1833 81.6449 14.51C81.8849 14.83 82.0049 15.3 82.0049 15.92V19H81.1849V16.03C81.1849 15.57 81.1116 15.24 80.9649 15.04C80.8249 14.8333 80.5916 14.73 80.2649 14.73C80.0183 14.73 79.7949 14.7933 79.5949 14.92C79.4016 15.0467 79.1816 15.2333 78.9349 15.48V19H78.1149ZM85.1137 19.09C84.6003 19.09 84.2403 18.94 84.0337 18.64C83.827 18.34 83.7237 17.95 83.7237 17.47V14.81H83.0037V14.19L83.7637 14.14L83.8637 12.58H84.5537V14.14H85.8737V14.81H84.5537V17.48C84.5537 17.7733 84.607 18.0033 84.7137 18.17C84.827 18.3367 85.0237 18.42 85.3037 18.42C85.3903 18.42 85.4803 18.4133 85.5737 18.4C85.667 18.38 85.7603 18.3467 85.8537 18.3L86.0337 18.88C85.907 18.94 85.7637 18.99 85.6037 19.03C85.4437 19.07 85.2803 19.09 85.1137 19.09ZM86.9626 19V14.14H87.7826V19H86.9626ZM87.3726 13.14C87.2126 13.14 87.0792 13.09 86.9726 12.99C86.8726 12.89 86.8226 12.76 86.8226 12.6C86.8226 12.44 86.8726 12.31 86.9726 12.21C87.0792 12.11 87.2126 12.06 87.3726 12.06C87.5326 12.06 87.6626 12.11 87.7626 12.21C87.8692 12.31 87.9226 12.44 87.9226 12.6C87.9226 12.76 87.8692 12.89 87.7626 12.99C87.6626 13.09 87.5326 13.14 87.3726 13.14ZM89.4235 19V14.14H90.1035L90.1735 14.84H90.2035C90.4368 14.6067 90.6835 14.4133 90.9435 14.26C91.2035 14.1 91.5002 14.02 91.8335 14.02C92.3468 14.02 92.7202 14.1833 92.9535 14.51C93.1935 14.83 93.3135 15.3 93.3135 15.92V19H92.4935V16.03C92.4935 15.57 92.4202 15.24 92.2735 15.04C92.1335 14.8333 91.9002 14.73 91.5735 14.73C91.3268 14.73 91.1035 14.7933 90.9035 14.92C90.7102 15.0467 90.4902 15.2333 90.2435 15.48V19H89.4235ZM96.0123 19.12C95.7456 19.12 95.5023 19.0667 95.2823 18.96C95.0689 18.8467 94.8989 18.69 94.7723 18.49C94.6456 18.2833 94.5823 18.0333 94.5823 17.74C94.5823 17.1933 94.8223 16.78 95.3023 16.5C95.7823 16.22 96.5423 16.0233 97.5823 15.91C97.5756 15.71 97.5423 15.5167 97.4823 15.33C97.4289 15.1433 97.3289 14.9933 97.1823 14.88C97.0356 14.7667 96.8323 14.71 96.5723 14.71C96.2923 14.71 96.0289 14.7633 95.7823 14.87C95.5356 14.97 95.3156 15.0833 95.1223 15.21L94.8023 14.65C94.9489 14.55 95.1223 14.4533 95.3223 14.36C95.5223 14.26 95.7389 14.18 95.9723 14.12C96.2056 14.0533 96.4523 14.02 96.7123 14.02C97.1056 14.02 97.4256 14.1033 97.6723 14.27C97.9256 14.43 98.1089 14.66 98.2223 14.96C98.3423 15.26 98.4023 15.6133 98.4023 16.02V19H97.7223L97.6523 18.42H97.6223C97.3889 18.6133 97.1389 18.78 96.8723 18.92C96.6056 19.0533 96.3189 19.12 96.0123 19.12ZM96.2423 18.44C96.4823 18.44 96.7056 18.3867 96.9123 18.28C97.1256 18.1733 97.3489 18.0167 97.5823 17.81V16.5C97.0356 16.5667 96.6023 16.6533 96.2823 16.76C95.9689 16.86 95.7423 16.9867 95.6023 17.14C95.4623 17.2933 95.3923 17.4767 95.3923 17.69C95.3923 17.9567 95.4756 18.15 95.6423 18.27C95.8089 18.3833 96.0089 18.44 96.2423 18.44Z" fill="white"/>
<path fill-rule="evenodd" clip-rule="evenodd" d="M10.8321 10.688C10.0852 9.94092 9.07633 9.5147 8.02006 9.5H7.98006C6.9237 9.51449 5.91468 9.94057 5.16765 10.6876C4.42062 11.4346 3.99455 12.4436 3.98006 13.5C3.96706 14.25 4.17806 14.987 4.58606 15.617L7.73406 22H8.26706L11.4141 15.617C11.8231 14.987 12.0341 14.25 12.0201 13.5C12.0054 12.4437 11.5791 11.4349 10.8321 10.688ZM7.92506 10.5L8.00706 10.51L8.08106 10.5C8.86663 10.5342 9.60924 10.8681 10.1562 11.4329C10.7033 11.9978 11.0131 12.7507 11.0221 13.537C11.0297 14.095 10.8668 14.6421 10.5551 15.105L10.5351 15.139L10.5181 15.174L8.00006 20.279L5.48306 15.179L5.46606 15.14L5.44606 15.106C5.13434 14.6431 4.97141 14.096 4.97906 13.538C4.98759 12.7508 5.29778 11.9969 5.84571 11.4317C6.39364 10.8665 7.13753 10.533 7.92406 10.5H7.92506ZM8.53706 12.669C8.42786 12.596 8.30536 12.5452 8.17653 12.5195C8.04771 12.4939 7.91509 12.4938 7.78625 12.5194C7.65741 12.545 7.53487 12.5957 7.42563 12.6686C7.31638 12.7416 7.22257 12.8353 7.14956 12.9445C7.07654 13.0537 7.02575 13.1762 7.00008 13.305C6.97441 13.4338 6.97437 13.5665 6.99995 13.6953C7.02553 13.8241 7.07624 13.9467 7.14918 14.0559C7.22212 14.1652 7.31587 14.259 7.42506 14.332C7.64559 14.4795 7.91566 14.5333 8.17587 14.4816C8.43607 14.4299 8.6651 14.277 8.81256 14.0565C8.96002 13.836 9.01384 13.5659 8.96217 13.3057C8.9105 13.0455 8.75759 12.8165 8.53706 12.669ZM6.87006 11.837C7.08825 11.6836 7.33492 11.5754 7.59554 11.5188C7.85617 11.4622 8.12549 11.4582 8.38766 11.5072C8.64982 11.5562 8.89954 11.6572 9.12212 11.8041C9.3447 11.9511 9.53563 12.141 9.6837 12.3629C9.83177 12.5847 9.93397 12.8339 9.98429 13.0958C10.0346 13.3577 10.032 13.6271 9.97673 13.888C9.92142 14.1489 9.81448 14.3961 9.6622 14.6151C9.50993 14.834 9.3154 15.0203 9.09006 15.163C8.64896 15.4423 8.11615 15.538 7.60542 15.4297C7.0947 15.3214 6.64657 15.0177 6.35673 14.5835C6.0669 14.1493 5.95834 13.6189 6.05426 13.1058C6.15017 12.5926 6.44295 12.1372 6.87006 11.837Z" fill="white"/>
</svg>
