<svg width="30" height="31" viewBox="0 0 30 31" fill="none" xmlns="http://www.w3.org/2000/svg">
<path d="M0.0162913 21.0672C-0.129289 21.6315 0.744799 21.8475 0.89038 21.2824C1.03602 20.718 0.161932 20.5019 0.0162913 21.0672ZM14.9083 13.6958H5.98027C5.41843 13.6958 5.41777 14.5269 5.98027 14.5269H14.9083C15.4699 14.5269 15.4708 13.6958 14.9083 13.6958ZM5.98027 11.2028H12.9951C13.5568 11.2028 13.5576 10.3718 12.9951 10.3718H5.98027C5.74533 10.3718 5.55509 10.558 5.55509 10.7874C5.55509 11.0169 5.74533 11.2028 5.98027 11.2028ZM15.7586 10.3718C15.1967 10.3718 15.1961 11.2028 15.7586 11.2028H17.4592C18.0208 11.2028 18.0216 10.3718 17.4592 10.3718H15.7586ZM19.5849 7.04785H5.98027C5.41843 7.04785 5.41777 7.87885 5.98027 7.87885H19.5849C20.1465 7.87885 20.1474 7.04785 19.5849 7.04785ZM28.9088 5.56036C28.5863 5.24518 28.0623 5.24542 27.7403 5.56036L27.2298 6.05916L28.3984 7.20115L28.9088 6.70235C29.2306 6.38741 29.2308 5.8753 28.9088 5.56036ZM27.452 8.12607L27.7972 7.78869L26.6287 6.64688L26.2134 7.05262C26.6434 7.3042 26.7894 7.47851 27.452 8.12607ZM26.8506 8.71355C26.1935 8.07118 26.0367 7.8749 25.5871 7.66467L18.6766 14.4186L19.8449 15.5604L26.8506 8.71355ZM14.7686 19.4819L16.084 19.1131L15.0605 18.1128L14.7686 19.4819ZM19.2437 16.1479L18.0754 15.0061L15.5796 17.4451L16.7481 18.5871L19.2437 16.1479ZM29.5099 7.28983L28.0531 8.71378L28.2442 8.90035C28.6413 9.28843 28.0406 9.87698 27.6431 9.48783L27.452 9.30127C27.3311 9.41929 16.7645 19.7872 16.6002 19.8332L14.4313 20.441L13.8782 20.9816C13.4807 21.3699 12.8789 20.7826 13.2768 20.3939L13.8184 19.865L14.2972 17.6194C14.3375 17.4305 13.7304 18.0773 24.6144 7.44006C24.0028 7.43052 23.3882 7.65153 22.9227 8.10651C20.1027 10.8627 20.2474 10.7865 20.0045 10.7865C19.6295 10.7865 19.4353 10.34 19.7039 10.0773L22.3215 7.51903C23.1448 6.71442 24.3097 6.446 25.3643 6.70753L27.1391 4.97281C27.7925 4.33398 28.8562 4.33357 29.5099 4.97281C30.1634 5.61147 30.1634 6.65082 29.5099 7.28983ZM8.01924 19.5409C4.78219 21.8215 5.94134 24.5146 6.68129 24.4448C7.39299 24.3825 8.36656 22.0432 8.01924 19.5409ZM9.6675 23.8394C10.4 22.8701 10.7789 21.624 10.7062 20.4211C10.6303 19.1568 10.0425 18.5659 8.80788 19.0917C9.04806 20.4298 8.96901 21.8272 8.56897 23.1252C6.86454 28.6543 1.89118 22.3004 7.8428 18.6553C7.69505 18.0902 7.43023 17.2494 6.86219 17.0719C6.6384 17.0024 6.51487 16.7684 6.58627 16.5499C6.78355 15.9443 8.03328 16.2243 8.61741 18.2696C10.9072 17.395 11.9155 19.4048 11.4595 21.8126C12.0114 22.0769 12.1336 22.9854 12.3765 23.3558C12.6637 22.918 12.7807 21.7384 13.6269 21.7384C14.4744 21.7384 14.5911 22.9208 14.8783 23.3562C15.1657 22.9208 15.2824 21.7384 16.1303 21.7384C17.0338 21.7384 17.1278 23.1123 17.4181 23.4019C17.9557 23.4453 17.9224 24.2315 17.3824 24.2315C16.5347 24.2315 16.4178 23.049 16.1303 22.6135C15.8427 23.0491 15.7261 24.2315 14.8781 24.2315C14.0312 24.2315 13.9145 23.0514 13.6271 22.6141C13.3403 23.0506 13.2237 24.2315 12.3768 24.2315C11.6193 24.2315 11.4519 23.2958 11.2016 22.7566C10.9976 23.3209 10.7121 23.856 10.3516 24.3332C10.2119 24.5177 9.94559 24.557 9.75705 24.4205C9.56802 24.2844 9.52807 24.0241 9.6675 23.8394ZM27.493 10.3482L26.7741 23.7239C26.7618 23.9529 26.9418 24.1486 27.1763 24.1604C27.4089 24.1729 27.6108 23.9977 27.6231 23.7674L28.342 10.3916C28.3714 9.84624 27.5224 9.79429 27.493 10.3482ZM27.1327 26.784H11.2453C11.129 28.2113 10.4152 29.4161 9.33634 30.1668H23.3451C25.3747 30.1668 26.938 28.7394 27.1327 26.784ZM28.0034 26.3686C28.0034 29.0076 26.0008 30.9978 23.3451 30.9978C23.2363 30.9978 6.23004 31.0101 6.1267 30.976C3.81326 30.761 1.94517 28.9609 1.94517 26.5362V3.75768C1.94517 3.52837 2.13564 3.34222 2.37034 3.34222H5.5234L5.682 0.393845C5.69435 0.164528 5.8935 -0.0114332 6.1288 0.000580309L28.4134 1.14469C28.6479 1.1567 28.828 1.35222 28.8157 1.58136L28.7193 3.37172C28.707 3.60063 28.506 3.77494 28.2725 3.76475C28.0381 3.75292 27.858 3.55722 27.8704 3.32826L27.9443 1.95277L6.50873 0.852362L6.37477 3.34222H24.7553C24.99 3.34222 25.1804 3.52837 25.1804 3.75768V5.9316C25.1804 6.16115 24.99 6.34707 24.7553 6.34707C24.5204 6.34707 24.3302 6.16115 24.3302 5.9316V4.17321H2.79545C2.79545 4.22303 2.79588 26.4937 2.79485 26.5431C2.90115 31.3761 10.4117 31.4036 10.4117 26.3686C10.4117 26.1392 10.6022 25.953 10.8369 25.953H27.5782C27.8132 25.953 28.0034 26.1392 28.0034 26.3686ZM0.878505 19.0973V6.2168C0.878505 5.66795 0.028225 5.66713 0.028225 6.2168V19.0973C0.028225 19.6464 0.878505 19.6473 0.878505 19.0973ZM24.3302 23.9012V13.2014C24.3302 12.6525 25.1804 12.6517 25.1804 13.2014V23.9012C25.1804 24.4502 24.3302 24.4511 24.3302 23.9012Z" fill="#3F4143"/>
</svg>
